<svg xmlns="http://www.w3.org/2000/svg" xmlns:xlink="http://www.w3.org/1999/xlink" viewBox="0 0 113.47 90.11"><defs><style>.cls-1{fill:none;}.cls-2{isolation:isolate;}.cls-3{clip-path:url(#clip-path);}.cls-4{fill:#15aeb0;}.cls-5{clip-path:url(#clip-path-2);}.cls-6{fill:#18b4b6;}.cls-7{fill:#19b6b8;}.cls-8{fill:#19b8ba;}.cls-9{fill:#1ababc;}.cls-10{fill:#1bbcbe;}.cls-11{fill:#1cbec0;}.cls-12{fill:#1dc0c3;}.cls-13{fill:#1ec2c5;}.cls-14{fill:#15adae;}.cls-15{fill:#20c7ca;}.cls-16{fill:#23d0d3;}.cls-17{clip-path:url(#clip-path-3);}.cls-18{fill:#17b2b4;}.cls-19{fill:#16b0b2;}</style><clipPath id="clip-path"><path class="cls-1" d="M0,29.06.07,4.6a2.72,2.72,0,0,0,.09.69L.09,29.74A2.71,2.71,0,0,1,0,29.06Z"/></clipPath><clipPath id="clip-path-2"><path class="cls-1" d="M113.47,12.74l-.07,24.45c0,1.14-.73,2.3-2.33,3.23L111.14,16C112.74,15,113.47,13.88,113.47,12.74Z"/></clipPath><clipPath id="clip-path-3"><path class="cls-1" d="M28,64.3,27.9,88.75a12.48,12.48,0,0,1-11.34,0,4.47,4.47,0,0,1-2.25-2.62l.07-24.46a4.42,4.42,0,0,0,2.25,2.62A12.45,12.45,0,0,0,28,64.3Z"/></clipPath></defs><g id="レイヤー_2" data-name="レイヤー 2"><g id="レイヤー_1-2" data-name="レイヤー 1"><g class="cls-2"><g class="cls-2"><g class="cls-3"><g class="cls-2"><path class="cls-4" d="M.16,5.29.09,29.74A2.71,2.71,0,0,1,0,29.06L.07,4.6a2.72,2.72,0,0,0,.09.69"/></g></g></g><g class="cls-2"><g class="cls-5"><g class="cls-2"><path class="cls-6" d="M113.47,12.74l-.07,24.45v.07l.07-24.45v-.07"/><path class="cls-7" d="M113.47,12.81l-.07,24.45a2.49,2.49,0,0,1-.05.46l.07-24.46a3.44,3.44,0,0,0,0-.45"/><path class="cls-8" d="M113.42,13.26l-.07,24.46a2.71,2.71,0,0,1-.13.44l.07-24.46a2.44,2.44,0,0,0,.13-.44"/><path class="cls-9" d="M113.29,13.7l-.07,24.46a2.49,2.49,0,0,1-.21.44l.07-24.46a2,2,0,0,0,.21-.44"/><path class="cls-10" d="M113.08,14.14,113,38.6a2.65,2.65,0,0,1-.31.46l.07-24.45a3.46,3.46,0,0,0,.31-.47"/><path class="cls-11" d="M112.77,14.61l-.07,24.45a4.81,4.81,0,0,1-.49.53l.07-24.45a4.81,4.81,0,0,0,.49-.53"/><path class="cls-12" d="M112.28,15.14l-.07,24.45a6.24,6.24,0,0,1-1,.77l.07-24.46a6.21,6.21,0,0,0,1-.76"/><path class="cls-13" d="M111.24,15.9l-.07,24.46-.1.06L111.14,16l.1-.06"/></g></g></g><polygon class="cls-14" points="14.38 61.67 14.31 86.13 0.09 29.75 0.15 5.29 14.38 61.67"/><polygon class="cls-15" points="111.14 15.96 111.07 40.42 27.9 88.75 27.97 64.3 111.14 15.96"/><path class="cls-16" d="M111.09,9.39c2.94,1.7,3.39,4.64,0,6.57L28,64.3a12.45,12.45,0,0,1-11.34,0,4.42,4.42,0,0,1-2.25-2.62L.16,5.29C-.61,2.23,3.9-.39,9.17.05l97.4,8A10.93,10.93,0,0,1,111.09,9.39Z"/><g class="cls-2"><g class="cls-17"><g class="cls-2"><path class="cls-13" d="M28,64.3,27.9,88.75a9.34,9.34,0,0,1-1.79.79l.07-24.46A8.73,8.73,0,0,0,28,64.3"/><path class="cls-12" d="M26.18,65.08l-.07,24.46a11.43,11.43,0,0,1-1.48.37l.07-24.46a10.33,10.33,0,0,0,1.48-.37"/><path class="cls-11" d="M24.7,65.45l-.07,24.46c-.32.06-.66.1-1,.14l.07-24.46c.33,0,.66-.08,1-.14"/><path class="cls-10" d="M23.71,65.59l-.07,24.46c-.29,0-.59,0-.88.06l.07-24.46c.29,0,.59,0,.88-.06"/><path class="cls-9" d="M22.83,65.65l-.07,24.46q-.41,0-.81,0L22,65.65h.81"/><path class="cls-8" d="M22,65.65,22,90.11l-.79,0,.07-24.46c.26,0,.52,0,.79,0"/><path class="cls-7" d="M21.23,65.61l-.07,24.46-.8-.09.07-24.46c.26,0,.53.07.8.09"/><path class="cls-6" d="M20.43,65.52,20.36,90l-.81-.14.07-24.46c.27.06.54.1.81.14"/><path class="cls-18" d="M19.62,65.38l-.07,24.46c-.29-.06-.58-.13-.86-.21l.07-24.46c.28.08.57.15.86.21"/><path class="cls-19" d="M18.76,65.17l-.07,24.46c-.34-.1-.67-.21-1-.34l.07-24.45q.46.18,1,.33"/><path class="cls-4" d="M17.77,64.84,17.7,89.29a8.59,8.59,0,0,1-1.14-.54,4.47,4.47,0,0,1-2.25-2.62l.07-24.46a4.42,4.42,0,0,0,2.25,2.62,8.61,8.61,0,0,0,1.14.55"/></g></g></g></g></g></g></svg>