<svg xmlns="http://www.w3.org/2000/svg" xmlns:xlink="http://www.w3.org/1999/xlink" viewBox="0 0 113.38 90.11"><defs><style>.cls-1{fill:none;}.cls-2{isolation:isolate;}.cls-3{clip-path:url(#clip-path);}.cls-4{fill:#18b4b6;}.cls-5{fill:#19b6b8;}.cls-6{fill:#19b8ba;}.cls-7{fill:#1ababc;}.cls-8{fill:#1bbcbe;}.cls-9{fill:#1cbec0;}.cls-10{fill:#1dc0c3;}.cls-11{fill:#1ec2c5;}.cls-12{clip-path:url(#clip-path-2);}.cls-13{fill:#17b2b4;}.cls-14{fill:#16b0b2;}.cls-15{fill:#15aeb0;}.cls-16{fill:#23d0d3;}</style><clipPath id="clip-path"><path class="cls-1" d="M113.38,53l-.07,24.45c0,2.16-2.6,4.24-6.85,4.59l.07-24.45C110.77,57.2,113.37,55.12,113.38,53Z"/></clipPath><clipPath id="clip-path-2"><path class="cls-1" d="M0,85.47.07,61A4,4,0,0,0,2.43,64.3a12,12,0,0,0,6.8,1.31L9.16,90.07a11.94,11.94,0,0,1-6.79-1.31A4,4,0,0,1,0,85.47Z"/></clipPath></defs><g id="レイヤー_2" data-name="レイヤー 2"><g id="レイヤー_1-2" data-name="レイヤー 1"><g class="cls-2"><g class="cls-2"><g class="cls-3"><g class="cls-2"><path class="cls-4" d="M113.38,53l-.07,24.45v.07L113.38,53V53"/><path class="cls-5" d="M113.38,53l-.07,24.45a3.41,3.41,0,0,1,0,.46l.06-24.45a2.53,2.53,0,0,0,.06-.46"/><path class="cls-6" d="M113.32,53.5,113.26,78a3.5,3.5,0,0,1-.14.46L113.19,54a2.54,2.54,0,0,0,.13-.45"/><path class="cls-7" d="M113.19,54l-.07,24.46a3.23,3.23,0,0,1-.21.47L113,54.42a4,4,0,0,0,.21-.47"/><path class="cls-8" d="M113,54.42l-.07,24.46c-.1.16-.21.33-.33.49l.06-24.46a3.91,3.91,0,0,0,.34-.49"/><path class="cls-9" d="M112.64,54.91l-.06,24.46a6.67,6.67,0,0,1-.52.55l.07-24.45a5.27,5.27,0,0,0,.51-.56"/><path class="cls-10" d="M112.13,55.47l-.07,24.45a6.39,6.39,0,0,1-1,.76l.07-24.46a6.35,6.35,0,0,0,1-.75"/><path class="cls-11" d="M111.1,56.22,111,80.68a8.65,8.65,0,0,1-1.76.78L109.34,57a8.66,8.66,0,0,0,1.76-.79"/><path class="cls-10" d="M109.34,57l-.07,24.45a10.46,10.46,0,0,1-1.49.38l.07-24.46a10.47,10.47,0,0,0,1.49-.37"/><path class="cls-9" d="M107.85,57.38l-.07,24.46c-.35.06-.7.11-1.08.15l.07-24.46a9.36,9.36,0,0,0,1.08-.15"/><path class="cls-8" d="M106.77,57.53,106.7,82l-.24,0,.07-24.45.24,0"/></g></g></g><polygon class="cls-11" points="106.53 57.56 106.46 82.01 9.16 90.07 9.23 65.61 106.53 57.56"/><g class="cls-2"><g class="cls-12"><g class="cls-2"><path class="cls-8" d="M9.23,65.61,9.16,90.07l-.69,0,.07-24.46.69,0"/><path class="cls-7" d="M8.54,65.65,8.47,90.11c-.27,0-.55,0-.81,0l.06-24.46h.82"/><path class="cls-6" d="M7.72,65.65,7.66,90.11l-.78,0L7,65.61c.26,0,.51,0,.77,0"/><path class="cls-5" d="M7,65.61,6.88,90.07c-.26,0-.51,0-.76-.09l.07-24.45.76.08"/><path class="cls-4" d="M6.19,65.53,6.12,90c-.27,0-.53-.08-.78-.13l.07-24.46c.25.06.51.1.78.14"/><path class="cls-13" d="M5.41,65.39,5.34,89.85q-.44-.09-.84-.21l.07-24.45.84.2"/><path class="cls-14" d="M4.57,65.19,4.5,89.64a10,10,0,0,1-1-.32L3.6,64.86c.31.12.63.23,1,.33"/><path class="cls-15" d="M3.6,64.86,3.53,89.32a9.63,9.63,0,0,1-1.16-.56A4,4,0,0,1,0,85.47L.07,61A4,4,0,0,0,2.43,64.3a7.91,7.91,0,0,0,1.17.56"/></g></g></g><path class="cls-16" d="M111,49.69c4.67,2.7,2,7.32-4.48,7.87l-97.3,8a12,12,0,0,1-6.8-1.31c-1.7-1-2.65-2.4-2.28-3.93L13.74,4C14.65.2,22.62-1.34,27.3,1.36Z"/></g></g></g></svg>