<svg xmlns="http://www.w3.org/2000/svg" xmlns:xlink="http://www.w3.org/1999/xlink" viewBox="0 0 113.38 90.11"><defs><style>.cls-1{fill:none;}.cls-2{isolation:isolate;}.cls-3{clip-path:url(#clip-path);}.cls-4{fill:#18b4b6;}.cls-5{fill:#19b6b8;}.cls-6{fill:#19b8ba;}.cls-7{clip-path:url(#clip-path-2);}.cls-8{fill:#15aeb0;}.cls-9{fill:#1ab9bb;}.cls-10{fill:#16b0b1;}.cls-11{fill:#23d0d3;}.cls-12{clip-path:url(#clip-path-3);}.cls-13{fill:#1ababc;}.cls-14{fill:#1bbcbe;}.cls-15{fill:#1cbec0;}.cls-16{fill:#1dc0c3;}.cls-17{fill:#1ec2c5;}.cls-18{fill:#17b2b4;}.cls-19{fill:#16b0b2;}</style><clipPath id="clip-path"><path class="cls-1" d="M113.38,4.65l-.07,24.45a2.8,2.8,0,0,1-.08.64l.07-24.45A2.87,2.87,0,0,0,113.38,4.65Z"/></clipPath><clipPath id="clip-path-2"><path class="cls-1" d="M0,37.15.07,12.69C.07,13.85.81,15,2.44,16L2.37,40.42C.74,39.48,0,38.3,0,37.15Z"/></clipPath><clipPath id="clip-path-3"><path class="cls-1" d="M99.71,61.68l-.07,24.45c-.91,3.78-8.88,5.32-13.56,2.62l.07-24.45C90.83,67,98.8,65.46,99.71,61.68Z"/></clipPath></defs><g id="レイヤー_2" data-name="レイヤー 2"><g id="レイヤー_1-2" data-name="レイヤー 1"><g class="cls-2"><g class="cls-2"><g class="cls-3"><g class="cls-2"><path class="cls-4" d="M113.38,4.65l-.07,24.45v.07l.07-24.45V4.65"/><path class="cls-5" d="M113.38,4.72l-.07,24.45a2.52,2.52,0,0,1-.06.47l.07-24.46a2.42,2.42,0,0,0,.06-.46"/><path class="cls-6" d="M113.32,5.18l-.07,24.46a.36.36,0,0,1,0,.1l.07-24.45a.43.43,0,0,0,0-.11"/></g></g></g><g class="cls-2"><g class="cls-7"><g class="cls-2"><path class="cls-8" d="M2.44,16,2.37,40.42C.74,39.48,0,38.3,0,37.15L.07,12.69C.07,13.85.81,15,2.44,16"/></g></g></g><polygon class="cls-9" points="113.3 5.29 113.23 29.75 99.64 86.13 99.71 61.68 113.3 5.29"/><polygon class="cls-10" points="86.15 64.3 86.08 88.75 2.37 40.42 2.44 15.97 86.15 64.3"/><path class="cls-11" d="M111,1.36c1.71,1,2.66,2.4,2.29,3.93L99.71,61.68C98.8,65.46,90.83,67,86.15,64.3L2.44,16c-4.68-2.7-2-7.33,4.48-7.87l97.3-8A11.86,11.86,0,0,1,111,1.36Z"/><g class="cls-2"><g class="cls-12"><g class="cls-2"><path class="cls-6" d="M99.71,61.68l-.07,24.45a2.26,2.26,0,0,1-.11.37L99.6,62a2.47,2.47,0,0,0,.11-.36"/><path class="cls-13" d="M99.6,62,99.53,86.5a2.77,2.77,0,0,1-.22.46l.07-24.45A2.86,2.86,0,0,0,99.6,62"/><path class="cls-14" d="M99.38,62.51,99.31,87a3.08,3.08,0,0,1-.32.48L99.06,63a4.45,4.45,0,0,0,.32-.48"/><path class="cls-15" d="M99.06,63,99,87.44a4.88,4.88,0,0,1-.49.53l.07-24.46a4.79,4.79,0,0,0,.49-.52"/><path class="cls-16" d="M98.57,63.51,98.5,88a6.41,6.41,0,0,1-1,.74l.07-24.45a7.15,7.15,0,0,0,1-.75"/><path class="cls-17" d="M97.56,64.26l-.07,24.45a8.78,8.78,0,0,1-1.81.8l.07-24.45a10,10,0,0,0,1.81-.8"/><path class="cls-16" d="M95.75,65.06l-.07,24.45a12.11,12.11,0,0,1-1.55.39l.07-24.46a10.64,10.64,0,0,0,1.55-.38"/><path class="cls-15" d="M94.2,65.44,94.13,89.9q-.51.09-1,.15l.07-24.46c.36,0,.71-.08,1-.15"/><path class="cls-14" d="M93.15,65.59l-.07,24.46c-.29,0-.59,0-.9.06l.07-24.46q.47,0,.9-.06"/><path class="cls-13" d="M92.25,65.65l-.07,24.46c-.27,0-.54,0-.82,0l.07-24.45h.82"/><path class="cls-6" d="M91.43,65.66l-.07,24.45-.77,0,.07-24.46.77,0"/><path class="cls-5" d="M90.66,65.61l-.07,24.46c-.26,0-.51,0-.77-.09l.07-24.45.77.08"/><path class="cls-4" d="M89.89,65.53,89.82,90c-.26,0-.51-.08-.77-.13l.07-24.46c.26.06.51.1.77.14"/><path class="cls-18" d="M89.12,65.39l-.07,24.46-.82-.2.07-24.46a7.54,7.54,0,0,0,.82.2"/><path class="cls-19" d="M88.3,65.19l-.07,24.46a10.28,10.28,0,0,1-1-.34l.07-24.45a8.06,8.06,0,0,0,1,.33"/><path class="cls-8" d="M87.32,64.86l-.07,24.45a9,9,0,0,1-1.17-.56l.07-24.45a9,9,0,0,0,1.17.56"/></g></g></g></g></g></g></svg>