<svg xmlns="http://www.w3.org/2000/svg" xmlns:xlink="http://www.w3.org/1999/xlink" viewBox="0 0 113.47 90.11"><defs><style>.cls-1{fill:none;}.cls-2{isolation:isolate;}.cls-3{clip-path:url(#clip-path);}.cls-4{fill:#19b6b8;}.cls-5{fill:#18b4b6;}.cls-6{fill:#17b2b4;}.cls-7{fill:#16b0b2;}.cls-8{fill:#15aeb0;}.cls-9{fill:#1bbdbf;}.cls-10{clip-path:url(#clip-path-2);}.cls-11{fill:#19b8ba;}.cls-12{fill:#1ababc;}.cls-13{fill:#1bbcbe;}.cls-14{fill:#1cbec0;}.cls-15{fill:#1dc0c3;}.cls-16{fill:#1ec2c5;}.cls-17{fill:#23d0d3;}</style><clipPath id="clip-path"><path class="cls-1" d="M0,77.38.07,52.92a4.11,4.11,0,0,0,2.38,3.35A11.09,11.09,0,0,0,7,57.56L6.9,82a10.93,10.93,0,0,1-4.52-1.29A4.09,4.09,0,0,1,0,77.38Z"/></clipPath><clipPath id="clip-path-2"><path class="cls-1" d="M113.47,61.06l-.07,24.45c0,2.75-4.23,5-9.1,4.56l.06-24.46C109.24,66,113.46,63.81,113.47,61.06Z"/></clipPath></defs><g id="レイヤー_2" data-name="レイヤー 2"><g id="レイヤー_1-2" data-name="レイヤー 1"><g class="cls-2"><g class="cls-2"><g class="cls-3"><g class="cls-2"><path class="cls-4" d="M7,57.56,6.9,82q-.42,0-.81-.09l.07-24.45.81.09"/><path class="cls-5" d="M6.16,57.47,6.09,81.92c-.27,0-.54-.08-.8-.14l.07-24.45.8.14"/><path class="cls-6" d="M5.36,57.33,5.29,81.78l-.83-.2.07-24.46c.26.08.54.15.83.21"/><path class="cls-7" d="M4.53,57.12,4.46,81.58c-.33-.1-.65-.2-1-.32l.07-24.45c.3.11.62.22,1,.31"/><path class="cls-8" d="M3.58,56.81,3.51,81.26a9.08,9.08,0,0,1-1.13-.54A4.09,4.09,0,0,1,0,77.38L.07,52.92a4.11,4.11,0,0,0,2.38,3.35,9.88,9.88,0,0,0,1.13.54"/></g></g></g><polygon class="cls-9" points="104.36 65.61 104.3 90.07 6.9 82.01 6.97 57.56 104.36 65.61"/><g class="cls-2"><g class="cls-10"><g class="cls-2"><path class="cls-5" d="M113.47,61.06l-.07,24.45v.07l.07-24.45v-.07"/><path class="cls-4" d="M113.47,61.13l-.07,24.45a2.31,2.31,0,0,1-.05.46l.07-24.46a3.44,3.44,0,0,0,0-.45"/><path class="cls-11" d="M113.42,61.58,113.35,86a3.19,3.19,0,0,1-.13.44L113.29,62a3.81,3.81,0,0,0,.13-.45"/><path class="cls-12" d="M113.29,62l-.07,24.45a4.54,4.54,0,0,1-.21.45l.07-24.45a4.54,4.54,0,0,0,.21-.45"/><path class="cls-13" d="M113.08,62.48,113,86.93a3.55,3.55,0,0,1-.32.47L112.76,63a3.55,3.55,0,0,0,.32-.47"/><path class="cls-14" d="M112.76,63l-.07,24.45a5.2,5.2,0,0,1-.51.55l.07-24.46a4.3,4.3,0,0,0,.51-.54"/><path class="cls-15" d="M112.25,63.49,112.18,88a6.16,6.16,0,0,1-1,.75l.07-24.45a6.2,6.2,0,0,0,1-.76"/><path class="cls-16" d="M111.24,64.25l-.07,24.45a9.29,9.29,0,0,1-1.88.84l.07-24.46a8.75,8.75,0,0,0,1.88-.83"/><path class="cls-15" d="M109.36,65.08l-.07,24.46a12.31,12.31,0,0,1-1.48.37l.07-24.46a10.67,10.67,0,0,0,1.48-.37"/><path class="cls-14" d="M107.88,65.45l-.07,24.46c-.33.06-.67.1-1,.14l.07-24.46c.34,0,.68-.08,1-.14"/><path class="cls-13" d="M106.87,65.59l-.07,24.46c-.29,0-.58,0-.88.06L106,65.65c.3,0,.59,0,.88-.06"/><path class="cls-12" d="M106,65.65l-.07,24.46q-.4,0-.81,0l.07-24.46H106"/><path class="cls-11" d="M105.18,65.65l-.07,24.46-.81,0,.07-24.46c.27,0,.54,0,.81,0"/><polyline class="cls-4" points="104.37 65.61 104.31 90.07 104.3 90.07 104.36 65.61 104.37 65.61"/></g></g></g><path class="cls-17" d="M96.92,1.37A4.41,4.41,0,0,1,99.16,4l14.22,56.39c.77,3.06-3.74,5.68-9,5.24L7,57.56a11.09,11.09,0,0,1-4.52-1.29c-2.94-1.7-3.39-4.64-.05-6.58L85.57,1.36A12.47,12.47,0,0,1,96.92,1.37Z"/></g></g></g></svg>