<svg xmlns="http://www.w3.org/2000/svg" xmlns:xlink="http://www.w3.org/1999/xlink" viewBox="0 0 71.35 63.23"><defs><style>.cls-1{fill:none;}.cls-2{isolation:isolate;}.cls-3{clip-path:url(#clip-path);}.cls-4{fill:#e1e1e1;}.cls-5{fill:#e0e0e0;}.cls-6{fill:#dedede;}.cls-7{fill:#ddd;}.cls-8{fill:#dbdbdb;}.cls-9{clip-path:url(#clip-path-2);}.cls-10{fill:#e3e3e3;}.cls-11{clip-path:url(#clip-path-3);}.cls-12{fill:#e4e4e4;}.cls-13{fill:#e6e6e6;}.cls-14{fill:#e7e7e7;}.cls-15{fill:#f9f9f9;}.cls-16{clip-path:url(#clip-path-4);}</style><clipPath id="clip-path" transform="translate(0 0)"><path class="cls-1" d="M49.46,1.37,67.08,11.61a4.58,4.58,0,0,0-.54-.28C61,8.7,54.61,11.38,50.78,13.59L33.16,3.35C37,1.14,43.39-1.54,48.92,1.09,49.11,1.18,49.29,1.27,49.46,1.37Z"/></clipPath><clipPath id="clip-path-2" transform="translate(0 0)"><path class="cls-1" d="M47.37,15.86,29.75,5.62a27.36,27.36,0,0,1,3.41-2.27L50.78,13.59A27.36,27.36,0,0,0,47.37,15.86Z"/></clipPath><clipPath id="clip-path-3" transform="translate(0 0)"><path class="cls-1" d="M35.37,44.83,17.75,34.6A53.58,53.58,0,0,1,19.14,24,37.34,37.34,0,0,1,29.75,5.62L47.37,15.86A37.34,37.34,0,0,0,36.76,34.24,53.61,53.61,0,0,0,35.37,44.83Z"/></clipPath><clipPath id="clip-path-4" transform="translate(0 0)"><path class="cls-1" d="M17.47,34.41,35.09,44.65c-.82-.48-3.43-1.55-7.6.86A19.38,19.38,0,0,0,24,48.13a19.25,19.25,0,0,0-6.36,15.1L0,53a19.25,19.25,0,0,1,6.36-15.1,19.38,19.38,0,0,1,3.48-2.62C14,32.86,16.65,33.93,17.47,34.41Z"/></clipPath></defs><g id="レイヤー_2" data-name="レイヤー 2"><g id="レイヤー_1-2" data-name="レイヤー 1"><g class="cls-2"><g class="cls-2"><g class="cls-3"><g class="cls-2"><path class="cls-4" d="M50.78,13.59,33.16,3.35l.46-.27L51.24,13.32l-.46.27" transform="translate(0 0)"/><path class="cls-5" d="M51.24,13.32,33.62,3.08a32,32,0,0,1,3.15-1.52L54.39,11.8a32,32,0,0,0-3.15,1.52" transform="translate(0 0)"/><path class="cls-6" d="M54.39,11.8,36.77,1.56a22.62,22.62,0,0,1,3.2-1L57.59,10.75a22.62,22.62,0,0,0-3.2,1.05" transform="translate(0 0)"/><path class="cls-7" d="M57.59,10.75,40,.51A16.6,16.6,0,0,1,43.42,0L61,10.25a16.6,16.6,0,0,0-3.45.5" transform="translate(0 0)"/><path class="cls-8" d="M61,10.25,43.42,0a11.72,11.72,0,0,1,5.5,1.08c.19.09.37.18.54.28L67.08,11.61a4.58,4.58,0,0,0-.54-.28A11.74,11.74,0,0,0,61,10.25" transform="translate(0 0)"/></g></g></g><g class="cls-2"><g class="cls-9"><g class="cls-2"><path class="cls-10" d="M47.37,15.86,29.75,5.62s.38-.31,1-.74L48.37,15.12c-.62.43-1,.71-1,.74" transform="translate(0 0)"/><path class="cls-4" d="M48.37,15.12,30.75,4.88c.58-.41,1.4-.95,2.41-1.53L50.78,13.59c-1,.58-1.83,1.12-2.41,1.53" transform="translate(0 0)"/></g></g></g><g class="cls-2"><g class="cls-11"><g class="cls-2"><path class="cls-5" d="M35.37,44.83,17.75,34.6v-.13L35.37,44.71v.12" transform="translate(0 0)"/><path class="cls-4" d="M35.37,44.71,17.75,34.47A34.78,34.78,0,0,1,18,30.8L35.63,41a34.78,34.78,0,0,0-.26,3.67" transform="translate(0 0)"/><path class="cls-10" d="M35.63,41,18,30.8c.19-1.69.51-3.91,1.08-6.58L36.71,34.46c-.57,2.67-.89,4.89-1.08,6.58" transform="translate(0 0)"/><path class="cls-12" d="M36.71,34.46,19.09,24.22c0-.08,0-.15.05-.22A31.71,31.71,0,0,1,20,20.91L37.59,31.15a31.71,31.71,0,0,0-.83,3.09c0,.07,0,.14,0,.22" transform="translate(0 0)"/><path class="cls-13" d="M37.59,31.15,20,20.91a35.28,35.28,0,0,1,2.48-5.75L40.07,25.4a35.28,35.28,0,0,0-2.48,5.75" transform="translate(0 0)"/><path class="cls-14" d="M40.07,25.4,22.45,15.16c.47-.86,1-1.67,1.44-2.43L41.51,23c-.48.76-1,1.57-1.44,2.43" transform="translate(0 0)"/><path class="cls-13" d="M41.51,23,23.89,12.73a39.94,39.94,0,0,1,4.38-5.64L45.89,17.33A39.94,39.94,0,0,0,41.51,23" transform="translate(0 0)"/><path class="cls-12" d="M45.89,17.33,28.27,7.09c.82-.87,1.37-1.38,1.48-1.47L47.37,15.86c-.11.09-.66.6-1.48,1.47" transform="translate(0 0)"/></g></g></g><path class="cls-15" d="M50.78,13.59C54.61,11.38,61,8.7,66.54,11.33c8.54,4.05,3.16,21.11,2.88,22L17.65,63.23A19.25,19.25,0,0,1,24,48.13a19.38,19.38,0,0,1,3.48-2.62c5-2.88,7.73-.79,7.88-.68a53.61,53.61,0,0,1,1.39-10.59A37.34,37.34,0,0,1,47.37,15.86,27.36,27.36,0,0,1,50.78,13.59Z" transform="translate(0 0)"/><g class="cls-2"><g class="cls-16"><g class="cls-2"><path class="cls-5" d="M17.65,63.23,0,53c0-.09,0-.47,0-1.08L17.62,62.15c0,.61,0,1,0,1.08" transform="translate(0 0)"/><path class="cls-4" d="M17.62,62.15,0,51.91c0-.46,0-1.06.11-1.76L17.73,60.39a15.82,15.82,0,0,0-.11,1.76" transform="translate(0 0)"/><path class="cls-10" d="M17.73,60.39.11,50.15c.06-.56.16-1.18.3-1.85L18,58.54c-.14.67-.24,1.29-.3,1.85" transform="translate(0 0)"/><path class="cls-12" d="M18,58.54.41,48.3a18.26,18.26,0,0,1,.54-2L18.57,56.54a18.26,18.26,0,0,0-.54,2" transform="translate(0 0)"/><path class="cls-13" d="M18.57,56.54,1,46.3A18.6,18.6,0,0,1,2.35,43L20,53.28a18.6,18.6,0,0,0-1.4,3.26" transform="translate(0 0)"/><path class="cls-14" d="M20,53.28,2.35,43q.31-.59.69-1.17L20.66,52.11q-.37.59-.69,1.17" transform="translate(0 0)"/><path class="cls-13" d="M20.66,52.11,3,41.87A19.87,19.87,0,0,1,5.29,39L22.91,49.22a19.87,19.87,0,0,0-2.25,2.89" transform="translate(0 0)"/><path class="cls-12" d="M22.91,49.22,5.29,39c.34-.37.71-.73,1.1-1.09.22-.2.43-.4.65-.58L24.66,47.55c-.22.18-.43.38-.65.58-.39.36-.76.72-1.1,1.09" transform="translate(0 0)"/><path class="cls-10" d="M24.66,47.55,7,37.31c.56-.48,1.1-.9,1.63-1.27L26.29,46.28a18.66,18.66,0,0,0-1.63,1.27" transform="translate(0 0)"/><path class="cls-4" d="M26.29,46.28,8.67,36a14.08,14.08,0,0,1,1.2-.77l.22-.13L27.71,45.38l-.22.13a14.08,14.08,0,0,0-1.2.77" transform="translate(0 0)"/><path class="cls-5" d="M27.71,45.38,10.09,35.14a12.82,12.82,0,0,1,1.41-.68L29.12,44.7a12.82,12.82,0,0,0-1.41.68" transform="translate(0 0)"/><path class="cls-6" d="M29.12,44.7,11.5,34.46A11.3,11.3,0,0,1,12.93,34L30.55,44.23a9.9,9.9,0,0,0-1.43.47" transform="translate(0 0)"/><path class="cls-7" d="M30.55,44.23,12.93,34a7.87,7.87,0,0,1,1.63-.23L32.18,44a7.87,7.87,0,0,0-1.63.23" transform="translate(0 0)"/><path class="cls-8" d="M32.18,44,14.56,33.76a5.42,5.42,0,0,1,2.91.65L35.09,44.65A5.42,5.42,0,0,0,32.18,44" transform="translate(0 0)"/></g></g></g></g></g></g></svg>