<svg xmlns="http://www.w3.org/2000/svg" xmlns:xlink="http://www.w3.org/1999/xlink" viewBox="0 0 183.9 118.12"><defs><style>.cls-1{fill:none;}.cls-2{isolation:isolate;}.cls-3{clip-path:url(#clip-path);}.cls-4{fill:#e7e7e7;}.cls-5{fill:#e6e6e6;}.cls-6{fill:#e4e4e4;}.cls-7{fill:#e3e3e3;}.cls-8{fill:#e1e1e1;}.cls-9{fill:#e0e0e0;}.cls-10{fill:#dedede;}.cls-11{fill:#ddd;}.cls-12{fill:#dbdbdb;}.cls-13{clip-path:url(#clip-path-2);}.cls-14{clip-path:url(#clip-path-3);}.cls-15{clip-path:url(#clip-path-4);}.cls-16{clip-path:url(#clip-path-5);}.cls-17{clip-path:url(#clip-path-6);}.cls-18{clip-path:url(#clip-path-7);}.cls-19{clip-path:url(#clip-path-8);}.cls-20{fill:#f9f9f9;}</style><clipPath id="clip-path" transform="translate(0 0)"><path class="cls-1" d="M163.45,4.52l17.62,10.23c-1-.59-2.42-.67-4.32.21-.79.36-1.53.75-2.21,1.14-5.49,3.17-7.61,6.85-7.72,7L149.2,12.91c.11-.2,2.23-3.88,7.72-7,.68-.39,1.42-.78,2.21-1.14C161,3.84,162.42,3.92,163.45,4.52Z"/></clipPath><clipPath id="clip-path-2" transform="translate(0 0)"><path class="cls-1" d="M145,.9l17.62,10.24c-2-1.14-4.81-1.35-9,.26a16.22,16.22,0,0,0-2.35,1.13c-.4.23-.8.48-1.2.76-5.66,3.86-13.42,11.78-16,21.36L116.55,24.41c2.53-9.58,10.29-17.5,16-21.36.4-.28.8-.53,1.2-.76a17.34,17.34,0,0,1,2.35-1.13C140.19-.45,143-.24,145,.9Z"/></clipPath><clipPath id="clip-path-3" transform="translate(0 0)"><path class="cls-1" d="M117.14,43.67,99.52,33.43a24.23,24.23,0,0,1,7.4-7,14.46,14.46,0,0,1,9.63-2l17.62,10.24a14.46,14.46,0,0,0-9.63,2A24.23,24.23,0,0,0,117.14,43.67Z"/></clipPath><clipPath id="clip-path-4" transform="translate(0 0)"><path class="cls-1" d="M94.63,26.72,112.25,37a8.18,8.18,0,0,0-5.79-1A22.08,22.08,0,0,0,100,38.62a51,51,0,0,0-7.65,5.5L74.68,33.88a51.67,51.67,0,0,1,7.65-5.5,22.08,22.08,0,0,1,6.51-2.67A8.18,8.18,0,0,1,94.63,26.72Z"/></clipPath><clipPath id="clip-path-5" transform="translate(0 0)"><path class="cls-1" d="M66.31,18.72,83.93,29A19.4,19.4,0,0,0,73,26.67,26.26,26.26,0,0,0,61.2,30.48L43.58,20.24a26.26,26.26,0,0,1,11.83-3.81A19.4,19.4,0,0,1,66.31,18.72Z"/></clipPath><clipPath id="clip-path-6" transform="translate(0 0)"><path class="cls-1" d="M17.87,118.12.25,107.88C-1.94,89.55,10.84,84.62,13,82.57L30.59,92.81C28.46,94.86,15.68,99.79,17.87,118.12Z"/></clipPath><clipPath id="clip-path-7" transform="translate(0 0)"><path class="cls-1" d="M38.29,54.07,20.67,43.84c.5-.81,9.84-16.06,22.91-23.6L61.2,30.48C48.13,38,38.79,53.27,38.29,54.07Z"/></clipPath><clipPath id="clip-path-8" transform="translate(0 0)"><path class="cls-1" d="M30.59,92.81,13,82.57a55.28,55.28,0,0,1,7.7-38.73L38.29,54.07A55.34,55.34,0,0,0,30.59,92.81Z"/></clipPath></defs><g id="レイヤー_2" data-name="レイヤー 2"><g id="レイヤー_1-2" data-name="レイヤー 1"><g class="cls-2"><g class="cls-2"><g class="cls-3"><g class="cls-2"><path class="cls-4" d="M166.82,23.15,149.2,12.91a2.16,2.16,0,0,1,.17-.28L167,22.87a2.16,2.16,0,0,0-.17.28" transform="translate(0 0)"/><path class="cls-5" d="M167,22.87,149.37,12.63a16.13,16.13,0,0,1,1.82-2.28l17.62,10.24A16.13,16.13,0,0,0,167,22.87" transform="translate(0 0)"/><path class="cls-6" d="M168.81,20.59,151.19,10.35a21.71,21.71,0,0,1,1.73-1.67l17.62,10.24a21.71,21.71,0,0,0-1.73,1.67" transform="translate(0 0)"/><path class="cls-7" d="M170.54,18.92,152.92,8.68c.59-.5,1.24-1,2-1.53l17.62,10.24q-1.11.78-2,1.53" transform="translate(0 0)"/><path class="cls-8" d="M172.52,17.39,154.9,7.15c.62-.43,1.29-.86,2-1.29l.38-.21,17.62,10.24-.38.21c-.73.43-1.4.86-2,1.29" transform="translate(0 0)"/><path class="cls-9" d="M174.92,15.89,157.3,5.65c.58-.32,1.18-.63,1.83-.93l.38-.17,17.62,10.24-.38.17c-.65.3-1.25.61-1.83.93" transform="translate(0 0)"/><path class="cls-10" d="M177.13,14.79,159.51,4.55a8.24,8.24,0,0,1,1-.34l17.62,10.24a8.24,8.24,0,0,0-1,.34" transform="translate(0 0)"/><path class="cls-11" d="M178.16,14.45,160.54,4.21a4.47,4.47,0,0,1,1.05-.14l17.62,10.24a4.47,4.47,0,0,0-1.05.14" transform="translate(0 0)"/><path class="cls-12" d="M179.21,14.31,161.59,4.07a3.36,3.36,0,0,1,1.86.45l17.62,10.23a3.44,3.44,0,0,0-1.86-.44" transform="translate(0 0)"/></g></g></g><g class="cls-2"><g class="cls-13"><g class="cls-2"><path class="cls-6" d="M134.17,34.65,116.55,24.41c.13-.5.27-1,.43-1.48L134.6,33.17c-.16.49-.3,1-.43,1.48" transform="translate(0 0)"/><path class="cls-5" d="M134.6,33.17,117,22.93a32.39,32.39,0,0,1,2.28-5.26l17.62,10.24a32.39,32.39,0,0,0-2.28,5.26" transform="translate(0 0)"/><path class="cls-4" d="M136.88,27.91,119.26,17.67c.43-.79.89-1.57,1.37-2.32l17.62,10.24c-.48.75-.94,1.53-1.37,2.32" transform="translate(0 0)"/><path class="cls-5" d="M138.25,25.59,120.63,15.35a44,44,0,0,1,4.88-6.25l17.62,10.24a44,44,0,0,0-4.88,6.25" transform="translate(0 0)"/><path class="cls-6" d="M143.13,19.34,125.51,9.1a46.47,46.47,0,0,1,3.55-3.4l17.62,10.24a46.47,46.47,0,0,0-3.55,3.4" transform="translate(0 0)"/><path class="cls-7" d="M146.68,15.94,129.06,5.7c1.06-.91,2.11-1.73,3.1-2.42l17.62,10.24c-1,.69-2,1.51-3.1,2.42" transform="translate(0 0)"/><path class="cls-8" d="M149.78,13.52,132.16,3.28l.34-.23c.4-.28.8-.53,1.2-.76l.26-.15,17.62,10.24-.26.15c-.4.23-.8.48-1.2.76l-.34.23" transform="translate(0 0)"/><path class="cls-9" d="M151.58,12.38,134,2.14a17,17,0,0,1,1.83-.88L153.41,11.5a17,17,0,0,0-1.83.88" transform="translate(0 0)"/><path class="cls-10" d="M153.41,11.5,135.79,1.26l.26-.1a19.37,19.37,0,0,1,2.4-.77l17.62,10.24a17.82,17.82,0,0,0-2.4.77l-.26.1" transform="translate(0 0)"/><path class="cls-11" d="M156.07,10.63,138.45.39A12.79,12.79,0,0,1,141.08,0L158.7,10.24a12.79,12.79,0,0,0-2.63.39" transform="translate(0 0)"/><path class="cls-12" d="M158.7,10.24,141.08,0A7.32,7.32,0,0,1,145,.9l17.62,10.24a7.23,7.23,0,0,0-3.92-.9" transform="translate(0 0)"/></g></g></g><g class="cls-2"><g class="cls-14"><g class="cls-2"><path class="cls-5" d="M117.14,43.67,99.52,33.43a30.09,30.09,0,0,1,2.4-2.94l17.62,10.24a30.09,30.09,0,0,0-2.4,2.94" transform="translate(0 0)"/><path class="cls-6" d="M119.54,40.73,101.92,30.49a24.31,24.31,0,0,1,1.89-1.81l17.62,10.23c-.63.55-1.26,1.15-1.89,1.82" transform="translate(0 0)"/><path class="cls-7" d="M121.43,38.91,103.81,28.68a20.32,20.32,0,0,1,1.68-1.31l17.62,10.24c-.55.38-1.11.82-1.68,1.3" transform="translate(0 0)"/><path class="cls-8" d="M123.11,37.61,105.49,27.37c.48-.34,1-.65,1.43-.92l.27-.15,17.62,10.24-.27.15c-.47.27-1,.58-1.43.92" transform="translate(0 0)"/><path class="cls-9" d="M124.81,36.54,107.19,26.3a19.6,19.6,0,0,1,1.86-.9l17.62,10.24a19.6,19.6,0,0,0-1.86.9" transform="translate(0 0)"/><path class="cls-10" d="M126.67,35.64,109.05,25.4a16.84,16.84,0,0,1,2.23-.72L128.9,34.92a16.84,16.84,0,0,0-2.23.72" transform="translate(0 0)"/><path class="cls-11" d="M128.9,34.92,111.28,24.68a14,14,0,0,1,3-.42L131.85,34.5a14,14,0,0,0-2.95.42" transform="translate(0 0)"/><path class="cls-12" d="M131.85,34.5,114.23,24.26a10.77,10.77,0,0,1,2.32.15l17.62,10.24a10.77,10.77,0,0,0-2.32-.15" transform="translate(0 0)"/></g></g></g><g class="cls-2"><g class="cls-15"><g class="cls-2"><path class="cls-6" d="M92.3,44.12,74.68,33.88l.35-.3L92.65,43.82l-.35.3" transform="translate(0 0)"/><path class="cls-7" d="M92.65,43.82,75,33.58c.62-.54,2.06-1.73,4-3.06L96.6,40.76c-1.89,1.33-3.33,2.52-3.95,3.06" transform="translate(0 0)"/><path class="cls-8" d="M96.6,40.76,79,30.52c1-.7,2.14-1.44,3.35-2.14l.51-.29,17.62,10.24-.51.29c-1.21.7-2.35,1.44-3.35,2.14" transform="translate(0 0)"/><path class="cls-9" d="M100.46,38.33,82.84,28.09a27.66,27.66,0,0,1,3-1.44l17.62,10.24a27.66,27.66,0,0,0-3,1.44" transform="translate(0 0)"/><path class="cls-10" d="M103.41,36.89,85.79,26.65a18.37,18.37,0,0,1,2.41-.8l17.62,10.24a18.37,18.37,0,0,0-2.41.8" transform="translate(0 0)"/><path class="cls-11" d="M105.82,36.09,88.2,25.85l.64-.14a8,8,0,0,1,1.35-.15L107.81,35.8a8,8,0,0,0-1.35.15l-.64.14" transform="translate(0 0)"/><path class="cls-12" d="M107.81,35.8,90.19,25.56a8.29,8.29,0,0,1,4.44,1.16L112.25,37a8.2,8.2,0,0,0-4.44-1.16" transform="translate(0 0)"/></g></g></g><g class="cls-2"><g class="cls-16"><g class="cls-2"><path class="cls-8" d="M61.2,30.48,43.58,20.24l.53-.3L61.73,30.18l-.53.3" transform="translate(0 0)"/><path class="cls-9" d="M61.73,30.18,44.11,19.94a32.76,32.76,0,0,1,3.48-1.69L65.21,28.49a32.76,32.76,0,0,0-3.48,1.69" transform="translate(0 0)"/><path class="cls-10" d="M65.21,28.49,47.59,18.25a25.66,25.66,0,0,1,3.66-1.2L68.87,27.29a25.66,25.66,0,0,0-3.66,1.2" transform="translate(0 0)"/><path class="cls-11" d="M68.87,27.29,51.25,17.05a21.77,21.77,0,0,1,4.16-.62h.4L73.43,26.65l-.4,0a21.77,21.77,0,0,0-4.16.62" transform="translate(0 0)"/><path class="cls-12" d="M73.43,26.65,55.81,16.42a19.21,19.21,0,0,1,10.5,2.3L83.93,29a19.21,19.21,0,0,0-10.5-2.31" transform="translate(0 0)"/></g></g></g><g class="cls-2"><g class="cls-17"><g class="cls-2"><path class="cls-10" d="M17.87,118.12.25,107.88c0-.15,0-.3,0-.45l17.62,10.24c0,.15,0,.3.05.45" transform="translate(0 0)"/><path class="cls-9" d="M17.82,117.67.2,107.43a32.81,32.81,0,0,1-.2-3.87L17.62,113.8a32.92,32.92,0,0,0,.2,3.87" transform="translate(0 0)"/><path class="cls-8" d="M17.62,113.8,0,103.56c0-1,.07-2,.17-2.88l17.62,10.24c-.1.91-.16,1.87-.17,2.88" transform="translate(0 0)"/><path class="cls-7" d="M17.79,110.92.17,100.68a23.9,23.9,0,0,1,.38-2.39l17.62,10.24a23.9,23.9,0,0,0-.38,2.39" transform="translate(0 0)"/><path class="cls-6" d="M18.17,108.53.55,98.29c.18-.82.39-1.59.63-2.33L18.8,106.2c-.24.74-.45,1.51-.63,2.33" transform="translate(0 0)"/><path class="cls-5" d="M18.8,106.2,1.18,96a20.25,20.25,0,0,1,1.74-3.9L20.54,102.3a20.25,20.25,0,0,0-1.74,3.9" transform="translate(0 0)"/><path class="cls-4" d="M20.54,102.3,2.92,92.06c.12-.21.25-.42.38-.62l17.61,10.24-.37.62" transform="translate(0 0)"/><path class="cls-5" d="M20.91,101.68,3.3,91.44a20.13,20.13,0,0,1,2.44-3.16L23.36,98.52a20.79,20.79,0,0,0-2.45,3.16" transform="translate(0 0)"/><path class="cls-6" d="M23.36,98.52,5.74,88.28a23,23,0,0,1,1.84-1.76L25.2,96.76a23,23,0,0,0-1.84,1.76" transform="translate(0 0)"/><path class="cls-7" d="M25.2,96.76,7.58,86.52c.84-.72,1.65-1.33,2.39-1.85L27.59,94.91c-.74.52-1.55,1.13-2.39,1.85" transform="translate(0 0)"/><path class="cls-8" d="M27.59,94.91,10,84.67c.88-.6,1.64-1.09,2.22-1.49L29.81,93.42c-.58.4-1.35.88-2.22,1.49" transform="translate(0 0)"/><path class="cls-7" d="M29.81,93.42,12.19,83.18c.24-.17.45-.32.62-.46L30.43,93c-.17.14-.38.29-.62.46" transform="translate(0 0)"/><path class="cls-6" d="M30.43,93,12.81,82.72l.16-.15L30.59,92.81l-.16.15" transform="translate(0 0)"/></g></g></g><g class="cls-2"><g class="cls-18"><g class="cls-2"><path class="cls-4" d="M38.29,54.07,20.67,43.84l.54-.86L38.83,53.22l-.54.85" transform="translate(0 0)"/><path class="cls-5" d="M38.83,53.22,21.21,43a89.92,89.92,0,0,1,9.52-12.19L48.35,41a89.92,89.92,0,0,0-9.52,12.19" transform="translate(0 0)"/><path class="cls-6" d="M48.35,41,30.73,30.79a71.61,71.61,0,0,1,5.37-5.17L53.72,35.86A71.61,71.61,0,0,0,48.35,41" transform="translate(0 0)"/><path class="cls-7" d="M53.72,35.86,36.1,25.62c1.35-1.16,2.76-2.27,4.23-3.3L58,32.56c-1.47,1-2.88,2.14-4.23,3.3" transform="translate(0 0)"/><path class="cls-8" d="M58,32.56,40.33,22.32c1.05-.74,2.13-1.44,3.25-2.08L61.2,30.48c-1.12.64-2.2,1.34-3.25,2.08" transform="translate(0 0)"/></g></g></g><g class="cls-2"><g class="cls-19"><g class="cls-2"><path class="cls-10" d="M30.59,92.81,13,82.57c-.17-1.06-.31-2.11-.42-3.14L30.17,89.67c.11,1,.25,2.08.42,3.14" transform="translate(0 0)"/><path class="cls-9" d="M30.17,89.67,12.55,79.43a57.73,57.73,0,0,1-.32-6.59L29.85,83.07a57.79,57.79,0,0,0,.32,6.6" transform="translate(0 0)"/><path class="cls-8" d="M29.85,83.07,12.23,72.84a55.35,55.35,0,0,1,.35-5.76L30.2,77.32a55.33,55.33,0,0,0-.35,5.75" transform="translate(0 0)"/><path class="cls-7" d="M30.2,77.32,12.58,67.08c.21-1.93.52-3.75.88-5.48L31.08,71.84c-.36,1.73-.67,3.55-.88,5.48" transform="translate(0 0)"/><path class="cls-6" d="M31.08,71.84,13.46,61.6A57,57,0,0,1,15,55.79L32.65,66a57,57,0,0,0-1.57,5.81" transform="translate(0 0)"/><path class="cls-5" d="M32.65,66,15,55.79A52.77,52.77,0,0,1,18.77,47L36.39,57.24A52.77,52.77,0,0,0,32.65,66" transform="translate(0 0)"/><path class="cls-4" d="M36.39,57.24,18.77,47c.61-1.14,1.13-2,1.48-2.52L37.87,54.72c-.35.53-.87,1.38-1.48,2.52" transform="translate(0 0)"/><path class="cls-5" d="M37.87,54.72,20.25,44.48c.22-.35.37-.57.42-.64L38.29,54.07l-.42.65" transform="translate(0 0)"/></g></g></g><path class="cls-20" d="M61.2,30.48A26.26,26.26,0,0,1,73,26.67C91.5,25.8,92.26,43.21,92.3,44.12a51,51,0,0,1,7.65-5.5A22.08,22.08,0,0,1,106.46,36c6.39-1.24,10.67,5.27,10.68,7.72a24.23,24.23,0,0,1,7.4-7,14.46,14.46,0,0,1,9.63-2c2.53-9.58,10.29-17.5,16-21.36.4-.28.8-.53,1.2-.76a16.22,16.22,0,0,1,2.35-1.13c14.42-5.6,13.21,10.88,13.15,11.75.11-.2,2.23-3.88,7.72-7,.68-.39,1.42-.78,2.21-1.14,7.09-3.28,7.14,6.78,7.15,7.31l-166,95.85C15.68,99.79,28.46,94.86,30.59,92.81a55.34,55.34,0,0,1,7.7-38.74C38.79,53.27,48.13,38,61.2,30.48Z" transform="translate(0 0)"/></g></g></g></svg>