<svg xmlns="http://www.w3.org/2000/svg" xmlns:xlink="http://www.w3.org/1999/xlink" viewBox="0 0 99.59 78.24"><defs><style>.cls-1{fill:none;}.cls-2{isolation:isolate;}.cls-3{clip-path:url(#clip-path);}.cls-4{fill:#e6e6e6;}.cls-5{fill:#e7e7e7;}.cls-6{fill:#e4e4e4;}.cls-7{fill:#e3e3e3;}.cls-8{fill:#e1e1e1;}.cls-9{fill:#e0e0e0;}.cls-10{fill:#dedede;}.cls-11{fill:#ddd;}.cls-12{fill:#dbdbdb;}.cls-13{clip-path:url(#clip-path-2);}.cls-14{clip-path:url(#clip-path-3);}.cls-15{fill:#f9f9f9;}.cls-16{clip-path:url(#clip-path-4);}</style><clipPath id="clip-path" transform="translate(0 0)"><path class="cls-1" d="M77.66.9,95.28,11.14a8.06,8.06,0,0,0-5.38-.76,23.23,23.23,0,0,0-8.06,2.86A31.25,31.25,0,0,0,70.05,25.92L52.43,15.68A31.25,31.25,0,0,1,64.22,3,23.23,23.23,0,0,1,72.28.14,8.06,8.06,0,0,1,77.66.9Z"/></clipPath><clipPath id="clip-path-2" transform="translate(0 0)"><path class="cls-1" d="M49.91,13.62,67.53,23.86c-2.5-1.45-6.8-2.59-12.67.8L37.24,14.42C43.11,11,47.41,12.17,49.91,13.62Z"/></clipPath><clipPath id="clip-path-3" transform="translate(0 0)"><path class="cls-1" d="M35.32,56.59,17.7,46.35c.7-4.49,1.38-15.49,14.14-27.76a28.34,28.34,0,0,1,5.4-4.17L54.86,24.66a28.34,28.34,0,0,0-5.4,4.17C36.7,41.1,36,52.1,35.32,56.59Z"/></clipPath><clipPath id="clip-path-4" transform="translate(0 0)"><path class="cls-1" d="M17.62,78.24,0,68A21.15,21.15,0,0,1,3.52,57c3.15-4.72,6-7.18,8.36-8.53,2.93-1.69,5-1.65,5.82-2.1L35.32,56.59c-.78.45-2.89.41-5.82,2.1-2.34,1.35-5.21,3.81-8.36,8.53A21.15,21.15,0,0,0,17.62,78.24Z"/></clipPath></defs><g id="レイヤー_2" data-name="レイヤー 2"><g id="レイヤー_1-2" data-name="レイヤー 1"><g class="cls-2"><g class="cls-2"><g class="cls-3"><g class="cls-2"><path class="cls-4" d="M70.05,25.92,52.43,15.68c0-.07.18-.37.43-.84L70.48,25.08c-.25.47-.39.77-.43.84" transform="translate(0 0)"/><path class="cls-5" d="M70.48,25.08,52.86,14.84c.25-.47.62-1.11,1.1-1.86L71.58,23.22c-.48.75-.85,1.39-1.1,1.86" transform="translate(0 0)"/><path class="cls-4" d="M71.58,23.22,54,13A33.73,33.73,0,0,1,57.6,8.31L75.22,18.55a33.73,33.73,0,0,0-3.64,4.67" transform="translate(0 0)"/><path class="cls-6" d="M75.22,18.55,57.6,8.31A30.72,30.72,0,0,1,60,6L77.6,16.26a30.72,30.72,0,0,0-2.38,2.29" transform="translate(0 0)"/><path class="cls-7" d="M77.6,16.26,60,6c.7-.6,1.45-1.18,2.24-1.74L79.84,14.52c-.79.56-1.54,1.14-2.24,1.74" transform="translate(0 0)"/><path class="cls-8" d="M79.84,14.52,62.22,4.28c.64-.45,1.3-.87,2-1.28l.36-.2L82.2,13l-.36.2c-.7.41-1.36.83-2,1.28" transform="translate(0 0)"/><path class="cls-9" d="M82.2,13,64.58,2.8a25,25,0,0,1,2.55-1.23L84.75,11.81A25,25,0,0,0,82.2,13" transform="translate(0 0)"/><path class="cls-10" d="M84.75,11.81,67.13,1.57a22.18,22.18,0,0,1,3.17-1L87.92,10.77a23.53,23.53,0,0,0-3.17,1" transform="translate(0 0)"/><path class="cls-11" d="M87.92,10.77,70.3.54c.65-.16,1.31-.3,2-.4A12.38,12.38,0,0,1,73.7,0L91.32,10.24a12.38,12.38,0,0,0-1.42.14c-.67.1-1.34.24-2,.39" transform="translate(0 0)"/><path class="cls-12" d="M91.32,10.24,73.7,0a7.4,7.4,0,0,1,4,.9L95.28,11.14a7.4,7.4,0,0,0-4-.9" transform="translate(0 0)"/></g></g></g><g class="cls-2"><g class="cls-13"><g class="cls-2"><path class="cls-8" d="M54.86,24.66,37.24,14.42l.31-.17L55.17,24.49l-.31.17" transform="translate(0 0)"/><path class="cls-9" d="M55.17,24.49,37.55,14.25a19.5,19.5,0,0,1,2-1L57.19,23.51a19.5,19.5,0,0,0-2,1" transform="translate(0 0)"/><path class="cls-10" d="M57.19,23.51,39.57,13.27a16.11,16.11,0,0,1,2.14-.7L59.33,22.81a16.11,16.11,0,0,0-2.14.7" transform="translate(0 0)"/><path class="cls-11" d="M59.33,22.81,41.71,12.57a12.81,12.81,0,0,1,2.55-.36L61.88,22.45a12.81,12.81,0,0,0-2.55.36" transform="translate(0 0)"/><path class="cls-12" d="M61.88,22.45,44.26,12.21a10.41,10.41,0,0,1,5.65,1.41L67.53,23.86a10.41,10.41,0,0,0-5.65-1.41" transform="translate(0 0)"/></g></g></g><g class="cls-2"><g class="cls-14"><g class="cls-2"><path class="cls-7" d="M35.32,56.59,17.7,46.35c.2-1.26.39-3,.85-5.19L36.17,51.39c-.46,2.17-.65,3.94-.85,5.2" transform="translate(0 0)"/><path class="cls-6" d="M36.17,51.39,18.55,41.16c.26-1.21.6-2.55,1.06-4L37.23,47.42c-.46,1.43-.8,2.77-1.06,4" transform="translate(0 0)"/><path class="cls-4" d="M37.23,47.42,19.61,37.18a40.13,40.13,0,0,1,2.77-6.44L40,41a40.13,40.13,0,0,0-2.77,6.44" transform="translate(0 0)"/><path class="cls-5" d="M40,41,22.38,30.74c.45-.83.95-1.69,1.5-2.56L41.5,38.42c-.55.87-1,1.73-1.5,2.56" transform="translate(0 0)"/><path class="cls-4" d="M41.5,38.42,23.88,28.18a49.71,49.71,0,0,1,5.75-7.36L47.25,31.06a49.71,49.71,0,0,0-5.75,7.36" transform="translate(0 0)"/><path class="cls-6" d="M47.25,31.06,29.63,20.82c.69-.74,1.43-1.48,2.21-2.23.48-.47,1-.91,1.44-1.32L50.9,27.51c-.47.41-1,.85-1.44,1.32-.78.75-1.52,1.49-2.21,2.23" transform="translate(0 0)"/><path class="cls-7" d="M50.9,27.51,33.28,17.27a27.37,27.37,0,0,1,2.26-1.76L53.16,25.75a27.37,27.37,0,0,0-2.26,1.76" transform="translate(0 0)"/><path class="cls-8" d="M53.16,25.75,35.54,15.51c.58-.4,1.14-.77,1.7-1.09L54.86,24.66c-.56.32-1.12.68-1.7,1.09" transform="translate(0 0)"/></g></g></g><path class="cls-15" d="M54.86,24.66c9.53-5.5,14.91.92,15.19,1.26A31.25,31.25,0,0,1,81.84,13.24a23.23,23.23,0,0,1,8.06-2.86c13.5-2.09,9,19.89,8.8,21L17.62,78.24a21.15,21.15,0,0,1,3.52-11c3.15-4.72,6-7.18,8.36-8.53,2.93-1.69,5-1.65,5.82-2.1C36,52.1,36.7,41.1,49.46,28.83A28.34,28.34,0,0,1,54.86,24.66Z" transform="translate(0 0)"/><g class="cls-2"><g class="cls-16"><g class="cls-2"><path class="cls-9" d="M17.62,78.24,0,68v-.09L17.62,78.15v.09" transform="translate(0 0)"/><path class="cls-8" d="M17.62,78.15,0,67.91c0-.21,0-.74.1-1.49L17.72,76.66c-.08.75-.1,1.28-.1,1.49" transform="translate(0 0)"/><path class="cls-7" d="M17.72,76.66.1,66.42a18.58,18.58,0,0,1,.33-2L18.05,74.64a18.58,18.58,0,0,0-.33,2" transform="translate(0 0)"/><path class="cls-6" d="M18.05,74.64.43,64.4A20.61,20.61,0,0,1,1,62.15L18.65,72.39a20.61,20.61,0,0,0-.6,2.25" transform="translate(0 0)"/><path class="cls-4" d="M18.65,72.39,1,62.15a20.17,20.17,0,0,1,1.52-3.54L20.17,68.85a20.17,20.17,0,0,0-1.52,3.54" transform="translate(0 0)"/><path class="cls-5" d="M20.17,68.85,2.55,58.61c.22-.41.45-.82.71-1.23L20.88,67.62c-.26.41-.49.82-.71,1.23" transform="translate(0 0)"/><path class="cls-4" d="M20.88,67.62,3.26,57.38l.26-.4a36.56,36.56,0,0,1,3.69-4.72L24.83,62.5a36.56,36.56,0,0,0-3.69,4.72l-.26.4" transform="translate(0 0)"/><path class="cls-6" d="M24.83,62.5,7.21,52.26A26.2,26.2,0,0,1,9.1,50.44L26.72,60.68a24.21,24.21,0,0,0-1.89,1.82" transform="translate(0 0)"/><path class="cls-7" d="M26.72,60.68,9.1,50.44c.53-.46,1.05-.85,1.54-1.2L28.26,59.48a18.12,18.12,0,0,0-1.54,1.2" transform="translate(0 0)"/><path class="cls-8" d="M28.26,59.48,10.64,49.24c.43-.3.84-.56,1.24-.79l.22-.13L29.72,58.56l-.22.13c-.4.23-.81.49-1.24.79" transform="translate(0 0)"/><path class="cls-9" d="M29.72,58.56,12.1,48.32q.84-.45,1.56-.75L31.28,57.81a15.46,15.46,0,0,0-1.56.75" transform="translate(0 0)"/><path class="cls-10" d="M31.28,57.81,13.66,47.57a16.59,16.59,0,0,1,2.17-.7L33.45,57.11a16.59,16.59,0,0,0-2.17.7" transform="translate(0 0)"/><path class="cls-11" d="M33.45,57.11,15.83,46.87c.41-.1.78-.17,1.08-.25L34.53,56.86l-1.08.25" transform="translate(0 0)"/><path class="cls-10" d="M34.53,56.86,16.91,46.62a4,4,0,0,0,.6-.18L35.13,56.68a4,4,0,0,1-.6.18" transform="translate(0 0)"/><path class="cls-9" d="M35.13,56.68,17.51,46.44l.17-.08L35.3,56.6l-.17.08" transform="translate(0 0)"/><path class="cls-8" d="M35.3,56.6,17.68,46.36h0L35.32,56.59h0" transform="translate(0 0)"/></g></g></g></g></g></g></svg>