<svg xmlns="http://www.w3.org/2000/svg" xmlns:xlink="http://www.w3.org/1999/xlink" viewBox="0 0 122.21 94.5"><defs><style>.cls-1{fill:none;}.cls-2{isolation:isolate;}.cls-3{clip-path:url(#clip-path);}.cls-4{fill:#e6e6e6;}.cls-5{fill:#e4e4e4;}.cls-6{fill:#e3e3e3;}.cls-7{fill:#e1e1e1;}.cls-8{fill:#e0e0e0;}.cls-9{fill:#dedede;}.cls-10{fill:#ddd;}.cls-11{fill:#dbdbdb;}.cls-12{clip-path:url(#clip-path-2);}.cls-13{clip-path:url(#clip-path-3);}.cls-14{clip-path:url(#clip-path-4);}.cls-15{fill:#e7e7e7;}.cls-16{clip-path:url(#clip-path-5);}.cls-17{fill:#f9f9f9;}.cls-18{clip-path:url(#clip-path-6);}</style><clipPath id="clip-path" transform="translate(0 0)"><path class="cls-1" d="M100,1.06,117.65,11.3a8.15,8.15,0,0,0-3.63-1,21,21,0,0,0-11.71,3.13A41.39,41.39,0,0,0,90.77,23.69L73.15,13.45A41.39,41.39,0,0,1,84.69,3.16,21,21,0,0,1,96.4,0,8.15,8.15,0,0,1,100,1.06Z"/></clipPath><clipPath id="clip-path-2" transform="translate(0 0)"><path class="cls-1" d="M69.13,9.07,86.75,19.31c-3.16-1.84-8.49-2.59-17,2.15l-.5.29L51.63,11.51l.5-.29C60.64,6.48,66,7.23,69.13,9.07Z"/></clipPath><clipPath id="clip-path-3" transform="translate(0 0)"><path class="cls-1" d="M46.65,60.59,29,50.35a25.17,25.17,0,0,1,1.4-11.42L48.05,49.17A25.17,25.17,0,0,0,46.65,60.59Z"/></clipPath><clipPath id="clip-path-4" transform="translate(0 0)"><path class="cls-1" d="M32.49,78.57,14.87,68.33A20.37,20.37,0,0,1,25.54,52.17c1.58-.92,2.89-1.47,3.49-1.82L46.65,60.59c-.6.35-1.91.9-3.49,1.82A20.37,20.37,0,0,0,32.49,78.57Z"/></clipPath><clipPath id="clip-path-5" transform="translate(0 0)"><path class="cls-1" d="M48.05,49.17,30.43,38.93c.27-.91,5.51-18.37,21.2-27.42L69.25,21.75C53.56,30.8,48.32,48.26,48.05,49.17Z"/></clipPath><clipPath id="clip-path-6" transform="translate(0 0)"><path class="cls-1" d="M17.62,94.5,0,84.26c1.63-8.06,5.2-12,8.59-14a16,16,0,0,1,6.28-2L32.49,78.57a16,16,0,0,0-6.28,2C22.82,82.5,19.25,86.44,17.62,94.5Z"/></clipPath></defs><g id="レイヤー_2" data-name="レイヤー 2"><g id="レイヤー_1-2" data-name="レイヤー 1"><g class="cls-2"><g class="cls-2"><g class="cls-3"><g class="cls-2"><path class="cls-4" d="M90.77,23.69,73.15,13.45a34.64,34.64,0,0,1,2.6-3.06L93.37,20.62a35.57,35.57,0,0,0-2.6,3.07" transform="translate(0 0)"/><path class="cls-5" d="M93.37,20.62,75.75,10.39a42.75,42.75,0,0,1,3.36-3.23L96.73,17.4a44.69,44.69,0,0,0-3.36,3.22" transform="translate(0 0)"/><path class="cls-6" d="M96.73,17.4,79.11,7.16c.93-.8,2-1.61,3.06-2.39L99.79,15c-1.11.78-2.13,1.59-3.06,2.39" transform="translate(0 0)"/><path class="cls-7" d="M99.79,15,82.17,4.77c.8-.56,1.64-1.1,2.52-1.61l.42-.24,17.62,10.24-.42.24c-.88.51-1.72,1-2.52,1.61" transform="translate(0 0)"/><path class="cls-8" d="M102.73,13.16,85.11,2.92a27.3,27.3,0,0,1,2.83-1.36l17.62,10.23a29.57,29.57,0,0,0-2.83,1.37" transform="translate(0 0)"/><path class="cls-9" d="M105.56,11.79,87.94,1.56A21.62,21.62,0,0,1,91,.55l17.62,10.24a22.94,22.94,0,0,0-3.07,1" transform="translate(0 0)"/><path class="cls-10" d="M108.63,10.79,91,.55A17.68,17.68,0,0,1,94.8,0l17.62,10.24a17.68,17.68,0,0,0-3.79.54" transform="translate(0 0)"/><path class="cls-11" d="M112.42,10.25,94.8,0c.53,0,1.06,0,1.6,0a8.15,8.15,0,0,1,3.63,1L117.65,11.3a8.15,8.15,0,0,0-3.63-1c-.54,0-1.07,0-1.6,0" transform="translate(0 0)"/></g></g></g><g class="cls-2"><g class="cls-12"><g class="cls-2"><path class="cls-7" d="M69.25,21.75,51.63,11.51l.5-.29,0,0L69.78,21.44l0,0-.5.29" transform="translate(0 0)"/><path class="cls-8" d="M69.78,21.44,52.16,11.2A35.45,35.45,0,0,1,56,9.33L73.65,19.57a35.45,35.45,0,0,0-3.87,1.87" transform="translate(0 0)"/><path class="cls-9" d="M73.65,19.57,56,9.33a26,26,0,0,1,3.5-1.16L77.15,18.41a26,26,0,0,0-3.5,1.16" transform="translate(0 0)"/><path class="cls-10" d="M77.15,18.41,59.53,8.17a16.85,16.85,0,0,1,3.56-.51L80.71,17.9a16.85,16.85,0,0,0-3.56.51" transform="translate(0 0)"/><path class="cls-11" d="M80.71,17.9,63.09,7.66a11.09,11.09,0,0,1,6,1.41L86.75,19.31a11,11,0,0,0-6-1.41" transform="translate(0 0)"/></g></g></g><g class="cls-2"><g class="cls-13"><g class="cls-2"><path class="cls-9" d="M46.65,60.59,29,50.35l0-.28L46.62,60.31l0,.28" transform="translate(0 0)"/><path class="cls-8" d="M46.62,60.31,29,50.07a24.15,24.15,0,0,1-.12-2.65L46.5,57.66a21.9,21.9,0,0,0,.12,2.65" transform="translate(0 0)"/><path class="cls-7" d="M46.5,57.66,28.88,47.42A25.19,25.19,0,0,1,29,44.87L46.65,55.1a25.57,25.57,0,0,0-.15,2.56" transform="translate(0 0)"/><path class="cls-6" d="M46.65,55.1,29,44.87c.11-.94.26-1.8.42-2.55L47.07,52.56c-.16.75-.31,1.61-.42,2.54" transform="translate(0 0)"/><path class="cls-5" d="M47.07,52.56,29.45,42.32a24.48,24.48,0,0,1,.66-2.49L47.73,50.07a24.48,24.48,0,0,0-.66,2.49" transform="translate(0 0)"/><path class="cls-4" d="M47.73,50.07,30.11,39.83c.17-.52.29-.83.32-.9L48.05,49.17c0,.06-.15.38-.32.9" transform="translate(0 0)"/></g></g></g><g class="cls-2"><g class="cls-14"><g class="cls-2"><path class="cls-7" d="M32.49,78.57,14.87,68.33s0-.1,0-.15L32.51,78.42s0,.1,0,.15" transform="translate(0 0)"/><path class="cls-6" d="M32.51,78.42,14.89,68.18a22.35,22.35,0,0,1,.37-2.29L32.88,76.13a22.35,22.35,0,0,0-.37,2.29" transform="translate(0 0)"/><path class="cls-5" d="M32.88,76.13,15.26,65.89a19.77,19.77,0,0,1,.59-2.21L33.47,73.92a19.77,19.77,0,0,0-.59,2.21" transform="translate(0 0)"/><path class="cls-4" d="M33.47,73.92,15.85,63.68a19.43,19.43,0,0,1,1.45-3.36L34.92,70.56a19.43,19.43,0,0,0-1.45,3.36" transform="translate(0 0)"/><path class="cls-15" d="M34.92,70.56,17.3,60.32c.21-.39.44-.77.67-1.13L35.59,69.43c-.23.36-.46.74-.67,1.13" transform="translate(0 0)"/><path class="cls-4" d="M35.59,69.43,18,59.19a20.21,20.21,0,0,1,2.2-2.83L37.79,66.59a20.92,20.92,0,0,0-2.2,2.84" transform="translate(0 0)"/><path class="cls-5" d="M37.79,66.59,20.17,56.36A21.44,21.44,0,0,1,21.8,54.8L39.42,65c-.55.47-1.09,1-1.63,1.55" transform="translate(0 0)"/><path class="cls-6" d="M39.42,65,21.8,54.8a21.48,21.48,0,0,1,1.8-1.4L41.22,63.64a21.48,21.48,0,0,0-1.8,1.4" transform="translate(0 0)"/><path class="cls-7" d="M41.22,63.64,23.6,53.4c.68-.47,1.33-.88,1.94-1.23l.43-.25L43.59,62.16l-.43.25c-.61.35-1.27.76-1.94,1.23" transform="translate(0 0)"/><path class="cls-8" d="M43.59,62.16,26,51.92c1.33-.73,2.42-1.21,3-1.53L46.58,60.63c-.57.32-1.66.8-3,1.53" transform="translate(0 0)"/><path class="cls-7" d="M46.58,60.63,29,50.39l.07,0L46.65,60.59l-.07,0" transform="translate(0 0)"/></g></g></g><g class="cls-2"><g class="cls-16"><g class="cls-2"><path class="cls-5" d="M48.05,49.17,30.43,38.93l.17-.54L48.22,48.63l-.17.54" transform="translate(0 0)"/><path class="cls-4" d="M48.22,48.63,30.6,38.39a51.75,51.75,0,0,1,3.63-8.32L51.85,40.31a51.75,51.75,0,0,0-3.63,8.32" transform="translate(0 0)"/><path class="cls-15" d="M51.85,40.31,34.23,30.07c.62-1.15,1.33-2.36,2.13-3.6L54,36.71c-.8,1.24-1.51,2.45-2.13,3.6" transform="translate(0 0)"/><path class="cls-4" d="M54,36.71,36.36,26.47A49.33,49.33,0,0,1,42,19.26L59.57,29.5A49.33,49.33,0,0,0,54,36.71" transform="translate(0 0)"/><path class="cls-5" d="M59.57,29.5,42,19.26a43.63,43.63,0,0,1,3.45-3.32L63,26.18a43.63,43.63,0,0,0-3.45,3.32" transform="translate(0 0)"/><path class="cls-6" d="M63,26.18,45.4,15.94a40.5,40.5,0,0,1,3.27-2.54L66.28,23.64C65.13,24.45,64,25.3,63,26.18" transform="translate(0 0)"/><path class="cls-7" d="M66.28,23.64,48.67,13.4c.94-.66,1.92-1.3,3-1.89L69.25,21.75c-1,.59-2,1.23-3,1.89" transform="translate(0 0)"/></g></g></g><path class="cls-17" d="M69.25,21.75l.5-.29c16.08-9,20.77,1.67,21,2.23A41.39,41.39,0,0,1,102.31,13.4,21,21,0,0,1,114,10.27c12.79.78,6.86,23.59,6.55,24.79L17.62,94.5c1.63-8.06,5.2-12,8.59-14a16,16,0,0,1,6.28-2A20.37,20.37,0,0,1,43.16,62.41c1.58-.92,2.89-1.47,3.49-1.82a25.17,25.17,0,0,1,1.4-11.42C48.32,48.26,53.56,30.8,69.25,21.75Z" transform="translate(0 0)"/><g class="cls-2"><g class="cls-18"><g class="cls-2"><path class="cls-6" d="M17.62,94.5,0,84.26c0-.12.05-.23.07-.35L17.69,94.15c0,.12-.05.23-.07.35" transform="translate(0 0)"/><path class="cls-5" d="M17.69,94.15.07,83.91c.25-1.18.55-2.27.87-3.28L18.56,90.87c-.32,1-.62,2.1-.87,3.28" transform="translate(0 0)"/><path class="cls-4" d="M18.56,90.87.94,80.63a23.35,23.35,0,0,1,1.72-4L20.28,86.83a23.82,23.82,0,0,0-1.72,4" transform="translate(0 0)"/><path class="cls-15" d="M20.28,86.83,2.66,76.6c.21-.4.44-.78.66-1.13L20.94,85.71c-.22.35-.45.73-.66,1.12" transform="translate(0 0)"/><path class="cls-4" d="M20.94,85.71,3.32,75.47A16.48,16.48,0,0,1,5.24,73L22.86,83.21a17.11,17.11,0,0,0-1.92,2.5" transform="translate(0 0)"/><path class="cls-5" d="M22.86,83.21,5.24,73a13.74,13.74,0,0,1,1.17-1.13L24,82.09a15.3,15.3,0,0,0-1.17,1.12" transform="translate(0 0)"/><path class="cls-6" d="M24,82.09,6.41,71.85c.37-.32.75-.61,1.13-.88L25.16,81.21c-.38.27-.76.56-1.13.88" transform="translate(0 0)"/><path class="cls-7" d="M25.16,81.21,7.54,71c.35-.24.7-.46,1-.67l.21-.11L26.42,80.43l-.21.11c-.35.2-.7.43-1.05.67" transform="translate(0 0)"/><path class="cls-8" d="M26.42,80.43,8.8,70.19a12.68,12.68,0,0,1,1.54-.74L28,79.69a12.68,12.68,0,0,0-1.54.74" transform="translate(0 0)"/><path class="cls-9" d="M28,79.69,10.34,69.45a14.46,14.46,0,0,1,2.15-.7L30.11,79a14.46,14.46,0,0,0-2.15.7" transform="translate(0 0)"/><path class="cls-10" d="M30.11,79,12.49,68.75a17.47,17.47,0,0,1,2.38-.42L32.49,78.57a17.47,17.47,0,0,0-2.38.42" transform="translate(0 0)"/></g></g></g></g></g></g></svg>