<svg xmlns="http://www.w3.org/2000/svg" xmlns:xlink="http://www.w3.org/1999/xlink" viewBox="0 0 862.03 789.58"><defs><style>.cls-1{fill:none;}.cls-2{isolation:isolate;}.cls-3{fill:#c49126;}.cls-4{clip-path:url(#clip-path);}.cls-5{fill:#c59126;}.cls-6{fill:#c79325;}.cls-7{clip-path:url(#clip-path-2);}.cls-8{fill:#c99424;}.cls-9{fill:#c99523;}.cls-10{clip-path:url(#clip-path-3);}.cls-11{fill:#bf7330;}.cls-12{fill:#c1742f;}.cls-13{fill:#c3742e;}.cls-14{fill:#f5b20c;}.cls-15{fill:#eb7a1f;}.cls-16{fill:#cd9721;}.cls-17{fill:#ca9523;}</style><clipPath id="clip-path"><path class="cls-1" d="M390,703.29c84.65,0,160.82-38.61,213.82-100.18h82.08c-53,61.57-129.17,100.18-213.81,100.18Z"/></clipPath><clipPath id="clip-path-2"><path class="cls-1" d="M679.87,394.79c0-170.38-129.8-308.51-289.9-308.51h82.09C632.16,86.28,762,224.41,762,394.79c0,80.3-28.83,153.43-76.08,208.32H603.79C651,548.22,679.87,475.09,679.87,394.79Z"/></clipPath><clipPath id="clip-path-3"><path class="cls-1" d="M472.05,703.29H390c-160.11,0-289.9-138.12-289.9-308.5S229.86,86.29,390,86.29h82.08c-160.1,0-289.89,138.12-289.89,308.5S312,703.29,472.05,703.29Z"/></clipPath></defs><g id="レイヤー_2" data-name="レイヤー 2"><g id="レイヤー_1-2" data-name="レイヤー 1"><g class="cls-2"><polygon class="cls-3" points="592.59 789.58 510.5 789.58 389.97 749.79 472.06 749.79 592.59 789.58"/><g class="cls-2"><g class="cls-4"><g class="cls-2"><path class="cls-5" d="M472.06,703.29H390c71.07,0,136.17-27.22,186.59-72.39h82.08c-50.42,45.17-115.51,72.39-186.58,72.39"/><path class="cls-6" d="M658.64,630.9H576.56A308.38,308.38,0,0,0,654.3,521.65h82.08A308.26,308.26,0,0,1,658.64,630.9"/></g></g></g><g class="cls-2"><g class="cls-7"><g class="cls-2"><path class="cls-6" d="M658.64,630.9H576.56A308.38,308.38,0,0,0,654.3,521.65h82.08A308.26,308.26,0,0,1,658.64,630.9"/><path class="cls-8" d="M736.38,521.65H654.3a327.5,327.5,0,0,0,0-253.73h82.08a327.5,327.5,0,0,1,0,253.73"/><path class="cls-6" d="M736.38,267.92H654.3a308.38,308.38,0,0,0-77.74-109.25h82.08a308.38,308.38,0,0,1,77.74,109.25"/><path class="cls-5" d="M658.64,158.67H576.56C526.14,113.5,461,86.28,390,86.28h82.09c71.07,0,136.16,27.22,186.58,72.39"/></g></g></g><polygon class="cls-3" points="472.06 39.79 389.97 39.79 510.5 0 592.59 0 472.06 39.79"/><polygon class="cls-9" points="351.52 789.58 269.44 789.58 193.9 682.03 275.99 682.03 351.52 789.58"/><polygon class="cls-9" points="275.99 107.54 193.9 107.54 269.44 0 351.52 0 275.99 107.54"/><g class="cls-2"><g class="cls-10"><g class="cls-2"><path class="cls-11" d="M472.05,703.29H390c-71.07,0-136.17-27.22-186.59-72.39h82.09c50.42,45.17,115.51,72.39,186.58,72.39"/><path class="cls-12" d="M285.47,630.9H203.38a308.38,308.38,0,0,1-77.74-109.25h82.08A308.41,308.41,0,0,0,285.47,630.9"/><path class="cls-13" d="M207.72,521.65H125.64a327.5,327.5,0,0,1,0-253.73h82.08a327.62,327.62,0,0,0,0,253.73"/><path class="cls-12" d="M207.72,267.92H125.64a308.47,308.47,0,0,1,77.74-109.25h82.08a308.6,308.6,0,0,0-77.74,109.25"/><path class="cls-11" d="M285.46,158.67H203.38C253.8,113.5,318.9,86.29,390,86.29h82.08c-71.07,0-136.16,27.21-186.59,72.38"/></g></g></g><path class="cls-14" d="M789.4,285.05,862,394.79,789.4,504.52l-1.84,134.23L668.13,682,592.59,789.58,472.06,749.79,351.52,789.58,276,682,156.55,638.75,154.7,504.53,82.08,394.79,154.7,285.05l1.85-134.22L276,107.54,351.52,0,472.06,39.79,592.59,0l75.54,107.54,119.43,43.29ZM472.06,703.29c160.1,0,289.89-138.13,289.89-308.5S632.16,86.28,472.06,86.28s-289.9,138.13-289.9,308.51S312,703.29,472.06,703.29"/><ellipse class="cls-15" cx="472.05" cy="394.79" rx="289.9" ry="308.5"/><polygon class="cls-3" points="275.99 682.03 193.9 682.03 74.47 638.75 156.55 638.75 275.99 682.03"/><polygon class="cls-3" points="156.55 150.83 74.47 150.83 193.9 107.54 275.99 107.54 156.55 150.83"/><polygon class="cls-16" points="156.55 638.75 74.47 638.75 72.61 504.53 154.7 504.53 156.55 638.75"/><polygon class="cls-16" points="154.7 285.05 72.61 285.05 74.47 150.83 156.55 150.83 154.7 285.05"/><polygon class="cls-17" points="82.08 394.79 0 394.79 72.61 285.05 154.7 285.05 82.08 394.79"/><polygon class="cls-17" points="154.7 504.53 72.61 504.53 0 394.79 82.08 394.79 154.7 504.53"/></g></g></g></svg>