<svg xmlns="http://www.w3.org/2000/svg" xmlns:xlink="http://www.w3.org/1999/xlink" viewBox="0 0 795.39 769.99"><defs><style>.cls-1{fill:none;}.cls-2{isolation:isolate;}.cls-3{clip-path:url(#clip-path);}.cls-4{fill:#e4c578;}.cls-5{clip-path:url(#clip-path-2);}.cls-6{clip-path:url(#clip-path-3);}.cls-7{clip-path:url(#clip-path-4);}.cls-8{fill:#e4c577;}.cls-9{clip-path:url(#clip-path-5);}.cls-10{fill:#e3c47a;}.cls-11{clip-path:url(#clip-path-6);}.cls-12{clip-path:url(#clip-path-7);}.cls-13{fill:#e4c576;}.cls-14{clip-path:url(#clip-path-8);}.cls-15{fill:#e3c579;}.cls-16{clip-path:url(#clip-path-9);}.cls-17{clip-path:url(#clip-path-10);}.cls-18{clip-path:url(#clip-path-11);}.cls-19{clip-path:url(#clip-path-12);}.cls-20{clip-path:url(#clip-path-13);}.cls-21{clip-path:url(#clip-path-14);}.cls-22{clip-path:url(#clip-path-15);}.cls-23{fill:#e1bc61;}.cls-24{fill:#e2bc5f;}.cls-25{clip-path:url(#clip-path-16);}.cls-26{clip-path:url(#clip-path-17);}.cls-27{clip-path:url(#clip-path-18);}.cls-28{clip-path:url(#clip-path-19);}.cls-29{fill:#e5c675;}.cls-30{clip-path:url(#clip-path-20);}.cls-31{clip-path:url(#clip-path-21);}.cls-32{fill:#e3c578;}.cls-33{clip-path:url(#clip-path-22);}.cls-34{fill:#e1bc60;}.cls-35{fill:#e1bc66;}.cls-36{clip-path:url(#clip-path-23);}.cls-37{fill:#e1bc63;}.cls-38{clip-path:url(#clip-path-24);}.cls-39{fill:#e4c675;}.cls-40{clip-path:url(#clip-path-25);}.cls-41{clip-path:url(#clip-path-26);}.cls-42{clip-path:url(#clip-path-27);}.cls-43{clip-path:url(#clip-path-28);}.cls-44{clip-path:url(#clip-path-29);}.cls-45{fill:#e1bc64;}.cls-46{fill:#eabc34;}.cls-47{clip-path:url(#clip-path-30);}.cls-48{fill:#e1bc65;}.cls-49{clip-path:url(#clip-path-31);}.cls-50{clip-path:url(#clip-path-32);}.cls-51{clip-path:url(#clip-path-33);}.cls-52{clip-path:url(#clip-path-34);}.cls-53{clip-path:url(#clip-path-35);}.cls-54{clip-path:url(#clip-path-36);}.cls-55{clip-path:url(#clip-path-37);}.cls-56{clip-path:url(#clip-path-38);}.cls-57{clip-path:url(#clip-path-39);}.cls-58{clip-path:url(#clip-path-40);}.cls-59{clip-path:url(#clip-path-41);}.cls-60{clip-path:url(#clip-path-42);}.cls-61{clip-path:url(#clip-path-43);}.cls-62{clip-path:url(#clip-path-44);}.cls-63{clip-path:url(#clip-path-45);}.cls-64{clip-path:url(#clip-path-46);}.cls-65{fill:#e1bc62;}.cls-66{clip-path:url(#clip-path-47);}.cls-67{clip-path:url(#clip-path-48);}.cls-68{clip-path:url(#clip-path-49);}.cls-69{clip-path:url(#clip-path-50);}.cls-70{clip-path:url(#clip-path-51);}.cls-71{clip-path:url(#clip-path-52);}.cls-72{fill:#eecd59;}</style><clipPath id="clip-path" transform="translate(0 0)"><path class="cls-1" d="M544.82,404.26H473a6.81,6.81,0,0,0-.9-9.57h71.82A6.82,6.82,0,0,1,544.82,404.26Z"/></clipPath><clipPath id="clip-path-2" transform="translate(0 0)"><path class="cls-1" d="M467.43,595.57h71.82a5.28,5.28,0,0,1,.74.68H468.16A5.21,5.21,0,0,0,467.43,595.57Z"/></clipPath><clipPath id="clip-path-3" transform="translate(0 0)"><path class="cls-1" d="M467.43,595.57a5.52,5.52,0,0,0-.86-.56H538.4a5.43,5.43,0,0,1,.85.56H467.43Z"/></clipPath><clipPath id="clip-path-4" transform="translate(0 0)"><path class="cls-1" d="M466.56,606.69c4-2.19,4.25-7.54,1.6-10.44H540c2.65,2.9,2.42,8.25-1.61,10.44Z"/></clipPath><clipPath id="clip-path-5" transform="translate(0 0)"><path class="cls-1" d="M466.57,595a6,6,0,0,0-2.05-.65h71.82a6.14,6.14,0,0,1,2.06.65H466.57Z"/></clipPath><clipPath id="clip-path-6" transform="translate(0 0)"><path class="cls-1" d="M516,591.65H444.17a6.15,6.15,0,0,1-4.58-3.24h71.83A6.11,6.11,0,0,0,516,591.65Z"/></clipPath><clipPath id="clip-path-7" transform="translate(0 0)"><path class="cls-1" d="M499.38,114.42H427.56c9.58-5.51,9.95-20,.65-26H500C509.33,94.41,509,108.91,499.38,114.42Z"/></clipPath><clipPath id="clip-path-8" transform="translate(0 0)"><path class="cls-1" d="M415.76,637a6.58,6.58,0,0,1,3.2-4.36h71.81a6.55,6.55,0,0,0-3.18,4.35H415.76Z"/></clipPath><clipPath id="clip-path-9" transform="translate(0 0)"><path class="cls-1" d="M471.14,702.78H399.32a6.55,6.55,0,0,0,3.05-4.27h71.82A6.52,6.52,0,0,1,471.14,702.78Z"/></clipPath><clipPath id="clip-path-10" transform="translate(0 0)"><path class="cls-1" d="M394.67,504.94a6.91,6.91,0,0,1,.73-7.61h71.83l0,0h0a6.89,6.89,0,0,0-.71,7.58Z"/></clipPath><clipPath id="clip-path-11" transform="translate(0 0)"><path class="cls-1" d="M392.5,230.75a15.36,15.36,0,0,0-3.1-6.51h71.83a15.34,15.34,0,0,1,3.09,6.51H392.5Z"/></clipPath><clipPath id="clip-path-12" transform="translate(0 0)"><path class="cls-1" d="M384.11,248c6.65-2.93,9.83-10.39,8.39-17.21h71.82c1.45,6.82-1.73,14.28-8.38,17.21Z"/></clipPath><clipPath id="clip-path-13" transform="translate(0 0)"><path class="cls-1" d="M389.4,63.13a13.49,13.49,0,0,0-7.33-2.21h71.82a13.52,13.52,0,0,1,7.34,2.21Z"/></clipPath><clipPath id="clip-path-14" transform="translate(0 0)"><path class="cls-1" d="M382,60.92h0Z"/></clipPath><clipPath id="clip-path-15" transform="translate(0 0)"><path class="cls-1" d="M445.77,63.64H373.94a13.52,13.52,0,0,1,8.1-2.72h71.83A13.5,13.5,0,0,0,445.77,63.64Z"/></clipPath><clipPath id="clip-path-16" transform="translate(0 0)"><path class="cls-1" d="M373.07,314H444.9a6.07,6.07,0,0,1,3,1.38H376.11A6,6,0,0,0,373.07,314Z"/></clipPath><clipPath id="clip-path-17" transform="translate(0 0)"><path class="cls-1" d="M373.07,314a7,7,0,0,0-.79,0H444.1a7.16,7.16,0,0,1,.8,0H373.07Z"/></clipPath><clipPath id="clip-path-18" transform="translate(0 0)"><path class="cls-1" d="M371.81,314h0Z"/></clipPath><clipPath id="clip-path-19" transform="translate(0 0)"><path class="cls-1" d="M431.27,725.28H359.44a5.79,5.79,0,0,0,2.58-.78h71.82A5.75,5.75,0,0,1,431.27,725.28Z"/></clipPath><clipPath id="clip-path-20" transform="translate(0 0)"><path class="cls-1" d="M353.36,161.33a14.8,14.8,0,0,1,6.54-8h71.83l0,0h0a14.83,14.83,0,0,0-6.51,8H353.36Z"/></clipPath><clipPath id="clip-path-21" transform="translate(0 0)"><path class="cls-1" d="M360.67,195.53a13.68,13.68,0,0,1-8.75-4.2h71.83a13.68,13.68,0,0,0,8.75,4.2,13.87,13.87,0,0,1,9.61,5.15H370.28A13.87,13.87,0,0,0,360.67,195.53Z"/></clipPath><clipPath id="clip-path-22" transform="translate(0 0)"><path class="cls-1" d="M351.92,191.33a15.71,15.71,0,0,1-3.42-16h71.83a15.67,15.67,0,0,0,3.42,16H351.92Z"/></clipPath><clipPath id="clip-path-23" transform="translate(0 0)"><path class="cls-1" d="M399.73,110.3H327.9a15.54,15.54,0,0,1,5.48-16.45h71.83A15.54,15.54,0,0,0,399.73,110.3Z"/></clipPath><clipPath id="clip-path-24" transform="translate(0 0)"><path class="cls-1" d="M393,133.19H321.15c6.57-3,10-10.67,8.07-18h71.83C403,122.52,399.55,130.22,393,133.19Z"/></clipPath><clipPath id="clip-path-25" transform="translate(0 0)"><path class="cls-1" d="M367.78,285.54H296a13.3,13.3,0,0,0,5.4-1.14h71.83A13.36,13.36,0,0,1,367.78,285.54Z"/></clipPath><clipPath id="clip-path-26" transform="translate(0 0)"><path class="cls-1" d="M367.78,285.54H296a13.64,13.64,0,0,1-9.39-3.79H358.4A13.62,13.62,0,0,0,367.78,285.54Z"/></clipPath><clipPath id="clip-path-27" transform="translate(0 0)"><path class="cls-1" d="M276.57,730.84a6.06,6.06,0,0,1-2.9-.61h71.82a6.09,6.09,0,0,0,2.9.61Z"/></clipPath><clipPath id="clip-path-28" transform="translate(0 0)"><path class="cls-1" d="M340.37,162.21H268.55a14.65,14.65,0,0,1,7.78-8.78h71.82A14.68,14.68,0,0,0,340.37,162.21Z"/></clipPath><clipPath id="clip-path-29" transform="translate(0 0)"><path class="cls-1" d="M324.19,330.06H252.37a6.25,6.25,0,0,1,6-5.06h71.82A6.26,6.26,0,0,0,324.19,330.06Z"/></clipPath><clipPath id="clip-path-30" transform="translate(0 0)"><path class="cls-1" d="M321.39,246.74H249.56a15.68,15.68,0,0,1-3.91-16.29h71.82A15.67,15.67,0,0,0,321.39,246.74Z"/></clipPath><clipPath id="clip-path-31" transform="translate(0 0)"><path class="cls-1" d="M306.37,400.3H234.54a6.45,6.45,0,0,0,3.4-4.45h71.83A6.48,6.48,0,0,1,306.37,400.3Z"/></clipPath><clipPath id="clip-path-32" transform="translate(0 0)"><path class="cls-1" d="M295.47,332.07H223.65a15.59,15.59,0,0,0-3.59-10h71.83A15.54,15.54,0,0,1,295.47,332.07Z"/></clipPath><clipPath id="clip-path-33" transform="translate(0 0)"><path class="cls-1" d="M218.4,247.2A15.68,15.68,0,0,0,216.16,234H288a15.67,15.67,0,0,1,2.23,13.16Z"/></clipPath><clipPath id="clip-path-34" transform="translate(0 0)"><path class="cls-1" d="M281.3,366.16H209.48c7.3,0,14.17-6.14,14.17-15h71.82C295.47,360,288.61,366.16,281.3,366.16Z"/></clipPath><clipPath id="clip-path-35" transform="translate(0 0)"><path class="cls-1" d="M216.16,234a13.73,13.73,0,0,0-11.3-6h71.82A13.75,13.75,0,0,1,288,234H216.16Z"/></clipPath><clipPath id="clip-path-36" transform="translate(0 0)"><path class="cls-1" d="M208.59,308.38a15.7,15.7,0,0,1-3-14.18h71.82a15.72,15.72,0,0,0,3,14.18Z"/></clipPath><clipPath id="clip-path-37" transform="translate(0 0)"><path class="cls-1" d="M281.3,366.16H209.48A13.37,13.37,0,0,1,201,363h71.82A13.39,13.39,0,0,0,281.3,366.16Z"/></clipPath><clipPath id="clip-path-38" transform="translate(0 0)"><path class="cls-1" d="M256.57,685.32H184.75a6.48,6.48,0,0,1-1.41-1h71.83A6.19,6.19,0,0,0,256.57,685.32Z"/></clipPath><clipPath id="clip-path-39" transform="translate(0 0)"><path class="cls-1" d="M255.08,431H183.26a6.66,6.66,0,0,1,3.47-7.07h71.82A6.66,6.66,0,0,0,255.08,431Z"/></clipPath><clipPath id="clip-path-40" transform="translate(0 0)"><path class="cls-1" d="M179.4,453.66a6.48,6.48,0,0,0,6.34-7.69h71.82a6.48,6.48,0,0,1-6.33,7.69Z"/></clipPath><clipPath id="clip-path-41" transform="translate(0 0)"><path class="cls-1" d="M250.41,228.25H178.59a13.22,13.22,0,0,1,2.59-.25H253A13.29,13.29,0,0,0,250.41,228.25Z"/></clipPath><clipPath id="clip-path-42" transform="translate(0 0)"><path class="cls-1" d="M249.05,343.68H177.23a14,14,0,0,0-4.92-2.59h71.83A13.91,13.91,0,0,1,249.05,343.68Z"/></clipPath><clipPath id="clip-path-43" transform="translate(0 0)"><path class="cls-1" d="M228.38,452.57H156.55A6.21,6.21,0,0,1,151,448.1h71.82A6.22,6.22,0,0,0,228.38,452.57Z"/></clipPath><clipPath id="clip-path-44" transform="translate(0 0)"><path class="cls-1" d="M148.92,441.51a6.23,6.23,0,0,0-5.11-4.42h71.83a6.23,6.23,0,0,1,5.11,4.42Z"/></clipPath><clipPath id="clip-path-45" transform="translate(0 0)"><path class="cls-1" d="M182.47,254.78H110.64c-.27-7.45,4.63-14,11.52-15.36H194C187.09,240.79,182.19,247.33,182.47,254.78Z"/></clipPath><clipPath id="clip-path-46" transform="translate(0 0)"><path class="cls-1" d="M181,289H109.14a15.61,15.61,0,0,0,2.45-9.07h71.83A15.69,15.69,0,0,1,181,289Z"/></clipPath><clipPath id="clip-path-47" transform="translate(0 0)"><path class="cls-1" d="M181.74,323.22H109.92c-9.39-2.69-13.47-14.44-8-23h71.83C168.28,308.78,172.35,320.53,181.74,323.22Z"/></clipPath><clipPath id="clip-path-48" transform="translate(0 0)"><path class="cls-1" d="M161.48,437.44H89.65A6.36,6.36,0,0,1,95.8,431h71.82A6.35,6.35,0,0,0,161.48,437.44Z"/></clipPath><clipPath id="clip-path-49" transform="translate(0 0)"><path class="cls-1" d="M154.07,518.1H82.25a6.35,6.35,0,0,0,6.15-6.44h71.83A6.36,6.36,0,0,1,154.07,518.1Z"/></clipPath><clipPath id="clip-path-50" transform="translate(0 0)"><path class="cls-1" d="M79.42,517.36a5.82,5.82,0,0,0-2.84-.76h71.83a5.85,5.85,0,0,1,2.84.76,5.78,5.78,0,0,0,2.83.74H82.25A5.84,5.84,0,0,1,79.42,517.36Z"/></clipPath><clipPath id="clip-path-51" transform="translate(0 0)"><path class="cls-1" d="M142.43,524.74H70.61a6.48,6.48,0,0,1,6-8.13H148.4A6.48,6.48,0,0,0,142.43,524.74Z"/></clipPath><clipPath id="clip-path-52" transform="translate(0 0)"><path class="cls-1" d="M433.61,770H361.78C162,770,0,597.63,0,385S162,0,361.78,0h71.83C233.8,0,71.82,172.37,71.82,385S233.8,770,433.61,770Z"/></clipPath></defs><g id="レイヤー_2" data-name="レイヤー 2"><g id="レイヤー_1-2" data-name="レイヤー 1"><g class="cls-2"><g class="cls-2"><g class="cls-3"><g class="cls-2"><path class="cls-4" d="M544.82,404.26H473a6.81,6.81,0,0,0-.9-9.57h71.82a6.82,6.82,0,0,1,.91,9.57" transform="translate(0 0)"/></g></g></g><g class="cls-2"><g class="cls-5"><g class="cls-2"><path class="cls-4" d="M539.71,605.74H467.89c3.76-3.51,2.08-10.65-3.37-11.38h71.82c5.46.73,7.13,7.87,3.37,11.38" transform="translate(0 0)"/></g></g></g><g class="cls-2"><g class="cls-6"><g class="cls-2"><path class="cls-4" d="M539.71,605.74H467.89c3.76-3.51,2.08-10.65-3.37-11.38h71.82c5.46.73,7.13,7.87,3.37,11.38" transform="translate(0 0)"/></g></g></g><g class="cls-2"><g class="cls-7"><g class="cls-2"><path class="cls-8" d="M538.38,606.69H466.56a6.52,6.52,0,0,0,1.33-1h71.82a6.52,6.52,0,0,1-1.33,1" transform="translate(0 0)"/><path class="cls-4" d="M539.71,605.74H467.89c3.76-3.51,2.08-10.65-3.37-11.38h71.82c5.46.73,7.13,7.87,3.37,11.38" transform="translate(0 0)"/></g></g></g><g class="cls-2"><g class="cls-9"><g class="cls-2"><path class="cls-4" d="M539.71,605.74H467.89c3.76-3.51,2.08-10.65-3.37-11.38h71.82c5.46.73,7.13,7.87,3.37,11.38" transform="translate(0 0)"/></g></g></g><polygon class="cls-10" points="536.34 594.36 464.52 594.36 444.17 591.65 516 591.65 536.34 594.36"/><g class="cls-2"><g class="cls-11"><g class="cls-2"><path class="cls-4" d="M516,591.65H444.17a6.15,6.15,0,0,1-4.58-3.24h71.83a6.11,6.11,0,0,0,4.57,3.24" transform="translate(0 0)"/></g></g></g><g class="cls-2"><g class="cls-12"><g class="cls-2"><path class="cls-8" d="M499.38,114.42H427.56a15.11,15.11,0,0,0,2.66-2H502a14.75,14.75,0,0,1-2.66,2" transform="translate(0 0)"/><path class="cls-4" d="M502,112.46H430.22c6.9-6.43,6.33-18.67-2-24.09H500c8.34,5.42,8.9,17.66,2,24.09" transform="translate(0 0)"/></g></g></g><polygon class="cls-10" points="543.91 394.68 472.09 394.68 424.14 356.22 495.96 356.22 543.91 394.68"/><polygon class="cls-13" points="490.78 632.59 418.96 632.59 466.56 606.69 538.38 606.69 490.78 632.59"/><g class="cls-2"><g class="cls-14"><g class="cls-2"><path class="cls-4" d="M487.59,637H415.76a6.69,6.69,0,0,1,1.95-3.45h71.82a6.6,6.6,0,0,0-1.94,3.45" transform="translate(0 0)"/><path class="cls-8" d="M489.53,633.5H417.71a6.15,6.15,0,0,1,1.25-.91h71.82a6.15,6.15,0,0,0-1.25.91" transform="translate(0 0)"/></g></g></g><polygon class="cls-15" points="474.19 698.51 402.37 698.51 415.76 636.95 487.59 636.95 474.19 698.51"/><g class="cls-2"><g class="cls-16"><g class="cls-2"><path class="cls-8" d="M471.14,702.78H399.32a6.42,6.42,0,0,0,1.11-.83h71.82a6.42,6.42,0,0,1-1.11.83" transform="translate(0 0)"/><path class="cls-4" d="M472.25,702H400.43a6.64,6.64,0,0,0,1.94-3.44h71.82a6.57,6.57,0,0,1-1.94,3.44" transform="translate(0 0)"/></g></g></g><polygon class="cls-8" points="467.23 497.33 395.4 497.33 472.99 404.26 544.82 404.26 467.23 497.33"/><polygon class="cls-10" points="511.42 588.41 439.59 588.41 394.67 504.94 466.5 504.94 511.42 588.41"/><g class="cls-2"><g class="cls-17"><g class="cls-2"><path class="cls-4" d="M466.5,504.94H394.67a6.91,6.91,0,0,1,.73-7.61h71.83a6.91,6.91,0,0,0-.73,7.61" transform="translate(0 0)"/></g></g></g><g class="cls-2"><g class="cls-18"><g class="cls-2"><path class="cls-4" d="M459.87,245.37H388.05a15.74,15.74,0,0,0,1.35-21.13h71.83a15.74,15.74,0,0,1-1.36,21.13" transform="translate(0 0)"/></g></g></g><polygon class="cls-10" points="500.04 88.37 428.21 88.37 389.4 63.13 461.23 63.13 500.04 88.37"/><g class="cls-2"><g class="cls-19"><g class="cls-2"><path class="cls-8" d="M455.94,248H384.11a14.25,14.25,0,0,0,3.94-2.59h71.82a14.19,14.19,0,0,1-3.93,2.59" transform="translate(0 0)"/><path class="cls-4" d="M459.87,245.37H388.05a15.74,15.74,0,0,0,1.35-21.13h71.83a15.74,15.74,0,0,1-1.36,21.13" transform="translate(0 0)"/></g></g></g><g class="cls-2"><g class="cls-20"><g class="cls-2"><path class="cls-4" d="M461.23,63.13H389.4A13.48,13.48,0,0,0,382,60.92h71.82a13.53,13.53,0,0,1,7.37,2.21" transform="translate(0 0)"/></g></g></g><g class="cls-2"><g class="cls-21"><g class="cls-2"><path class="cls-4" d="M461.23,63.13H389.4A13.48,13.48,0,0,0,382,60.92h71.82a13.53,13.53,0,0,1,7.37,2.21" transform="translate(0 0)"/></g></g></g><polygon class="cls-10" points="495.96 356.22 424.14 356.22 376.12 315.34 447.94 315.34 495.96 356.22"/><g class="cls-2"><g class="cls-22"><g class="cls-2"><path class="cls-23" d="M445.77,63.64H373.94a14.11,14.11,0,0,1,3-1.71h71.83a14.11,14.11,0,0,0-3,1.71" transform="translate(0 0)"/><path class="cls-24" d="M448.78,61.93H377a13.43,13.43,0,0,1,5.09-1h71.83a13.39,13.39,0,0,0-5.09,1" transform="translate(0 0)"/></g></g></g><g class="cls-2"><g class="cls-25"><g class="cls-2"><path class="cls-4" d="M447.94,315.34H376.11a5.91,5.91,0,0,0-3.83-1.43H444.1a5.94,5.94,0,0,1,3.84,1.43" transform="translate(0 0)"/></g></g></g><g class="cls-2"><g class="cls-26"><g class="cls-2"><path class="cls-4" d="M447.94,315.34H376.11a5.91,5.91,0,0,0-3.83-1.43H444.1a5.94,5.94,0,0,1,3.84,1.43" transform="translate(0 0)"/></g></g></g><g class="cls-2"><g class="cls-27"><g class="cls-2"><path class="cls-24" d="M443,314h0" transform="translate(0 0)"/></g></g></g><polygon class="cls-10" points="461.23 224.24 389.4 224.24 370.28 200.68 442.11 200.68 461.23 224.24"/><polygon class="cls-13" points="433.84 724.5 362.02 724.5 399.32 702.77 471.14 702.77 433.84 724.5"/><polygon class="cls-13" points="431.73 153.3 359.9 153.3 427.56 114.42 499.38 114.42 431.73 153.3"/><g class="cls-2"><g class="cls-28"><g class="cls-2"><path class="cls-29" d="M431.27,725.28H359.44a5.6,5.6,0,0,0,1.85-.42h71.82a5.6,5.6,0,0,1-1.84.42" transform="translate(0 0)"/><path class="cls-8" d="M433.11,724.86H361.29a5.49,5.49,0,0,0,.73-.36h71.82a5.49,5.49,0,0,1-.73.36" transform="translate(0 0)"/></g></g></g><g class="cls-2"><g class="cls-30"><g class="cls-2"><path class="cls-4" d="M425.18,161.33H353.36a15.1,15.1,0,0,1,3.95-6.11h71.82a15.21,15.21,0,0,0-3.95,6.11" transform="translate(0 0)"/><path class="cls-8" d="M429.13,155.22H357.31a14.24,14.24,0,0,1,2.59-1.92h71.83a14,14,0,0,0-2.6,1.92" transform="translate(0 0)"/></g></g></g><g class="cls-2"><g class="cls-31"><g class="cls-2"><path class="cls-4" d="M442.11,200.68H370.28a13.87,13.87,0,0,0-9.61-5.15c-9.33-.77-15.41-10.83-12.17-20.19h71.83c-3.24,9.36,2.83,19.42,12.17,20.19a13.87,13.87,0,0,1,9.61,5.15" transform="translate(0 0)"/></g></g></g><polygon class="cls-32" points="420.33 175.34 348.5 175.34 353.36 161.32 425.18 161.32 420.33 175.34"/><g class="cls-2"><g class="cls-33"><g class="cls-2"><path class="cls-4" d="M442.11,200.68H370.28a13.87,13.87,0,0,0-9.61-5.15c-9.33-.77-15.41-10.83-12.17-20.19h71.83c-3.24,9.36,2.83,19.42,12.17,20.19a13.87,13.87,0,0,1,9.61,5.15" transform="translate(0 0)"/></g></g></g><polygon class="cls-34" points="405.21 93.85 333.38 93.85 373.94 63.64 445.77 63.64 405.21 93.85"/><polygon class="cls-35" points="401.05 115.22 329.22 115.22 327.9 110.3 399.73 110.3 401.05 115.22"/><g class="cls-2"><g class="cls-36"><g class="cls-2"><path class="cls-37" d="M399.73,110.3H327.9a15.63,15.63,0,0,1,4.27-15.43H404a15.63,15.63,0,0,0-4.26,15.43" transform="translate(0 0)"/><path class="cls-23" d="M404,94.87H332.17a14.82,14.82,0,0,1,1.21-1h71.83a15,15,0,0,0-1.22,1" transform="translate(0 0)"/></g></g></g><g class="cls-2"><g class="cls-38"><g class="cls-2"><path class="cls-23" d="M393,133.19H321.15a13.93,13.93,0,0,0,3.8-2.53h71.83a14.09,14.09,0,0,1-3.8,2.53" transform="translate(0 0)"/><path class="cls-37" d="M396.78,130.66H325a15.64,15.64,0,0,0,4.27-15.44h71.83a15.68,15.68,0,0,1-4.27,15.44" transform="translate(0 0)"/></g></g></g><polygon class="cls-24" points="384.22 325 312.4 325 371.2 314.01 443.03 314.01 384.22 325"/><polygon class="cls-39" points="373.18 284.4 301.36 284.4 384.11 247.96 455.94 247.96 373.18 284.4"/><g class="cls-2"><g class="cls-40"><g class="cls-2"><path class="cls-29" d="M367.78,285.54H296a13.24,13.24,0,0,0,5.11-1h71.82a13.19,13.19,0,0,1-5.1,1" transform="translate(0 0)"/><path class="cls-8" d="M372.88,284.52H301.06l.29-.12h71.83l-.3.12" transform="translate(0 0)"/></g></g></g><g class="cls-2"><g class="cls-41"><g class="cls-2"><path class="cls-37" d="M367.78,285.54H296a13.64,13.64,0,0,1-9.39-3.79H358.4a13.62,13.62,0,0,0,9.38,3.79" transform="translate(0 0)"/></g></g></g><polygon class="cls-24" points="348.15 153.42 276.33 153.42 321.15 133.19 392.98 133.19 348.15 153.42"/><polygon class="cls-39" points="348.1 730.85 276.28 730.85 359.44 725.28 431.27 725.28 348.1 730.85"/><g class="cls-2"><g class="cls-42"><g class="cls-2"><path class="cls-37" d="M348.39,730.84H276.56a6,6,0,0,1-2.89-.61h71.82a6.09,6.09,0,0,0,2.9.61" transform="translate(0 0)"/></g></g></g><g class="cls-2"><g class="cls-43"><g class="cls-2"><path class="cls-37" d="M340.37,162.21H268.55a15.06,15.06,0,0,1,4-6.26h71.82a15.16,15.16,0,0,0-4,6.26" transform="translate(0 0)"/><path class="cls-23" d="M344.37,156H272.55a13.72,13.72,0,0,1,3.78-2.52h71.82a13.87,13.87,0,0,0-3.78,2.52" transform="translate(0 0)"/></g></g></g><polygon class="cls-24" points="330.19 325 258.37 325 312.4 325 384.22 325 330.19 325"/><g class="cls-2"><g class="cls-44"><g class="cls-2"><path class="cls-37" d="M324.19,330.06H252.37a6.52,6.52,0,0,1,1.94-3.43h71.82a6.66,6.66,0,0,0-1.94,3.43" transform="translate(0 0)"/><path class="cls-23" d="M326.13,326.63H254.31a6,6,0,0,1,1.84-1.19H328a6,6,0,0,0-1.84,1.19" transform="translate(0 0)"/><path class="cls-24" d="M328,325.44H256.15a5.9,5.9,0,0,1,2.22-.44h71.82a5.9,5.9,0,0,0-2.22.44" transform="translate(0 0)"/></g></g></g><polygon class="cls-35" points="358.4 281.75 286.57 281.75 249.56 246.74 321.39 246.74 358.4 281.75"/><polygon class="cls-45" points="317.47 230.45 245.65 230.45 268.55 162.21 340.37 162.21 317.47 230.45"/><path class="cls-46" d="M453.87,60.92a13.53,13.53,0,0,1,7.36,2.21L500,88.37c9.29,6,8.93,20.54-.65,26.05L431.73,153.3a14.86,14.86,0,0,0-6.55,8l-4.85,14c-3.24,9.36,2.83,19.42,12.17,20.19a13.87,13.87,0,0,1,9.61,5.15l19.12,23.57c6.29,7.75,3.61,19.79-5.29,23.71L373.18,284.4a13.33,13.33,0,0,1-5.4,1.14,13.62,13.62,0,0,1-9.38-3.79l-37-35a15.67,15.67,0,0,1-3.92-16.29l22.9-68.24a14.68,14.68,0,0,1,7.78-8.78L393,133.19c6.57-3,10-10.67,8.07-18l-1.32-4.92a15.54,15.54,0,0,1,5.48-16.45l40.56-30.21A13.5,13.5,0,0,1,453.87,60.92Z" transform="translate(0 0)"/><g class="cls-2"><g class="cls-47"><g class="cls-2"><path class="cls-37" d="M321.39,246.74H249.56a15.68,15.68,0,0,1-3.91-16.29h71.82a15.67,15.67,0,0,0,3.92,16.29" transform="translate(0 0)"/></g></g></g><polygon class="cls-48" points="309.77 395.85 237.94 395.85 252.37 330.06 324.19 330.06 309.77 395.85"/><g class="cls-2"><g class="cls-49"><g class="cls-2"><path class="cls-23" d="M306.37,400.3H234.54a5.91,5.91,0,0,0,1.46-1h71.83a6.31,6.31,0,0,1-1.46,1" transform="translate(0 0)"/><path class="cls-37" d="M307.83,399.3H236a6.64,6.64,0,0,0,1.94-3.45h71.83a6.78,6.78,0,0,1-1.94,3.45" transform="translate(0 0)"/></g></g></g><rect class="cls-15" x="223.65" y="332.06" width="71.82" height="19.05"/><g class="cls-2"><g class="cls-50"><g class="cls-2"><path class="cls-4" d="M295.47,332.07H223.65a15.59,15.59,0,0,0-3.59-10h71.83a15.54,15.54,0,0,1,3.58,10" transform="translate(0 0)"/></g></g></g><g class="cls-2"><g class="cls-51"><g class="cls-2"><path class="cls-4" d="M290.22,247.2H218.4c2.63-9.61-4.15-19.2-13.54-19.2h71.82c9.4,0,16.17,9.59,13.54,19.2" transform="translate(0 0)"/></g></g></g><g class="cls-2"><g class="cls-52"><g class="cls-2"><path class="cls-29" d="M281.3,366.16H209.48a13.54,13.54,0,0,0,5.11-1h71.83a13.59,13.59,0,0,1-5.12,1" transform="translate(0 0)"/><path class="cls-8" d="M286.42,365.14H214.59a14.22,14.22,0,0,0,4.31-2.78h71.83a14.46,14.46,0,0,1-4.31,2.78" transform="translate(0 0)"/><path class="cls-4" d="M290.73,362.36H218.9a15.14,15.14,0,0,0,4.75-11.24h71.82a15.17,15.17,0,0,1-4.74,11.24" transform="translate(0 0)"/></g></g></g><polygon class="cls-10" points="291.89 322.06 220.06 322.06 208.59 308.38 280.41 308.38 291.89 322.06"/><polygon class="cls-15" points="277.38 294.2 205.56 294.2 218.4 247.2 290.22 247.2 277.38 294.2"/><g class="cls-2"><g class="cls-53"><g class="cls-2"><path class="cls-4" d="M290.22,247.2H218.4c2.63-9.61-4.15-19.2-13.54-19.2h71.82c9.4,0,16.17,9.59,13.54,19.2" transform="translate(0 0)"/></g></g></g><g class="cls-2"><g class="cls-54"><g class="cls-2"><path class="cls-4" d="M280.41,308.38H208.59a15.7,15.7,0,0,1-3-14.18h71.82a15.72,15.72,0,0,0,3,14.18" transform="translate(0 0)"/></g></g></g><g class="cls-2"><g class="cls-55"><g class="cls-2"><path class="cls-37" d="M281.3,366.16H209.48A13.37,13.37,0,0,1,201,363h71.82a13.39,13.39,0,0,0,8.52,3.12" transform="translate(0 0)"/></g></g></g><polygon class="cls-24" points="258.55 423.95 186.73 423.95 234.54 400.3 306.37 400.3 258.55 423.95"/><polygon class="cls-35" points="345.49 730.23 273.67 730.23 184.75 685.32 256.57 685.32 345.49 730.23"/><g class="cls-2"><g class="cls-56"><g class="cls-2"><path class="cls-37" d="M256.57,685.32H184.75a6.48,6.48,0,0,1-1.41-1h71.83a6.19,6.19,0,0,0,1.4,1" transform="translate(0 0)"/></g></g></g><polygon class="cls-48" points="257.56 445.97 185.74 445.97 183.26 431.03 255.08 431.03 257.56 445.97"/><g class="cls-2"><g class="cls-57"><g class="cls-2"><path class="cls-37" d="M255.08,431H183.26a6.81,6.81,0,0,1,2-6.06h71.83a6.79,6.79,0,0,0-2,6.06" transform="translate(0 0)"/><path class="cls-23" d="M257.09,425H185.26a6.2,6.2,0,0,1,1.47-1h71.82a5.94,5.94,0,0,0-1.46,1" transform="translate(0 0)"/></g></g></g><polygon class="cls-24" points="253 228 181.18 228 204.86 228 276.68 228 253 228"/><g class="cls-2"><g class="cls-58"><g class="cls-2"><path class="cls-24" d="M251.23,453.66H179.4a6.42,6.42,0,0,0,2.46-.48h71.82a6.37,6.37,0,0,1-2.45.48" transform="translate(0 0)"/><path class="cls-23" d="M253.68,453.18H181.86a6.31,6.31,0,0,0,1.9-1.22h71.82a6.31,6.31,0,0,1-1.9,1.22" transform="translate(0 0)"/><path class="cls-37" d="M255.58,452H183.76a6.69,6.69,0,0,0,2-6h71.82a6.64,6.64,0,0,1-2,6" transform="translate(0 0)"/></g></g></g><g class="cls-2"><g class="cls-59"><g class="cls-2"><path class="cls-24" d="M250.41,228.25H178.59a13.22,13.22,0,0,1,2.59-.25H253a13.29,13.29,0,0,0-2.59.25" transform="translate(0 0)"/></g></g></g><polygon class="cls-35" points="272.78 363.03 200.96 363.03 177.23 343.68 249.05 343.68 272.78 363.03"/><g class="cls-2"><g class="cls-60"><g class="cls-2"><path class="cls-37" d="M249.05,343.68H177.23a14,14,0,0,0-4.92-2.59h71.83a13.91,13.91,0,0,1,4.91,2.59" transform="translate(0 0)"/></g></g></g><polygon class="cls-10" points="251.5 453.66 179.68 453.66 156.55 452.57 228.38 452.57 251.5 453.66"/><g class="cls-2"><g class="cls-61"><g class="cls-2"><path class="cls-4" d="M228.38,452.57H156.55A6.21,6.21,0,0,1,151,448.1h71.82a6.22,6.22,0,0,0,5.57,4.47" transform="translate(0 0)"/></g></g></g><polygon class="cls-10" points="222.81 448.1 150.99 448.1 148.92 441.51 220.75 441.51 222.81 448.1"/><g class="cls-2"><g class="cls-62"><g class="cls-2"><path class="cls-4" d="M220.75,441.51H148.92a6.23,6.23,0,0,0-5.11-4.42h71.83a6.23,6.23,0,0,1,5.11,4.42" transform="translate(0 0)"/></g></g></g><polygon class="cls-24" points="193.99 239.42 122.16 239.42 178.59 228.25 250.41 228.25 193.99 239.42"/><polygon class="cls-48" points="183.42 279.96 111.59 279.96 110.64 254.78 182.47 254.78 183.42 279.96"/><g class="cls-2"><g class="cls-63"><g class="cls-2"><path class="cls-37" d="M182.47,254.78H110.64a15.45,15.45,0,0,1,4.81-11.89h71.82a15.45,15.45,0,0,0-4.8,11.89" transform="translate(0 0)"/><path class="cls-23" d="M187.27,242.89H115.45a13.75,13.75,0,0,1,4.21-2.71h71.82a13.87,13.87,0,0,0-4.21,2.71" transform="translate(0 0)"/><path class="cls-24" d="M191.48,240.18H119.66a13.15,13.15,0,0,1,2.5-.76H194a13.25,13.25,0,0,0-2.51.76" transform="translate(0 0)"/></g></g></g><polygon class="cls-35" points="244.14 341.09 172.31 341.09 109.92 323.22 181.74 323.22 244.14 341.09"/><g class="cls-2"><g class="cls-64"><g class="cls-2"><path class="cls-37" d="M181,289H109.14a15.61,15.61,0,0,0,2.45-9.07h71.83A15.69,15.69,0,0,1,181,289" transform="translate(0 0)"/></g></g></g><polygon class="cls-65" points="173.77 300.24 101.94 300.24 109.14 289.04 180.96 289.04 173.77 300.24"/><polygon class="cls-10" points="215.64 437.09 143.81 437.09 96.54 431.05 168.37 431.05 215.64 437.09"/><path class="cls-46" d="M276.68,228c9.4,0,16.17,9.59,13.54,19.21l-12.84,47a15.75,15.75,0,0,0,3,14.19l11.48,13.68a15.56,15.56,0,0,1,3.58,10v19.05c0,8.9-6.86,15-14.17,15a13.39,13.39,0,0,1-8.52-3.12l-23.73-19.36a13.91,13.91,0,0,0-4.91-2.59l-62.4-17.87c-9.39-2.69-13.46-14.44-8-23L181,289a15.69,15.69,0,0,0,2.46-9.07l-.95-25.19c-.28-7.45,4.62-14,11.52-15.36l56.42-11.17A13.29,13.29,0,0,1,253,228Z" transform="translate(0 0)"/><g class="cls-2"><g class="cls-66"><g class="cls-2"><path class="cls-37" d="M181.74,323.22H109.92c-9.39-2.69-13.47-14.44-8-23h71.83c-5.49,8.54-1.42,20.29,8,23" transform="translate(0 0)"/></g></g></g><g class="cls-2"><g class="cls-67"><g class="cls-2"><path class="cls-37" d="M161.48,437.44H89.65a6.68,6.68,0,0,1,2.1-4.81h71.82a6.71,6.71,0,0,0-2.09,4.81" transform="translate(0 0)"/><path class="cls-23" d="M163.57,432.63H91.75a6,6,0,0,1,1.85-1.19h71.82a6,6,0,0,0-1.85,1.19" transform="translate(0 0)"/><path class="cls-24" d="M165.42,431.44H93.6a5.8,5.8,0,0,1,2.2-.44h71.82a5.83,5.83,0,0,0-2.2.44" transform="translate(0 0)"/></g></g></g><polygon class="cls-48" points="160.23 511.66 88.4 511.66 89.65 437.44 161.48 437.44 160.23 511.66"/><polygon class="cls-35" points="255.17 684.33 183.34 684.33 88.15 595.9 159.97 595.9 255.17 684.33"/><g class="cls-2"><g class="cls-68"><g class="cls-2"><path class="cls-24" d="M154.07,518.1H82.25a5.68,5.68,0,0,0,2.2-.44h71.83a5.73,5.73,0,0,1-2.21.44" transform="translate(0 0)"/><path class="cls-23" d="M156.28,517.66H84.45a6,6,0,0,0,1.87-1.2h71.83a6.22,6.22,0,0,1-1.87,1.2" transform="translate(0 0)"/><path class="cls-37" d="M158.15,516.46H86.32a6.65,6.65,0,0,0,2.08-4.8h71.83a6.65,6.65,0,0,1-2.08,4.8" transform="translate(0 0)"/></g></g></g><g class="cls-2"><g class="cls-69"><g class="cls-2"><path class="cls-4" d="M154.08,518.1H82.25a5.84,5.84,0,0,1-2.83-.74,5.82,5.82,0,0,0-2.84-.76h71.83a5.85,5.85,0,0,1,2.84.76,5.78,5.78,0,0,0,2.83.74" transform="translate(0 0)"/></g></g></g><polygon class="cls-35" points="158.04 592.52 86.22 592.52 70.61 524.74 142.43 524.74 158.04 592.52"/><path class="cls-46" d="M443,314c2.46-.1,3.82.4,4.91,1.33l48,40.88,47.95,38.47a6.82,6.82,0,0,1,.91,9.57l-77.59,93.07a6.91,6.91,0,0,0-.73,7.61l44.92,83.47a6.15,6.15,0,0,0,4.58,3.24l20.34,2.71c6,.8,7.44,9.4,2,12.33l-47.59,25.9a6.54,6.54,0,0,0-3.2,4.36l-13.4,61.56a6.54,6.54,0,0,1-3,4.27L433.84,724.5a5.85,5.85,0,0,1-2.57.79l-82.76,5.55a6.26,6.26,0,0,1-3-.61l-88.92-44.91a6.19,6.19,0,0,1-1.4-1L160,595.9a6.76,6.76,0,0,1-1.93-3.37l-15.61-67.79a6.48,6.48,0,0,1,6-8.13,5.78,5.78,0,0,1,2.84.75,5.84,5.84,0,0,0,2.83.74,6.36,6.36,0,0,0,6.16-6.44l1.25-74.22a6.35,6.35,0,0,1,6.14-6.44l48,6.09a6.24,6.24,0,0,1,5.11,4.43l2.06,6.58a6.23,6.23,0,0,0,5.56,4.48l22.86,1.08a6.48,6.48,0,0,0,6.33-7.69L255.08,431a6.66,6.66,0,0,1,3.47-7.07l47.82-23.66a6.48,6.48,0,0,0,3.4-4.45l14.42-65.79a6.26,6.26,0,0,1,6-5.06h54Z" transform="translate(0 0)"/><g class="cls-2"><g class="cls-70"><g class="cls-2"><path class="cls-37" d="M142.43,524.74H70.61a6.73,6.73,0,0,1,1.91-6.49h71.83a6.71,6.71,0,0,0-1.92,6.49" transform="translate(0 0)"/><path class="cls-23" d="M144.35,518.25H72.52A6.37,6.37,0,0,1,74.4,517h71.83a6.24,6.24,0,0,0-1.88,1.21" transform="translate(0 0)"/><path class="cls-24" d="M146.23,517H74.4a5.76,5.76,0,0,1,2.18-.43H148.4a5.71,5.71,0,0,0-2.17.43" transform="translate(0 0)"/></g></g></g><g class="cls-2"><g class="cls-71"><g class="cls-2"><path class="cls-4" d="M433.61,770H361.78C162,770,0,597.63,0,385,0,269.51,47.79,165.89,123.46,95.33h71.83C119.61,165.89,71.82,269.51,71.82,385c0,212.64,162,385,361.79,385" transform="translate(0 0)"/><path class="cls-8" d="M195.29,95.33H123.46A358.23,358.23,0,0,1,231.58,25.69H303.4A358.19,358.19,0,0,0,195.29,95.33" transform="translate(0 0)"/><path class="cls-29" d="M303.4,25.69H231.58A341.75,341.75,0,0,1,361.78,0h71.83A341.8,341.8,0,0,0,303.4,25.69" transform="translate(0 0)"/></g></g></g><path class="cls-72" d="M433.61,0c199.8,0,361.78,172.37,361.78,385s-162,385-361.78,385S71.82,597.63,71.82,385,233.8,0,433.61,0ZM544.82,404.26a6.82,6.82,0,0,0-.91-9.57L496,356.22l-48-40.88a5.94,5.94,0,0,0-3.84-1.43l-58.8,11-55.11.1a6.25,6.25,0,0,0-6,5.06l-14.42,65.79a6.5,6.5,0,0,1-3.4,4.45L258.55,424a6.66,6.66,0,0,0-3.46,7.08L257.56,446a6.44,6.44,0,0,1-6.06,7.69l-23.12-1.09a6.22,6.22,0,0,1-5.57-4.47l-2.06-6.59a6.23,6.23,0,0,0-5.11-4.42l-47.28-6a6.45,6.45,0,0,0-6.88,6.39l-1.25,74.22a6.35,6.35,0,0,1-6.15,6.44,5.78,5.78,0,0,1-2.83-.74,5.85,5.85,0,0,0-2.84-.76,6.49,6.49,0,0,0-6,8.14l15.62,67.79A6.68,6.68,0,0,0,160,595.9l95.2,88.43a5.8,5.8,0,0,0,1.4,1l88.92,44.91a5.71,5.71,0,0,0,2.61.63l83.17-5.57a5.75,5.75,0,0,0,2.57-.78l37.3-21.72a6.52,6.52,0,0,0,3.05-4.27L487.59,637a6.53,6.53,0,0,1,3.19-4.36l47.6-25.9c5.4-2.93,4-11.53-2-12.33L516,591.65a6.11,6.11,0,0,1-4.57-3.24L466.5,504.94a6.91,6.91,0,0,1,.73-7.61l77.59-93.07M317.47,230.45a15.69,15.69,0,0,0,3.91,16.29l37,35a13.62,13.62,0,0,0,9.38,3.79,13.36,13.36,0,0,0,5.4-1.14L455.94,248c8.9-3.92,11.58-16,5.29-23.72l-19.12-23.56a13.87,13.87,0,0,0-9.61-5.15c-9.34-.77-15.41-10.83-12.17-20.19l4.85-14a14.82,14.82,0,0,1,6.55-8l67.65-38.88c9.59-5.51,9.95-20,.66-26L461.23,63.13a13.39,13.39,0,0,0-15.46.51L405.21,93.85a15.56,15.56,0,0,0-5.49,16.45l1.33,4.92c1.95,7.3-1.5,15-8.07,18l-44.83,20.24a14.65,14.65,0,0,0-7.78,8.78l-22.9,68.24m-143.7,69.79c-5.49,8.54-1.42,20.29,8,23l62.4,17.87a13.8,13.8,0,0,1,4.91,2.58L272.79,363a13.35,13.35,0,0,0,8.51,3.12c7.31,0,14.17-6.14,14.17-15V332.07a15.54,15.54,0,0,0-3.58-10l-11.48-13.69a15.72,15.72,0,0,1-3-14.18l12.84-47c2.63-9.61-4.14-19.2-13.54-19.2H253a13.29,13.29,0,0,0-2.59.25L194,239.42c-6.89,1.37-11.8,7.91-11.52,15.36l.95,25.18A15.71,15.71,0,0,1,181,289l-7.19,11.2" transform="translate(0 0)"/></g></g></g></svg>