<svg id="レイヤー_1" data-name="レイヤー 1" xmlns="http://www.w3.org/2000/svg" xmlns:xlink="http://www.w3.org/1999/xlink" viewBox="0 0 799.06 775.06"><defs><style>.cls-1{fill:none;}.cls-2{fill:#ed7a1e;}.cls-3{isolation:isolate;}.cls-4{fill:#f5901e;}.cls-5{clip-path:url(#clip-path);}.cls-6{fill:#ea7e1c;}.cls-7{fill:#ea7f1c;}.cls-8{fill:#eb801c;}</style><clipPath id="clip-path"><path class="cls-1" d="M437.41,775.06H365.58c-201.1,0-364.13-173.49-364.13-387.51S164.48.06,365.58.06h71.83C236.3.06,73.27,173.54,73.27,387.55S236.3,775.06,437.41,775.06Z"/></clipPath></defs><circle class="cls-2" cx="399.53" cy="387.53" r="357.8"/><g class="cls-3"><path class="cls-4" d="M437.41.06c201.1,0,364.12,173.48,364.12,387.49s-163,387.51-364.12,387.51S73.27,601.57,73.27,387.55,236.3.06,437.41.06Z"/><g class="cls-3"><g class="cls-5"><g class="cls-3"><path class="cls-6" d="M437.41,775.06H365.58c-201.1,0-364.13-173.49-364.13-387.51C1.45,271.31,49.54,167,125.71,96h71.83C121.37,167,73.27,271.31,73.27,387.55c0,214,163,387.51,364.14,387.51"/><path class="cls-7" d="M197.54,96H125.71a360.6,360.6,0,0,1,108.82-70.1h71.82A360.67,360.67,0,0,0,197.54,96"/><path class="cls-8" d="M306.35,25.91H234.53A344,344,0,0,1,365.58.06h71.83A344,344,0,0,0,306.35,25.91"/></g></g></g></g></svg>