<svg xmlns="http://www.w3.org/2000/svg" xmlns:xlink="http://www.w3.org/1999/xlink" viewBox="0 0 578 662.09"><defs><style>.cls-1{fill:none;}.cls-2{isolation:isolate;}.cls-3{clip-path:url(#clip-path);}.cls-4{fill:#b39d70;}.cls-5{fill:#d5d5d5;}.cls-6{clip-path:url(#clip-path-2);}.cls-7{fill:#cdcdcd;}.cls-8{fill:#cfcfcf;}.cls-9{fill:#d1d1d1;}.cls-10{clip-path:url(#clip-path-3);}.cls-11{fill:#484848;}.cls-12{clip-path:url(#clip-path-4);}.cls-13{fill:#454545;}.cls-14{clip-path:url(#clip-path-5);}.cls-15{fill:#cbcbcb;}.cls-16{fill:#4b4b4b;}.cls-17{clip-path:url(#clip-path-6);}.cls-18{fill:#424242;}.cls-19{fill:#ccc;}.cls-20{fill:#494949;}.cls-21{fill:#3c3c3c;}.cls-22{clip-path:url(#clip-path-7);}.cls-23{fill:#4a4a4a;}.cls-24{clip-path:url(#clip-path-8);}.cls-25{fill:#3d3d3d;}.cls-26{clip-path:url(#clip-path-9);}.cls-27{clip-path:url(#clip-path-10);}.cls-28{clip-path:url(#clip-path-11);}.cls-29{clip-path:url(#clip-path-12);}.cls-30{clip-path:url(#clip-path-13);}.cls-31{clip-path:url(#clip-path-14);}.cls-32{clip-path:url(#clip-path-15);}.cls-33{clip-path:url(#clip-path-16);}.cls-34{clip-path:url(#clip-path-17);}.cls-35{fill:#030303;}.cls-36{clip-path:url(#clip-path-18);}.cls-37{clip-path:url(#clip-path-19);}.cls-38{clip-path:url(#clip-path-20);}.cls-39{fill:#d4d4d4;}.cls-40{clip-path:url(#clip-path-21);}.cls-41{clip-path:url(#clip-path-22);}.cls-42{clip-path:url(#clip-path-23);}.cls-43{clip-path:url(#clip-path-24);}.cls-44{fill:#fdfdfd;}.cls-45{clip-path:url(#clip-path-25);}.cls-46{clip-path:url(#clip-path-26);}.cls-47{clip-path:url(#clip-path-27);}.cls-48{clip-path:url(#clip-path-28);}.cls-49{clip-path:url(#clip-path-29);}.cls-50{clip-path:url(#clip-path-30);}.cls-51{clip-path:url(#clip-path-31);}.cls-52{clip-path:url(#clip-path-32);}.cls-53{clip-path:url(#clip-path-33);}.cls-54{clip-path:url(#clip-path-34);}.cls-55{clip-path:url(#clip-path-35);}.cls-56{fill:#b29671;}.cls-57{fill:#cc964f;}.cls-58{clip-path:url(#clip-path-36);}.cls-59{fill:#b5966d;}.cls-60{clip-path:url(#clip-path-37);}.cls-61{fill:#b59d6d;}.cls-62{fill:#cca34f;}.cls-63{fill:#b29d71;}.cls-64{clip-path:url(#clip-path-38);}.cls-65{clip-path:url(#clip-path-39);}.cls-66{clip-path:url(#clip-path-40);}.cls-67{clip-path:url(#clip-path-41);}.cls-68{clip-path:url(#clip-path-42);}.cls-69{fill:#fcd44c;}.cls-70{clip-path:url(#clip-path-43);}.cls-71{fill:#d0b96b;}.cls-72{fill:#ceb86d;}.cls-73{fill:#ccb76e;}.cls-74{clip-path:url(#clip-path-44);}</style><clipPath id="clip-path" transform="translate(0 -12.15)"><path class="cls-1" d="M25.33,650.33a6.54,6.54,0,0,0,1.6,4.27v17.1a6.54,6.54,0,0,1-1.6-4.27v-17.1Z"/></clipPath><clipPath id="clip-path-2" transform="translate(0 -12.15)"><path class="cls-1" d="M205.61,232.92a17.73,17.73,0,0,0,8.4-3.34v17.1a17.63,17.63,0,0,1-8.4,3.34,13.38,13.38,0,0,1-1.67.11,15.52,15.52,0,0,1-7.67-2.18q-4.61-2.58-4.6-9.71v-17.1q0,7.13,4.6,9.71a15.52,15.52,0,0,0,7.67,2.18A13.38,13.38,0,0,0,205.61,232.92Z"/></clipPath><clipPath id="clip-path-3" transform="translate(0 -12.15)"><path class="cls-1" d="M191.67,238.24v-17.1c0-.12,0-.24,0-.37v17.1C191.68,238,191.67,238.12,191.67,238.24Z"/></clipPath><clipPath id="clip-path-4" transform="translate(0 -12.15)"><path class="cls-1" d="M201.58,237.74v-17.1a2.67,2.67,0,0,0,.84,1.87v17.1A2.67,2.67,0,0,1,201.58,237.74Z"/></clipPath><clipPath id="clip-path-5" transform="translate(0 -12.15)"><path class="cls-1" d="M201.58,237.74v0Z"/></clipPath><clipPath id="clip-path-6" transform="translate(0 -12.15)"><path class="cls-1" d="M202.42,239.61v-17.1a2.52,2.52,0,0,0,1.84.68,6.3,6.3,0,0,0,2-.41c1.77-.61,4.75-2.74,9-6.4v17.1c-4.23,3.66-7.21,5.79-9,6.41a6.53,6.53,0,0,1-2,.4A2.52,2.52,0,0,1,202.42,239.61Z"/></clipPath><clipPath id="clip-path-7" transform="translate(0 -12.15)"><path class="cls-1" d="M169.18,234.34v-17.1a12.16,12.16,0,0,0,6-2.71,27.65,27.65,0,0,0,6.87-9.28v17.1a27.65,27.65,0,0,1-6.87,9.28A12.16,12.16,0,0,1,169.18,234.34Z"/></clipPath><clipPath id="clip-path-8" transform="translate(0 -12.15)"><path class="cls-1" d="M288.94,203.39v17.1a3.36,3.36,0,0,1-.07.59V204A3.36,3.36,0,0,0,288.94,203.39Z"/></clipPath><clipPath id="clip-path-9" transform="translate(0 -12.15)"><path class="cls-1" d="M288.94,203.39v17.1c0-.72-.4-1.08-1.19-1.08v-17.1C288.54,202.31,288.94,202.67,288.94,203.39Z"/></clipPath><clipPath id="clip-path-10" transform="translate(0 -12.15)"><path class="cls-1" d="M165.81,227v-17.1a7.77,7.77,0,0,0,4.28-1.39,10.26,10.26,0,0,0,3.16-3.21,34.6,34.6,0,0,0,2-4v17.1a35.6,35.6,0,0,1-2,4,10.34,10.34,0,0,1-3.16,3.2A7.77,7.77,0,0,1,165.81,227Z"/></clipPath><clipPath id="clip-path-11" transform="translate(0 -12.15)"><path class="cls-1" d="M300.12,196.55v17.1a3.39,3.39,0,0,1,0,.55V197.1A3.48,3.48,0,0,0,300.12,196.55Z"/></clipPath><clipPath id="clip-path-12" transform="translate(0 -12.15)"><path class="cls-1" d="M354.63,195.15v17.1a2.18,2.18,0,0,1,0,.25V195.4A2.18,2.18,0,0,0,354.63,195.15Z"/></clipPath><clipPath id="clip-path-13" transform="translate(0 -12.15)"><path class="cls-1" d="M353.3,193.87V211h0v-17.1Z"/></clipPath><clipPath id="clip-path-14" transform="translate(0 -12.15)"><path class="cls-1" d="M353.54,193.86V211l-.24,0V193.87Z"/></clipPath><clipPath id="clip-path-15" transform="translate(0 -12.15)"><path class="cls-1" d="M353.54,193.86c.73,0,1.09.43,1.09,1.29v17.1c0-.86-.36-1.29-1.09-1.29h0v-17.1Z"/></clipPath><clipPath id="clip-path-16" transform="translate(0 -12.15)"><path class="cls-1" d="M300.12,196.55v17.1a3.73,3.73,0,0,0-1.24-2.7v-17.1A3.73,3.73,0,0,1,300.12,196.55Z"/></clipPath><clipPath id="clip-path-17" transform="translate(0 -12.15)"><path class="cls-1" d="M295.44,209.8V192.7h.27a4.6,4.6,0,0,1,3.17,1.15V211a4.6,4.6,0,0,0-3.17-1.15Z"/></clipPath><clipPath id="clip-path-18" transform="translate(0 -12.15)"><path class="cls-1" d="M498.7,189.54v17.1c0,.84,0,1.61-.09,2.29-.23,2.89-.89,4.89-2,6a8.57,8.57,0,0,1-5.25,2.07c-3.69.43-8.28.83-13.8,1.2V201.07c5.52-.36,10.11-.76,13.8-1.19a8.57,8.57,0,0,0,5.25-2.07c1.09-1.09,1.75-3.09,2-6C498.67,191.14,498.7,190.38,498.7,189.54Z"/></clipPath><clipPath id="clip-path-19" transform="translate(0 -12.15)"><path class="cls-1" d="M481.5,210.44v-17.1l5.26-.48a2.74,2.74,0,0,0,1.85-.8,5,5,0,0,0,.6-2.74v17.1a5,5,0,0,1-.6,2.74,2.74,2.74,0,0,1-1.85.8C486.27,210,484.52,210.18,481.5,210.44Z"/></clipPath><clipPath id="clip-path-20" transform="translate(0 -12.15)"><path class="cls-1" d="M489.21,188.92v0Z"/></clipPath><clipPath id="clip-path-21" transform="translate(0 -12.15)"><path class="cls-1" d="M363.16,201.24v-17.1a3.69,3.69,0,0,1,1.64,3.08v17.1A3.69,3.69,0,0,0,363.16,201.24Z"/></clipPath><clipPath id="clip-path-22" transform="translate(0 -12.15)"><path class="cls-1" d="M359.6,200.53V183.42a6.43,6.43,0,0,1,1-.08v17.1A5.36,5.36,0,0,0,359.6,200.53Z"/></clipPath><clipPath id="clip-path-23" transform="translate(0 -12.15)"><path class="cls-1" d="M360.56,200.44v-17.1a4.54,4.54,0,0,1,2.6.8v17.1A4.54,4.54,0,0,0,360.56,200.44Z"/></clipPath><clipPath id="clip-path-24" transform="translate(0 -12.15)"><path class="cls-1" d="M489.21,188.91V206a59.66,59.66,0,0,0-.48-6.26v-17.1A59.66,59.66,0,0,1,489.21,188.91Z"/></clipPath><clipPath id="clip-path-25" transform="translate(0 -12.15)"><path class="cls-1" d="M138.45,183.58a4.69,4.69,0,0,0,1.87-3.36v17.1a4.69,4.69,0,0,1-1.87,3.36,5.3,5.3,0,0,1-3.34,1.14,4.61,4.61,0,0,1-.52,0A5.16,5.16,0,0,1,131,200a4.56,4.56,0,0,1-1.22-3.11v-17.1a4.56,4.56,0,0,0,1.22,3.11,5.2,5.2,0,0,0,3.58,1.77,4.61,4.61,0,0,0,.52,0A5.3,5.3,0,0,0,138.45,183.58Z"/></clipPath><clipPath id="clip-path-26" transform="translate(0 -12.15)"><path class="cls-1" d="M140.32,180.22a4.67,4.67,0,0,0,0-.52v17.11a4.49,4.49,0,0,1,0,.51Z"/></clipPath><clipPath id="clip-path-27" transform="translate(0 -12.15)"><path class="cls-1" d="M498.7,189.54v17.1a85.15,85.15,0,0,0-.86-10.59V179A85,85,0,0,1,498.7,189.54Z"/></clipPath><clipPath id="clip-path-28" transform="translate(0 -12.15)"><path class="cls-1" d="M125.91,182.49a4.72,4.72,0,0,0,1.87-3.36v17.1a4.72,4.72,0,0,1-1.87,3.36,5.27,5.27,0,0,1-3.32,1.15l-.55,0a5.23,5.23,0,0,1-3.58-1.76,4.55,4.55,0,0,1-1.21-3.11v-17.1a4.55,4.55,0,0,0,1.21,3.11,5.23,5.23,0,0,0,3.58,1.76,5.15,5.15,0,0,0,.55,0A5.26,5.26,0,0,0,125.91,182.49Z"/></clipPath><clipPath id="clip-path-29" transform="translate(0 -12.15)"><path class="cls-1" d="M127.78,179.13c0-.18,0-.35,0-.52v17.1c0,.17,0,.34,0,.52v-17.1Z"/></clipPath><clipPath id="clip-path-30" transform="translate(0 -12.15)"><path class="cls-1" d="M140.35,179.7v17.11a4.6,4.6,0,0,0-1.22-3.12v-17.1A4.58,4.58,0,0,1,140.35,179.7Z"/></clipPath><clipPath id="clip-path-31" transform="translate(0 -12.15)"><path class="cls-1" d="M129.79,196.92v-17.1a4.36,4.36,0,0,1,0-.51,4.69,4.69,0,0,1,1.87-3.36,5.26,5.26,0,0,1,3.32-1.14l.54,0a5.14,5.14,0,0,1,3.58,1.76v17.1a5.14,5.14,0,0,0-3.58-1.76l-.54,0a5.26,5.26,0,0,0-3.32,1.14,4.69,4.69,0,0,0-1.87,3.36A4.36,4.36,0,0,0,129.79,196.92Z"/></clipPath><clipPath id="clip-path-32" transform="translate(0 -12.15)"><path class="cls-1" d="M117.25,195.84v-17.1c0-.17,0-.34,0-.52a4.7,4.7,0,0,1,1.88-3.36,5.22,5.22,0,0,1,3.31-1.14,5.15,5.15,0,0,1,.55,0,5.25,5.25,0,0,1,3.58,1.76,4.57,4.57,0,0,1,1.21,3.11v17.1a4.57,4.57,0,0,0-1.21-3.11,5.25,5.25,0,0,0-3.58-1.76l-.55,0a5.22,5.22,0,0,0-3.31,1.14,4.7,4.7,0,0,0-1.88,3.36C117.26,195.5,117.25,195.67,117.25,195.84Z"/></clipPath><clipPath id="clip-path-33" transform="translate(0 -12.15)"><path class="cls-1" d="M452.8,162.32V145.21c.31-2.11.57-4.05.78-5.84v17.1C453.37,158.26,453.11,160.2,452.8,162.32Z"/></clipPath><clipPath id="clip-path-34" transform="translate(0 -12.15)"><path class="cls-1" d="M462.9,161.14V144c.35-2.21.57-3.95.65-5.21v17.1C463.47,157.19,463.25,158.93,462.9,161.14Z"/></clipPath><clipPath id="clip-path-35" transform="translate(0 -12.15)"><path class="cls-1" d="M185.46,125.68v-17.1c26.77,0,91.38-12.17,94.79-12.81v17.1C276.84,113.51,212.23,125.68,185.46,125.68Z"/></clipPath><clipPath id="clip-path-36" transform="translate(0 -12.15)"><path class="cls-1" d="M25.33,104.17V87.07A43.65,43.65,0,0,0,41.5,90.14v17.1A43.65,43.65,0,0,1,25.33,104.17Z"/></clipPath><clipPath id="clip-path-37" transform="translate(0 -12.15)"><path class="cls-1" d="M42,107.24V90.14a43.59,43.59,0,0,0,16-3.2V104A43.59,43.59,0,0,1,42,107.24Z"/></clipPath><clipPath id="clip-path-38" transform="translate(0 -12.15)"><path class="cls-1" d="M60.45,85.85c32.59,21.62,98.9,22.73,125,22.73v17.1c-26.11,0-92.42-1.11-125-22.73Z"/></clipPath><clipPath id="clip-path-39" transform="translate(0 -12.15)"><path class="cls-1" d="M58,104V86.94c.83-.34,1.65-.71,2.45-1.09V103C59.65,103.34,58.83,103.7,58,104Z"/></clipPath><clipPath id="clip-path-40" transform="translate(0 -12.15)"><path class="cls-1" d="M280.25,112.87V95.77C284.93,94.67,374,73.66,427,67.84v17.1C374,90.76,284.93,111.77,280.25,112.87Z"/></clipPath><clipPath id="clip-path-41" transform="translate(0 -12.15)"><path class="cls-1" d="M427,84.94V67.84a148.8,148.8,0,0,1,21.14-1.31v17.1A148.8,148.8,0,0,0,427,84.94Z"/></clipPath><clipPath id="clip-path-42" transform="translate(0 -12.15)"><path class="cls-1" d="M448.12,83.63V66.53c51.73,0,126,16.73,129.88,17.61v17.1C574.09,100.36,499.85,83.63,448.12,83.63Z"/></clipPath><clipPath id="clip-path-43" transform="translate(0 -12.15)"><path class="cls-1" d="M41.5,29.25V12.15c22.92,0,41.5,17.45,41.5,39V68.25C83,46.71,64.42,29.25,41.5,29.25Z"/></clipPath><clipPath id="clip-path-44" transform="translate(0 -12.15)"><path class="cls-1" d="M0,68.25V51.14c0-21.54,18.58-39,41.5-39v17.1C18.58,29.25,0,46.71,0,68.25Z"/></clipPath></defs><g id="レイヤー_2" data-name="レイヤー 2"><g id="レイヤー_1-2" data-name="レイヤー 1"><g class="cls-2"><g class="cls-2"><g class="cls-3"><g class="cls-2"><path class="cls-4" d="M25.33,667.43v-17.1a6.54,6.54,0,0,0,1.6,4.27v17.1a6.54,6.54,0,0,1-1.6-4.27" transform="translate(0 -12.15)"/></g></g></g><polygon class="cls-5" points="282.54 235.36 282.54 218.25 292.85 217.76 292.85 234.86 282.54 235.36"/><polygon class="cls-5" points="160.49 234.76 160.49 217.66 168.38 218.08 168.38 235.18 160.49 234.76"/><polygon class="cls-5" points="104.17 230.56 104.17 213.46 114.45 214.35 114.45 231.45 104.17 230.56"/><g class="cls-2"><g class="cls-6"><g class="cls-2"><path class="cls-7" d="M191.67,238.24v-17.1c0,3.5.84,6.18,2.5,8v17.1c-1.66-1.86-2.5-4.53-2.5-8" transform="translate(0 -12.15)"/><path class="cls-8" d="M194.17,246.28v-17.1a8,8,0,0,0,2.1,1.67,18.58,18.58,0,0,0,1.9.94v17.1a18.58,18.58,0,0,1-1.9-.94,8,8,0,0,1-2.1-1.67" transform="translate(0 -12.15)"/><path class="cls-9" d="M198.17,248.89v-17.1a14.56,14.56,0,0,0,5.77,1.24,13.38,13.38,0,0,0,1.67-.11,17.93,17.93,0,0,0,4.79-1.28v17.1a17.56,17.56,0,0,1-4.79,1.28,13.38,13.38,0,0,1-1.67.11,14.56,14.56,0,0,1-5.77-1.24" transform="translate(0 -12.15)"/><path class="cls-8" d="M210.4,248.74v-17.1a18.55,18.55,0,0,0,3.61-2.06v17.1a18.05,18.05,0,0,1-3.61,2.06" transform="translate(0 -12.15)"/></g></g></g><g class="cls-2"><g class="cls-10"><g class="cls-2"><path class="cls-11" d="M191.67,238.24v-17.1c0-.12,0-.24,0-.37v17.1c0,.13,0,.25,0,.37" transform="translate(0 -12.15)"/></g></g></g><g class="cls-2"><g class="cls-12"><g class="cls-2"><path class="cls-11" d="M201.58,237.74v-17.1a2.61,2.61,0,0,0,.75,1.77v17.1a2.61,2.61,0,0,1-.75-1.77" transform="translate(0 -12.15)"/><path class="cls-13" d="M202.33,239.51v-17.1l.09.1v17.1l-.09-.1" transform="translate(0 -12.15)"/></g></g></g><polygon class="cls-5" points="351.95 227.32 351.95 210.22 362.11 208.48 362.11 225.58 351.95 227.32"/><g class="cls-2"><g class="cls-14"><g class="cls-2"><path class="cls-7" d="M201.58,237.74v0" transform="translate(0 -12.15)"/></g></g></g><polygon class="cls-15" points="168.38 235.18 168.38 218.08 169.17 205.09 169.17 222.19 168.38 235.18"/><polygon class="cls-5" points="247.44 222.58 247.44 205.48 257.98 204.97 257.98 222.07 247.44 222.58"/><polygon class="cls-16" points="160.49 234.76 160.49 217.66 161.27 204.87 161.27 221.97 160.49 234.76"/><polygon class="cls-9" points="214.01 234.53 214.01 217.43 235.35 199.38 235.35 216.48 214.01 234.53"/><g class="cls-2"><g class="cls-17"><g class="cls-2"><path class="cls-13" d="M202.42,239.61v-17.1a2.34,2.34,0,0,0,.69.47v17.1a2.17,2.17,0,0,1-.69-.47" transform="translate(0 -12.15)"/><path class="cls-18" d="M203.11,240.08V223a3,3,0,0,0,1.15.21,6.3,6.3,0,0,0,2-.41l.38-.14v17.1l-.38.15a6.53,6.53,0,0,1-2,.4,3,3,0,0,1-1.15-.21" transform="translate(0 -12.15)"/><path class="cls-13" d="M206.68,239.74v-17.1q2.7-1.15,8.6-6.26v17.1q-5.91,5.11-8.6,6.26" transform="translate(0 -12.15)"/></g></g></g><polygon class="cls-5" points="144.52 221.07 144.52 203.97 161.27 204.87 161.27 221.97 144.52 221.07"/><polygon class="cls-16" points="351.95 227.32 351.95 210.22 352.91 200.54 352.91 217.64 351.95 227.32"/><polygon class="cls-5" points="331.87 221.24 331.87 204.14 352.91 200.54 352.91 217.64 331.87 221.24"/><polygon class="cls-5" points="313.95 219.13 313.95 202.03 324.33 200.25 324.33 217.35 313.95 219.13"/><polygon class="cls-5" points="120.45 215.94 120.45 198.84 136.36 200.21 136.36 217.31 120.45 215.94"/><polygon class="cls-19" points="114.45 231.45 114.45 214.35 120.45 198.84 120.45 215.94 114.45 231.45"/><polygon class="cls-20" points="104.17 230.56 104.17 213.46 110.47 197.97 110.47 215.07 104.17 230.56"/><polygon class="cls-16" points="144.52 221.07 144.52 203.97 144.97 196.61 144.97 213.72 144.52 221.07"/><polygon class="cls-21" points="144.97 213.72 144.97 196.61 165.81 197.74 165.81 214.84 144.97 213.72"/><polygon class="cls-5" points="91.29 213.41 91.29 196.31 110.47 197.97 110.47 215.07 91.29 213.41"/><polygon class="cls-15" points="330.1 212.17 330.1 195.07 331.87 204.14 331.87 221.24 330.1 212.17"/><g class="cls-2"><g class="cls-22"><g class="cls-2"><path class="cls-9" d="M169.18,234.34v-17.1a10.62,10.62,0,0,0,2.85-.78v17.1a10.62,10.62,0,0,1-2.85.78" transform="translate(0 -12.15)"/><path class="cls-8" d="M172,233.56v-17.1a14,14,0,0,0,3.19-1.93,18.55,18.55,0,0,0,2.14-2.05v17.1a17.74,17.74,0,0,1-2.14,2,14,14,0,0,1-3.19,1.93" transform="translate(0 -12.15)"/><path class="cls-7" d="M177.36,229.58v-17.1a33.39,33.39,0,0,0,4.73-7.23v17.1a33.39,33.39,0,0,1-4.73,7.23" transform="translate(0 -12.15)"/></g></g></g><polygon class="cls-5" points="437.94 210.43 437.94 193.33 447.24 192.25 447.24 209.35 437.94 210.43"/><polygon class="cls-23" points="282.54 235.36 282.54 218.26 288.86 191.83 288.86 208.93 282.54 235.36"/><polygon class="cls-15" points="257.98 222.07 257.98 204.97 261.2 191.45 261.2 208.55 257.98 222.07"/><g class="cls-2"><g class="cls-24"><g class="cls-2"><path class="cls-11" d="M288.87,221.08V204a3.36,3.36,0,0,0,.07-.59v17.1a3.36,3.36,0,0,1-.07.59" transform="translate(0 -12.15)"/></g></g></g><polygon class="cls-15" points="136.36 217.31 136.36 200.21 137.26 191.02 137.26 208.12 136.36 217.31"/><polygon class="cls-25" points="330.1 212.17 330.1 195.07 353.89 191 353.89 208.1 330.1 212.17"/><g class="cls-2"><g class="cls-26"><g class="cls-2"><path class="cls-9" d="M287.75,219.41v-17.1a1.65,1.65,0,0,1,.63.11v17.1a1.65,1.65,0,0,0-.63-.11" transform="translate(0 -12.15)"/><path class="cls-8" d="M288.38,219.52v-17.1a.8.8,0,0,1,.32.22v17.1a.91.91,0,0,0-.32-.22" transform="translate(0 -12.15)"/><path class="cls-7" d="M288.7,219.74v-17.1a1.09,1.09,0,0,1,.24.75v17.1a1.09,1.09,0,0,0-.24-.75" transform="translate(0 -12.15)"/></g></g></g><polygon class="cls-5" points="261.2 208.55 261.2 191.45 287.75 190.16 287.75 207.26 261.2 208.55"/><g class="cls-2"><g class="cls-27"><g class="cls-2"><path class="cls-18" d="M165.81,227v-17.1a7.36,7.36,0,0,0,2.82-.6v17.1a7.36,7.36,0,0,1-2.82.6" transform="translate(0 -12.15)"/><path class="cls-13" d="M168.63,226.39v-17.1a9.07,9.07,0,0,0,1.46-.79,11.7,11.7,0,0,0,2.14-1.83v17.1a11.32,11.32,0,0,1-2.14,1.83,9.07,9.07,0,0,1-1.46.79" transform="translate(0 -12.15)"/><path class="cls-11" d="M172.23,223.77v-17.1a9.44,9.44,0,0,0,1-1.38,34.6,34.6,0,0,0,2-4v17.1a35.6,35.6,0,0,1-2,4,9.36,9.36,0,0,1-1,1.37" transform="translate(0 -12.15)"/></g></g></g><polygon class="cls-16" points="446.81 206.14 446.81 189.04 447.24 192.25 447.24 209.35 446.81 206.14"/><polygon class="cls-15" points="235.35 216.48 235.35 199.38 235.56 187.19 235.56 204.29 235.35 216.48"/><polygon class="cls-18" points="215.27 221.34 215.27 204.23 235.56 187.19 235.56 204.29 215.27 221.34"/><polygon class="cls-16" points="91.29 213.41 91.29 196.31 92.19 187.12 92.19 204.22 91.29 213.41"/><polygon class="cls-21" points="92.19 204.22 92.19 187.12 137.26 191.02 137.26 208.12 92.19 204.22"/><polygon class="cls-15" points="324.33 217.35 324.33 200.25 325.68 186.45 325.68 203.55 324.33 217.35"/><polygon class="cls-19" points="182.09 210.2 182.09 193.1 185.45 185.97 185.45 203.07 182.09 210.2"/><polygon class="cls-5" points="446.81 206.14 446.81 189.04 476.76 185.55 476.76 202.65 446.81 206.14"/><polygon class="cls-15" points="476.76 202.65 476.76 185.55 477.57 188.93 477.57 206.03 476.76 202.65"/><polygon class="cls-21" points="177.05 202.63 177.05 185.53 185.45 185.97 185.45 203.08 177.05 202.63"/><polygon class="cls-11" points="175.28 206.26 175.28 189.16 177.05 185.53 177.05 202.63 175.28 206.26"/><polygon class="cls-15" points="292.85 234.86 292.85 217.76 300.08 184.95 300.08 202.05 292.85 234.86"/><g class="cls-2"><g class="cls-28"><g class="cls-2"><path class="cls-7" d="M300.08,214.2V197.1a3.48,3.48,0,0,0,0-.55v17.1a3.39,3.39,0,0,1,0,.55" transform="translate(0 -12.15)"/></g></g></g><polygon class="cls-16" points="353.89 208.1 353.89 191 354.62 183.25 354.62 200.35 353.89 208.1"/><g class="cls-2"><g class="cls-29"><g class="cls-2"><path class="cls-11" d="M354.62,212.5V195.4a2.18,2.18,0,0,0,0-.25v17.1a2.18,2.18,0,0,1,0,.25" transform="translate(0 -12.15)"/></g></g></g><polygon class="cls-5" points="325.68 203.55 325.68 186.45 353.28 181.73 353.28 198.83 325.68 203.55"/><g class="cls-2"><g class="cls-30"><g class="cls-2"><path class="cls-9" d="M353.28,211v-17.1l.26,0a1.28,1.28,0,0,1,.5.09v17.1a1.28,1.28,0,0,0-.5-.09l-.26,0" transform="translate(0 -12.15)"/></g></g></g><g class="cls-2"><g class="cls-31"><g class="cls-2"><path class="cls-9" d="M353.28,211v-17.1l.26,0a1.28,1.28,0,0,1,.5.09v17.1a1.28,1.28,0,0,0-.5-.09l-.26,0" transform="translate(0 -12.15)"/></g></g></g><g class="cls-2"><g class="cls-32"><g class="cls-2"><path class="cls-9" d="M353.28,211v-17.1l.26,0a1.28,1.28,0,0,1,.5.09v17.1a1.28,1.28,0,0,0-.5-.09l-.26,0" transform="translate(0 -12.15)"/><path class="cls-8" d="M354,211.05V194a.81.81,0,0,1,.3.21v17.11a.73.73,0,0,0-.3-.22" transform="translate(0 -12.15)"/><path class="cls-7" d="M354.34,211.27V194.16a1.48,1.48,0,0,1,.29,1v17.1a1.43,1.43,0,0,0-.29-1" transform="translate(0 -12.15)"/></g></g></g><g class="cls-2"><g class="cls-33"><g class="cls-2"><path class="cls-13" d="M298.88,211v-17.1l.24.25v17.1l-.24-.25" transform="translate(0 -12.15)"/><path class="cls-11" d="M299.12,211.2V194.1a3.61,3.61,0,0,1,1,2.45v17.1a3.61,3.61,0,0,0-1-2.45" transform="translate(0 -12.15)"/></g></g></g><polygon class="cls-21" points="445.95 199.58 445.95 182.48 454.53 181.48 454.53 198.59 445.95 199.58"/><polygon class="cls-5" points="92.79 198.06 92.79 180.96 137.57 184.83 137.57 201.93 92.79 198.06"/><polygon class="cls-21" points="263.18 199.21 263.18 182.11 295.43 180.55 295.43 197.65 263.18 199.21"/><g class="cls-2"><g class="cls-34"><g class="cls-2"><path class="cls-18" d="M295.44,209.8V192.7h.27a4.86,4.86,0,0,1,1.94.37v17.1a4.86,4.86,0,0,0-1.94-.37h-.27" transform="translate(0 -12.15)"/><path class="cls-13" d="M297.65,210.17v-17.1a4.73,4.73,0,0,1,1.23.78V211a4.73,4.73,0,0,0-1.23-.78" transform="translate(0 -12.15)"/></g></g></g><polygon class="cls-21" points="463.9 197.49 463.9 180.39 472.34 179.41 472.34 196.51 463.9 197.49"/><polygon class="cls-15" points="201.57 225.53 201.57 208.43 202.09 178.49 202.09 195.59 201.57 225.53"/><polygon class="cls-15" points="435.97 195.54 435.97 178.44 437.94 193.33 437.94 210.43 435.97 195.54"/><polygon class="cls-16" points="191.67 225.72 191.67 208.62 192.2 178.35 192.2 195.45 191.67 225.72"/><polygon class="cls-21" points="192.2 195.45 192.2 178.35 202.09 178.49 202.09 195.59 192.2 195.45"/><path class="cls-35" d="M192.21,207.6l9.88.14-.51,29.94a2.68,2.68,0,0,0,.84,1.93,2.52,2.52,0,0,0,1.84.68,6.53,6.53,0,0,0,2-.4c1.77-.62,4.75-2.75,9-6.41l20.28-17-.21,12.19L214,246.68a17.83,17.83,0,0,1-8.41,3.35,13.37,13.37,0,0,1-1.67.1,15.52,15.52,0,0,1-7.67-2.18q-4.71-2.64-4.59-10.08Z" transform="translate(0 -12.15)"/><polygon class="cls-23" points="247.44 222.58 247.44 205.48 254.37 177.91 254.37 195.02 247.44 222.58"/><polygon class="cls-15" points="263.18 199.21 263.18 182.11 264.25 177.44 264.25 194.54 263.18 199.21"/><path class="cls-35" d="M264.25,206.69l-1.07,4.67,32.26-1.56h.27a4.6,4.6,0,0,1,3.17,1.15,3.64,3.64,0,0,1,1.2,3.25L292.86,247l-10.32.5,6.33-26.43c.23-1.11-.14-1.67-1.12-1.67L261.2,220.7,258,234.22l-10.54.51,6.93-27.57Z" transform="translate(0 -12.15)"/><polygon class="cls-21" points="254.37 195.02 254.37 177.91 264.25 177.44 264.25 194.54 254.37 195.02"/><g class="cls-2"><g class="cls-36"><g class="cls-2"><path class="cls-9" d="M477.58,218.18V201.07c5.52-.36,10.11-.76,13.8-1.19a12.12,12.12,0,0,0,3.33-.81v17.1a12.12,12.12,0,0,1-3.33.81c-3.69.43-8.28.83-13.8,1.2" transform="translate(0 -12.15)"/><path class="cls-8" d="M494.71,216.17v-17.1a5.72,5.72,0,0,0,1.92-1.26l.15-.15v17.1l-.15.15a5.72,5.72,0,0,1-1.92,1.26" transform="translate(0 -12.15)"/><path class="cls-7" d="M496.78,214.76v-17.1c1-1.12,1.61-3.07,1.83-5.83.06-.69.09-1.45.09-2.29v17.1c0,.84,0,1.61-.09,2.29-.22,2.76-.83,4.71-1.83,5.83" transform="translate(0 -12.15)"/></g></g></g><polygon class="cls-16" points="445.27 194.46 445.27 177.36 445.95 182.48 445.95 199.58 445.27 194.46"/><polygon class="cls-21" points="435.97 195.54 435.97 178.44 445.27 177.36 445.27 194.46 435.97 195.54"/><g class="cls-2"><g class="cls-37"><g class="cls-2"><path class="cls-18" d="M481.5,210.44v-17.1l5.26-.48a4.26,4.26,0,0,0,1.09-.26v17.1a4.26,4.26,0,0,1-1.09.26c-.49,0-2.24.22-5.26.48" transform="translate(0 -12.15)"/><path class="cls-13" d="M487.85,209.7V192.6a2.13,2.13,0,0,0,.72-.49v17.1a2.13,2.13,0,0,1-.72.49" transform="translate(0 -12.15)"/><path class="cls-11" d="M488.57,209.21v-17.1a.1.1,0,0,1,0-.05,5,5,0,0,0,.6-2.74v17.1a5,5,0,0,1-.6,2.74l0,.05" transform="translate(0 -12.15)"/></g></g></g><polygon class="cls-15" points="377.16 194.09 377.16 176.98 379.7 185.89 379.7 202.99 377.16 194.09"/><g class="cls-2"><g class="cls-38"><g class="cls-2"><path class="cls-11" d="M489.21,206.42v0" transform="translate(0 -12.15)"/></g></g></g><polygon class="cls-15" points="137.57 201.93 137.57 184.83 138.47 175.65 138.47 192.75 137.57 201.93"/><polygon class="cls-15" points="362.11 225.58 362.11 208.48 364.8 175.07 364.8 192.17 362.11 225.58"/><polygon class="cls-39" points="379.7 202.99 379.7 185.89 423.13 174.94 423.13 192.04 379.7 202.99"/><polygon class="cls-5" points="440.53 193.21 440.53 176.1 453.62 174.58 453.62 191.68 440.53 193.21"/><polygon class="cls-15" points="453.62 191.68 453.62 174.58 454.53 181.48 454.53 198.58 453.62 191.68"/><polygon class="cls-15" points="471.66 191.39 471.66 174.29 472.34 179.41 472.34 196.51 471.66 191.39"/><polygon class="cls-16" points="313.96 219.13 313.96 202.03 317.06 173.86 317.06 190.97 313.96 219.13"/><polygon class="cls-16" points="463 190.59 463 173.49 463.9 180.39 463.9 197.49 463 190.59"/><polygon class="cls-16" points="480.46 190.36 480.46 173.26 481.5 181.19 481.5 198.29 480.46 190.36"/><polygon class="cls-21" points="471.66 191.39 471.66 174.29 480.46 173.26 480.46 190.36 471.66 191.39"/><polygon class="cls-25" points="326.38 194.06 326.38 176.96 359.6 171.28 359.6 188.38 326.38 194.06"/><polygon class="cls-15" points="326.38 194.06 326.38 176.96 326.79 172.2 326.79 189.3 326.38 194.06"/><polygon class="cls-25" points="317.06 190.97 317.06 173.86 326.79 172.2 326.79 189.3 317.06 190.97"/><g class="cls-2"><g class="cls-40"><g class="cls-2"><path class="cls-13" d="M363.16,201.24v-17.1a5,5,0,0,1,.71.65v17.1a5,5,0,0,0-.71-.65" transform="translate(0 -12.15)"/><path class="cls-11" d="M363.87,201.89v-17.1a3.46,3.46,0,0,1,.93,2.43v17.1a3.46,3.46,0,0,0-.93-2.43" transform="translate(0 -12.15)"/></g></g></g><polygon class="cls-21" points="93.69 188.88 93.69 171.78 138.47 175.65 138.47 192.75 93.69 188.88"/><polygon class="cls-16" points="92.79 198.06 92.79 180.96 93.69 171.78 93.69 188.88 92.79 198.06"/><g class="cls-2"><g class="cls-41"><g class="cls-2"><path class="cls-18" d="M359.6,200.53V183.42a6.43,6.43,0,0,1,1-.08v17.1a5.36,5.36,0,0,0-1,.09" transform="translate(0 -12.15)"/></g></g></g><path class="cls-35" d="M360.56,200.44a4.54,4.54,0,0,1,2.6.8,3.69,3.69,0,0,1,1.64,3.08l-2.69,33.41L352,239.47l1-9.68-21,3.6-1.76-9.07,23.78-4.07.73-7.75c.08-1-.29-1.54-1.08-1.54l-.26,0-27.59,4.72-1.35,13.8L314,231.28l3.11-28.17,9.72-1.66-.41,4.76,33.22-5.68A5.36,5.36,0,0,1,360.56,200.44Z" transform="translate(0 -12.15)"/><g class="cls-2"><g class="cls-42"><g class="cls-2"><path class="cls-18" d="M360.56,200.44v-17.1a4.51,4.51,0,0,1,1.79.36v17.1a4.51,4.51,0,0,0-1.79-.36" transform="translate(0 -12.15)"/><path class="cls-13" d="M362.35,200.8V183.7a4.56,4.56,0,0,1,.81.44v17.1a5.31,5.31,0,0,0-.81-.44" transform="translate(0 -12.15)"/></g></g></g><g class="cls-2"><g class="cls-43"><g class="cls-2"><path class="cls-7" d="M488.73,199.75v-17.1a59.66,59.66,0,0,1,.48,6.26V206a59.66,59.66,0,0,0-.48-6.26" transform="translate(0 -12.15)"/></g></g></g><polygon class="cls-5" points="463 190.59 463 173.49 488.73 170.5 488.73 187.6 463 190.59"/><path class="cls-44" d="M472.34,208.66l-8.43,1-.91-6.9,25.73-3a55.24,55.24,0,0,1,.48,6.67,5,5,0,0,1-.6,2.74,2.76,2.76,0,0,1-1.85.8l-5.26.48-1-7.93-8.79,1Z" transform="translate(0 -12.15)"/><g class="cls-2"><g class="cls-45"><g class="cls-2"><path class="cls-7" d="M129.79,196.92v-17.1a4.56,4.56,0,0,0,1.22,3.11l0,0v17.1l0,0a4.56,4.56,0,0,1-1.22-3.11" transform="translate(0 -12.15)"/><path class="cls-8" d="M131,200.06V183a5.1,5.1,0,0,0,1.83,1.32v17.1a5.1,5.1,0,0,1-1.83-1.32" transform="translate(0 -12.15)"/><path class="cls-9" d="M132.86,201.38v-17.1a5.42,5.42,0,0,0,1.73.42,4.61,4.61,0,0,0,.52,0,5.38,5.38,0,0,0,2.12-.42v17.1a5.38,5.38,0,0,1-2.12.42,4.61,4.61,0,0,1-.52,0,5.42,5.42,0,0,1-1.73-.42" transform="translate(0 -12.15)"/><path class="cls-8" d="M137.23,201.4V184.3a5.66,5.66,0,0,0,1.22-.72,6.26,6.26,0,0,0,.7-.65V200a6.26,6.26,0,0,1-.7.65,5.66,5.66,0,0,1-1.22.72" transform="translate(0 -12.15)"/><path class="cls-7" d="M139.15,200v-17.1a4.61,4.61,0,0,0,1.17-2.71v17.1a4.61,4.61,0,0,1-1.17,2.71" transform="translate(0 -12.15)"/></g></g></g><g class="cls-2"><g class="cls-46"><g class="cls-2"><path class="cls-7" d="M140.32,197.32v-17.1a4.67,4.67,0,0,0,0-.52v17.11a4.49,4.49,0,0,1,0,.51" transform="translate(0 -12.15)"/></g></g></g><g class="cls-2"><g class="cls-47"><g class="cls-2"><path class="cls-11" d="M497.84,196.05V179a85,85,0,0,1,.86,10.59v17.1a85.15,85.15,0,0,0-.86-10.59" transform="translate(0 -12.15)"/></g></g></g><g class="cls-2"><g class="cls-48"><g class="cls-2"><path class="cls-7" d="M117.25,195.84v-17.1a4.55,4.55,0,0,0,1.21,3.11l0,0V199l0,0a4.55,4.55,0,0,1-1.21-3.11" transform="translate(0 -12.15)"/><path class="cls-8" d="M118.49,199v-17.1a5,5,0,0,0,1.81,1.31v17.1a5,5,0,0,1-1.81-1.31" transform="translate(0 -12.15)"/><path class="cls-9" d="M120.3,200.29v-17.1a5.69,5.69,0,0,0,1.74.42,5.85,5.85,0,0,0,2.64-.39v17.1a5.2,5.2,0,0,1-2.09.42l-.55,0a5.42,5.42,0,0,1-1.74-.42" transform="translate(0 -12.15)"/><path class="cls-8" d="M124.68,200.32v-17.1a5.18,5.18,0,0,0,1.23-.73,5.35,5.35,0,0,0,.69-.65V199a5.28,5.28,0,0,1-.69.64,5.18,5.18,0,0,1-1.23.73" transform="translate(0 -12.15)"/><path class="cls-7" d="M126.6,199V181.84a4.65,4.65,0,0,0,1.18-2.71c0-.18,0-.35,0-.52v17.1c0,.17,0,.34,0,.52A4.71,4.71,0,0,1,126.6,199" transform="translate(0 -12.15)"/></g></g></g><g class="cls-2"><g class="cls-49"><g class="cls-2"><path class="cls-7" d="M126.6,199V181.84a4.65,4.65,0,0,0,1.18-2.71c0-.18,0-.35,0-.52v17.1c0,.17,0,.34,0,.52A4.71,4.71,0,0,1,126.6,199" transform="translate(0 -12.15)"/></g></g></g><polygon class="cls-16" points="449.14 183.4 449.14 166.29 449.48 168.89 449.48 185.99 449.14 183.4"/><polygon class="cls-23" points="420.6 183.13 420.6 166.03 423.13 174.94 423.13 192.04 420.6 183.13"/><polygon class="cls-25" points="377.16 194.09 377.16 176.99 420.6 166.03 420.6 183.13 377.16 194.09"/><g class="cls-2"><g class="cls-50"><g class="cls-2"><path class="cls-11" d="M139.13,193.69v-17.1a4.58,4.58,0,0,1,1.22,3.11v17.11a4.6,4.6,0,0,0-1.22-3.12" transform="translate(0 -12.15)"/></g></g></g><polygon class="cls-16" points="497.38 180.42 497.38 163.32 497.83 166.8 497.83 183.9 497.38 180.42"/><polygon class="cls-21" points="449.48 185.99 449.48 168.89 497.38 163.32 497.38 180.42 449.48 185.99"/><path class="cls-35" d="M139.13,193.69a4.57,4.57,0,0,1,1.19,3.63,4.69,4.69,0,0,1-1.87,3.36,5.3,5.3,0,0,1-3.34,1.14,4.61,4.61,0,0,1-.52,0A5.16,5.16,0,0,1,131,200a4.53,4.53,0,0,1-1.19-3.62,4.69,4.69,0,0,1,1.87-3.36,5.26,5.26,0,0,1,3.32-1.14l.54,0A5.14,5.14,0,0,1,139.13,193.69Z" transform="translate(0 -12.15)"/><g class="cls-2"><g class="cls-51"><g class="cls-2"><path class="cls-11" d="M129.79,196.92v-17.1a4.36,4.36,0,0,1,0-.51A4.61,4.61,0,0,1,131,176.6v17.1a4.61,4.61,0,0,0-1.17,2.71,4.36,4.36,0,0,0,0,.51" transform="translate(0 -12.15)"/><path class="cls-13" d="M131,193.7V176.6a5.44,5.44,0,0,1,.7-.65,5.71,5.71,0,0,1,1.22-.73v17.1a6.16,6.16,0,0,0-1.22.73,5.44,5.44,0,0,0-.7.65" transform="translate(0 -12.15)"/><path class="cls-18" d="M132.91,192.32v-17.1a5.42,5.42,0,0,1,2.1-.41l.54,0a5.42,5.42,0,0,1,1.74.42v17.1a5.42,5.42,0,0,0-1.74-.42l-.54,0a5.42,5.42,0,0,0-2.1.41" transform="translate(0 -12.15)"/><path class="cls-13" d="M137.29,192.35v-17.1a5.07,5.07,0,0,1,1.82,1.31v17.1a5.07,5.07,0,0,0-1.82-1.31" transform="translate(0 -12.15)"/><path class="cls-11" d="M139.11,193.66v-17.1l0,0v17.1l0,0" transform="translate(0 -12.15)"/></g></g></g><g class="cls-2"><g class="cls-52"><g class="cls-2"><path class="cls-11" d="M117.25,195.84v-17.1c0-.17,0-.34,0-.52a4.65,4.65,0,0,1,1.18-2.71v17.1a4.68,4.68,0,0,0-1.18,2.71c0,.18,0,.35,0,.52" transform="translate(0 -12.15)"/><path class="cls-13" d="M118.45,192.61v-17.1a4.85,4.85,0,0,1,.7-.65,5.26,5.26,0,0,1,1.22-.73v17.1a5.26,5.26,0,0,0-1.22.73,4.85,4.85,0,0,0-.7.65" transform="translate(0 -12.15)"/><path class="cls-18" d="M120.37,191.23v-17.1a5.85,5.85,0,0,1,2.64-.39,5.7,5.7,0,0,1,1.73.42v17.1a6,6,0,0,0-1.73-.42l-.55,0a5.37,5.37,0,0,0-2.09.41" transform="translate(0 -12.15)"/><path class="cls-13" d="M124.74,191.26v-17.1a5.2,5.2,0,0,1,1.84,1.33v17.1a5.2,5.2,0,0,0-1.84-1.33" transform="translate(0 -12.15)"/><path class="cls-11" d="M126.58,192.59v-17.1h0a4.57,4.57,0,0,1,1.21,3.11v17.1a4.57,4.57,0,0,0-1.21-3.11h0" transform="translate(0 -12.15)"/></g></g></g><polygon class="cls-5" points="449.13 183.4 449.13 166.29 498.71 160.53 498.71 177.63 449.13 183.4"/><polygon class="cls-15" points="542.12 175.22 542.12 158.12 578 272.19 578 289.29 542.12 175.22"/><polygon class="cls-16" points="447.97 174.51 447.97 157.41 448.3 159.94 448.3 177.04 447.97 174.51"/><polygon class="cls-16" points="497.87 171.28 497.87 154.18 498.71 160.53 498.71 177.63 497.87 171.28"/><polygon class="cls-21" points="448.3 177.04 448.3 159.94 497.87 154.18 497.87 171.28 448.3 177.04"/><polygon class="cls-5" points="447.96 174.51 447.96 157.41 489.9 152.53 489.9 169.63 447.96 174.51"/><polygon class="cls-16" points="446.81 165.85 446.81 148.75 447.22 151.82 447.22 168.92 446.81 165.85"/><polygon class="cls-21" points="447.22 168.92 447.22 151.82 479.49 148.06 479.49 165.16 447.22 168.92"/><polygon class="cls-15" points="479.09 162.09 479.09 144.99 479.49 148.06 479.49 165.16 479.09 162.09"/><polygon class="cls-5" points="446.81 165.85 446.81 148.75 479.09 144.99 479.09 162.09 446.81 165.85"/><polygon class="cls-16" points="445.71 157.44 445.71 140.34 446.12 143.49 446.12 160.59 445.71 157.44"/><polygon class="cls-21" points="446.12 160.59 446.12 143.49 478.39 139.73 478.39 156.83 446.12 160.59"/><polygon class="cls-44" points="477.98 153.69 478.39 156.83 446.12 160.59 445.71 157.44 477.98 153.69"/><polygon class="cls-5" points="445.71 157.44 445.71 140.34 477.98 136.58 477.98 153.69 445.71 157.44"/><polygon class="cls-15" points="477.98 153.69 477.98 136.58 478.39 139.73 478.39 156.83 477.98 153.69"/><polygon class="cls-15" points="435.13 152.22 435.13 135.12 440.53 176.1 440.53 193.21 435.13 152.22"/><polygon class="cls-21" points="435.13 152.22 435.13 135.12 452.8 133.07 452.8 150.17 435.13 152.22"/><polygon class="cls-21" points="462.9 148.99 462.9 131.89 486.81 129.11 486.81 146.21 462.9 148.99"/><polygon class="cls-16" points="486.81 146.21 486.81 129.11 489.9 152.53 489.9 169.64 486.81 146.21"/><g class="cls-2"><g class="cls-53"><g class="cls-2"><path class="cls-11" d="M452.8,162.32V145.21c.31-2.11.57-4.05.78-5.84v17.1c-.21,1.79-.47,3.73-.78,5.85" transform="translate(0 -12.15)"/></g></g></g><g class="cls-2"><g class="cls-54"><g class="cls-2"><path class="cls-7" d="M462.9,161.14V144c.35-2.21.57-3.95.65-5.21v17.1c-.08,1.26-.3,3-.65,5.21" transform="translate(0 -12.15)"/></g></g></g><polygon class="cls-21" points="453.57 144.32 453.57 127.22 463.55 126.68 463.55 143.78 453.57 144.32"/><path class="cls-44" d="M578,101.24l-35.88,86.13L578,301.44l-34.28-14c-14.48-5.91-41.78-8.06-70.82-8.06-39.68,0-82.61,4-100.55,8.06-31.06,7-120.59,25.78-125.31,26.77-2.62.35-52.48,7-86.75,8.15-.89,0-1.79,0-2.71,0-35,0-96.35-19.94-99.58-21V104c.83-.34,1.65-.7,2.45-1.09,32.59,21.62,98.9,22.73,125,22.73,26.77,0,91.38-12.17,94.79-12.81C284.93,111.77,374,90.76,427,84.94a148.8,148.8,0,0,1,21.14-1.31C499.85,83.63,574.09,100.36,578,101.24Zm-128.52,96.9-.34-2.6,49.57-5.76-.84-6.36-49.57,5.77-.33-2.53,41.93-4.88-3.09-23.42-23.91,2.78c.35-2.21.57-3.95.65-5.21l-10,.54c-.21,1.79-.47,3.73-.78,5.85l-17.66,2.05,5.4,41,13.08-1.52.91,6.9-8.58,1-.67-5.12L436,207.69l2,14.89,9.3-1.08-.42-3.21,29.95-3.49.81,3.38c5.52-.37,10.11-.77,13.8-1.2a8.57,8.57,0,0,0,5.25-2.07c1.09-1.09,1.75-3.09,2-6a65.85,65.85,0,0,0-.77-12.88l-.46-3.48-47.9,5.57M300.08,214.2a3.64,3.64,0,0,0-1.2-3.25,4.6,4.6,0,0,0-3.17-1.15h-.27l-32.26,1.56,1.07-4.67-9.88.47-6.93,27.57,10.54-.51,3.22-13.52,26.55-1.29c1,0,1.35.56,1.12,1.67l-6.33,26.42,10.31-.49,7.23-32.81m62,23.53,2.69-33.41a3.69,3.69,0,0,0-1.64-3.08,4.54,4.54,0,0,0-2.6-.8,6.43,6.43,0,0,0-1,.08l-33.22,5.69.41-4.76-9.73,1.66L314,231.28l10.38-1.78,1.35-13.8L353.28,211l.26,0c.79,0,1.16.51,1.08,1.54l-.73,7.75-23.78,4.07,1.76,9.07,21-3.6-1,9.68,10.15-1.74m-126.76-9.1.21-12.19-20.28,17c-4.23,3.66-7.21,5.79-9,6.4a6.3,6.3,0,0,1-2,.41,2.52,2.52,0,0,1-1.84-.68,2.68,2.68,0,0,1-.84-1.93l.51-29.94-9.88-.14-.53,30.27q-.12,7.44,4.59,10.08a15.52,15.52,0,0,0,7.67,2.18,13.38,13.38,0,0,0,1.67-.11,17.63,17.63,0,0,0,8.4-3.34l21.34-18.05m-53.26-6.28,3.37-7.13-8.41-.44-1.76,3.62a34,34,0,0,1-2,4,10.19,10.19,0,0,1-3.15,3.2,7.77,7.77,0,0,1-4.28,1.39L145,225.86l-.45,7.36,16.75.9-.79,12.78,7.9.43.79-13a12.16,12.16,0,0,0,6-2.71,27.65,27.65,0,0,0,6.87-9.28m-45.73,7.11.9-9.19-45.07-3.9-.9,9.19,19.18,1.66-6.3,15.49,10.29.89,6-15.51,15.9,1.37m243.35-14.32,43.43-10.95-2.54-8.91-43.43,10.95,2.54,8.91m-242.13-1.06.9-9.18L93.69,201l-.9,9.19,44.79,3.87m-20.31-18.76a4.6,4.6,0,0,0,1.19,3.63,5.23,5.23,0,0,0,3.58,1.76l.55,0a5.27,5.27,0,0,0,3.32-1.15,4.72,4.72,0,0,0,1.87-3.36,4.6,4.6,0,0,0-1.19-3.63,5.25,5.25,0,0,0-3.58-1.76l-.55,0a5.22,5.22,0,0,0-3.31,1.14,4.7,4.7,0,0,0-1.88,3.36m23,2a4.57,4.57,0,0,0-1.19-3.63,5.14,5.14,0,0,0-3.58-1.76l-.54,0a5.26,5.26,0,0,0-3.32,1.14,4.69,4.69,0,0,0-1.87,3.36A4.53,4.53,0,0,0,131,200a5.16,5.16,0,0,0,3.58,1.77,4.61,4.61,0,0,0,.52,0,5.3,5.3,0,0,0,3.34-1.14,4.69,4.69,0,0,0,1.87-3.36" transform="translate(0 -12.15)"/><polygon class="cls-35" points="91.29 213.41 92.19 204.22 137.26 208.12 136.36 217.31 120.45 215.94 114.45 231.45 104.17 230.56 110.47 215.07 91.29 213.41"/><path class="cls-35" d="M177.05,214.78l8.41.44-3.37,7.13a27.65,27.65,0,0,1-6.87,9.28,12.16,12.16,0,0,1-6,2.71l-.79,13-7.9-.43.79-12.78-16.75-.9.45-7.36L165.81,227a7.77,7.77,0,0,0,4.28-1.39,10.34,10.34,0,0,0,3.16-3.2,35.6,35.6,0,0,0,2-4Z" transform="translate(0 -12.15)"/><polygon class="cls-35" points="92.79 198.06 93.69 188.88 138.47 192.75 137.57 201.93 92.79 198.06"/><polygon class="cls-35" points="420.6 183.13 423.13 192.04 379.7 202.99 377.16 194.09 420.6 183.13"/><path class="cls-35" d="M122,200.71a5.23,5.23,0,0,1-3.58-1.76,4.6,4.6,0,0,1-1.19-3.63,4.7,4.7,0,0,1,1.88-3.36,5.22,5.22,0,0,1,3.31-1.14l.55,0a5.25,5.25,0,0,1,3.58,1.76,4.6,4.6,0,0,1,1.19,3.63,4.72,4.72,0,0,1-1.87,3.36,5.27,5.27,0,0,1-3.32,1.15Z" transform="translate(0 -12.15)"/><path class="cls-35" d="M497.38,192.57l.46,3.48a65.85,65.85,0,0,1,.77,12.88c-.23,2.89-.89,4.89-2,6a8.57,8.57,0,0,1-5.25,2.07c-3.69.43-8.28.83-13.8,1.2l-.81-3.38-29.95,3.49.42,3.21-9.3,1.08-2-14.89,9.31-1.08.67,5.12,8.58-1-.91-6.9-13.08,1.52-5.4-41,17.66-2.05c.31-2.12.57-4.06.78-5.85l10-.54c-.08,1.26-.3,3-.65,5.21l23.91-2.78,3.09,23.42L448,186.66l.33,2.53,49.58-5.77.83,6.36-49.57,5.76.34,2.6Zm-8.17,13.85a55.24,55.24,0,0,0-.48-6.67l-25.73,3,.91,6.9,8.43-1-.67-5.12,8.79-1,1,7.93c3-.26,4.77-.43,5.26-.48a2.74,2.74,0,0,0,1.85-.8,5,5,0,0,0,.6-2.74m-43.5-36.83.42,3.14L478.4,169l-.41-3.15-32.28,3.76m1.11,8.41.4,3.07,32.28-3.76-.41-3.07L446.82,178" transform="translate(0 -12.15)"/><polygon class="cls-44" points="479.09 162.09 479.49 165.16 447.22 168.92 446.81 165.85 479.09 162.09"/><g class="cls-2"><g class="cls-55"><g class="cls-2"><path class="cls-9" d="M185.46,125.68v-17.1c26.77,0,91.38-12.17,94.79-12.81v17.1c-3.41.64-68,12.81-94.79,12.81" transform="translate(0 -12.15)"/></g></g></g><polygon class="cls-56" points="41.5 95.09 41.5 77.99 41.99 644.63 41.99 661.73 41.5 95.09"/><path class="cls-57" d="M25.33,104.17a43.65,43.65,0,0,0,16.17,3.07L42,673.88l-9.43.36a7.39,7.39,0,0,1-5.64-2.54,6.54,6.54,0,0,1-1.6-4.27Z" transform="translate(0 -12.15)"/><g class="cls-2"><g class="cls-58"><g class="cls-2"><path class="cls-59" d="M25.33,104.17V87.07A43.65,43.65,0,0,0,41.5,90.14v17.1a43.65,43.65,0,0,1-16.17-3.07" transform="translate(0 -12.15)"/></g></g></g><g class="cls-2"><g class="cls-60"><g class="cls-2"><path class="cls-61" d="M42,107.24V90.14a43.59,43.59,0,0,0,16-3.2V104a43.59,43.59,0,0,1-16,3.2" transform="translate(0 -12.15)"/></g></g></g><path class="cls-62" d="M42,107.24A43.59,43.59,0,0,0,58,104v563a7,7,0,0,1-7.24,6.8H42Z" transform="translate(0 -12.15)"/><polygon class="cls-63" points="24.99 91.89 24.99 74.79 25.33 638.18 25.33 655.28 24.99 91.89"/><path class="cls-62" d="M25,104l.33,563.39a6.54,6.54,0,0,0,1.6,4.27A6.55,6.55,0,0,1,25,667.08Z" transform="translate(0 -12.15)"/><g class="cls-2"><g class="cls-64"><g class="cls-2"><path class="cls-8" d="M60.45,103V85.85A82.85,82.85,0,0,0,73.94,93v17.1A82.85,82.85,0,0,1,60.45,103" transform="translate(0 -12.15)"/><path class="cls-9" d="M73.94,110.06V93c34.88,14.77,88.64,15.62,111.52,15.62v17.1c-22.88,0-76.64-.85-111.52-15.62" transform="translate(0 -12.15)"/></g></g></g><g class="cls-2"><g class="cls-65"><g class="cls-2"><path class="cls-9" d="M58,104V86.94l.62-.26v17.1L58,104" transform="translate(0 -12.15)"/><path class="cls-8" d="M58.62,103.78V86.68c.62-.26,1.23-.54,1.83-.83V103c-.6.29-1.21.57-1.83.83" transform="translate(0 -12.15)"/></g></g></g><g class="cls-2"><g class="cls-66"><g class="cls-2"><path class="cls-9" d="M280.25,112.87V95.77C284.93,94.67,374,73.66,427,67.84v17.1c-53,5.82-142,26.83-146.73,27.93" transform="translate(0 -12.15)"/></g></g></g><g class="cls-2"><g class="cls-67"><g class="cls-2"><path class="cls-9" d="M427,84.94V67.84a148.8,148.8,0,0,1,21.14-1.31v17.1A148.8,148.8,0,0,0,427,84.94" transform="translate(0 -12.15)"/></g></g></g><g class="cls-2"><g class="cls-68"><g class="cls-2"><path class="cls-9" d="M448.12,83.63V66.53c51.73,0,126,16.73,129.88,17.61v17.1c-3.91-.88-78.15-17.61-129.88-17.61" transform="translate(0 -12.15)"/></g></g></g><path class="cls-69" d="M41.5,29.25c22.92,0,41.5,17.46,41.5,39,0,15.12-9.16,28.23-22.55,34.7-.8.39-1.62.75-2.45,1.09a43.59,43.59,0,0,1-16,3.2h-.5a43.65,43.65,0,0,1-16.17-3.07L25,104C10.29,98,0,84.27,0,68.25,0,46.71,18.58,29.25,41.5,29.25Z" transform="translate(0 -12.15)"/><g class="cls-2"><g class="cls-70"><g class="cls-2"><path class="cls-71" d="M41.5,29.25V12.15a43.61,43.61,0,0,1,17.07,3.44v17.1A43.61,43.61,0,0,0,41.5,29.25" transform="translate(0 -12.15)"/><path class="cls-72" d="M58.57,32.69V15.59A41.29,41.29,0,0,1,73.26,26.05v17.1A41.29,41.29,0,0,0,58.57,32.69" transform="translate(0 -12.15)"/><path class="cls-73" d="M73.26,43.15V26.05A37.43,37.43,0,0,1,83,51.14V68.25a37.45,37.45,0,0,0-9.74-25.1" transform="translate(0 -12.15)"/></g></g></g><g class="cls-2"><g class="cls-74"><g class="cls-2"><path class="cls-73" d="M0,68.25V51.14A37.47,37.47,0,0,1,9.74,26v17.1A37.48,37.48,0,0,0,0,68.25" transform="translate(0 -12.15)"/><path class="cls-72" d="M9.74,43.14V26A41.48,41.48,0,0,1,24.43,15.59v17.1A41.48,41.48,0,0,0,9.74,43.14" transform="translate(0 -12.15)"/><path class="cls-71" d="M24.43,32.69V15.59A43.65,43.65,0,0,1,41.5,12.15v17.1a43.65,43.65,0,0,0-17.07,3.44" transform="translate(0 -12.15)"/></g></g></g></g></g></g></svg>