<svg xmlns="http://www.w3.org/2000/svg" xmlns:xlink="http://www.w3.org/1999/xlink" viewBox="0 0 577.98 662.09"><defs><style>.cls-1{fill:none;}.cls-2{isolation:isolate;}.cls-3{clip-path:url(#clip-path);}.cls-4{fill:#b39d70;}.cls-5{fill:#b49d6f;}.cls-6{fill:#b29d72;}.cls-7{fill:#d8d8d8;}.cls-8{fill:#d7d7d7;}.cls-9{fill:#cbcbcb;}.cls-10{fill:#060606;}.cls-11{fill:#383838;}.cls-12{fill:#4b4b4b;}.cls-13{fill:#4a4a4a;}.cls-14{fill:#474747;}.cls-15{fill:#ccc;}.cls-16{clip-path:url(#clip-path-2);}.cls-17{fill:#d3d3d3;}.cls-18{fill:#d1d1d1;}.cls-19{fill:#cfcfcf;}.cls-20{clip-path:url(#clip-path-3);}.cls-21{fill:#cdcdcd;}.cls-22{clip-path:url(#clip-path-4);}.cls-23{fill:#3f3f3f;}.cls-24{fill:#424242;}.cls-25{fill:#454545;}.cls-26{clip-path:url(#clip-path-5);}.cls-27{clip-path:url(#clip-path-6);}.cls-28{fill:#484848;}.cls-29{clip-path:url(#clip-path-7);}.cls-30{clip-path:url(#clip-path-8);}.cls-31{clip-path:url(#clip-path-9);}.cls-32{fill:#cecece;}.cls-33{clip-path:url(#clip-path-10);}.cls-34{fill:#464646;}.cls-35{clip-path:url(#clip-path-11);}.cls-36{clip-path:url(#clip-path-12);}.cls-37{clip-path:url(#clip-path-13);}.cls-38{clip-path:url(#clip-path-14);}.cls-39{clip-path:url(#clip-path-15);}.cls-40{clip-path:url(#clip-path-16);}.cls-41{clip-path:url(#clip-path-17);}.cls-42{clip-path:url(#clip-path-18);}.cls-43{clip-path:url(#clip-path-19);}.cls-44{clip-path:url(#clip-path-20);}.cls-45{clip-path:url(#clip-path-21);}.cls-46{clip-path:url(#clip-path-22);}.cls-47{fill:#fbfbfb;}.cls-48{clip-path:url(#clip-path-23);}.cls-49{clip-path:url(#clip-path-24);}.cls-50{clip-path:url(#clip-path-25);}.cls-51{clip-path:url(#clip-path-26);}.cls-52{clip-path:url(#clip-path-27);}.cls-53{fill:#b29672;}.cls-54{fill:#cba350;}.cls-55{fill:#cb9650;}.cls-56{clip-path:url(#clip-path-28);}.cls-57{fill:#b5966d;}.cls-58{fill:#b6966c;}.cls-59{clip-path:url(#clip-path-29);}.cls-60{fill:#b69e6c;}.cls-61{clip-path:url(#clip-path-30);}.cls-62{clip-path:url(#clip-path-31);}.cls-63{clip-path:url(#clip-path-32);}.cls-64{clip-path:url(#clip-path-33);}.cls-65{clip-path:url(#clip-path-34);}.cls-66{clip-path:url(#clip-path-35);}.cls-67{fill:#d2bb6a;}.cls-68{fill:#d0b96b;}.cls-69{fill:#ceb86d;}.cls-70{fill:#ccb76e;}.cls-71{fill:#fad34d;}.cls-72{clip-path:url(#clip-path-36);}</style><clipPath id="clip-path" transform="translate(0 -12.15)"><path class="cls-1" d="M25.33,650.34a6.53,6.53,0,0,0,1.59,4.25v17.1a6.53,6.53,0,0,1-1.59-4.25Z"/></clipPath><clipPath id="clip-path-2" transform="translate(0 -12.15)"><path class="cls-1" d="M427.22,221.86v-17.1q8.14-1.44,13.56-2.66c2.37-.55,4-1.42,5-2.63v17.1a8.53,8.53,0,0,1-5,2.63Q435.37,220.43,427.22,221.86Z"/></clipPath><clipPath id="clip-path-3" transform="translate(0 -12.15)"><path class="cls-1" d="M358,222.45v-17.1a13.38,13.38,0,0,0,7.84-3.8,13.94,13.94,0,0,0,3.58-6.28v17.1a13.94,13.94,0,0,1-3.58,6.28A13.38,13.38,0,0,1,358,222.45Z"/></clipPath><clipPath id="clip-path-4" transform="translate(0 -12.15)"><path class="cls-1" d="M430.18,213.75v-17.1q4.45-.87,5.16-1a2.73,2.73,0,0,0,1.74-1v17.1a2.65,2.65,0,0,1-1.74,1Q434.64,212.88,430.18,213.75Z"/></clipPath><clipPath id="clip-path-5" transform="translate(0 -12.15)"><path class="cls-1" d="M447,194.24v17.1q0,3.63-1.26,5.23v-17.1Q447,197.87,447,194.24Z"/></clipPath><clipPath id="clip-path-6" transform="translate(0 -12.15)"><path class="cls-1" d="M447,194.25v17.1c0-.3,0-.61,0-.93v-17.1C447,193.64,447,194,447,194.25Z"/></clipPath><clipPath id="clip-path-7" transform="translate(0 -12.15)"><path class="cls-1" d="M437.4,193v17.1a3.22,3.22,0,0,1-.32,1.66v-17.1A3.22,3.22,0,0,0,437.4,193Z"/></clipPath><clipPath id="clip-path-8" transform="translate(0 -12.15)"><path class="cls-1" d="M369.39,195.27a15.18,15.18,0,0,0,.44-3.58v17.1a15.18,15.18,0,0,1-.44,3.58Z"/></clipPath><clipPath id="clip-path-9" transform="translate(0 -12.15)"><path class="cls-1" d="M369.83,191.69v17.1a14.18,14.18,0,0,0-.31-3v-17.1A14.18,14.18,0,0,1,369.83,191.69Z"/></clipPath><clipPath id="clip-path-10" transform="translate(0 -12.15)"><path class="cls-1" d="M359.71,191.64v17.1a5.53,5.53,0,0,0-.13-1.21,6.11,6.11,0,0,0-.87-2.12,5.43,5.43,0,0,0-1.72-1.72,3.5,3.5,0,0,0-1.93-.55l-.53,0v-17.1l.53,0a3.5,3.5,0,0,1,1.93.55,5.43,5.43,0,0,1,1.72,1.72,6.11,6.11,0,0,1,.87,2.12A5.47,5.47,0,0,1,359.71,191.64Z"/></clipPath><clipPath id="clip-path-11" transform="translate(0 -12.15)"><path class="cls-1" d="M437.4,193v17.1c0-.33,0-.71-.06-1.13a53.2,53.2,0,0,0-1.28-6.58v-17.1a53.2,53.2,0,0,1,1.28,6.58C437.38,192.25,437.4,192.63,437.4,193Z"/></clipPath><clipPath id="clip-path-12" transform="translate(0 -12.15)"><path class="cls-1" d="M444.66,197.71v-17.1A67.42,67.42,0,0,1,447,193.32v17.1A67.42,67.42,0,0,0,444.66,197.71Z"/></clipPath><clipPath id="clip-path-13" transform="translate(0 -12.15)"><path class="cls-1" d="M254.21,184.07a5.21,5.21,0,0,0,3.71-1.43v17.11a5.25,5.25,0,0,1-3.71,1.42h0a5.22,5.22,0,0,1-3.72-1.45,4.6,4.6,0,0,1-1.53-3.47v-17.1a4.6,4.6,0,0,0,1.53,3.47,5.22,5.22,0,0,0,3.72,1.45Z"/></clipPath><clipPath id="clip-path-14" transform="translate(0 -12.15)"><path class="cls-1" d="M259.46,179.14v17.1a4.66,4.66,0,0,1-1.54,3.51V182.64A4.63,4.63,0,0,0,259.46,179.14Z"/></clipPath><clipPath id="clip-path-15" transform="translate(0 -12.15)"><path class="cls-1" d="M248.92,179.1v0Z"/></clipPath><clipPath id="clip-path-16" transform="translate(0 -12.15)"><path class="cls-1" d="M245.32,182.6a4.66,4.66,0,0,0,1.55-3.51v17.1a4.66,4.66,0,0,1-1.55,3.51,5.25,5.25,0,0,1-3.7,1.43h0a5.25,5.25,0,0,1-3.73-1.46,4.61,4.61,0,0,1-1.52-3.47V179.1a4.61,4.61,0,0,0,1.52,3.47,5.25,5.25,0,0,0,3.73,1.46h0A5.25,5.25,0,0,0,245.32,182.6Z"/></clipPath><clipPath id="clip-path-17" transform="translate(0 -12.15)"><path class="cls-1" d="M236.33,179.06v0Z"/></clipPath><clipPath id="clip-path-18" transform="translate(0 -12.15)"><path class="cls-1" d="M351,194.42v-17.1a6.1,6.1,0,0,1,.87-.09v17.1A6.1,6.1,0,0,0,351,194.42Z"/></clipPath><clipPath id="clip-path-19" transform="translate(0 -12.15)"><path class="cls-1" d="M352.29,194.26v-17.1a19.19,19.19,0,0,1,2.86-.23,13.2,13.2,0,0,1,5.92,1.29,15.49,15.49,0,0,1,5.78,4.61,14.72,14.72,0,0,1,2.67,5.9v17.1a14.72,14.72,0,0,0-2.67-5.9,15.49,15.49,0,0,0-5.78-4.61,13.2,13.2,0,0,0-5.92-1.29A19.19,19.19,0,0,0,352.29,194.26Z"/></clipPath><clipPath id="clip-path-20" transform="translate(0 -12.15)"><path class="cls-1" d="M257.94,192.73V175.62a4.6,4.6,0,0,1,1.52,3.52v17.1A4.56,4.56,0,0,0,257.94,192.73Z"/></clipPath><clipPath id="clip-path-21" transform="translate(0 -12.15)"><path class="cls-1" d="M248.92,196.2V179.1a4.62,4.62,0,0,1,1.55-3.5,5.54,5.54,0,0,1,7.47,0v17.11a5.24,5.24,0,0,0-3.72-1.47,5.3,5.3,0,0,0-3.75,1.44A4.64,4.64,0,0,0,248.92,196.2Z"/></clipPath><clipPath id="clip-path-22" transform="translate(0 -12.15)"><path class="cls-1" d="M236.33,196.16v-17.1a4.65,4.65,0,0,1,1.54-3.51,5.27,5.27,0,0,1,3.71-1.43h0a5.23,5.23,0,0,1,3.72,1.46,4.63,4.63,0,0,1,1.53,3.51v17.1a4.63,4.63,0,0,0-1.53-3.51,5.23,5.23,0,0,0-3.72-1.46h0a5.27,5.27,0,0,0-3.71,1.43A4.65,4.65,0,0,0,236.33,196.16Z"/></clipPath><clipPath id="clip-path-23" transform="translate(0 -12.15)"><path class="cls-1" d="M395.88,146.94V164c0,1.54,0,3.2-.07,5v-17.1C395.86,150.14,395.88,148.48,395.88,146.94Z"/></clipPath><clipPath id="clip-path-24" transform="translate(0 -12.15)"><path class="cls-1" d="M405.77,146.61v17.1q0,1.33-.06,3.06v-17.1Q405.77,147.95,405.77,146.61Z"/></clipPath><clipPath id="clip-path-25" transform="translate(0 -12.15)"><path class="cls-1" d="M395.88,147v0Z"/></clipPath><clipPath id="clip-path-26" transform="translate(0 -12.15)"><path class="cls-1" d="M405.77,146.61v17.1c0-.84,0-1.57-.06-2.18v-17.1C405.75,145,405.77,145.77,405.77,146.61Z"/></clipPath><clipPath id="clip-path-27" transform="translate(0 -12.15)"><path class="cls-1" d="M185.44,125.68v-17.1c26.77,0,91.39-12.17,94.79-12.81v17.1C276.83,113.51,212.21,125.68,185.44,125.68Z"/></clipPath><clipPath id="clip-path-28" transform="translate(0 -12.15)"><path class="cls-1" d="M25.33,104.17V87.07A43.61,43.61,0,0,0,41.5,90.14v17.1A43.61,43.61,0,0,1,25.33,104.17Z"/></clipPath><clipPath id="clip-path-29" transform="translate(0 -12.15)"><path class="cls-1" d="M42,107.24V90.14a43.75,43.75,0,0,0,16-3.2V104A43.75,43.75,0,0,1,42,107.24Z"/></clipPath><clipPath id="clip-path-30" transform="translate(0 -12.15)"><path class="cls-1" d="M60.44,103V85.85c32.59,21.62,98.9,22.73,125,22.73v17.1C159.34,125.68,93,124.58,60.44,103Z"/></clipPath><clipPath id="clip-path-31" transform="translate(0 -12.15)"><path class="cls-1" d="M58,104V86.94c.83-.34,1.65-.7,2.45-1.09V103C59.64,103.34,58.82,103.7,58,104Z"/></clipPath><clipPath id="clip-path-32" transform="translate(0 -12.15)"><path class="cls-1" d="M280.23,112.87V95.77C284.91,94.67,374,73.66,427,67.84v17.1C374,90.76,284.91,111.77,280.23,112.87Z"/></clipPath><clipPath id="clip-path-33" transform="translate(0 -12.15)"><path class="cls-1" d="M448.09,83.63V66.53c51.73,0,126,16.72,129.89,17.6v17.11C574.07,100.35,499.82,83.63,448.09,83.63Z"/></clipPath><clipPath id="clip-path-34" transform="translate(0 -12.15)"><path class="cls-1" d="M427,84.94V67.84a148.65,148.65,0,0,1,21.13-1.31v17.1A148.65,148.65,0,0,0,427,84.94Z"/></clipPath><clipPath id="clip-path-35" transform="translate(0 -12.15)"><path class="cls-1" d="M41.5,29.25V12.15c22.92,0,41.5,17.45,41.5,39v17.1C83,46.7,64.42,29.25,41.5,29.25Z"/></clipPath><clipPath id="clip-path-36" transform="translate(0 -12.15)"><path class="cls-1" d="M0,68.24V51.14c0-21.54,18.58-39,41.5-39v17.1C18.58,29.25,0,46.7,0,68.24Z"/></clipPath></defs><g id="レイヤー_2" data-name="レイヤー 2"><g id="レイヤー_1-2" data-name="レイヤー 1"><g class="cls-2"><g class="cls-2"><g class="cls-3"><g class="cls-2"><path class="cls-4" d="M25.33,667.44v-17.1a6.49,6.49,0,0,0,1.48,4.12v17.1a6.49,6.49,0,0,1-1.48-4.12" transform="translate(0 -12.15)"/><path class="cls-5" d="M26.81,671.56v-17.1l.11.13v17.1l-.11-.13" transform="translate(0 -12.15)"/></g></g></g><polygon class="cls-6" points="57.99 289.29 57.99 272.19 58 637.83 58 654.93 57.99 289.29"/><polygon class="cls-7" points="229.38 232.44 229.38 215.34 240.23 215.38 240.23 232.48 229.38 232.44"/><polygon class="cls-7" points="167.81 230.64 167.81 213.54 178.92 214.09 178.92 231.2 167.81 230.64"/><polygon class="cls-7" points="266.7 232.08 266.7 214.98 310.26 212.31 310.26 229.41 266.7 232.08"/><polygon class="cls-7" points="330.32 227.41 330.32 210.31 340.11 208.57 340.11 225.67 330.32 227.41"/><polygon class="cls-8" points="92.45 224.87 92.45 207.77 138.4 211.74 138.4 228.84 92.45 224.87"/><polygon class="cls-9" points="266.06 222.88 266.06 205.78 266.7 214.98 266.7 232.08 266.06 222.88"/><polygon class="cls-10" points="309.62 220.21 310.26 229.41 266.7 232.08 266.06 222.88 309.62 220.21"/><polygon class="cls-11" points="266.06 222.88 266.06 205.78 309.62 203.11 309.62 220.21 266.06 222.88"/><polygon class="cls-12" points="309.62 220.21 309.62 203.11 310.26 212.31 310.26 229.41 309.62 220.21"/><polygon class="cls-9" points="138.4 228.84 138.4 211.74 139.3 202.55 139.3 219.65 138.4 228.84"/><polygon class="cls-11" points="121.28 218.1 121.28 201 139.3 202.55 139.3 219.65 121.28 218.1"/><polygon class="cls-8" points="388.37 218.34 388.37 201.24 397.48 199.17 397.48 216.27 388.37 218.34"/><polygon class="cls-13" points="92.45 224.87 92.45 207.77 93.35 198.58 93.35 215.69 92.45 224.87"/><polygon class="cls-11" points="93.35 215.69 93.35 198.58 111.44 200.15 111.44 217.25 93.35 215.69"/><polygon class="cls-14" points="229.38 232.44 229.38 215.34 247.06 174.73 247.06 191.83 229.38 232.44"/><polygon class="cls-7" points="205.65 215.14 205.65 198.04 229.82 198.13 229.82 215.24 205.65 215.14"/><polygon class="cls-13" points="396.68 213.12 396.68 196.02 397.49 199.17 397.49 216.27 396.68 213.12"/><polygon class="cls-7" points="349.9 211.74 349.9 194.64 357.97 193.21 357.97 210.31 349.9 211.74"/><polygon class="cls-15" points="426 206.45 426 189.35 427.22 192.61 427.22 209.71 426 206.45"/><polygon class="cls-8" points="396.68 213.12 396.68 196.02 426 189.35 426 206.45 396.68 213.12"/><polygon class="cls-9" points="229.82 215.24 229.82 198.13 229.86 188.91 229.86 206.01 229.82 215.24"/><polygon class="cls-11" points="205.69 205.93 205.69 188.82 229.86 188.91 229.86 206.01 205.69 205.93"/><polygon class="cls-12" points="205.65 215.14 205.65 198.04 205.69 188.82 205.69 205.93 205.65 215.14"/><polygon class="cls-11" points="395.02 206.7 395.02 189.6 403.42 187.69 403.42 204.79 395.02 206.7"/><g class="cls-2"><g class="cls-16"><g class="cls-2"><path class="cls-17" d="M427.22,221.86v-17.1q8.14-1.44,13.56-2.66a13.28,13.28,0,0,0,2.78-.94v17.1a13.28,13.28,0,0,1-2.78.94q-5.41,1.23-13.56,2.66" transform="translate(0 -12.15)"/><path class="cls-18" d="M443.56,218.26v-17.1a6.72,6.72,0,0,0,1.76-1.2v17.1a6.48,6.48,0,0,1-1.76,1.2" transform="translate(0 -12.15)"/><path class="cls-19" d="M445.32,217.06V200c.16-.16.3-.32.44-.49v17.1a5.12,5.12,0,0,1-.44.49" transform="translate(0 -12.15)"/></g></g></g><polygon class="cls-9" points="384.62 203.76 384.62 186.66 388.37 201.24 388.37 218.34 384.62 203.76"/><polygon class="cls-9" points="348.07 202.68 348.07 185.58 349.9 194.64 349.9 211.74 348.07 202.68"/><polygon class="cls-13" points="393.72 201.69 393.72 184.59 395.02 189.6 395.02 206.7 393.72 201.69"/><polygon class="cls-11" points="384.62 203.76 384.62 186.66 393.72 184.59 393.72 201.69 384.62 203.76"/><polygon class="cls-11" points="348.07 202.68 348.07 185.58 356.57 184.07 356.57 201.17 348.07 202.68"/><polygon class="cls-7" points="205.71 200.83 205.71 183.73 229.88 183.82 229.88 200.92 205.71 200.83"/><polygon class="cls-11" points="412.6 202.7 412.6 185.6 420.86 183.72 420.86 200.82 412.6 202.7"/><g class="cls-2"><g class="cls-20"><g class="cls-2"><path class="cls-17" d="M358,222.45v-17.1a15.94,15.94,0,0,0,4.5-1.37v17.1a15.94,15.94,0,0,1-4.5,1.37" transform="translate(0 -12.15)"/><path class="cls-18" d="M362.47,221.08V204a11.5,11.5,0,0,0,3-2.09V219a11.5,11.5,0,0,1-3,2.09" transform="translate(0 -12.15)"/><path class="cls-19" d="M365.47,219v-17.1l.34-.34a16.32,16.32,0,0,0,2.42-3.29v17.1a16.32,16.32,0,0,1-2.42,3.29l-.34.34" transform="translate(0 -12.15)"/><path class="cls-21" d="M368.23,215.36v-17.1a11.94,11.94,0,0,0,1.16-3v17.1a11.94,11.94,0,0,1-1.16,3" transform="translate(0 -12.15)"/></g></g></g><polygon class="cls-9" points="330.06 199.78 330.06 182.68 330.32 210.31 330.32 227.41 330.06 199.78"/><g class="cls-2"><g class="cls-22"><g class="cls-2"><path class="cls-23" d="M430.18,213.75v-17.1q4.45-.87,5.16-1a4.13,4.13,0,0,0,.92-.31v17.1a4.13,4.13,0,0,1-.92.31q-.7.16-5.16,1" transform="translate(0 -12.15)"/><path class="cls-24" d="M436.26,212.4V195.3a2.37,2.37,0,0,0,.59-.41V212a2.14,2.14,0,0,1-.59.41" transform="translate(0 -12.15)"/><path class="cls-25" d="M436.85,212v-17.1a1.18,1.18,0,0,0,.23-.27v17.1a1.18,1.18,0,0,1-.23.27" transform="translate(0 -12.15)"/></g></g></g><g class="cls-2"><g class="cls-26"><g class="cls-2"><path class="cls-19" d="M445.76,216.57v-17.1a4,4,0,0,0,.37-.57V216a4,4,0,0,1-.37.57" transform="translate(0 -12.15)"/><path class="cls-21" d="M446.13,216V198.9a9.88,9.88,0,0,0,.89-4.66v17.1a9.88,9.88,0,0,1-.89,4.66" transform="translate(0 -12.15)"/></g></g></g><g class="cls-2"><g class="cls-27"><g class="cls-2"><path class="cls-28" d="M447,210.42v-17.1c0,.32,0,.63,0,.93v17.1c0-.3,0-.61,0-.93" transform="translate(0 -12.15)"/></g></g></g><polygon class="cls-7" points="149.32 198.15 149.32 181.05 173.46 182.25 173.46 199.35 149.32 198.15"/><polygon class="cls-7" points="264.52 200.77 264.52 183.67 308.08 180.99 308.08 198.09 264.52 200.77"/><polygon class="cls-10" points="330.06 199.78 339.77 198.06 340.11 225.67 330.32 227.41 330.06 199.78"/><polygon class="cls-12" points="339.77 198.06 339.77 180.96 340.11 208.57 340.11 225.67 339.77 198.06"/><polygon class="cls-11" points="330.06 199.78 330.06 182.68 339.77 180.96 339.77 198.06 330.06 199.78"/><polygon class="cls-8" points="388.86 200.95 388.86 183.85 401.68 180.93 401.68 198.03 388.86 200.95"/><polygon class="cls-9" points="401.68 198.03 401.68 180.93 403.42 187.69 403.42 204.79 401.68 198.03"/><g class="cls-2"><g class="cls-29"><g class="cls-2"><path class="cls-25" d="M437.08,211.72v-17.1a.2.2,0,0,0,0-.08v17.1a.2.2,0,0,1,0,.08" transform="translate(0 -12.15)"/><path class="cls-28" d="M437.12,211.64v-17.1a3.32,3.32,0,0,0,.28-1.58v17.1a3.32,3.32,0,0,1-.28,1.58" transform="translate(0 -12.15)"/></g></g></g><g class="cls-2"><g class="cls-30"><g class="cls-2"><path class="cls-21" d="M369.39,212.37v-17.1a15.18,15.18,0,0,0,.44-3.58v17.1a15.18,15.18,0,0,1-.44,3.58" transform="translate(0 -12.15)"/></g></g></g><polygon class="cls-9" points="121.28 218.09 121.28 200.99 123.44 178.93 123.44 196.03 121.28 218.09"/><polygon class="cls-8" points="123.44 196.03 123.44 178.93 141.46 180.49 141.46 197.59 123.44 196.03"/><polygon class="cls-13" points="410.86 195.95 410.86 178.84 412.6 185.6 412.6 202.7 410.86 195.95"/><polygon class="cls-9" points="419.56 195.8 419.56 178.7 420.86 183.72 420.86 200.82 419.56 195.8"/><polygon class="cls-13" points="111.44 217.25 111.44 200.15 113.6 178.07 113.6 195.18 111.44 217.25"/><polygon class="cls-11" points="419.56 195.8 419.56 178.7 428.18 176.74 428.18 193.84 419.56 195.8"/><polygon class="cls-13" points="428.18 193.84 428.18 176.74 430.17 184.5 430.17 201.6 428.18 193.84"/><g class="cls-2"><g class="cls-31"><g class="cls-2"><path class="cls-28" d="M369.52,205.83v-17.1a14.18,14.18,0,0,1,.31,3v17.1a14.18,14.18,0,0,0-.31-3" transform="translate(0 -12.15)"/></g></g></g><polygon class="cls-8" points="95.51 193.61 95.51 176.51 113.6 178.07 113.6 195.18 95.51 193.61"/><polygon class="cls-21" points="240.23 232.48 240.23 215.38 257.82 174.77 257.82 191.87 240.23 232.48"/><polygon class="cls-11" points="247.06 191.83 247.06 174.73 257.82 174.77 257.82 191.87 247.06 191.83"/><polygon class="cls-10" points="229.38 232.44 247.06 191.83 257.82 191.87 240.23 232.48 229.38 232.44"/><polygon class="cls-9" points="229.88 200.92 229.88 183.82 229.91 174.6 229.91 191.7 229.88 200.92"/><polygon class="cls-12" points="205.71 200.83 205.71 183.73 205.75 174.51 205.75 191.61 205.71 200.83"/><polygon class="cls-11" points="205.75 191.61 205.75 174.51 229.91 174.6 229.91 191.7 205.75 191.61"/><rect class="cls-10" x="213.21" y="196.33" width="9.22" height="24.17" transform="translate(8.54 413.26) rotate(-89.77)"/><polygon class="cls-9" points="263.88 191.56 263.88 174.46 264.52 183.67 264.52 200.77 263.88 191.56"/><polygon class="cls-32" points="178.92 231.2 178.92 214.09 198.62 174.35 198.62 191.45 178.92 231.2"/><polygon class="cls-7" points="318.55 197.43 318.55 180.32 354.53 173.92 354.53 191.02 318.55 197.43"/><g class="cls-2"><g class="cls-33"><g class="cls-2"><path class="cls-17" d="M354.53,203.17v-17.1l.53,0a3.47,3.47,0,0,1,1,.14v17.1a3.82,3.82,0,0,0-1-.14l-.53,0" transform="translate(0 -12.15)"/><path class="cls-18" d="M356.09,203.28v-17.1a3.33,3.33,0,0,1,.9.41l.13.08v17.1l-.13-.08a3.33,3.33,0,0,0-.9-.41" transform="translate(0 -12.15)"/><path class="cls-19" d="M357.12,203.77v-17.1a5.69,5.69,0,0,1,1.2,1.09v17.11a5.73,5.73,0,0,0-1.2-1.1" transform="translate(0 -12.15)"/><path class="cls-21" d="M358.32,204.87V187.76c.14.18.27.36.39.55a6.11,6.11,0,0,1,.87,2.12,5.47,5.47,0,0,1,.13,1.21v17.1a5.53,5.53,0,0,0-.13-1.21,6.11,6.11,0,0,0-.87-2.12,5.3,5.3,0,0,0-.39-.54" transform="translate(0 -12.15)"/></g></g></g><polygon class="cls-34" points="167.81 230.64 167.81 213.54 187.58 173.8 187.58 190.9 167.81 230.64"/><polygon class="cls-11" points="187.58 190.9 187.58 173.8 198.62 174.35 198.62 191.45 187.58 190.9"/><polygon class="cls-10" points="187.58 190.9 198.62 191.45 178.92 231.2 167.81 230.64 187.58 190.9"/><polygon class="cls-13" points="396.21 190.29 396.21 173.19 396.86 175.72 396.86 192.82 396.21 190.29"/><polygon class="cls-8" points="410.86 195.94 410.86 178.84 436.06 173.1 436.06 190.2 410.86 195.94"/><g class="cls-2"><g class="cls-35"><g class="cls-2"><path class="cls-21" d="M436.06,202.35v-17.1a53.2,53.2,0,0,1,1.28,6.58c0,.42.06.8.06,1.13v17.1c0-.33,0-.71-.06-1.13a53.2,53.2,0,0,0-1.28-6.58" transform="translate(0 -12.15)"/></g></g></g><polygon class="cls-9" points="173.46 199.35 173.46 182.25 173.98 173.04 173.98 190.14 173.46 199.35"/><polygon class="cls-12" points="149.32 198.15 149.32 181.05 149.84 171.84 149.84 188.94 149.32 198.15"/><polygon class="cls-11" points="149.84 188.94 149.84 171.84 173.98 173.04 173.98 190.14 149.84 188.94"/><polygon class="cls-10" points="307.44 188.89 308.08 198.09 264.52 200.77 263.88 191.56 307.44 188.89"/><polygon class="cls-12" points="307.44 188.89 307.44 171.79 308.08 180.99 308.08 198.09 307.44 188.89"/><polygon class="cls-11" points="263.88 191.56 263.88 174.46 307.44 171.79 307.44 188.89 263.88 191.56"/><polygon class="cls-9" points="141.46 197.59 141.46 180.49 142.36 171.3 142.36 188.4 141.46 197.59"/><polygon class="cls-9" points="316.72 188.36 316.72 171.26 318.55 180.32 318.55 197.43 316.72 188.36"/><g class="cls-2"><g class="cls-36"><g class="cls-2"><path class="cls-28" d="M444.66,197.71v-17.1A67.42,67.42,0,0,1,447,193.32v17.1a67.42,67.42,0,0,0-2.34-12.71" transform="translate(0 -12.15)"/></g></g></g><polygon class="cls-13" points="95.51 193.61 95.51 176.51 96.41 167.33 96.41 184.43 95.51 193.61"/><polygon class="cls-11" points="96.41 184.43 96.41 167.33 142.36 171.3 142.36 188.4 96.41 184.43"/><g class="cls-2"><g class="cls-37"><g class="cls-2"><path class="cls-21" d="M248.92,196.2V179.1a4.56,4.56,0,0,0,1,3v17.1a4.56,4.56,0,0,1-1-3" transform="translate(0 -12.15)"/><path class="cls-19" d="M250,199.19v-17.1a4.81,4.81,0,0,0,.49.53,5.13,5.13,0,0,0,.69.56v17.1a5.13,5.13,0,0,1-.69-.56,4.05,4.05,0,0,1-.49-.53" transform="translate(0 -12.15)"/><path class="cls-18" d="M251.14,200.28v-17.1a5.21,5.21,0,0,0,1.43.68V201a5.21,5.21,0,0,1-1.43-.68" transform="translate(0 -12.15)"/><path class="cls-17" d="M252.57,201v-17.1a6,6,0,0,0,1.6.21h0a5.46,5.46,0,0,0,2.41-.52v17.1a5.46,5.46,0,0,1-2.41.52h0a6,6,0,0,1-1.6-.21" transform="translate(0 -12.15)"/><path class="cls-18" d="M256.62,200.65v-17.1a5.18,5.18,0,0,0,1.3-.91v17.11a5.41,5.41,0,0,1-1.3.9" transform="translate(0 -12.15)"/></g></g></g><g class="cls-2"><g class="cls-38"><g class="cls-2"><path class="cls-18" d="M257.92,199.75V182.64l.09-.08v17.1l-.09.09" transform="translate(0 -12.15)"/><path class="cls-19" d="M258,199.66v-17.1a5.21,5.21,0,0,0,.9-1.18v17.1a5,5,0,0,1-.9,1.18" transform="translate(0 -12.15)"/><path class="cls-21" d="M258.91,198.48v-17.1a4.56,4.56,0,0,0,.55-2.24v17.1a4.56,4.56,0,0,1-.55,2.24" transform="translate(0 -12.15)"/></g></g></g><g class="cls-2"><g class="cls-39"><g class="cls-2"><path class="cls-21" d="M248.92,196.2V179.1a4.56,4.56,0,0,0,1,3v17.1a4.56,4.56,0,0,1-1-3" transform="translate(0 -12.15)"/></g></g></g><g class="cls-2"><g class="cls-40"><g class="cls-2"><path class="cls-21" d="M236.33,196.16v-17.1a4.57,4.57,0,0,0,1,3v17.1a4.57,4.57,0,0,1-1-3" transform="translate(0 -12.15)"/><path class="cls-19" d="M237.36,199.15v-17.1a5.94,5.94,0,0,0,.49.52,4.65,4.65,0,0,0,.7.56v17.1a4.65,4.65,0,0,1-.7-.56,5.94,5.94,0,0,1-.49-.52" transform="translate(0 -12.15)"/><path class="cls-18" d="M238.55,200.23v-17.1a5.08,5.08,0,0,0,1.43.68v17.1a4.82,4.82,0,0,1-1.43-.68" transform="translate(0 -12.15)"/><path class="cls-17" d="M240,200.91v-17.1a6,6,0,0,0,1.6.22h0a5.48,5.48,0,0,0,2.4-.53v17.1a5.48,5.48,0,0,1-2.4.53h0a5.57,5.57,0,0,1-1.6-.22" transform="translate(0 -12.15)"/><path class="cls-18" d="M244,200.6V183.5a5.61,5.61,0,0,0,1.3-.9l.09-.09v17.1l-.09.09a5.32,5.32,0,0,1-1.3.9" transform="translate(0 -12.15)"/><path class="cls-19" d="M245.41,199.61v-17.1a4.79,4.79,0,0,0,.91-1.18v17.11a4.74,4.74,0,0,1-.91,1.17" transform="translate(0 -12.15)"/><path class="cls-21" d="M246.32,198.44V181.33a4.67,4.67,0,0,0,.55-2.24v17.1a4.71,4.71,0,0,1-.55,2.25" transform="translate(0 -12.15)"/></g></g></g><g class="cls-2"><g class="cls-41"><g class="cls-2"><path class="cls-21" d="M236.33,196.16v-17.1a4.57,4.57,0,0,0,1,3v17.1a4.57,4.57,0,0,1-1-3" transform="translate(0 -12.15)"/></g></g></g><polygon class="cls-11" points="316.72 188.36 316.72 171.26 350.98 165.17 350.98 182.27 316.72 188.36"/><g class="cls-2"><g class="cls-42"><g class="cls-2"><path class="cls-23" d="M351,194.42v-17.1a6.1,6.1,0,0,1,.87-.09v17.1a6.1,6.1,0,0,0-.87.09" transform="translate(0 -12.15)"/></g></g></g><polygon class="cls-11" points="396.86 192.82 396.86 175.72 443.77 165.04 443.77 182.14 396.86 192.82"/><polygon class="cls-13" points="443.77 182.14 443.77 165.04 444.65 168.46 444.65 185.56 443.77 182.14"/><polygon class="cls-11" points="351.85 182.19 351.85 165.09 352.29 165.01 352.29 182.11 351.85 182.19"/><g class="cls-2"><g class="cls-43"><g class="cls-2"><path class="cls-23" d="M352.29,194.26v-17.1a19.19,19.19,0,0,1,2.86-.23,14.13,14.13,0,0,1,4,.54v17.1a14.13,14.13,0,0,0-4-.54,19.19,19.19,0,0,0-2.86.23" transform="translate(0 -12.15)"/><path class="cls-24" d="M359.13,194.57v-17.1a12.19,12.19,0,0,1,1.94.75,18.88,18.88,0,0,1,2.31,1.33v17.1a18.88,18.88,0,0,0-2.31-1.33,12.19,12.19,0,0,0-1.94-.75" transform="translate(0 -12.15)"/><path class="cls-25" d="M363.38,196.65v-17.1a14.12,14.12,0,0,1,3.11,2.82v17.1a14.12,14.12,0,0,0-3.11-2.82" transform="translate(0 -12.15)"/><path class="cls-28" d="M366.49,199.47v-17.1a5.19,5.19,0,0,1,.36.46,14.72,14.72,0,0,1,2.67,5.9v17.1a14.72,14.72,0,0,0-2.67-5.9,5.19,5.19,0,0,0-.36-.46" transform="translate(0 -12.15)"/></g></g></g><path class="cls-10" d="M369.52,205.83a14.75,14.75,0,0,1-.13,6.54,13.94,13.94,0,0,1-3.58,6.28,13.38,13.38,0,0,1-7.84,3.8l-8.06,1.44-1.83-9.07,8.49-1.5a3.15,3.15,0,0,0,2.1-1.25,5.19,5.19,0,0,0,.94-2.2,6.34,6.34,0,0,0,0-2.34,6.11,6.11,0,0,0-.87-2.12,5.43,5.43,0,0,0-1.72-1.72,3.5,3.5,0,0,0-1.93-.55l-.53,0-36,6.4-1.83-9.06L351,194.42a6.1,6.1,0,0,1,.87-.09l.43-.07a19.19,19.19,0,0,1,2.86-.23,13.2,13.2,0,0,1,5.92,1.29,15.49,15.49,0,0,1,5.78,4.61A14.72,14.72,0,0,1,369.52,205.83Z" transform="translate(0 -12.15)"/><polygon class="cls-13" points="393.97 181.59 393.97 164.49 394.61 166.96 394.61 184.06 393.97 181.59"/><g class="cls-2"><g class="cls-44"><g class="cls-2"><path class="cls-25" d="M257.94,192.73V175.62a4.81,4.81,0,0,1,.49.53v17.1a4,4,0,0,0-.49-.52" transform="translate(0 -12.15)"/><path class="cls-28" d="M258.43,193.25v-17.1a4.51,4.51,0,0,1,1,3v17.1a4.53,4.53,0,0,0-1-3" transform="translate(0 -12.15)"/></g></g></g><polygon class="cls-8" points="396.21 190.29 396.21 173.19 444.75 162.13 444.75 179.23 396.21 190.29"/><g class="cls-2"><g class="cls-45"><g class="cls-2"><path class="cls-28" d="M248.92,196.2V179.1a4.57,4.57,0,0,1,.56-2.24V194a4.57,4.57,0,0,0-.56,2.24" transform="translate(0 -12.15)"/><path class="cls-25" d="M249.48,194v-17.1a5,5,0,0,1,.9-1.17v17.1a5,5,0,0,0-.9,1.17" transform="translate(0 -12.15)"/><path class="cls-24" d="M250.38,192.79v-17.1l.09-.09a5.36,5.36,0,0,1,1.3-.91V191.8a5.06,5.06,0,0,0-1.3.9l-.09.09" transform="translate(0 -12.15)"/><path class="cls-23" d="M251.77,191.8V174.69a5.64,5.64,0,0,1,2.45-.53,5.8,5.8,0,0,1,1.58.22v17.1a6.21,6.21,0,0,0-1.58-.22,5.5,5.5,0,0,0-2.45.54" transform="translate(0 -12.15)"/><path class="cls-24" d="M255.8,191.48v-17.1a5.2,5.2,0,0,1,1.45.68v17.11a5,5,0,0,0-1.45-.69" transform="translate(0 -12.15)"/><path class="cls-25" d="M257.25,192.17V175.06a7.34,7.34,0,0,1,.69.56v17.11a5.13,5.13,0,0,0-.69-.56" transform="translate(0 -12.15)"/></g></g></g><path class="cls-10" d="M257.94,192.73a4.56,4.56,0,0,1,1.52,3.51,4.66,4.66,0,0,1-1.54,3.51,5.25,5.25,0,0,1-3.71,1.42h0a5.22,5.22,0,0,1-3.72-1.45,4.77,4.77,0,0,1,0-7,5.3,5.3,0,0,1,3.75-1.44A5.24,5.24,0,0,1,257.94,192.73Z" transform="translate(0 -12.15)"/><g class="cls-2"><g class="cls-46"><g class="cls-2"><path class="cls-28" d="M236.33,196.16v-17.1a4.6,4.6,0,0,1,.55-2.25v17.1a4.63,4.63,0,0,0-.55,2.25" transform="translate(0 -12.15)"/><path class="cls-25" d="M236.88,193.91v-17.1a5.08,5.08,0,0,1,.92-1.19v17.1a5.08,5.08,0,0,0-.92,1.19" transform="translate(0 -12.15)"/><path class="cls-24" d="M237.8,192.72v-17.1l.07-.07a5.66,5.66,0,0,1,1.31-.9v17.1a5.66,5.66,0,0,0-1.31.9l-.07.07" transform="translate(0 -12.15)"/><path class="cls-23" d="M239.18,191.75v-17.1a5.42,5.42,0,0,1,2.4-.53h0a5.87,5.87,0,0,1,1.59.22v17.1a5.87,5.87,0,0,0-1.59-.22h0a5.42,5.42,0,0,0-2.4.53" transform="translate(0 -12.15)"/><path class="cls-24" d="M243.21,191.44v-17.1a5.05,5.05,0,0,1,1.43.67v17.1a5.05,5.05,0,0,0-1.43-.67" transform="translate(0 -12.15)"/><path class="cls-25" d="M244.64,192.11V175a5.45,5.45,0,0,1,.7.57,4.81,4.81,0,0,1,.49.53v17.1a4.81,4.81,0,0,0-.49-.53,5.45,5.45,0,0,0-.7-.57" transform="translate(0 -12.15)"/><path class="cls-28" d="M245.83,193.21v-17.1a4.55,4.55,0,0,1,1,3v17.1a4.55,4.55,0,0,0-1-3" transform="translate(0 -12.15)"/></g></g></g><polygon class="cls-9" points="542.11 175.23 542.11 158.13 577.98 272.19 577.98 289.29 542.11 175.23"/><polygon class="cls-13" points="391.78 173.09 391.78 155.99 392.55 159 392.55 176.1 391.78 173.09"/><polygon class="cls-13" points="443.15 173.01 443.15 155.91 444.75 162.13 444.75 179.24 443.15 173.01"/><polygon class="cls-11" points="394.61 184.06 394.61 166.96 443.15 155.91 443.15 173.01 394.61 184.06"/><polygon class="cls-8" points="393.97 181.59 393.97 164.48 435.04 155.14 435.04 172.24 393.97 181.59"/><polygon class="cls-11" points="392.55 176.1 392.55 159 424.16 151.81 424.16 168.91 392.55 176.1"/><polygon class="cls-8" points="391.78 173.09 391.78 155.99 423.39 148.8 423.39 165.9 391.78 173.09"/><polygon class="cls-47" points="423.39 165.9 424.16 168.91 392.55 176.1 391.78 173.09 423.39 165.9"/><polygon class="cls-9" points="423.39 165.9 423.39 148.8 424.16 151.81 424.16 168.91 423.39 165.9"/><polygon class="cls-13" points="389.65 164.87 389.65 147.76 390.45 150.84 390.45 167.94 389.65 164.87"/><polygon class="cls-9" points="378.51 160.81 378.51 143.71 388.86 183.85 388.86 200.95 378.51 160.81"/><polygon class="cls-11" points="390.45 167.94 390.45 150.84 422.06 143.65 422.06 160.75 390.45 167.94"/><polygon class="cls-8" points="389.65 164.87 389.65 147.76 421.26 140.57 421.26 157.67 389.65 164.87"/><polygon class="cls-9" points="421.26 157.67 421.26 140.57 422.05 143.65 422.05 160.75 421.26 157.67"/><polygon class="cls-47" points="421.26 157.67 422.05 160.75 390.45 167.94 389.65 164.87 421.26 157.67"/><polygon class="cls-11" points="378.51 160.81 378.51 143.71 395.81 139.78 395.81 156.88 378.51 160.81"/><g class="cls-2"><g class="cls-48"><g class="cls-2"><path class="cls-28" d="M395.81,169v-17.1c.05-1.79.07-3.45.07-5V164c0,1.54,0,3.2-.07,5" transform="translate(0 -12.15)"/></g></g></g><polygon class="cls-11" points="405.7 154.62 405.7 137.52 429.13 132.19 429.13 149.3 405.7 154.62"/><g class="cls-2"><g class="cls-49"><g class="cls-2"><path class="cls-21" d="M405.71,166.77v-17.1q.06-1.72.06-3.06v17.1q0,1.33-.06,3.06" transform="translate(0 -12.15)"/></g></g></g><g class="cls-2"><g class="cls-50"><g class="cls-2"><path class="cls-21" d="M395.88,163.13v0" transform="translate(0 -12.15)"/></g></g></g><polygon class="cls-11" points="395.87 150.99 395.87 133.89 405.71 132.28 405.71 149.38 395.87 150.99"/><g class="cls-2"><g class="cls-51"><g class="cls-2"><path class="cls-28" d="M405.71,161.53v-17.1c0,.61.06,1.34.06,2.18v17.1c0-.84,0-1.57-.06-2.18" transform="translate(0 -12.15)"/></g></g></g><path class="cls-10" d="M447,210.42q.17,4.35-1.24,6.16a8.58,8.58,0,0,1-5,2.62q-5.41,1.23-13.56,2.66L426,218.6l-29.32,6.67.81,3.15-9.12,2.07-3.75-14.58,9.11-2.07,1.29,5,8.4-1.91-1.74-6.76-12.81,2.92L378.52,173,395.81,169c.06-2.14.08-4.1.07-5.9l9.83-1.6c.08,1.26.08,3,0,5.24l23.42-5.33,5.92,22.95L394,193.73l.64,2.48,48.54-11.05,1.61,6.22-48.55,11.05.66,2.54,46.91-10.68.88,3.42A67.42,67.42,0,0,1,447,210.42ZM389.66,177l.79,3.08,31.61-7.2-.79-3.07L389.66,177m47.42,34.71a4.75,4.75,0,0,0,.26-2.79,53.2,53.2,0,0,0-1.28-6.58l-25.2,5.74,1.74,6.76,8.26-1.89-1.29-5,8.61-2,2,7.76q4.45-.87,5.16-1a2.65,2.65,0,0,0,1.74-1m-45.3-26.48.78,3,31.6-7.2-.77-3-31.61,7.2" transform="translate(0 -12.15)"/><polygon class="cls-13" points="429.13 149.3 429.13 132.19 435.04 155.14 435.04 172.24 429.13 149.3"/><path class="cls-47" d="M578,101.23l-35.87,86.14L578,301.43l-34.27-14c-14.48-5.9-41.79-8.06-70.83-8.06-39.68,0-82.61,4-100.54,8.06-31.06,7-120.6,25.78-125.31,26.77-2.63.35-52.48,7-86.75,8.14-.89,0-1.79.05-2.71.05-34.79,0-98.73-20.72-99.57-21V104c.83-.34,1.65-.7,2.45-1.09,32.59,21.63,98.9,22.73,125,22.73,26.77,0,91.39-12.17,94.79-12.81C284.91,111.77,374,90.76,427,84.94a148.65,148.65,0,0,1,21.13-1.31C499.82,83.63,574.07,100.35,578,101.23ZM445.76,216.57q1.41-1.8,1.24-6.15a67.42,67.42,0,0,0-2.34-12.71l-.88-3.42L396.87,205l-.66-2.54,48.55-11.05-1.61-6.22-48.54,11.05-.64-2.48,41.08-9.34-5.92-22.95-23.42,5.33c.08-2.23.08-4,0-5.24l-9.83,1.6c0,1.8,0,3.76-.07,5.9L378.52,173l10.35,40.14,12.81-2.92,1.74,6.76-8.4,1.91-1.29-5-9.11,2.07,3.75,14.58,9.12-2.07-.81-3.15L426,218.6l1.22,3.26q8.14-1.43,13.56-2.66a8.53,8.53,0,0,0,5-2.63m-304.29-6.84.9-9.18-46-4-.9,9.19,18.09,1.56-2.16,22.08-18.09-1.57-.9,9.19,46,4,.9-9.18-18-1.56,2.16-22.06,18,1.55m227.92,2.64a14.75,14.75,0,0,0-2.54-12.44,15.49,15.49,0,0,0-5.78-4.61,13.2,13.2,0,0,0-5.92-1.29,19.19,19.19,0,0,0-2.86.23l-.43.07a6.1,6.1,0,0,0-.87.09l-34.27,6.09,1.83,9.06,36-6.4.53,0a3.5,3.5,0,0,1,1.93.55,5.43,5.43,0,0,1,1.72,1.72,6.11,6.11,0,0,1,.87,2.12,6.34,6.34,0,0,1,0,2.34,5.19,5.19,0,0,1-.94,2.2,3.15,3.15,0,0,1-2.1,1.25l-8.49,1.5,1.83,9.07,8.06-1.44a13.38,13.38,0,0,0,7.84-3.8,13.94,13.94,0,0,0,3.58-6.28m-190.47,31,19.7-39.75-11-.55-19.77,39.74,11.11.56m61.31,1.29L257.83,204,247.06,204l-17.67,40.62,10.84,0m23.65-40.92.64,9.2,43.56-2.67-.64-9.2-43.56,2.67m2.82,40.52,43.56-2.67-.64-9.2L266.06,235l.64,9.2m63.62-4.68,9.79-1.73-.34-27.61-9.71,1.72.26,27.62m-181-29.25,24.14,1.2.52-9.21-24.14-1.2-.52,9.21m56.37,7.77,0,9.22,24.18.09,0-9.22-24.17-.09m.06-14.32,0,9.23,24.16.09,0-9.22-24.17-.1m32.12-11.1a4.79,4.79,0,0,0,0,7,5.25,5.25,0,0,0,3.73,1.46h0a5.25,5.25,0,0,0,3.7-1.43,4.77,4.77,0,0,0,0-7,5.23,5.23,0,0,0-3.72-1.46h0a5.27,5.27,0,0,0-3.71,1.43m20.05,7.1a4.66,4.66,0,0,0,1.54-3.51,4.56,4.56,0,0,0-1.52-3.51,5.24,5.24,0,0,0-3.72-1.47,5.3,5.3,0,0,0-3.75,1.44,4.77,4.77,0,0,0,0,7,5.22,5.22,0,0,0,3.72,1.45h0a5.25,5.25,0,0,0,3.71-1.42" transform="translate(0 -12.15)"/><polygon class="cls-10" points="229.86 206.01 229.82 215.24 205.65 215.14 205.69 205.93 229.86 206.01"/><path class="cls-47" d="M436.06,202.35a53.2,53.2,0,0,1,1.28,6.58,4.75,4.75,0,0,1-.26,2.79,2.65,2.65,0,0,1-1.74,1q-.7.16-5.16,1l-2-7.76-8.61,2,1.29,5-8.26,1.89-1.74-6.76Z" transform="translate(0 -12.15)"/><polygon class="cls-10" points="173.98 190.14 173.46 199.35 149.32 198.15 149.84 188.94 173.98 190.14"/><polygon class="cls-10" points="96.41 184.43 142.36 188.4 141.46 197.59 123.44 196.03 121.28 218.1 139.3 219.65 138.4 228.84 92.45 224.87 93.35 215.69 111.44 217.25 113.6 195.18 95.51 193.61 96.41 184.43"/><path class="cls-10" d="M241.58,201.13a5.25,5.25,0,0,1-3.73-1.46,4.79,4.79,0,0,1,0-7,5.27,5.27,0,0,1,3.71-1.43h0a5.23,5.23,0,0,1,3.72,1.46,4.77,4.77,0,0,1,0,7,5.25,5.25,0,0,1-3.7,1.43Z" transform="translate(0 -12.15)"/><g class="cls-2"><g class="cls-52"><g class="cls-2"><path class="cls-17" d="M185.44,125.68v-17.1c26.77,0,91.39-12.17,94.79-12.81v17.1c-3.4.64-68,12.81-94.79,12.81" transform="translate(0 -12.15)"/></g></g></g><polygon class="cls-53" points="41.5 95.09 41.5 77.99 41.99 644.63 41.99 661.73 41.5 95.09"/><path class="cls-54" d="M25,104l.33,563.41a6.53,6.53,0,0,0,1.59,4.25A6.56,6.56,0,0,1,25,667.08Z" transform="translate(0 -12.15)"/><path class="cls-55" d="M25.33,104.17a43.61,43.61,0,0,0,16.17,3.07L42,673.87l-9.43.37a7.43,7.43,0,0,1-5.65-2.55,6.53,6.53,0,0,1-1.59-4.25Z" transform="translate(0 -12.15)"/><g class="cls-2"><g class="cls-56"><g class="cls-2"><path class="cls-57" d="M25.33,104.17V87.07c1.26.5,2.56,1,3.88,1.33v17.1c-1.32-.38-2.62-.83-3.88-1.33" transform="translate(0 -12.15)"/><path class="cls-58" d="M29.21,105.5V88.4A43.92,43.92,0,0,0,41.5,90.14v17.1a43.92,43.92,0,0,1-12.29-1.74" transform="translate(0 -12.15)"/></g></g></g><path class="cls-54" d="M58,301.44V667.08a7,7,0,0,1-7.24,6.79H42V107.24A43.75,43.75,0,0,0,58,104Z" transform="translate(0 -12.15)"/><g class="cls-2"><g class="cls-59"><g class="cls-2"><path class="cls-60" d="M42,107.24V90.14a43.75,43.75,0,0,0,16-3.2V104a43.75,43.75,0,0,1-16,3.2" transform="translate(0 -12.15)"/></g></g></g><polygon class="cls-6" points="24.99 91.89 24.99 74.79 25.33 638.19 25.33 655.29 24.99 91.89"/><g class="cls-2"><g class="cls-61"><g class="cls-2"><path class="cls-18" d="M60.44,103V85.85C68.25,91,78,95,88.65,98.12v17.1C78,112.13,68.25,108.13,60.44,103" transform="translate(0 -12.15)"/><path class="cls-17" d="M88.65,115.22V98.12c33.84,9.82,76.94,10.46,96.79,10.46v17.1c-19.85,0-62.95-.64-96.79-10.46" transform="translate(0 -12.15)"/></g></g></g><g class="cls-2"><g class="cls-62"><g class="cls-2"><path class="cls-17" d="M58,104V86.94c.83-.34,1.65-.7,2.45-1.09V103c-.8.39-1.62.75-2.45,1.09" transform="translate(0 -12.15)"/></g></g></g><g class="cls-2"><g class="cls-63"><g class="cls-2"><path class="cls-17" d="M280.23,112.87V95.77C284.91,94.67,374,73.66,427,67.84v17.1c-53,5.82-142,26.83-146.73,27.93" transform="translate(0 -12.15)"/></g></g></g><g class="cls-2"><g class="cls-64"><g class="cls-2"><path class="cls-17" d="M448.09,83.63V66.53c51.73,0,126,16.72,129.89,17.6v17.1c-3.91-.88-78.16-17.6-129.89-17.6" transform="translate(0 -12.15)"/></g></g></g><g class="cls-2"><g class="cls-65"><g class="cls-2"><path class="cls-17" d="M427,84.94V67.84a148.65,148.65,0,0,1,21.13-1.31v17.1A148.65,148.65,0,0,0,427,84.94" transform="translate(0 -12.15)"/></g></g></g><g class="cls-2"><g class="cls-66"><g class="cls-2"><path class="cls-67" d="M41.5,29.25V12.15a44,44,0,0,1,12.24,1.72V31A44,44,0,0,0,41.5,29.25" transform="translate(0 -12.15)"/><path class="cls-68" d="M53.74,31V13.87a42.14,42.14,0,0,1,12,5.64v17.1a42.14,42.14,0,0,0-12-5.64" transform="translate(0 -12.15)"/><path class="cls-69" d="M65.77,36.61V19.51a40.59,40.59,0,0,1,8.74,8V44.6a40.59,40.59,0,0,0-8.74-8" transform="translate(0 -12.15)"/><path class="cls-70" d="M74.51,44.6V27.5A37.32,37.32,0,0,1,83,51.14v17.1A37.32,37.32,0,0,0,74.51,44.6" transform="translate(0 -12.15)"/></g></g></g><path class="cls-71" d="M41.5,29.25c22.92,0,41.5,17.45,41.5,39C83,83.37,73.84,96.48,60.44,103c-.8.39-1.62.75-2.45,1.09a43.75,43.75,0,0,1-16,3.2h-.5a43.61,43.61,0,0,1-16.17-3.07L25,104C10.29,98,0,84.27,0,68.24,0,46.7,18.58,29.25,41.5,29.25Z" transform="translate(0 -12.15)"/><g class="cls-2"><g class="cls-72"><g class="cls-2"><path class="cls-70" d="M0,68.24V51.14A37,37,0,0,1,4.56,33.36v17.1A37,37,0,0,0,0,68.24" transform="translate(0 -12.15)"/><path class="cls-69" d="M4.56,50.46V33.36a39.29,39.29,0,0,1,7.06-9.28v17.1a39.29,39.29,0,0,0-7.06,9.28" transform="translate(0 -12.15)"/><path class="cls-68" d="M11.62,41.18V24.08a41.65,41.65,0,0,1,10.8-7.57v17.1a41.65,41.65,0,0,0-10.8,7.57" transform="translate(0 -12.15)"/><path class="cls-67" d="M22.42,33.61V16.51A43.38,43.38,0,0,1,41.5,12.15v17.1a43.38,43.38,0,0,0-19.08,4.36" transform="translate(0 -12.15)"/></g></g></g></g></g></g></svg>