<svg xmlns="http://www.w3.org/2000/svg" xmlns:xlink="http://www.w3.org/1999/xlink" viewBox="0 0 717.83 662.09"><defs><style>.cls-1{fill:none;}.cls-2{isolation:isolate;}.cls-3{clip-path:url(#clip-path);}.cls-4{fill:#b39d70;}.cls-5{fill:#b49d6f;}.cls-6{fill:#b29d71;}.cls-7{fill:#d6d6d6;}.cls-8{fill:#4b4b4b;}.cls-9{fill:#cdcdcd;}.cls-10{fill:#cecece;}.cls-11{fill:#cbcbcb;}.cls-12{clip-path:url(#clip-path-2);}.cls-13{fill:#d1d1d1;}.cls-14{clip-path:url(#clip-path-3);}.cls-15{clip-path:url(#clip-path-4);}.cls-16{fill:#424242;}.cls-17{clip-path:url(#clip-path-5);}.cls-18{fill:#3a3a3a;}.cls-19{fill:#fcfcfc;}.cls-20{clip-path:url(#clip-path-6);}.cls-21{fill:#484848;}.cls-22{clip-path:url(#clip-path-7);}.cls-23{clip-path:url(#clip-path-8);}.cls-24{clip-path:url(#clip-path-9);}.cls-25{fill:#cfcfcf;}.cls-26{fill:#d5d5d5;}.cls-27{clip-path:url(#clip-path-10);}.cls-28{clip-path:url(#clip-path-11);}.cls-29{clip-path:url(#clip-path-12);}.cls-30{clip-path:url(#clip-path-13);}.cls-31{fill:#454545;}.cls-32{fill:#3b3b3b;}.cls-33{clip-path:url(#clip-path-14);}.cls-34{fill:#ccc;}.cls-35{clip-path:url(#clip-path-15);}.cls-36{fill:#494949;}.cls-37{clip-path:url(#clip-path-16);}.cls-38{clip-path:url(#clip-path-17);}.cls-39{clip-path:url(#clip-path-18);}.cls-40{fill:#3c3c3c;}.cls-41{clip-path:url(#clip-path-19);}.cls-42{clip-path:url(#clip-path-20);}.cls-43{clip-path:url(#clip-path-21);}.cls-44{fill:#4a4a4a;}.cls-45{clip-path:url(#clip-path-22);}.cls-46{clip-path:url(#clip-path-23);}.cls-47{clip-path:url(#clip-path-24);}.cls-48{clip-path:url(#clip-path-25);}.cls-49{fill:#040404;}.cls-50{clip-path:url(#clip-path-26);}.cls-51{clip-path:url(#clip-path-27);}.cls-52{clip-path:url(#clip-path-28);}.cls-53{clip-path:url(#clip-path-29);}.cls-54{clip-path:url(#clip-path-30);}.cls-55{clip-path:url(#clip-path-31);}.cls-56{clip-path:url(#clip-path-32);}.cls-57{clip-path:url(#clip-path-33);}.cls-58{clip-path:url(#clip-path-34);}.cls-59{clip-path:url(#clip-path-35);}.cls-60{clip-path:url(#clip-path-36);}.cls-61{clip-path:url(#clip-path-37);}.cls-62{clip-path:url(#clip-path-38);}.cls-63{clip-path:url(#clip-path-39);}.cls-64{clip-path:url(#clip-path-40);}.cls-65{clip-path:url(#clip-path-41);}.cls-66{clip-path:url(#clip-path-42);}.cls-67{fill:#b29671;}.cls-68{fill:#cb964f;}.cls-69{clip-path:url(#clip-path-43);}.cls-70{fill:#b5966d;}.cls-71{clip-path:url(#clip-path-44);}.cls-72{fill:#b59d6d;}.cls-73{fill:#cba34f;}.cls-74{clip-path:url(#clip-path-45);}.cls-75{clip-path:url(#clip-path-46);}.cls-76{clip-path:url(#clip-path-47);}.cls-77{clip-path:url(#clip-path-48);}.cls-78{clip-path:url(#clip-path-49);}.cls-79{clip-path:url(#clip-path-50);}.cls-80{fill:#ccb76e;}.cls-81{fill:#ceb86d;}.cls-82{fill:#d0b96b;}.cls-83{clip-path:url(#clip-path-51);}.cls-84{fill:#fbd34c;}</style><clipPath id="clip-path" transform="translate(0 -12.14)"><path class="cls-1" d="M27,654.64a3.29,3.29,0,0,1,0,1v16.12a6.53,6.53,0,0,1-1.64-4.32v-17.1A6.49,6.49,0,0,0,27,654.64Z"/></clipPath><clipPath id="clip-path-2" transform="translate(0 -12.14)"><path class="cls-1" d="M214.09,244.54v-17.1a117,117,0,0,0,25.29,10.72v17.1A117,117,0,0,1,214.09,244.54Z"/></clipPath><clipPath id="clip-path-3" transform="translate(0 -12.14)"><path class="cls-1" d="M178,253.47v-17.1q15.51-3.83,26-9.23v17.1Q193.55,249.65,178,253.47Z"/></clipPath><clipPath id="clip-path-4" transform="translate(0 -12.14)"><path class="cls-1" d="M220.6,240.6V223.5a143.94,143.94,0,0,0,23.19,7.63v17.1A143.94,143.94,0,0,1,220.6,240.6Z"/></clipPath><clipPath id="clip-path-5" transform="translate(0 -12.14)"><path class="cls-1" d="M174.1,246.2V229.1a144,144,0,0,0,23.66-6.27v17.1A144,144,0,0,1,174.1,246.2Z"/></clipPath><clipPath id="clip-path-6" transform="translate(0 -12.14)"><path class="cls-1" d="M366.75,208.65v17.1a4.26,4.26,0,0,1,0,.47v-17.1A4.26,4.26,0,0,0,366.75,208.65Z"/></clipPath><clipPath id="clip-path-7" transform="translate(0 -12.14)"><path class="cls-1" d="M365.51,207.58v0h0v0h0v0h0v17h0v-17.1Z"/></clipPath><clipPath id="clip-path-8" transform="translate(0 -12.14)"><path class="cls-1" d="M365.76,207.56v17.1l-.25,0v-17h0v0h0v0h0v0Z"/></clipPath><clipPath id="clip-path-9" transform="translate(0 -12.14)"><path class="cls-1" d="M365.77,207.56c.65,0,1,.37,1,1.09v17.1c0-.72-.33-1.09-1-1.09h0v-17.1Z"/></clipPath><clipPath id="clip-path-10" transform="translate(0 -12.14)"><path class="cls-1" d="M138.19,227.68v-17.1c.55-1.24,1.09-2.46,1.58-3.67V224C139.28,225.22,138.74,226.44,138.19,227.68Z"/></clipPath><clipPath id="clip-path-11" transform="translate(0 -12.14)"><path class="cls-1" d="M127.83,226.86V209.75q.9-1.86,1.65-3.66v17.1C129,224.39,128.43,225.61,127.83,226.86Z"/></clipPath><clipPath id="clip-path-12" transform="translate(0 -12.14)"><path class="cls-1" d="M378,200.27v17.1a4.12,4.12,0,0,1,0,.48v-17.1A4.12,4.12,0,0,0,378,200.27Z"/></clipPath><clipPath id="clip-path-13" transform="translate(0 -12.14)"><path class="cls-1" d="M378,200.27v17.1a3.37,3.37,0,0,0-1.32-2.66v-17.1A3.37,3.37,0,0,1,378,200.27Z"/></clipPath><clipPath id="clip-path-14" transform="translate(0 -12.14)"><path class="cls-1" d="M373.25,214v-17.1a6.3,6.3,0,0,1,.95-.08,4,4,0,0,1,2.47.82v17.1a4,4,0,0,0-2.47-.82A6.3,6.3,0,0,0,373.25,214Z"/></clipPath><clipPath id="clip-path-15" transform="translate(0 -12.14)"><path class="cls-1" d="M227.07,215.38v-17.1a55.87,55.87,0,0,0,3.15-6.52v17.1A55.06,55.06,0,0,1,227.07,215.38Z"/></clipPath><clipPath id="clip-path-16" transform="translate(0 -12.14)"><path class="cls-1" d="M217.05,215.08V198a47.61,47.61,0,0,0,3.36-6.51v17.1A47.61,47.61,0,0,1,217.05,215.08Z"/></clipPath><clipPath id="clip-path-17" transform="translate(0 -12.14)"><path class="cls-1" d="M200.49,208V190.89q1.35,3.48,2.5,6.69v17.1C202.22,212.55,201.39,210.31,200.49,208Z"/></clipPath><clipPath id="clip-path-18" transform="translate(0 -12.14)"><path class="cls-1" d="M190.61,207.71v-17.1c.78,1.86,1.63,4.08,2.57,6.68v17.1C192.24,211.79,191.39,209.57,190.61,207.71Z"/></clipPath><clipPath id="clip-path-19" transform="translate(0 -12.14)"><path class="cls-1" d="M605.25,215.16v-17.1q8.26.6,13.83.73h.42a8.37,8.37,0,0,0,5.11-1.33c1.24-.93,2.21-2.81,2.89-5.65A66.53,66.53,0,0,0,628.76,179v17.1a66.74,66.74,0,0,1-1.26,12.84c-.68,2.83-1.65,4.71-2.89,5.64a8.37,8.37,0,0,1-5.11,1.33h-.42Q613.52,215.77,605.25,215.16Z"/></clipPath><clipPath id="clip-path-20" transform="translate(0 -12.14)"><path class="cls-1" d="M610.35,208.05V191c3,.16,4.77.25,5.26.26h.11a2.72,2.72,0,0,0,1.85-.54,4.89,4.89,0,0,0,1-2.63,51.92,51.92,0,0,0,.58-6.66v17.1a52.31,52.31,0,0,1-.58,6.67,4.85,4.85,0,0,1-1,2.62,2.72,2.72,0,0,1-1.85.54h-.11C615.12,208.3,613.37,208.21,610.35,208.05Z"/></clipPath><clipPath id="clip-path-21" transform="translate(0 -12.14)"><path class="cls-1" d="M185.37,182.6l.28.56v17.1l-.28-.56V182.6Z"/></clipPath><clipPath id="clip-path-22" transform="translate(0 -12.14)"><path class="cls-1" d="M235.44,201.71v-17.1q2.09-3.24,3.49-6v17.1Q237.52,198.48,235.44,201.71Z"/></clipPath><clipPath id="clip-path-23" transform="translate(0 -12.14)"><path class="cls-1" d="M185.37,182.6a1.08,1.08,0,0,1,0,.18V199.7a54.37,54.37,0,0,0-3-5.11v-17.1A54.37,54.37,0,0,1,185.37,182.6Z"/></clipPath><clipPath id="clip-path-24" transform="translate(0 -12.14)"><path class="cls-1" d="M226.22,201.44v-17.1a90.38,90.38,0,0,0,4.73-8.05v17.1A89,89,0,0,1,226.22,201.44Z"/></clipPath><clipPath id="clip-path-25" transform="translate(0 -12.14)"><path class="cls-1" d="M190.54,192.21V175.1a82.81,82.81,0,0,1,4.56,8.34v17.1A81.58,81.58,0,0,0,190.54,192.21Z"/></clipPath><clipPath id="clip-path-26" transform="translate(0 -12.14)"><path class="cls-1" d="M161,197.05V180c1.8-2.48,3.24-4.64,4.34-6.49v17.1C164.21,192.41,162.77,194.57,161,197.05Z"/></clipPath><clipPath id="clip-path-27" transform="translate(0 -12.14)"><path class="cls-1" d="M418,208.82V191.71a13.56,13.56,0,0,0,6-5.42q3.09-4.95,4.16-13.66v17.1q-1.07,8.7-4.16,13.66A13.65,13.65,0,0,1,418,208.82Z"/></clipPath><clipPath id="clip-path-28" transform="translate(0 -12.14)"><path class="cls-1" d="M131.11,188.3V171.2c1.06,1.93,2.13,4.12,3.23,6.61v17.1C133.24,192.43,132.17,190.23,131.11,188.3Z"/></clipPath><clipPath id="clip-path-29" transform="translate(0 -12.14)"><path class="cls-1" d="M151.12,196.26v-17.1a96.66,96.66,0,0,0,5.61-8.33v17.11A97.92,97.92,0,0,1,151.12,196.26Z"/></clipPath><clipPath id="clip-path-30" transform="translate(0 -12.14)"><path class="cls-1" d="M410.87,201.4V184.3a9,9,0,0,0,4.48-3.25,12.13,12.13,0,0,0,2.35-5,47.87,47.87,0,0,0,.75-5.44v17.1a47.87,47.87,0,0,1-.75,5.44,12.13,12.13,0,0,1-2.35,5A9,9,0,0,1,410.87,201.4Z"/></clipPath><clipPath id="clip-path-31" transform="translate(0 -12.14)"><path class="cls-1" d="M113.91,187.6V170.5c.82,1.64,1.78,3.6,2.84,5.9v17.1C115.69,191.2,114.73,189.24,113.91,187.6Z"/></clipPath><clipPath id="clip-path-32" transform="translate(0 -12.14)"><path class="cls-1" d="M485.14,170v17.1c0,.11,0,.24,0,.37v-17.1C485.13,170.26,485.14,170.13,485.14,170Z"/></clipPath><clipPath id="clip-path-33" transform="translate(0 -12.14)"><path class="cls-1" d="M139.92,186.11V169a104.23,104.23,0,0,1,4.41,9.6v17.11A103.25,103.25,0,0,0,139.92,186.11Z"/></clipPath><clipPath id="clip-path-34" transform="translate(0 -12.14)"><path class="cls-1" d="M483.86,168.81v17.1h0v-17.1Z"/></clipPath><clipPath id="clip-path-35" transform="translate(0 -12.14)"><path class="cls-1" d="M484,168.8c.74,0,1.1.41,1.1,1.22v17.1c0-.81-.36-1.22-1.1-1.22h-.18v-17.1Z"/></clipPath><clipPath id="clip-path-36" transform="translate(0 -12.14)"><path class="cls-1" d="M122.64,185.41v-17.1q2.3,4.4,4.18,8.9v17.1Q124.95,189.81,122.64,185.41Z"/></clipPath><clipPath id="clip-path-37" transform="translate(0 -12.14)"><path class="cls-1" d="M495.66,162.39v17.1c0,.07,0,.15,0,.22v-17.1C495.65,162.54,495.66,162.46,495.66,162.39Z"/></clipPath><clipPath id="clip-path-38" transform="translate(0 -12.14)"><path class="cls-1" d="M495.66,162.39v17.1a3.71,3.71,0,0,0-1.5-2.91v-17.1A3.7,3.7,0,0,1,495.66,162.39Z"/></clipPath><clipPath id="clip-path-39" transform="translate(0 -12.14)"><path class="cls-1" d="M490.63,175.71v-17.1a6.59,6.59,0,0,1,.75-.05,4.51,4.51,0,0,1,2.78.92v17.1a4.51,4.51,0,0,0-2.78-.92A6.59,6.59,0,0,0,490.63,175.71Z"/></clipPath><clipPath id="clip-path-40" transform="translate(0 -12.14)"><path class="cls-1" d="M599.68,156.71v-17.1c.69-2.14,1.18-3.82,1.46-5.06v17.1C600.86,152.89,600.37,154.57,599.68,156.71Z"/></clipPath><clipPath id="clip-path-41" transform="translate(0 -12.14)"><path class="cls-1" d="M589.5,156.47v-17.1c.65-2,1.21-3.94,1.69-5.67v17.1C590.71,152.53,590.15,154.43,589.5,156.47Z"/></clipPath><clipPath id="clip-path-42" transform="translate(0 -12.14)"><path class="cls-1" d="M219.6,125.68v-17.1c34,0,116-12.16,120.31-12.8v17.1C335.6,113.52,253.59,125.68,219.6,125.68Z"/></clipPath><clipPath id="clip-path-43" transform="translate(0 -12.14)"><path class="cls-1" d="M25.34,104.18V87.07A43.55,43.55,0,0,0,41.5,90.14v17.1A43.75,43.75,0,0,1,25.34,104.18Z"/></clipPath><clipPath id="clip-path-44" transform="translate(0 -12.14)"><path class="cls-1" d="M42,107.24V90.14A43.61,43.61,0,0,0,57.84,87v17.1A43.61,43.61,0,0,1,42,107.24Z"/></clipPath><clipPath id="clip-path-45" transform="translate(0 -12.14)"><path class="cls-1" d="M57.83,104.11V87c1-.4,1.94-.83,2.87-1.29v17.11C59.77,103.28,58.81,103.71,57.83,104.11Z"/></clipPath><clipPath id="clip-path-46" transform="translate(0 -12.14)"><path class="cls-1" d="M60.7,85.72c41.28,21.75,125.71,22.86,158.9,22.86v17.1c-33.19,0-117.62-1.11-158.9-22.85Z"/></clipPath><clipPath id="clip-path-47" transform="translate(0 -12.14)"><path class="cls-1" d="M339.91,112.88V95.78c5.95-1.11,119-22.12,186.24-27.94v17.1C458.87,90.76,345.86,111.77,339.91,112.88Z"/></clipPath><clipPath id="clip-path-48" transform="translate(0 -12.14)"><path class="cls-1" d="M553,83.64V66.53c65.65,0,159.88,16.73,164.84,17.61v17.1C712.87,100.36,618.64,83.64,553,83.64Z"/></clipPath><clipPath id="clip-path-49" transform="translate(0 -12.14)"><path class="cls-1" d="M526.15,84.94V67.84A239,239,0,0,1,553,66.53V83.64A239.17,239.17,0,0,0,526.15,84.94Z"/></clipPath><clipPath id="clip-path-50" transform="translate(0 -12.14)"><path class="cls-1" d="M0,68.25V51.15c0-21.54,18.58-39,41.5-39v17.1C18.58,29.24,0,46.71,0,68.25Z"/></clipPath><clipPath id="clip-path-51" transform="translate(0 -12.14)"><path class="cls-1" d="M41.5,29.24V12.14c22.92,0,41.5,17.47,41.5,39v17.1C83,46.71,64.42,29.24,41.5,29.24Z"/></clipPath></defs><g id="レイヤー_2" data-name="レイヤー 2"><g id="レイヤー_1-2" data-name="レイヤー 1"><g class="cls-2"><g class="cls-2"><g class="cls-3"><g class="cls-2"><path class="cls-4" d="M25.34,667.43v-17.1a6.5,6.5,0,0,0,1,3.4v17.1a6.5,6.5,0,0,1-1-3.4" transform="translate(0 -12.14)"/><path class="cls-5" d="M26.3,670.83v-17.1a6.73,6.73,0,0,0,.68.91v17.11a6.83,6.83,0,0,1-.68-.92" transform="translate(0 -12.14)"/></g></g></g><polygon class="cls-6" points="57.83 289.3 57.83 272.2 58 637.84 58 654.94 57.83 289.3"/><polygon class="cls-7" points="203.64 242.63 203.64 225.53 213.74 225.82 213.74 242.93 203.64 242.63"/><polygon class="cls-7" points="151.21 239.66 151.21 222.56 160.99 223.35 160.99 240.45 151.21 239.66"/><polygon class="cls-8" points="151.21 239.66 151.21 222.56 151.5 219.41 151.5 236.51 151.21 239.66"/><polygon class="cls-7" points="106.69 236.08 106.69 218.98 116.48 219.77 116.48 236.87 106.69 236.08"/><polygon class="cls-9" points="239.38 243.12 239.38 226.02 243.79 218.98 243.79 236.08 239.38 243.12"/><polygon class="cls-10" points="174.09 234.05 174.09 216.95 178.04 224.23 178.04 241.33 174.09 234.05"/><polygon class="cls-11" points="116.48 236.87 116.48 219.77 116.77 216.61 116.77 233.72 116.48 236.87"/><polygon class="cls-7" points="116.77 233.72 116.77 216.61 151.5 219.41 151.5 236.51 116.77 233.72"/><g class="cls-2"><g class="cls-12"><g class="cls-2"><path class="cls-13" d="M214.09,244.54v-17.1a117,117,0,0,0,25.29,10.72v17.1a117,117,0,0,1-25.29-10.72" transform="translate(0 -12.14)"/></g></g></g><polygon class="cls-11" points="213.74 242.93 213.74 225.82 214.09 215.29 214.09 232.4 213.74 242.93"/><polygon class="cls-8" points="203.64 242.63 203.64 225.53 203.99 215 203.99 232.1 203.64 242.63"/><g class="cls-2"><g class="cls-14"><g class="cls-2"><path class="cls-13" d="M178,253.47v-17.1q15.51-3.83,26-9.23v17.1q-10.44,5.41-26,9.23" transform="translate(0 -12.14)"/></g></g></g><g class="cls-2"><g class="cls-15"><g class="cls-2"><path class="cls-16" d="M220.6,240.6V223.5a143.94,143.94,0,0,0,23.19,7.63v17.1a143.94,143.94,0,0,1-23.19-7.63" transform="translate(0 -12.14)"/></g></g></g><polygon class="cls-7" points="220.6 228.46 220.6 211.35 240.73 211.94 240.73 229.04 220.6 228.46"/><g class="cls-2"><g class="cls-17"><g class="cls-2"><path class="cls-16" d="M174.1,246.2V229.1a144,144,0,0,0,23.66-6.27v17.1a144,144,0,0,1-23.66,6.27" transform="translate(0 -12.14)"/></g></g></g><polygon class="cls-18" points="117.36 227.2 117.36 210.1 152.09 212.89 152.09 230 117.36 227.2"/><polygon class="cls-7" points="177.62 227.2 177.62 210.1 197.76 210.69 197.76 227.79 177.62 227.2"/><polygon class="cls-7" points="364.28 228.01 364.28 210.91 374.66 209.11 374.66 226.21 364.28 228.01"/><polygon class="cls-8" points="152.09 230 152.09 212.89 152.67 206.59 152.67 223.69 152.09 230"/><polygon class="cls-11" points="240.73 229.04 240.73 211.94 240.96 205.13 240.96 222.23 240.73 229.04"/><polygon class="cls-18" points="214.45 221.46 214.45 204.36 240.96 205.13 240.96 222.23 214.45 221.46"/><polygon class="cls-7" points="117.93 220.9 117.93 203.79 152.67 206.58 152.67 223.69 117.93 220.9"/><polygon class="cls-11" points="117.36 227.2 117.36 210.1 117.93 203.79 117.93 220.9 117.36 227.2"/><polygon class="cls-19" points="117.36 227.2 117.93 220.9 152.67 223.69 152.09 229.99 117.36 227.2"/><polygon class="cls-8" points="177.62 227.2 177.62 210.1 177.85 203.29 177.85 220.4 177.62 227.2"/><polygon class="cls-18" points="177.85 220.4 177.85 203.29 204.35 204.06 204.35 221.17 177.85 220.4"/><polygon class="cls-11" points="214.45 221.46 214.45 204.36 214.55 201.4 214.55 218.5 214.45 221.46"/><polygon class="cls-7" points="214.55 218.5 214.55 201.4 237.91 202.09 237.91 219.19 214.55 218.5"/><polygon class="cls-8" points="204.35 221.17 204.35 204.06 204.44 201.1 204.44 218.21 204.35 221.17"/><polygon class="cls-11" points="160.99 240.45 160.99 223.35 163.07 200.44 163.07 217.54 160.99 240.45"/><polygon class="cls-7" points="181.1 217.53 181.1 200.43 204.44 201.1 204.44 218.21 181.1 217.53"/><polygon class="cls-7" points="278.95 217.48 278.95 200.38 291.98 199.78 291.98 216.88 278.95 217.48"/><polygon class="cls-18" points="138.19 215.54 138.19 198.44 163.07 200.44 163.07 217.55 138.19 215.54"/><polygon class="cls-8" points="364.28 228.01 364.28 210.91 366.7 196.98 366.7 214.08 364.28 228.01"/><g class="cls-2"><g class="cls-20"><g class="cls-2"><path class="cls-21" d="M366.71,226.22v-17.1a4.26,4.26,0,0,0,0-.47v17.1a4.26,4.26,0,0,1,0,.47" transform="translate(0 -12.14)"/></g></g></g><polygon class="cls-18" points="108.78 213.18 108.78 196.08 127.83 197.61 127.83 214.71 108.78 213.18"/><polygon class="cls-8" points="106.69 236.08 106.69 218.98 108.78 196.08 108.78 213.18 106.69 236.08"/><polygon class="cls-11" points="237.91 219.19 237.91 202.09 238.1 195.89 238.1 212.99 237.91 219.19"/><polygon class="cls-7" points="329.63 218.72 329.63 201.62 365.51 195.44 365.51 212.54 329.63 218.72"/><g class="cls-2"><g class="cls-22"><g class="cls-2"><path class="cls-13" d="M365.51,224.68v-17.1l.26,0a1,1,0,0,1,.64.19v17.1a1,1,0,0,0-.64-.19l-.26,0" transform="translate(0 -12.14)"/></g></g></g><g class="cls-2"><g class="cls-23"><g class="cls-2"><path class="cls-13" d="M365.51,224.68v-17.1l.26,0a1,1,0,0,1,.64.19v17.1a1,1,0,0,0-.64-.19l-.26,0" transform="translate(0 -12.14)"/></g></g></g><g class="cls-2"><g class="cls-24"><g class="cls-2"><path class="cls-13" d="M365.51,224.68v-17.1l.26,0a1,1,0,0,1,.64.19v17.1a1,1,0,0,0-.64-.19l-.26,0" transform="translate(0 -12.14)"/><path class="cls-25" d="M366.41,224.85v-17.1a.65.65,0,0,1,.17.2v17.1a.65.65,0,0,0-.17-.2" transform="translate(0 -12.14)"/><path class="cls-9" d="M366.58,225.05V208a1.29,1.29,0,0,1,.17.7v17.1a1.29,1.29,0,0,0-.17-.7" transform="translate(0 -12.14)"/></g></g></g><polygon class="cls-26" points="413.14 214.88 413.14 197.78 422.67 195.28 422.67 212.39 413.14 214.88"/><polygon class="cls-18" points="214.76 212.31 214.76 195.21 238.1 195.89 238.1 212.99 214.76 212.31"/><g class="cls-2"><g class="cls-27"><g class="cls-2"><path class="cls-9" d="M138.19,227.68v-17.1c.55-1.24,1.09-2.46,1.58-3.67V224c-.49,1.21-1,2.43-1.58,3.67" transform="translate(0 -12.14)"/></g></g></g><polygon class="cls-7" points="139.77 211.87 139.77 194.77 159.11 196.33 159.11 213.43 139.77 211.87"/><polygon class="cls-18" points="181.3 211.34 181.3 194.24 204.65 194.91 204.65 212.01 181.3 211.34"/><polygon class="cls-8" points="181.1 217.53 181.1 200.43 181.3 194.24 181.3 211.34 181.1 217.53"/><g class="cls-2"><g class="cls-28"><g class="cls-2"><path class="cls-21" d="M127.83,226.86V209.75q.9-1.86,1.65-3.66v17.1c-.5,1.2-1,2.42-1.65,3.67" transform="translate(0 -12.14)"/></g></g></g><polygon class="cls-7" points="123.14 210.53 123.14 193.43 129.48 193.95 129.48 211.05 123.14 210.53"/><polygon class="cls-7" points="113.43 209.76 113.43 192.66 123.14 193.43 123.14 210.53 113.43 209.76"/><polygon class="cls-11" points="327.86 209.65 327.86 192.54 329.63 201.62 329.63 218.72 327.86 209.65"/><polygon class="cls-7" points="214.85 209.35 214.85 192.25 240.7 193 240.7 210.1 214.85 209.35"/><polygon class="cls-11" points="214.76 212.31 214.76 195.21 214.85 192.25 214.85 209.35 214.76 212.31"/><polygon class="cls-8" points="204.65 212.01 204.65 194.91 204.75 191.95 204.75 209.06 204.65 212.01"/><polygon class="cls-7" points="178.91 208.3 178.91 191.2 204.75 191.95 204.75 209.05 178.91 208.3"/><polygon class="cls-11" points="374.66 226.21 374.66 209.11 377.95 188.6 377.95 205.71 374.66 226.21"/><polygon class="cls-11" points="278.32 205.24 278.32 188.14 278.95 200.38 278.95 217.48 278.32 205.24"/><g class="cls-2"><g class="cls-29"><g class="cls-2"><path class="cls-9" d="M378,217.85v-17.1a4.12,4.12,0,0,0,0-.48v17.1a4.12,4.12,0,0,1,0,.48" transform="translate(0 -12.14)"/></g></g></g><polygon class="cls-18" points="278.32 205.24 278.32 188.14 291.33 187.54 291.33 204.64 278.32 205.24"/><polygon class="cls-8" points="291.33 204.64 291.33 187.54 291.98 199.78 291.98 216.88 291.33 204.64"/><polygon class="cls-18" points="123.7 204.29 123.7 187.19 149.98 189.31 149.98 206.41 123.7 204.29"/><polygon class="cls-7" points="159.99 203.76 159.99 186.66 169.41 187.41 169.41 204.51 159.99 203.76"/><polygon class="cls-11" points="159.11 213.43 159.11 196.33 159.99 186.66 159.99 203.76 159.11 213.43"/><polygon class="cls-11" points="240.7 210.1 240.7 193 240.9 186.54 240.9 203.64 240.7 210.1"/><polygon class="cls-18" points="227.07 203.24 227.07 186.13 240.9 186.54 240.9 203.64 227.07 203.24"/><g class="cls-2"><g class="cls-30"><g class="cls-2"><path class="cls-31" d="M376.67,214.71v-17.1a3.94,3.94,0,0,1,.84,1v17.1a4.14,4.14,0,0,0-.84-1" transform="translate(0 -12.14)"/><path class="cls-21" d="M377.51,215.67v-17.1a3.14,3.14,0,0,1,.48,1.7v17.1a3.14,3.14,0,0,0-.48-1.7" transform="translate(0 -12.14)"/></g></g></g><polygon class="cls-18" points="202.99 202.53 202.99 185.43 217.04 185.84 217.04 202.94 202.99 202.53"/><polygon class="cls-7" points="565.34 201.88 565.34 184.78 574.72 184.99 574.72 202.09 565.34 201.88"/><polygon class="cls-8" points="178.91 208.3 178.91 191.2 179.12 184.74 179.12 201.84 178.91 208.3"/><polygon class="cls-18" points="179.12 201.84 179.12 184.74 193.18 185.15 193.18 202.25 179.12 201.84"/><polygon class="cls-32" points="327.86 209.65 327.86 192.55 373.25 184.73 373.25 201.83 327.86 209.65"/><g class="cls-2"><g class="cls-33"><g class="cls-2"><path class="cls-16" d="M373.25,214v-17.1a6.3,6.3,0,0,1,.95-.08,4,4,0,0,1,2.47.82v17.1a4,4,0,0,0-2.47-.82,6.3,6.3,0,0,0-.95.08" transform="translate(0 -12.14)"/></g></g></g><polygon class="cls-8" points="149.98 206.41 149.98 189.31 150.46 183.95 150.46 201.05 149.98 206.41"/><polygon class="cls-7" points="481.24 202.18 481.24 185.08 491.47 183.74 491.47 200.84 481.24 202.18"/><polygon class="cls-8" points="113.43 209.76 113.43 192.66 114.31 182.99 114.31 200.09 113.43 209.76"/><polygon class="cls-11" points="604.97 199.56 604.97 182.46 605.25 185.91 605.25 203.02 604.97 199.56"/><polygon class="cls-34" points="408.56 199.43 408.56 182.33 413.14 197.78 413.14 214.88 408.56 199.43"/><polygon class="cls-26" points="388.38 204.71 388.38 187.61 408.56 182.33 408.56 199.43 388.38 204.71"/><polygon class="cls-7" points="104.89 199.33 104.89 182.23 114.31 182.99 114.31 200.09 104.89 199.33"/><polygon class="cls-11" points="123.7 204.29 123.7 187.19 124.19 181.85 124.19 198.95 123.7 204.29"/><polygon class="cls-7" points="124.19 198.95 124.19 181.85 150.46 183.95 150.46 201.05 124.19 198.95"/><polygon class="cls-7" points="574.8 198.86 574.8 181.76 604.97 182.46 604.97 199.56 574.8 198.86"/><polygon class="cls-11" points="574.72 202.09 574.72 184.99 574.8 181.76 574.8 198.86 574.72 202.09"/><g class="cls-2"><g class="cls-35"><g class="cls-2"><path class="cls-9" d="M227.07,215.38v-17.1a55.87,55.87,0,0,0,3.15-6.52v17.1a55.06,55.06,0,0,1-3.15,6.52" transform="translate(0 -12.14)"/></g></g></g><polygon class="cls-7" points="230.22 196.72 230.22 179.61 242.51 179.98 242.51 197.08 230.22 196.72"/><polygon class="cls-36" points="418.01 196.67 418.01 179.57 422.67 195.29 422.67 212.39 418.01 196.67"/><g class="cls-2"><g class="cls-37"><g class="cls-2"><path class="cls-21" d="M217.05,215.08V198a47.61,47.61,0,0,0,3.36-6.51v17.1a47.61,47.61,0,0,1-3.36,6.51" transform="translate(0 -12.14)"/></g></g></g><g class="cls-2"><g class="cls-38"><g class="cls-2"><path class="cls-21" d="M200.49,208V190.89q1.35,3.48,2.5,6.69v17.1c-.77-2.13-1.6-4.37-2.5-6.68" transform="translate(0 -12.14)"/></g></g></g><polygon class="cls-7" points="200.49 195.85 200.49 178.75 220.41 179.33 220.41 196.43 200.49 195.85"/><path class="cls-19" d="M220.41,208.57a46.69,46.69,0,0,1-3.37,6.51l-14-.4c-.77-2.13-1.6-4.37-2.5-6.69Z" transform="translate(0 -12.14)"/><polygon class="cls-34" points="385.75 195.83 385.75 178.73 388.38 187.61 388.38 204.71 385.75 195.83"/><g class="cls-2"><g class="cls-39"><g class="cls-2"><path class="cls-9" d="M190.61,207.71v-17.1c.78,1.86,1.63,4.08,2.57,6.68v17.1c-.94-2.6-1.79-4.82-2.57-6.68" transform="translate(0 -12.14)"/></g></g></g><polygon class="cls-7" points="177.95 195.19 177.95 178.09 190.61 178.46 190.61 195.57 177.95 195.19"/><polygon class="cls-7" points="326.47 202.47 326.47 185.37 375.31 176.96 375.31 194.06 326.47 202.47"/><polygon class="cls-11" points="324.69 193.4 324.69 176.3 326.47 185.37 326.47 202.47 324.69 193.4"/><polygon class="cls-18" points="593.06 192.68 593.06 175.58 601.56 175.78 601.56 192.88 593.06 192.68"/><polygon class="cls-8" points="481.24 202.18 481.24 185.08 482.63 175.44 482.63 192.55 481.24 202.18"/><polygon class="cls-7" points="461.45 195.31 461.45 178.21 482.63 175.44 482.63 192.55 461.45 195.31"/><polygon class="cls-18" points="574.98 192.26 574.98 175.16 583.62 175.36 583.62 192.46 574.98 192.26"/><polygon class="cls-8" points="160.6 194.69 160.6 177.59 160.85 174.84 160.85 191.95 160.6 194.69"/><polygon class="cls-7" points="443.65 192.5 443.65 175.39 454.1 174.02 454.1 191.13 443.65 192.5"/><polygon class="cls-18" points="115.35 191.05 115.35 173.95 160.6 177.59 160.6 194.69 115.35 191.05"/><polygon class="cls-11" points="242.51 197.08 242.51 179.98 242.76 172.68 242.76 189.78 242.51 197.08"/><polygon class="cls-18" points="235.44 189.57 235.44 172.47 242.76 172.68 242.76 189.78 235.44 189.57"/><polygon class="cls-40" points="385.75 195.83 385.75 178.73 410.87 172.16 410.87 189.26 385.75 195.83"/><polygon class="cls-18" points="221.9 189.17 221.9 172.07 226.22 172.2 226.22 189.3 221.9 189.17"/><polygon class="cls-18" points="207.76 188.77 207.76 171.66 213.18 171.82 213.18 188.92 207.76 188.77"/><polygon class="cls-18" points="195.1 188.39 195.1 171.29 199.05 171.41 199.05 188.51 195.1 188.39"/><polygon class="cls-11" points="115.35 191.05 115.35 173.95 115.6 171.21 115.6 188.31 115.35 191.05"/><polygon class="cls-7" points="115.6 188.31 115.6 171.21 160.85 174.84 160.85 191.95 115.6 188.31"/><g class="cls-2"><g class="cls-41"><g class="cls-2"><path class="cls-13" d="M605.25,215.16v-17.1q8.26.6,13.83.73h.42a9.55,9.55,0,0,0,4.39-.87V215a9.55,9.55,0,0,1-4.39.87h-.42q-5.57-.12-13.83-.73" transform="translate(0 -12.14)"/><path class="cls-25" d="M623.89,215v-17.1a5.21,5.21,0,0,0,.72-.46,4.61,4.61,0,0,0,.58-.52v17.1a4.61,4.61,0,0,1-.58.52,5.21,5.21,0,0,1-.72.46" transform="translate(0 -12.14)"/><path class="cls-9" d="M625.19,214.05V197a11.48,11.48,0,0,0,2.31-5.13A66.53,66.53,0,0,0,628.76,179v17.1a66.74,66.74,0,0,1-1.26,12.84,11.49,11.49,0,0,1-2.31,5.12" transform="translate(0 -12.14)"/></g></g></g><g class="cls-2"><g class="cls-42"><g class="cls-2"><path class="cls-16" d="M610.35,208.05V191c3,.16,4.77.25,5.26.26h.11a3.18,3.18,0,0,0,1.49-.3V208a3.18,3.18,0,0,1-1.49.3h-.11c-.49,0-2.24-.1-5.26-.26" transform="translate(0 -12.14)"/><path class="cls-31" d="M617.21,208v-17.1a1.61,1.61,0,0,0,.36-.24l.08-.08v17.1l-.08.08a1.61,1.61,0,0,1-.36.24" transform="translate(0 -12.14)"/><path class="cls-21" d="M617.65,207.69v-17.1a5.42,5.42,0,0,0,.94-2.55,51.92,51.92,0,0,0,.58-6.66v17.1a52.31,52.31,0,0,1-.58,6.67,5.41,5.41,0,0,1-.94,2.54" transform="translate(0 -12.14)"/></g></g></g><polygon class="cls-11" points="610.34 195.9 610.34 178.8 610.55 170.82 610.55 187.92 610.34 195.9"/><polygon class="cls-8" points="177.95 195.19 177.95 178.09 178.19 170.8 178.19 187.9 177.95 195.19"/><polygon class="cls-18" points="178.19 187.9 178.19 170.8 185.65 171.01 185.65 188.12 178.19 187.9"/><polygon class="cls-8" points="601.56 192.88 601.56 175.78 601.7 170.62 601.7 187.72 601.56 192.88"/><polygon class="cls-18" points="601.7 187.72 601.7 170.62 610.55 170.82 610.55 187.92 601.7 187.72"/><g class="cls-2"><g class="cls-43"><g class="cls-2"><path class="cls-9" d="M183.22,195.87v-17.1c.83,1.34,1.64,2.81,2.43,4.39v17.1q-1.18-2.37-2.43-4.39" transform="translate(0 -12.14)"/></g></g></g><polygon class="cls-11" points="574.98 192.26 574.98 175.16 575.12 170 575.12 187.1 574.98 192.26"/><polygon class="cls-18" points="565.74 186.88 565.74 169.78 575.12 170 575.12 187.1 565.74 186.88"/><polygon class="cls-8" points="565.34 201.88 565.34 184.78 565.74 169.78 565.74 186.88 565.34 201.88"/><polygon class="cls-11" points="460.1 186.18 460.1 169.08 461.45 178.21 461.45 195.31 460.1 186.18"/><polygon class="cls-7" points="593.24 185.73 593.24 168.63 619.16 169.24 619.16 186.34 593.24 185.73"/><path class="cls-19" d="M601.7,199.86l-.14,5.16-8.49-.2.18-6.95,25.92.61a52.31,52.31,0,0,1-.58,6.67,4.89,4.89,0,0,1-1,2.62,2.72,2.72,0,0,1-1.85.54h-.11c-.49,0-2.24-.1-5.27-.26l.21-8Z" transform="translate(0 -12.14)"/><polygon class="cls-11" points="593.06 192.68 593.06 175.58 593.24 168.63 593.24 185.73 593.06 192.68"/><polygon class="cls-11" points="169.41 204.51 169.41 187.41 171.12 168.62 171.12 185.72 169.41 204.51"/><polygon class="cls-8" points="583.62 192.46 583.62 175.36 583.8 168.41 583.8 185.51 583.62 192.46"/><polygon class="cls-7" points="570.63 185.21 570.63 168.1 583.8 168.41 583.8 185.51 570.63 185.21"/><polygon class="cls-44" points="373.55 184.99 373.55 167.88 375.31 176.96 375.31 194.06 373.55 184.99"/><polygon class="cls-32" points="324.69 193.4 324.69 176.3 373.55 167.88 373.55 184.99 324.69 193.4"/><polygon class="cls-18" points="160.97 184.91 160.97 167.81 171.12 168.62 171.12 185.72 160.97 184.91"/><g class="cls-2"><g class="cls-45"><g class="cls-2"><path class="cls-9" d="M235.44,201.71v-17.1q2.09-3.24,3.49-6v17.1q-1.41,2.72-3.49,6" transform="translate(0 -12.14)"/></g></g></g><polygon class="cls-18" points="144.33 183.57 144.33 166.47 151.12 167.01 151.12 184.11 144.33 183.57"/><polygon class="cls-32" points="460.1 186.18 460.1 169.08 484.04 165.96 484.04 183.06 460.1 186.18"/><g class="cls-2"><g class="cls-46"><g class="cls-2"><path class="cls-25" d="M182.4,194.59v-17.1c.28.41.55.84.82,1.28v17.1c-.27-.44-.54-.87-.82-1.28" transform="translate(0 -12.14)"/><path class="cls-9" d="M183.22,195.87v-17.1c.83,1.34,1.64,2.81,2.43,4.39v17.1q-1.18-2.37-2.43-4.39" transform="translate(0 -12.14)"/></g></g></g><polygon class="cls-18" points="126.82 182.17 126.82 165.07 134.33 165.67 134.33 182.77 126.82 182.17"/><g class="cls-2"><g class="cls-47"><g class="cls-2"><path class="cls-21" d="M226.22,201.44v-17.1a90.38,90.38,0,0,0,4.73-8.05v17.1a89,89,0,0,1-4.73,8.05" transform="translate(0 -12.14)"/></g></g></g><polygon class="cls-32" points="230.95 181.25 230.95 164.15 238.93 166.51 238.93 183.62 230.95 181.25"/><polygon class="cls-7" points="509.02 183.25 509.02 166.15 553.94 164.11 553.94 181.21 509.02 183.25"/><polygon class="cls-18" points="106.61 180.54 106.61 163.44 116.75 164.26 116.75 181.36 106.61 180.54"/><polygon class="cls-8" points="104.89 199.33 104.89 182.23 106.61 163.44 106.61 180.54 104.89 199.33"/><polygon class="cls-11" points="628.76 183.94 628.76 166.84 628.85 163.33 628.85 180.44 628.76 183.94"/><polygon class="cls-11" points="221.9 189.17 221.9 172.07 222.19 163 222.19 180.1 221.9 189.17"/><g class="cls-2"><g class="cls-48"><g class="cls-2"><path class="cls-31" d="M190.54,192.21V175.1l.24.4v17.1l-.24-.39" transform="translate(0 -12.14)"/><path class="cls-21" d="M190.78,192.6V175.5a84.13,84.13,0,0,1,4.32,7.94v17.1a84.13,84.13,0,0,0-4.32-7.94" transform="translate(0 -12.14)"/></g></g></g><polygon class="cls-40" points="182.4 182.45 182.4 165.35 190.54 162.96 190.54 180.06 182.4 182.45"/><polygon class="cls-18" points="213.48 179.84 213.48 162.74 222.19 163 222.19 180.1 213.48 179.84"/><polygon class="cls-8" points="213.18 188.92 213.18 171.82 213.48 162.74 213.48 179.84 213.18 188.92"/><polygon class="cls-11" points="207.76 188.77 207.76 171.66 208.06 162.58 208.06 179.68 207.76 188.77"/><polygon class="cls-8" points="199.05 188.51 199.05 171.41 199.35 162.33 199.35 179.43 199.05 188.51"/><path class="cls-49" d="M220.6,240.6a143.94,143.94,0,0,0,23.19,7.63l-4.41,7a117,117,0,0,1-25.29-10.72l-.35,10.53-10.1-.3.35-10.53q-10.44,5.41-26,9.23l-3.94-7.27a144,144,0,0,0,23.66-6.27l-20.13-.58.22-6.81,26.51.77.09-3-23.35-.68.2-6.19,23.35.68.1-3-25.84-.76.21-6.46,14.06.41c-.94-2.6-1.79-4.82-2.57-6.68L178,207.34l.24-7.29,7.46.21a53.78,53.78,0,0,0-3.25-5.67l8.14-2.38a81.58,81.58,0,0,1,4.56,8.33l4,.11.3-9.08,8.71.26-.29,9.08,5.41.15.3-9.07,8.71.25-.29,9.07,4.32.13a89,89,0,0,0,4.73-8.05l8,2.37q-1.41,2.72-3.49,6l7.32.21-.24,7.3-12.3-.36a55.06,55.06,0,0,1-3.15,6.52l13.83.4-.2,6.47-25.85-.76-.09,3,23.35.68-.2,6.2-23.36-.69-.1,3,26.51.77-.23,6.81ZM203,214.68l14.06.4a47.61,47.61,0,0,0,3.36-6.51L200.49,208c.9,2.31,1.73,4.55,2.5,6.68" transform="translate(0 -12.14)"/><polygon class="cls-18" points="199.35 179.43 199.35 162.33 208.06 162.58 208.06 179.68 199.35 179.43"/><polygon class="cls-18" points="580.6 179.31 580.6 162.21 628.85 163.34 628.85 180.44 580.6 179.31"/><g class="cls-2"><g class="cls-50"><g class="cls-2"><path class="cls-9" d="M161,197.05V180c1.8-2.48,3.24-4.64,4.34-6.49v17.1c-1.1,1.85-2.54,4-4.34,6.49" transform="translate(0 -12.14)"/></g></g></g><g class="cls-2"><g class="cls-51"><g class="cls-2"><path class="cls-13" d="M418,208.82V191.71q.35-.15.69-.33v17.1l-.69.34" transform="translate(0 -12.14)"/><path class="cls-25" d="M418.71,208.48v-17.1a12.76,12.76,0,0,0,3.43-2.64v17.1a12.76,12.76,0,0,1-3.43,2.64" transform="translate(0 -12.14)"/><path class="cls-9" d="M422.14,205.84v-17.1a17,17,0,0,0,1.87-2.45q3.09-4.95,4.16-13.66v17.1q-1.07,8.7-4.16,13.66a17,17,0,0,1-1.87,2.45" transform="translate(0 -12.14)"/></g></g></g><polygon class="cls-11" points="454.1 191.13 454.1 174.02 456.06 160.29 456.06 177.39 454.1 191.13"/><polygon class="cls-11" points="580.6 179.31 580.6 162.21 580.66 159.6 580.66 176.7 580.6 179.31"/><polygon class="cls-7" points="580.66 176.7 580.66 159.6 630.6 160.75 630.6 177.85 580.66 176.7"/><g class="cls-2"><g class="cls-52"><g class="cls-2"><path class="cls-9" d="M131.11,188.3V171.2c1.06,1.93,2.13,4.12,3.23,6.61v17.1c-1.1-2.48-2.17-4.68-3.23-6.61" transform="translate(0 -12.14)"/></g></g></g><g class="cls-2"><g class="cls-53"><g class="cls-2"><path class="cls-21" d="M151.12,196.26v-17.1a96.66,96.66,0,0,0,5.61-8.33v17.11a97.92,97.92,0,0,1-5.61,8.32" transform="translate(0 -12.14)"/></g></g></g><polygon class="cls-32" points="156.73 175.79 156.73 158.69 165.31 161.32 165.31 178.42 156.73 175.79"/><g class="cls-2"><g class="cls-54"><g class="cls-2"><path class="cls-16" d="M410.87,201.4V184.3a7.9,7.9,0,0,0,1.37-.57v17.1a7.9,7.9,0,0,1-1.37.57" transform="translate(0 -12.14)"/><path class="cls-31" d="M412.24,200.83v-17.1a9,9,0,0,0,2.43-1.87V199a9,9,0,0,1-2.43,1.87" transform="translate(0 -12.14)"/><path class="cls-21" d="M414.67,199v-17.1c.23-.25.46-.52.68-.81a12.13,12.13,0,0,0,2.35-5,47.87,47.87,0,0,0,.75-5.44v17.1a47.87,47.87,0,0,1-.75,5.44,12.13,12.13,0,0,1-2.35,5c-.22.29-.45.56-.68.81" transform="translate(0 -12.14)"/></g></g></g><g class="cls-2"><g class="cls-55"><g class="cls-2"><path class="cls-9" d="M113.91,187.6V170.5c.82,1.64,1.78,3.6,2.84,5.9v17.1c-1.06-2.3-2-4.26-2.84-5.9" transform="translate(0 -12.14)"/></g></g></g><polygon class="cls-8" points="484.04 183.06 484.04 165.96 485.12 158.24 485.12 175.34 484.04 183.06"/><polygon class="cls-9" points="672.29 175.23 672.29 158.13 717.83 272.19 717.83 289.3 672.29 175.23"/><g class="cls-2"><g class="cls-56"><g class="cls-2"><path class="cls-21" d="M485.12,187.49v-17.1c0-.13,0-.26,0-.37v17.1c0,.11,0,.24,0,.37" transform="translate(0 -12.14)"/></g></g></g><polygon class="cls-11" points="508.55 174.03 508.55 156.93 509.02 166.15 509.02 183.25 508.55 174.03"/><polygon class="cls-40" points="131.11 176.16 131.11 159.06 139.91 156.87 139.91 173.97 131.11 176.16"/><g class="cls-2"><g class="cls-57"><g class="cls-2"><path class="cls-21" d="M139.92,186.11V169a104.23,104.23,0,0,1,4.41,9.6v17.11a103.25,103.25,0,0,0-4.41-9.61" transform="translate(0 -12.14)"/></g></g></g><polygon class="cls-7" points="456.06 177.39 456.06 160.29 483.85 156.67 483.85 173.77 456.06 177.39"/><g class="cls-2"><g class="cls-58"><g class="cls-2"><path class="cls-13" d="M483.85,185.91v-17.1H484a1.15,1.15,0,0,1,.73.21v17.11a1.1,1.1,0,0,0-.73-.22h-.19" transform="translate(0 -12.14)"/></g></g></g><g class="cls-2"><g class="cls-59"><g class="cls-2"><path class="cls-13" d="M483.85,185.91v-17.1H484a1.15,1.15,0,0,1,.73.21v17.11a1.1,1.1,0,0,0-.73-.22h-.19" transform="translate(0 -12.14)"/><path class="cls-25" d="M484.77,186.12V169a1,1,0,0,1,.19.22v17.11a.82.82,0,0,0-.19-.22" transform="translate(0 -12.14)"/><path class="cls-9" d="M485,186.34V169.23a1.52,1.52,0,0,1,.18.79v17.1a1.45,1.45,0,0,0-.18-.78" transform="translate(0 -12.14)"/></g></g></g><g class="cls-2"><g class="cls-60"><g class="cls-2"><path class="cls-21" d="M122.64,185.41v-17.1q2.3,4.4,4.18,8.9v17.1q-1.87-4.5-4.18-8.9" transform="translate(0 -12.14)"/></g></g></g><polygon class="cls-40" points="113.9 175.46 113.9 158.36 122.63 156.16 122.63 173.26 113.9 175.46"/><polygon class="cls-18" points="508.55 174.03 508.55 156.93 553.47 154.9 553.47 172 508.55 174.03"/><polygon class="cls-8" points="553.47 172 553.47 154.9 553.94 164.11 553.94 181.21 553.47 172"/><polygon class="cls-11" points="630.6 177.85 630.6 160.75 630.77 154.36 630.77 171.46 630.6 177.85"/><polygon class="cls-8" points="418.45 175.56 418.45 158.46 418.94 153.47 418.94 170.57 418.45 175.56"/><polygon class="cls-18" points="580.83 170.29 580.83 153.19 630.77 154.36 630.77 171.46 580.83 170.29"/><polygon class="cls-11" points="428.17 177.59 428.17 160.48 429.1 150.81 429.1 167.91 428.17 177.59"/><polygon class="cls-40" points="418.94 170.57 418.94 153.47 429.1 150.81 429.1 167.91 418.94 170.57"/><polygon class="cls-11" points="580.83 170.29 580.83 153.19 580.9 150.65 580.9 167.75 580.83 170.29"/><polygon class="cls-7" points="580.9 167.75 580.9 150.65 623.15 151.63 623.15 168.73 580.9 167.75"/><polygon class="cls-11" points="491.47 200.84 491.47 183.74 495.65 150.47 495.65 167.57 491.47 200.84"/><g class="cls-2"><g class="cls-61"><g class="cls-2"><path class="cls-9" d="M495.65,179.71v-17.1c0-.07,0-.15,0-.22v17.1c0,.07,0,.15,0,.22" transform="translate(0 -12.14)"/></g></g></g><polygon class="cls-8" points="443.65 192.5 443.65 175.4 448.02 147.38 448.02 164.48 443.65 192.5"/><g class="cls-2"><g class="cls-62"><g class="cls-2"><path class="cls-31" d="M494.16,176.58v-17.1a4.65,4.65,0,0,1,1,1.11v17.1a4.65,4.65,0,0,0-1-1.11" transform="translate(0 -12.14)"/><path class="cls-21" d="M495.15,177.69v-17.1a3.36,3.36,0,0,1,.51,1.8v17.1a3.36,3.36,0,0,0-.51-1.8" transform="translate(0 -12.14)"/></g></g></g><polygon class="cls-32" points="457.18 167.94 457.18 150.84 490.63 146.47 490.63 163.57 457.18 167.94"/><g class="cls-2"><g class="cls-63"><g class="cls-2"><path class="cls-16" d="M490.63,175.71v-17.1a6.59,6.59,0,0,1,.75-.05,4.51,4.51,0,0,1,2.78.92v17.1a4.51,4.51,0,0,0-2.78-.92,6.59,6.59,0,0,0-.75.05" transform="translate(0 -12.14)"/></g></g></g><polygon class="cls-11" points="457.18 167.94 457.18 150.83 457.81 146.1 457.81 163.2 457.18 167.94"/><polygon class="cls-32" points="448.02 164.48 448.02 147.38 457.81 146.1 457.81 163.2 448.02 164.48"/><polygon class="cls-18" points="581.05 162.11 581.05 145.01 613.56 145.76 613.56 162.86 581.05 162.11"/><polygon class="cls-8" points="613.56 162.86 613.56 145.76 613.64 142.66 613.64 159.77 613.56 162.86"/><polygon class="cls-7" points="581.13 159.01 581.13 141.91 613.64 142.66 613.64 159.76 581.13 159.01"/><polygon class="cls-11" points="581.05 162.11 581.05 145.01 581.13 141.91 581.13 159.01 581.05 162.11"/><polygon class="cls-18" points="581.27 153.71 581.27 136.61 613.78 137.37 613.78 154.47 581.27 153.71"/><polygon class="cls-8" points="613.78 154.47 613.78 137.37 613.86 134.21 613.86 151.31 613.78 154.47"/><polygon class="cls-7" points="581.36 150.55 581.36 133.45 613.86 134.21 613.86 151.31 581.36 150.55"/><polygon class="cls-11" points="581.27 153.71 581.27 136.61 581.36 133.45 581.36 150.55 581.27 153.71"/><polygon class="cls-19" points="613.86 151.31 613.78 154.47 581.27 153.71 581.36 150.55 613.86 151.31"/><polygon class="cls-11" points="623.15 168.73 623.15 151.63 623.77 128.03 623.77 145.13 623.15 168.73"/><polygon class="cls-18" points="599.68 144.57 599.68 127.47 623.77 128.03 623.77 145.13 599.68 144.57"/><polygon class="cls-8" points="570.63 185.21 570.63 168.1 571.72 126.83 571.72 143.93 570.63 185.21"/><polygon class="cls-18" points="571.72 143.93 571.72 126.83 589.5 127.23 589.5 144.33 571.72 143.93"/><g class="cls-2"><g class="cls-64"><g class="cls-2"><path class="cls-9" d="M599.68,156.71v-17.1c.69-2.14,1.18-3.82,1.46-5.06v17.1c-.28,1.24-.77,2.92-1.46,5.06" transform="translate(0 -12.14)"/></g></g></g><polygon class="cls-18" points="591.19 138.66 591.19 121.56 601.14 122.41 601.14 139.51 591.19 138.66"/><path class="cls-49" d="M630.6,190l-49.94-1.16-.06,2.61,48.25,1.13-.09,3.51a66.74,66.74,0,0,1-1.26,12.84c-.68,2.83-1.65,4.72-2.89,5.65a8.44,8.44,0,0,1-5.11,1.32h-.42q-5.57-.12-13.83-.73l-.28-3.45L574.8,211l-.08,3.23-9.37-.21.39-15,9.38.22L575,204.4l8.64.2.18-6.95-13.17-.3,1.09-41.28,17.78.4c.65-2,1.21-3.94,1.69-5.67l9.95.85c-.28,1.24-.77,2.92-1.46,5.06l24.09.57-.62,23.59-42.24-1-.08,2.55,49.95,1.16Zm-37.35,7.87-.18,6.95,8.49.2.14-5.16,8.85.2-.2,8c3,.16,4.77.25,5.26.26h.11a2.72,2.72,0,0,0,1.85-.54,4.85,4.85,0,0,0,1-2.62,52.31,52.31,0,0,0,.58-6.67l-25.92-.61m-11.89-35.18-.08,3.16,32.5.76.08-3.16-32.5-.76m-.23,8.47-.08,3.09,32.51.75.08-3.09-32.51-.75" transform="translate(0 -12.14)"/><g class="cls-2"><g class="cls-65"><g class="cls-2"><path class="cls-21" d="M589.5,156.47v-17.1c.65-2,1.21-3.94,1.69-5.67v17.1c-.48,1.73-1,3.63-1.69,5.67" transform="translate(0 -12.14)"/></g></g></g><path class="cls-19" d="M717.83,101.24l-45.54,86.13,45.54,114.07-43.49-14c-18.4-5.9-53.06-8.07-89.93-8.07-50.35,0-104.83,4-127.59,8.07-39.42,7-153.06,25.78-159,26.76-3.34.35-66.62,7-110.12,8.16-1.11,0-2.25,0-3.41,0C141,322.43,62,302.51,58,301.48l-.17-197.37c1-.4,1.94-.83,2.87-1.28,41.28,21.74,125.71,22.85,158.9,22.85,34,0,116-12.16,120.31-12.8,5.95-1.11,119-22.12,186.24-27.94A239.17,239.17,0,0,1,553,83.64C618.64,83.64,712.87,100.36,717.83,101.24ZM169.41,216.66l1.71-18.8L161,197.05c1.8-2.48,3.24-4.64,4.34-6.49l-8.58-2.63a96.66,96.66,0,0,1-5.61,8.33l-6.79-.55a104.23,104.23,0,0,0-4.41-9.6l-8.81,2.19c1.06,1.93,2.13,4.13,3.23,6.61l-7.52-.6q-1.87-4.5-4.18-8.9l-8.73,2.19c.82,1.64,1.78,3.6,2.84,5.9l-10.14-.81-1.71,18.78,9.41.76-.88,9.67,9.71.78,6.34.51q-.75,1.8-1.65,3.66l-19-1.53-2.08,22.91,9.78.78.29-3.15,34.73,2.79-.29,3.15,9.78.79,2.08-22.9-24.88-2c.55-1.24,1.09-2.46,1.58-3.67l19.34,1.56.88-9.67,9.42.76m70,38.6,4.41-7a143.94,143.94,0,0,1-23.19-7.63l20.13.58.23-6.81-26.51-.77.1-3,23.36.69.2-6.2-23.35-.68.09-3,25.85.76.2-6.47-13.83-.4a55.06,55.06,0,0,0,3.15-6.52l12.29.36.25-7.3-7.32-.21q2.09-3.24,3.49-6l-8-2.37a90.38,90.38,0,0,1-4.73,8.05l-4.32-.13.29-9.07-8.71-.25-.3,9.07-5.41-.15.29-9.09-8.71-.25-.3,9.08-4-.11a81.58,81.58,0,0,0-4.56-8.33l-8.14,2.38a53.78,53.78,0,0,1,3.25,5.67l-7.46-.21-.24,7.29,12.66.37c.78,1.86,1.63,4.08,2.57,6.68L179.12,214l-.21,6.46,25.84.76-.1,3-23.35-.68-.2,6.19,23.35.68-.09,3-26.51-.77-.22,6.81,20.13.58a144.29,144.29,0,0,1-23.66,6.27l3.94,7.27q15.51-3.83,26-9.23l-.35,10.53,10.1.3.35-10.53a117,117,0,0,0,25.29,10.72M630.6,190l.18-6.4-49.95-1.16.08-2.55,42.24,1,.62-23.59-24.09-.57c.69-2.14,1.18-3.82,1.46-5.06l-9.95-.85c-.48,1.73-1,3.63-1.69,5.67l-17.78-.4-1.09,41.28,13.17.3-.18,6.95-8.64-.2.14-5.16-9.38-.22-.4,15,9.38.21.08-3.23,30.17.7.28,3.45q8.26.6,13.83.73h.42a8.37,8.37,0,0,0,5.11-1.33c1.24-.93,2.21-2.81,2.89-5.64a66.74,66.74,0,0,0,1.26-12.84l.09-3.51-48.25-1.13.06-2.61L630.6,190m-202.43-.27.93-9.68-10.16,2.66-.49,5a47.87,47.87,0,0,1-.75,5.44,12.13,12.13,0,0,1-2.35,5,9,9,0,0,1-4.48,3.25L385.75,208l2.64,8.88,20.18-5.28L413.15,227l9.52-2.49L418,208.82a13.65,13.65,0,0,0,6-5.43q3.09-4.95,4.16-13.66M491.47,213l4.18-33.28a3.66,3.66,0,0,0-1.49-3.13,4.51,4.51,0,0,0-2.78-.92,6.44,6.44,0,0,0-.75.05l-33.45,4.37.63-4.74L448,176.62l-4.36,28,10.45-1.37,2-13.74,27.78-3.62H484q1.26,0,1.08,1.59L484,195.2l-23.94,3.12,1.35,9.13,21.19-2.76-1.4,9.63L491.47,213M378,217.85a3.35,3.35,0,0,0-1.29-3.14,4,4,0,0,0-2.48-.82,6.28,6.28,0,0,0-.94.08l-45.39,7.82,1.78,9.07,35.87-6.18.26,0c.78,0,1.09.53.94,1.56l-2.42,13.93,10.37-1.79,3.3-20.51m-53.27-12.31,1.78,9.07,48.84-8.41-1.76-9.07-48.86,8.41M509,195.39l44.92-2-.47-9.21-44.92,2,.47,9.21M279,229.62l13-.6-.65-12.24-13,.6.64,12.24" transform="translate(0 -12.14)"/><polygon class="cls-49" points="291.33 204.64 291.98 216.88 278.95 217.48 278.32 205.24 291.33 204.64"/><path class="cls-49" d="M376.67,214.71a3.35,3.35,0,0,1,1.29,3.14l-3.3,20.51-10.37,1.79,2.42-13.93c.15-1-.16-1.55-.94-1.55h-.26l-35.87,6.18-1.78-9.07L373.25,214a6.3,6.3,0,0,1,.95-.08A4,4,0,0,1,376.67,214.71Z" transform="translate(0 -12.14)"/><polygon class="cls-19" points="115.35 191.05 115.6 188.31 160.85 191.95 160.59 194.69 115.35 191.05"/><path class="cls-49" d="M159.11,225.57,139.77,224c-.49,1.21-1,2.43-1.58,3.67l24.88,2L161,252.59l-9.78-.79.29-3.15-34.73-2.79-.29,3.15-9.78-.78,2.08-22.91,19,1.54c.6-1.25,1.15-2.47,1.65-3.67l-6.34-.51-9.71-.78.88-9.67-9.41-.76,1.71-18.78,10.14.81c-1.06-2.3-2-4.26-2.84-5.89l8.73-2.2q2.3,4.4,4.18,8.9l7.52.6c-1.1-2.48-2.17-4.68-3.23-6.61l8.81-2.19a103.25,103.25,0,0,1,4.41,9.61l6.79.54a97.92,97.92,0,0,0,5.61-8.32l8.58,2.63c-1.09,1.84-2.54,4-4.33,6.48l10.14.81-1.71,18.8L160,215.9Zm-6.44,10.26L117.93,233l-.57,6.31,34.73,2.79.58-6.31m-37.32-32.64,45.25,3.64.25-2.74-45.24-3.64-.26,2.74m8.36,13.25L150,218.55l.48-5.35-26.27-2.11-.48,5.35" transform="translate(0 -12.14)"/><polygon class="cls-19" points="123.7 204.29 124.19 198.95 150.46 201.05 149.98 206.41 123.7 204.29"/><polygon class="cls-49" points="373.55 184.99 375.31 194.06 326.47 202.47 324.69 193.4 373.55 184.99"/><polygon class="cls-49" points="553.47 172 553.94 181.21 509.02 183.25 508.55 174.03 553.47 172"/><path class="cls-49" d="M429.1,180.05l-.93,9.68q-1.07,8.7-4.16,13.66a13.65,13.65,0,0,1-6,5.43l4.65,15.71L413.15,227l-4.58-15.45-20.18,5.28L385.75,208l25.12-6.57a9,9,0,0,0,4.48-3.25,12.13,12.13,0,0,0,2.35-5,47.87,47.87,0,0,0,.75-5.44l.49-5Z" transform="translate(0 -12.14)"/><path class="cls-49" d="M457.81,175.34l-.63,4.74,33.45-4.37a6.59,6.59,0,0,1,.75-.05,4.51,4.51,0,0,1,2.78.92,3.67,3.67,0,0,1,1.49,3.13L491.47,213l-10.23,1.33,1.4-9.63-21.19,2.76-1.35-9.13L484,195.2l1.08-7.71c.12-1.06-.24-1.58-1.07-1.58h-.2l-27.78,3.62-2,13.74-10.45,1.37,4.36-28Z" transform="translate(0 -12.14)"/><polygon class="cls-19" points="613.64 159.76 613.56 162.86 581.05 162.11 581.13 159.01 613.64 159.76"/><g class="cls-2"><g class="cls-66"><g class="cls-2"><path class="cls-13" d="M219.6,125.68v-17.1c34,0,116-12.16,120.31-12.8v17.1c-4.31.64-86.32,12.8-120.31,12.8" transform="translate(0 -12.14)"/></g></g></g><polygon class="cls-67" points="41.5 95.1 41.5 78 41.99 644.64 41.99 661.74 41.5 95.1"/><path class="cls-68" d="M25.34,104.18a43.75,43.75,0,0,0,16.16,3.06L42,673.88l-9.43.35A7.38,7.38,0,0,1,27,671.75a6.53,6.53,0,0,1-1.64-4.32Z" transform="translate(0 -12.14)"/><g class="cls-2"><g class="cls-69"><g class="cls-2"><path class="cls-70" d="M25.34,104.18V87.07A43.55,43.55,0,0,0,41.5,90.14v17.1a43.75,43.75,0,0,1-16.16-3.06" transform="translate(0 -12.14)"/></g></g></g><g class="cls-2"><g class="cls-71"><g class="cls-2"><path class="cls-72" d="M42,107.24V90.14A43.61,43.61,0,0,0,57.84,87v17.1A43.61,43.61,0,0,1,42,107.24" transform="translate(0 -12.14)"/></g></g></g><path class="cls-73" d="M57.84,301.44,58,667.08a7,7,0,0,1-7.24,6.8H42V107.24a43.61,43.61,0,0,0,15.84-3.13Z" transform="translate(0 -12.14)"/><path class="cls-73" d="M25,104l.34,563.39A6.53,6.53,0,0,0,27,671.75a6.55,6.55,0,0,1-2-4.67Z" transform="translate(0 -12.14)"/><polygon class="cls-6" points="25 91.9 25 74.8 25.34 638.19 25.34 655.29 25 91.9"/><g class="cls-2"><g class="cls-74"><g class="cls-2"><path class="cls-13" d="M57.83,104.11V87c1-.4,1.94-.83,2.87-1.29v17.11c-.93.45-1.89.88-2.87,1.28" transform="translate(0 -12.14)"/></g></g></g><g class="cls-2"><g class="cls-75"><g class="cls-2"><path class="cls-13" d="M60.7,102.83V85.72c41.28,21.75,125.71,22.86,158.9,22.86v17.1c-33.19,0-117.62-1.11-158.9-22.85" transform="translate(0 -12.14)"/></g></g></g><g class="cls-2"><g class="cls-76"><g class="cls-2"><path class="cls-13" d="M339.91,112.88V95.78c5.95-1.11,119-22.12,186.24-27.94v17.1c-67.28,5.82-180.29,26.83-186.24,27.94" transform="translate(0 -12.14)"/></g></g></g><g class="cls-2"><g class="cls-77"><g class="cls-2"><path class="cls-13" d="M553,83.64V66.53c65.65,0,159.88,16.73,164.84,17.61v17.1c-5-.88-99.19-17.6-164.84-17.6" transform="translate(0 -12.14)"/></g></g></g><g class="cls-2"><g class="cls-78"><g class="cls-2"><path class="cls-13" d="M526.15,84.94V67.84A239,239,0,0,1,553,66.53V83.64a239.17,239.17,0,0,0-26.84,1.3" transform="translate(0 -12.14)"/></g></g></g><g class="cls-2"><g class="cls-79"><g class="cls-2"><path class="cls-80" d="M0,68.25V51.15A37.56,37.56,0,0,1,10.25,25.48v17.1A37.56,37.56,0,0,0,0,68.25" transform="translate(0 -12.14)"/><path class="cls-81" d="M10.25,42.58V25.48A41.4,41.4,0,0,1,21.43,17V34.1a41.4,41.4,0,0,0-11.18,8.48" transform="translate(0 -12.14)"/><path class="cls-82" d="M21.43,34.1V17A43.34,43.34,0,0,1,41.5,12.14v17.1A43.34,43.34,0,0,0,21.43,34.1" transform="translate(0 -12.14)"/></g></g></g><g class="cls-2"><g class="cls-83"><g class="cls-2"><path class="cls-82" d="M41.5,29.24V12.14A43,43,0,0,1,68.22,21.3V38.4A43,43,0,0,0,41.5,29.24" transform="translate(0 -12.14)"/><path class="cls-81" d="M68.22,38.4V21.3a40.16,40.16,0,0,1,9.24,10.36v17.1A40.16,40.16,0,0,0,68.22,38.4" transform="translate(0 -12.14)"/><path class="cls-80" d="M77.46,48.76V31.66A37.09,37.09,0,0,1,83,51.15v17.1a37.09,37.09,0,0,0-5.54-19.49" transform="translate(0 -12.14)"/></g></g></g><path class="cls-84" d="M41.5,29.24c22.92,0,41.5,17.47,41.5,39,0,15-9,28.06-22.29,34.58-.94.46-1.9.88-2.87,1.28A43.61,43.61,0,0,1,42,107.24h-.5a43.75,43.75,0,0,1-16.16-3.06L25,104c-14.71-6-25-19.77-25-35.79C0,46.71,18.58,29.24,41.5,29.24Z" transform="translate(0 -12.14)"/></g></g></g></svg>