<svg xmlns="http://www.w3.org/2000/svg" xmlns:xlink="http://www.w3.org/1999/xlink" viewBox="0 0 578 662.08"><defs><style>.cls-1{fill:none;}.cls-2{isolation:isolate;}.cls-3{clip-path:url(#clip-path);}.cls-4{fill:#b39d70;}.cls-5{fill:#b49d6f;}.cls-6{fill:#d6d6d6;}.cls-7{fill:#cbcbcb;}.cls-8{fill:#4b4b4b;}.cls-9{fill:#4a4a4a;}.cls-10{fill:#ccc;}.cls-11{fill:#494949;}.cls-12{fill:#3a3a3a;}.cls-13{fill:#3b3b3b;}.cls-14{clip-path:url(#clip-path-2);}.cls-15{fill:#d1d1d1;}.cls-16{fill:#cfcfcf;}.cls-17{clip-path:url(#clip-path-3);}.cls-18{fill:#cdcdcd;}.cls-19{fill:#040404;}.cls-20{clip-path:url(#clip-path-4);}.cls-21{fill:#424242;}.cls-22{fill:#454545;}.cls-23{fill:#484848;}.cls-24{clip-path:url(#clip-path-5);}.cls-25{clip-path:url(#clip-path-6);}.cls-26{clip-path:url(#clip-path-7);}.cls-27{clip-path:url(#clip-path-8);}.cls-28{clip-path:url(#clip-path-9);}.cls-29{clip-path:url(#clip-path-10);}.cls-30{clip-path:url(#clip-path-11);}.cls-31{clip-path:url(#clip-path-12);}.cls-32{clip-path:url(#clip-path-13);}.cls-33{clip-path:url(#clip-path-14);}.cls-34{clip-path:url(#clip-path-15);}.cls-35{clip-path:url(#clip-path-16);}.cls-36{clip-path:url(#clip-path-17);}.cls-37{clip-path:url(#clip-path-18);}.cls-38{clip-path:url(#clip-path-19);}.cls-39{clip-path:url(#clip-path-20);}.cls-40{clip-path:url(#clip-path-21);}.cls-41{clip-path:url(#clip-path-22);}.cls-42{clip-path:url(#clip-path-23);}.cls-43{fill:#fcfcfc;}.cls-44{clip-path:url(#clip-path-24);}.cls-45{clip-path:url(#clip-path-25);}.cls-46{clip-path:url(#clip-path-26);}.cls-47{clip-path:url(#clip-path-27);}.cls-48{fill:#b29671;}.cls-49{fill:#cb964f;}.cls-50{clip-path:url(#clip-path-28);}.cls-51{fill:#b5966d;}.cls-52{fill:#cba34f;}.cls-53{clip-path:url(#clip-path-29);}.cls-54{fill:#b59d6d;}.cls-55{fill:#b29d71;}.cls-56{clip-path:url(#clip-path-30);}.cls-57{clip-path:url(#clip-path-31);}.cls-58{clip-path:url(#clip-path-32);}.cls-59{clip-path:url(#clip-path-33);}.cls-60{clip-path:url(#clip-path-34);}.cls-61{fill:#fbd34c;}.cls-62{clip-path:url(#clip-path-35);}.cls-63{fill:#d0b96b;}.cls-64{fill:#ceb86d;}.cls-65{fill:#ccb76e;}.cls-66{clip-path:url(#clip-path-36);}</style><clipPath id="clip-path" transform="translate(0 -12.15)"><path class="cls-1" d="M27,654.64a3.22,3.22,0,0,1,0,1v16.12a6.54,6.54,0,0,1-1.64-4.31v-17.1A6.54,6.54,0,0,0,27,654.64Z"/></clipPath><clipPath id="clip-path-2" transform="translate(0 -12.15)"><path class="cls-1" d="M441.37,221.79v-17.1q8.16-1.41,13.57-2.63c2.37-.54,4-1.4,5-2.61v17.1c-.94,1.21-2.61,2.07-5,2.61Q449.53,220.38,441.37,221.79Z"/></clipPath><clipPath id="clip-path-3" transform="translate(0 -12.15)"><path class="cls-1" d="M255.49,228.37v-17.1a14.27,14.27,0,0,0,7.31-3.72q4.41-4,7.91-12.13v17.1q-3.51,8.13-7.91,12.13A14.27,14.27,0,0,1,255.49,228.37Z"/></clipPath><clipPath id="clip-path-4" transform="translate(0 -12.15)"><path class="cls-1" d="M444.36,213.69V196.58c3-.57,4.69-.91,5.16-1a2.57,2.57,0,0,0,1.74-1v17.1a2.57,2.57,0,0,1-1.74,1C449.05,212.77,447.32,213.11,444.36,213.69Z"/></clipPath><clipPath id="clip-path-5" transform="translate(0 -12.15)"><path class="cls-1" d="M461.2,194.17v17.1c0,2.44-.42,4.21-1.28,5.28v-17.1C460.78,198.37,461.2,196.61,461.2,194.17Z"/></clipPath><clipPath id="clip-path-6" transform="translate(0 -12.15)"><path class="cls-1" d="M461.2,194.17v17.1c0-.28,0-.57,0-.87V193.29C461.19,193.6,461.2,193.89,461.2,194.17Z"/></clipPath><clipPath id="clip-path-7" transform="translate(0 -12.15)"><path class="cls-1" d="M451.59,192.88V210a3.17,3.17,0,0,1-.33,1.68v-17.1A3.18,3.18,0,0,0,451.59,192.88Z"/></clipPath><clipPath id="clip-path-8" transform="translate(0 -12.15)"><path class="cls-1" d="M250.72,219.43v-17.1a9.29,9.29,0,0,0,5.23-2,12.88,12.88,0,0,0,3.7-4.23A47.74,47.74,0,0,0,261.9,191v17.1a46.85,46.85,0,0,1-2.25,5.06,12.88,12.88,0,0,1-3.7,4.23A9.22,9.22,0,0,1,250.72,219.43Z"/></clipPath><clipPath id="clip-path-9" transform="translate(0 -12.15)"><path class="cls-1" d="M451.59,192.89V210c0-.33,0-.69-.06-1.1a52.26,52.26,0,0,0-1.26-6.59V185.2a52.26,52.26,0,0,1,1.26,6.59C451.57,192.19,451.59,192.56,451.59,192.89Z"/></clipPath><clipPath id="clip-path-10" transform="translate(0 -12.15)"><path class="cls-1" d="M458.89,197.68v-17.1a66.69,66.69,0,0,1,2.29,12.71V210.4A66.63,66.63,0,0,0,458.89,197.68Z"/></clipPath><clipPath id="clip-path-11" transform="translate(0 -12.15)"><path class="cls-1" d="M213.88,182.44A4.68,4.68,0,0,0,215.6,179v17.1a4.68,4.68,0,0,1-1.72,3.43,5.29,5.29,0,0,1-3.52,1.27h-.3a5.19,5.19,0,0,1-3.64-1.63,4.57,4.57,0,0,1-1.36-3.29V178.78a4.59,4.59,0,0,0,1.36,3.3,5.14,5.14,0,0,0,3.64,1.62h.3A5.29,5.29,0,0,0,213.88,182.44Z"/></clipPath><clipPath id="clip-path-12" transform="translate(0 -12.15)"><path class="cls-1" d="M215.6,179c0-.11,0-.21,0-.31v17.1c0,.1,0,.21,0,.31V181C215.6,180.41,215.58,179.61,215.6,179Z"/></clipPath><clipPath id="clip-path-13" transform="translate(0 -12.15)"><path class="cls-1" d="M201.3,181.83A4.68,4.68,0,0,0,203,178.4v17.1a4.72,4.72,0,0,1-1.72,3.44,5.29,5.29,0,0,1-3.52,1.27h-.3a5.16,5.16,0,0,1-3.64-1.62,4.59,4.59,0,0,1-1.36-3.3v-17.1a4.61,4.61,0,0,0,1.36,3.3,5.2,5.2,0,0,0,3.64,1.62h.3A5.25,5.25,0,0,0,201.3,181.83Z"/></clipPath><clipPath id="clip-path-14" transform="translate(0 -12.15)"><path class="cls-1" d="M203,178.4c0-.1,0-.21,0-.31v17.1c0,.1,0,.21,0,.31V180.4C203,179.8,203,179,203,178.4Z"/></clipPath><clipPath id="clip-path-15" transform="translate(0 -12.15)"><path class="cls-1" d="M154.61,179.33a4.72,4.72,0,0,0,1.87-3.36v17.1a4.72,4.72,0,0,1-1.87,3.36,5.26,5.26,0,0,1-3.32,1.14,5.15,5.15,0,0,1-.55,0,5.23,5.23,0,0,1-3.58-1.76,4.57,4.57,0,0,1-1.21-3.11V175.57a4.59,4.59,0,0,0,1.21,3.12,5.23,5.23,0,0,0,3.58,1.76l.55,0A5.26,5.26,0,0,0,154.61,179.33Z"/></clipPath><clipPath id="clip-path-16" transform="translate(0 -12.15)"><path class="cls-1" d="M156.48,176c0-.18,0-.35,0-.52v17.1c0,.17,0,.34,0,.52Z"/></clipPath><clipPath id="clip-path-17" transform="translate(0 -12.15)"><path class="cls-1" d="M142.06,178.25a4.68,4.68,0,0,0,1.87-3.37V192a4.68,4.68,0,0,1-1.87,3.37,5.24,5.24,0,0,1-3.31,1.14l-.55,0a5.23,5.23,0,0,1-3.58-1.76,4.6,4.6,0,0,1-1.22-3.12v-17.1a4.6,4.6,0,0,0,1.22,3.12,5.23,5.23,0,0,0,3.58,1.76l.55,0A5.24,5.24,0,0,0,142.06,178.25Z"/></clipPath><clipPath id="clip-path-18" transform="translate(0 -12.15)"><path class="cls-1" d="M143.93,174.88a4.36,4.36,0,0,0,0-.51v17.1a4.36,4.36,0,0,1,0,.51v-15.1C143.93,176.28,143.9,175.48,143.93,174.88Z"/></clipPath><clipPath id="clip-path-19" transform="translate(0 -12.15)"><path class="cls-1" d="M205.06,195.89V178.78a2.72,2.72,0,0,1,0-.28,4.63,4.63,0,0,1,1.73-3.43,5.19,5.19,0,0,1,3.47-1.27h.33a5.26,5.26,0,0,1,3.66,1.61,4.59,4.59,0,0,1,1.35,3.28v17.1a4.59,4.59,0,0,0-1.35-3.28,5.26,5.26,0,0,0-3.66-1.61h-.33a5.19,5.19,0,0,0-3.47,1.27,4.63,4.63,0,0,0-1.73,3.43A2.81,2.81,0,0,0,205.06,195.89Z"/></clipPath><clipPath id="clip-path-20" transform="translate(0 -12.15)"><path class="cls-1" d="M192.48,195.28v-17.1a2.72,2.72,0,0,1,0-.28,4.62,4.62,0,0,1,1.72-3.43,5.27,5.27,0,0,1,3.51-1.28h.3a5.33,5.33,0,0,1,3.66,1.62,4.63,4.63,0,0,1,1.35,3.27v17.1a4.63,4.63,0,0,0-1.35-3.27A5.33,5.33,0,0,0,198,190.3h-.3a5.27,5.27,0,0,0-3.51,1.28,4.62,4.62,0,0,0-1.72,3.43A2.72,2.72,0,0,0,192.48,195.28Z"/></clipPath><clipPath id="clip-path-21" transform="translate(0 -12.15)"><path class="cls-1" d="M156.5,175.45v17.1a4.55,4.55,0,0,0-1.21-3.11v-17.1A4.55,4.55,0,0,1,156.5,175.45Z"/></clipPath><clipPath id="clip-path-22" transform="translate(0 -12.15)"><path class="cls-1" d="M146,192.68V175.57c0-.16,0-.34,0-.51a4.74,4.74,0,0,1,1.88-3.37,5.22,5.22,0,0,1,3.31-1.14l.55,0a5.2,5.2,0,0,1,3.58,1.76v17.1a5.2,5.2,0,0,0-3.58-1.76l-.55,0a5.23,5.23,0,0,0-3.31,1.15,4.7,4.7,0,0,0-1.88,3.36C146,192.34,146,192.51,146,192.68Z"/></clipPath><clipPath id="clip-path-23" transform="translate(0 -12.15)"><path class="cls-1" d="M133.4,191.59v-17.1a4.36,4.36,0,0,1,0-.51,4.66,4.66,0,0,1,1.87-3.37,5.24,5.24,0,0,1,3.31-1.14,5.07,5.07,0,0,1,.55,0,5.14,5.14,0,0,1,3.58,1.76,4.56,4.56,0,0,1,1.22,3.11v17.1a4.56,4.56,0,0,0-1.22-3.11,5.14,5.14,0,0,0-3.58-1.76,5.07,5.07,0,0,0-.55,0,5.24,5.24,0,0,0-3.31,1.14,4.66,4.66,0,0,0-1.87,3.37A4.36,4.36,0,0,0,133.4,191.59Z"/></clipPath><clipPath id="clip-path-24" transform="translate(0 -12.15)"><path class="cls-1" d="M420.11,146.33v17.1c0,.93,0,2-.07,3.21v-17.1C420.09,148.32,420.11,147.25,420.11,146.33Z"/></clipPath><clipPath id="clip-path-25" transform="translate(0 -12.15)"><path class="cls-1" d="M410.14,168.86v-17.1c.06-2.14.08-4.1.08-5.89V163C410.22,164.76,410.2,166.72,410.14,168.86Z"/></clipPath><clipPath id="clip-path-26" transform="translate(0 -12.15)"><path class="cls-1" d="M420.11,146.32v17.1c0-.77,0-1.45-.05-2v-17.1C420.09,144.87,420.11,145.55,420.11,146.32Z"/></clipPath><clipPath id="clip-path-27" transform="translate(0 -12.15)"><path class="cls-1" d="M185.46,125.68v-17.1c26.77,0,91.38-12.17,94.79-12.81v17.1C276.84,113.51,212.23,125.68,185.46,125.68Z"/></clipPath><clipPath id="clip-path-28" transform="translate(0 -12.15)"><path class="cls-1" d="M25.33,104.17V87.07A43.65,43.65,0,0,0,41.5,90.14v17.1A43.65,43.65,0,0,1,25.33,104.17Z"/></clipPath><clipPath id="clip-path-29" transform="translate(0 -12.15)"><path class="cls-1" d="M42,107.24V90.14a43.59,43.59,0,0,0,16-3.2V104A43.59,43.59,0,0,1,42,107.24Z"/></clipPath><clipPath id="clip-path-30" transform="translate(0 -12.15)"><path class="cls-1" d="M60.45,85.85c32.59,21.62,98.9,22.73,125,22.73v17.1c-26.11,0-92.42-1.11-125-22.73Z"/></clipPath><clipPath id="clip-path-31" transform="translate(0 -12.15)"><path class="cls-1" d="M58,104V86.94c.83-.34,1.65-.71,2.45-1.09V103C59.65,103.34,58.83,103.7,58,104Z"/></clipPath><clipPath id="clip-path-32" transform="translate(0 -12.15)"><path class="cls-1" d="M280.25,112.87V95.77C284.93,94.67,374,73.66,427,67.84v17.1C374,90.76,284.93,111.77,280.25,112.87Z"/></clipPath><clipPath id="clip-path-33" transform="translate(0 -12.15)"><path class="cls-1" d="M448.12,83.63V66.53c51.73,0,126,16.73,129.88,17.61v17.1C574.09,100.36,499.85,83.64,448.12,83.63Z"/></clipPath><clipPath id="clip-path-34" transform="translate(0 -12.15)"><path class="cls-1" d="M427,84.94V67.84a148.8,148.8,0,0,1,21.14-1.31v17.1A148.8,148.8,0,0,0,427,84.94Z"/></clipPath><clipPath id="clip-path-35" transform="translate(0 -12.15)"><path class="cls-1" d="M41.5,29.25V12.15c22.92,0,41.5,17.45,41.5,39v17.1C83,46.71,64.42,29.25,41.5,29.25Z"/></clipPath><clipPath id="clip-path-36" transform="translate(0 -12.15)"><path class="cls-1" d="M0,68.25V51.15c0-21.55,18.58-39,41.5-39v17.1C18.58,29.25,0,46.71,0,68.25Z"/></clipPath></defs><g id="レイヤー_2" data-name="レイヤー 2"><g id="レイヤー_1-2" data-name="レイヤー 1"><g class="cls-2"><g class="cls-2"><g class="cls-3"><g class="cls-2"><path class="cls-4" d="M25.33,667.43v-17.1a6.46,6.46,0,0,0,1.36,4v17.1a6.44,6.44,0,0,1-1.36-4" transform="translate(0 -12.15)"/><path class="cls-5" d="M26.69,671.4V654.3c.09.12.18.23.28.34v17.1c-.1-.11-.19-.22-.28-.34" transform="translate(0 -12.15)"/></g></g></g><rect class="cls-6" x="245.62" y="215.43" width="9.89" height="17.1"/><polygon class="cls-6" points="190.15 231.25 190.15 214.15 200.1 214.63 200.1 231.73 190.15 231.25"/><polygon class="cls-6" points="299.96 231.17 299.96 214.07 310.47 213.35 310.47 230.45 299.96 231.17"/><polygon class="cls-6" points="120.32 226.32 120.32 209.22 130.61 210.1 130.61 227.2 120.32 226.32"/><polygon class="cls-7" points="245.6 216.5 245.6 199.4 245.62 215.44 245.62 232.54 245.6 216.5"/><polygon class="cls-6" points="224.65 216.53 224.65 199.43 245.6 199.4 245.6 216.5 224.65 216.53"/><polygon class="cls-8" points="255.48 216.22 255.48 199.12 255.51 215.43 255.51 232.53 255.48 216.22"/><polygon class="cls-6" points="402.5 218.15 402.5 201.05 411.61 199.01 411.61 216.11 402.5 218.15"/><polygon class="cls-6" points="170.46 214.39 170.46 197.29 180.33 197.76 180.33 214.87 170.46 214.39"/><polygon class="cls-9" points="410.81 212.96 410.81 195.86 411.62 199.01 411.62 216.11 410.81 212.96"/><polygon class="cls-6" points="136.61 211.68 136.61 194.58 152.51 195.96 152.51 213.06 136.61 211.68"/><polygon class="cls-10" points="130.61 227.2 130.61 210.1 136.61 194.58 136.61 211.68 130.61 227.2"/><polygon class="cls-11" points="120.32 226.32 120.32 209.22 126.62 193.72 126.62 210.82 120.32 226.32"/><polygon class="cls-6" points="107.44 209.16 107.44 192.06 126.62 193.72 126.62 210.82 107.44 209.16"/><polygon class="cls-7" points="224.64 207.3 224.64 190.2 224.65 199.43 224.65 216.53 224.64 207.3"/><rect class="cls-12" x="224.64" y="190.19" width="26.07" height="17.1"/><polygon class="cls-6" points="410.81 212.96 410.81 195.86 440.16 189.26 440.16 206.37 410.81 212.96"/><polygon class="cls-10" points="440.16 206.37 440.16 189.26 441.37 192.54 441.37 209.64 440.16 206.37"/><polygon class="cls-8" points="299.96 231.17 299.96 214.07 302.05 188.81 302.05 205.91 299.96 231.17"/><polygon class="cls-6" points="281.88 207.28 281.88 190.18 302.05 188.81 302.05 205.91 281.88 207.28"/><polygon class="cls-6" points="205.64 205.39 205.64 188.29 215.66 188.77 215.66 205.88 205.64 205.39"/><polygon class="cls-7" points="200.1 231.73 200.1 214.63 205.64 188.29 205.64 205.39 200.1 231.73"/><polygon class="cls-7" points="310.47 230.45 310.47 213.35 311.9 188.13 311.9 205.23 310.47 230.45"/><polygon class="cls-9" points="190.15 231.25 190.15 214.15 195.76 187.83 195.76 204.93 190.15 231.25"/><polygon class="cls-13" points="409.18 206.53 409.18 189.43 417.58 187.55 417.58 204.65 409.18 206.53"/><g class="cls-2"><g class="cls-14"><g class="cls-2"><path class="cls-15" d="M441.37,221.79v-17.1q8.16-1.41,13.57-2.63a11.27,11.27,0,0,0,3.6-1.39v17.11a11.28,11.28,0,0,1-3.6,1.38q-5.42,1.22-13.57,2.63" transform="translate(0 -12.15)"/><path class="cls-16" d="M458.54,217.78V200.67a5.3,5.3,0,0,0,1.38-1.22v17.1a5.52,5.52,0,0,1-1.38,1.23" transform="translate(0 -12.15)"/></g></g></g><polygon class="cls-7" points="180.33 214.87 180.33 197.76 180.91 187.12 180.91 204.22 180.33 214.87"/><polygon class="cls-6" points="180.91 204.22 180.91 187.12 195.76 187.83 195.76 204.93 180.91 204.22"/><polygon class="cls-6" points="311.9 205.23 311.9 188.13 327.32 187.08 327.32 204.18 311.9 205.23"/><polygon class="cls-7" points="152.51 213.06 152.51 195.96 153.41 186.78 153.41 203.88 152.51 213.06"/><polygon class="cls-8" points="170.46 214.39 170.46 197.29 171.04 186.64 171.04 203.74 170.46 214.39"/><polygon class="cls-6" points="340.63 211.87 340.63 194.77 384.72 186.47 384.72 203.57 340.63 211.87"/><polygon class="cls-7" points="398.78 203.57 398.78 186.47 402.5 201.05 402.5 218.15 398.78 203.57"/><polygon class="cls-6" points="161.96 203.3 161.96 186.2 171.04 186.64 171.04 203.74 161.96 203.3"/><polygon class="cls-7" points="338.7 202.83 338.7 185.73 340.63 194.77 340.63 211.87 338.7 202.83"/><polygon class="cls-13" points="398.78 203.57 398.78 186.47 407.9 184.41 407.9 201.51 398.78 203.57"/><polygon class="cls-9" points="407.9 201.51 407.9 184.41 409.18 189.43 409.18 206.53 407.9 201.51"/><polygon class="cls-13" points="426.77 202.59 426.77 185.48 435.03 183.62 435.03 200.72 426.77 202.59"/><g class="cls-2"><g class="cls-17"><g class="cls-2"><path class="cls-15" d="M255.49,228.37v-17.1a13.17,13.17,0,0,0,5-2v17.1a13,13,0,0,1-5,2" transform="translate(0 -12.15)"/><path class="cls-16" d="M260.5,226.41v-17.1a17.57,17.57,0,0,0,2.3-1.76,24,24,0,0,0,2.79-3.07v17.1a24,24,0,0,1-2.79,3.07,17.57,17.57,0,0,1-2.3,1.76" transform="translate(0 -12.15)"/><path class="cls-18" d="M265.59,221.58v-17.1a43.11,43.11,0,0,0,5.12-9.06v17.1a42.86,42.86,0,0,1-5.12,9.06" transform="translate(0 -12.15)"/></g></g></g><polygon class="cls-12" points="108.34 199.98 108.34 182.88 153.41 186.78 153.41 203.88 108.34 199.98"/><polygon class="cls-8" points="107.44 209.16 107.44 192.06 108.34 182.88 108.34 199.98 107.44 209.16"/><polygon class="cls-19" points="107.44 209.16 108.34 199.98 153.41 203.88 152.51 213.06 136.61 211.68 130.61 227.2 120.32 226.32 126.62 210.82 107.44 209.16"/><g class="cls-2"><g class="cls-20"><g class="cls-2"><path class="cls-21" d="M444.36,213.69V196.58c3-.57,4.69-.91,5.16-1a3.75,3.75,0,0,0,1.19-.45v17.1a3.52,3.52,0,0,1-1.19.45c-.47.11-2.2.45-5.16,1" transform="translate(0 -12.15)"/><path class="cls-22" d="M450.71,212.21v-17.1a1.71,1.71,0,0,0,.48-.44v17.11a1.84,1.84,0,0,1-.48.43" transform="translate(0 -12.15)"/><path class="cls-23" d="M451.19,211.78V194.67a.36.36,0,0,0,.07-.1v17.1l-.07.11" transform="translate(0 -12.15)"/></g></g></g><g class="cls-2"><g class="cls-24"><g class="cls-2"><path class="cls-16" d="M459.92,216.55v-17.1l0,0v17.1l0,.05" transform="translate(0 -12.15)"/><path class="cls-18" d="M460,216.5V199.4c.83-1.08,1.24-2.83,1.24-5.23v17.1c0,2.4-.41,4.15-1.24,5.23" transform="translate(0 -12.15)"/></g></g></g><g class="cls-2"><g class="cls-25"><g class="cls-2"><path class="cls-23" d="M461.18,210.4V193.29c0,.31,0,.6,0,.88v17.1c0-.28,0-.57,0-.87" transform="translate(0 -12.15)"/></g></g></g><polygon class="cls-7" points="281.17 198.09 281.17 180.98 281.88 190.18 281.88 207.28 281.17 198.09"/><polygon class="cls-6" points="403.04 200.77 403.04 183.66 415.86 180.78 415.86 197.88 403.04 200.77"/><polygon class="cls-7" points="415.86 197.88 415.86 180.78 417.58 187.55 417.58 204.65 415.86 197.88"/><g class="cls-2"><g class="cls-26"><g class="cls-2"><path class="cls-23" d="M451.26,211.67v-17.1a3.18,3.18,0,0,0,.33-1.69V210a3.17,3.17,0,0,1-.33,1.68" transform="translate(0 -12.15)"/></g></g></g><polygon class="cls-7" points="215.66 205.88 215.66 188.77 216.15 179.56 216.15 196.66 215.66 205.88"/><polygon class="cls-12" points="281.17 198.09 281.17 180.99 302.65 179.51 302.65 196.61 281.17 198.09"/><polygon class="cls-12" points="207.52 196.25 207.52 179.15 216.15 179.56 216.15 196.66 207.52 196.25"/><g class="cls-2"><g class="cls-27"><g class="cls-2"><path class="cls-21" d="M250.72,219.43v-17.1a9.05,9.05,0,0,0,4.46-1.47V218a9.05,9.05,0,0,1-4.46,1.47" transform="translate(0 -12.15)"/><path class="cls-22" d="M255.18,218v-17.1c.25-.16.51-.34.77-.54a13.82,13.82,0,0,0,2.64-2.59v17.1a13.82,13.82,0,0,1-2.64,2.59c-.26.2-.52.38-.77.54" transform="translate(0 -12.15)"/><path class="cls-23" d="M258.59,214.83v-17.1a11.16,11.16,0,0,0,1.06-1.64A47.74,47.74,0,0,0,261.9,191v17.1a46.85,46.85,0,0,1-2.25,5.06,11.16,11.16,0,0,1-1.06,1.64" transform="translate(0 -12.15)"/></g></g></g><polygon class="cls-9" points="425.05 195.82 425.05 178.72 426.77 185.48 426.77 202.59 425.05 195.82"/><polygon class="cls-7" points="433.76 195.71 433.76 178.61 435.03 183.62 435.03 200.72 433.76 195.71"/><polygon class="cls-12" points="181.41 195.01 181.41 177.91 197.65 178.68 197.65 195.78 181.41 195.01"/><polygon class="cls-8" points="326.61 194.98 326.61 177.88 327.32 187.08 327.32 204.18 326.61 194.98"/><polygon class="cls-12" points="312.52 195.95 312.52 178.84 326.61 177.88 326.61 194.98 312.52 195.95"/><polygon class="cls-13" points="338.7 202.83 338.7 185.73 382.8 177.43 382.8 194.53 338.7 202.83"/><polygon class="cls-9" points="382.8 194.53 382.8 177.43 384.72 186.47 384.72 203.57 382.8 194.53"/><polygon class="cls-12" points="162.47 194.09 162.47 176.99 171.54 177.43 171.54 194.53 162.47 194.09"/><polygon class="cls-8" points="161.96 203.3 161.96 186.2 162.47 176.99 162.47 194.09 161.96 203.3"/><polygon class="cls-6" points="108.94 193.81 108.94 176.71 153.73 180.59 153.73 197.69 108.94 193.81"/><polygon class="cls-9" points="442.38 193.77 442.38 176.67 444.36 184.44 444.36 201.54 442.38 193.77"/><polygon class="cls-13" points="433.76 195.71 433.76 178.61 442.38 176.67 442.38 193.77 433.76 195.71"/><polygon class="cls-11" points="261.9 195.98 261.9 178.88 263.8 174.19 263.8 191.29 261.9 195.98"/><polygon class="cls-10" points="270.7 200.37 270.7 183.27 274.35 174.19 274.35 191.29 270.7 200.37"/><rect class="cls-12" x="263.8" y="174.19" width="10.55" height="17.1"/><path class="cls-19" d="M274.35,203.44l-3.64,9.08q-3.51,8.13-7.91,12.13a14.27,14.27,0,0,1-7.31,3.72l0,16.31h-9.89l0-16-20.95,0v-9.23l26.08,0a9.22,9.22,0,0,0,5.23-2,12.88,12.88,0,0,0,3.7-4.23,46.85,46.85,0,0,0,2.25-5.06l1.9-4.69Z" transform="translate(0 -12.15)"/><polygon class="cls-6" points="425.05 195.82 425.05 178.72 450.27 173.05 450.27 190.15 425.05 195.82"/><g class="cls-2"><g class="cls-28"><g class="cls-2"><path class="cls-18" d="M450.27,202.3V185.2a52.26,52.26,0,0,1,1.26,6.59c0,.4.06.77.06,1.1V210c0-.33,0-.69-.06-1.1a52.26,52.26,0,0,0-1.26-6.59" transform="translate(0 -12.15)"/></g></g></g><polygon class="cls-9" points="410.43 190.12 410.43 173.02 411.07 175.56 411.07 192.66 410.43 190.12"/><polygon class="cls-7" points="207.52 196.25 207.52 179.15 208.52 172.93 208.52 190.03 207.52 196.25"/><polygon class="cls-8" points="302.65 196.61 302.65 179.51 302.87 172.81 302.87 189.91 302.65 196.61"/><polygon class="cls-12" points="198.65 189.55 198.65 172.45 208.52 172.93 208.52 190.03 198.65 189.55"/><polygon class="cls-8" points="197.65 195.78 197.65 178.68 198.65 172.45 198.65 189.55 197.65 195.78"/><polygon class="cls-7" points="312.52 195.95 312.52 178.84 312.73 172.14 312.73 189.24 312.52 195.95"/><polygon class="cls-12" points="302.87 189.91 302.87 172.81 312.73 172.14 312.73 189.24 302.87 189.91"/><polygon class="cls-7" points="181.41 195.01 181.41 177.91 181.75 171.65 181.75 188.75 181.41 195.01"/><polygon class="cls-7" points="153.73 197.69 153.73 180.59 154.63 171.4 154.63 188.5 153.73 197.69"/><polygon class="cls-12" points="171.87 188.28 171.87 171.17 181.75 171.65 181.75 188.75 171.87 188.28"/><polygon class="cls-8" points="171.54 194.53 171.54 177.43 171.87 171.17 171.87 188.28 171.54 194.53"/><g class="cls-2"><g class="cls-29"><g class="cls-2"><path class="cls-23" d="M458.89,197.68v-17.1a66.69,66.69,0,0,1,2.29,12.71V210.4a66.63,66.63,0,0,0-2.29-12.72" transform="translate(0 -12.15)"/></g></g></g><polygon class="cls-8" points="108.94 193.81 108.94 176.71 109.84 167.53 109.84 184.63 108.94 193.81"/><polygon class="cls-12" points="109.84 184.63 109.84 167.53 154.63 171.4 154.63 188.5 109.84 184.63"/><g class="cls-2"><g class="cls-30"><g class="cls-2"><path class="cls-18" d="M205.06,195.89V178.78a4.51,4.51,0,0,0,1,2.83v17.1a4.48,4.48,0,0,1-1-2.82" transform="translate(0 -12.15)"/><path class="cls-16" d="M206,198.71v-17.1a4.33,4.33,0,0,0,.4.47,5,5,0,0,0,1,.81V200a5.4,5.4,0,0,1-1-.82,4.33,4.33,0,0,1-.4-.47" transform="translate(0 -12.15)"/><path class="cls-15" d="M207.4,200V182.89a5.2,5.2,0,0,0,2.66.81h.3a5.28,5.28,0,0,0,2.91-.82V200a5.28,5.28,0,0,1-2.91.82h-.3a5.4,5.4,0,0,1-2.66-.81" transform="translate(0 -12.15)"/><path class="cls-16" d="M213.27,200v-17.1c.21-.14.41-.29.61-.45a6.46,6.46,0,0,0,.77-.81v17.1a6.46,6.46,0,0,1-.77.81c-.2.16-.4.31-.61.45" transform="translate(0 -12.15)"/><path class="cls-18" d="M214.65,198.73v-17.1a4.6,4.6,0,0,0,.95-2.62c0-.11,0-.21,0-.31v17.1c0,.1,0,.21,0,.31a4.57,4.57,0,0,1-.95,2.62" transform="translate(0 -12.15)"/></g></g></g><g class="cls-2"><g class="cls-31"><g class="cls-2"><path class="cls-18" d="M214.65,198.73v-17.1a4.6,4.6,0,0,0,.95-2.62c0-.11,0-.21,0-.31v17.1c0,.1,0,.21,0,.31a4.57,4.57,0,0,1-.95,2.62" transform="translate(0 -12.15)"/></g></g></g><g class="cls-2"><g class="cls-32"><g class="cls-2"><path class="cls-18" d="M192.48,195.28v-17.1a4.55,4.55,0,0,0,1,2.84v17.1a4.53,4.53,0,0,1-1-2.84" transform="translate(0 -12.15)"/><path class="cls-16" d="M193.44,198.12V181a4.25,4.25,0,0,0,.4.46,5.28,5.28,0,0,0,1,.81v17.1a4.91,4.91,0,0,1-1-.81,4.25,4.25,0,0,1-.4-.46" transform="translate(0 -12.15)"/><path class="cls-15" d="M194.81,199.39v-17.1a5.44,5.44,0,0,0,2.67.81h.3a5.28,5.28,0,0,0,2.91-.82v17.1a5.28,5.28,0,0,1-2.91.82h-.3a5.44,5.44,0,0,1-2.67-.81" transform="translate(0 -12.15)"/><path class="cls-16" d="M200.69,199.39v-17.1a6.5,6.5,0,0,0,.61-.46,5.78,5.78,0,0,0,.77-.8v17.1a5.84,5.84,0,0,1-.77.81c-.2.16-.4.31-.61.45" transform="translate(0 -12.15)"/><path class="cls-18" d="M202.07,198.13V181a4.67,4.67,0,0,0,1-2.63c0-.1,0-.21,0-.31v17.1c0,.1,0,.21,0,.31a4.65,4.65,0,0,1-1,2.63" transform="translate(0 -12.15)"/></g></g></g><g class="cls-2"><g class="cls-33"><g class="cls-2"><path class="cls-18" d="M202.07,198.13V181a4.67,4.67,0,0,0,1-2.63c0-.1,0-.21,0-.31v17.1c0,.1,0,.21,0,.31a4.65,4.65,0,0,1-1,2.63" transform="translate(0 -12.15)"/></g></g></g><polygon class="cls-13" points="411.07 192.66 411.07 175.56 458.02 165.02 458.02 182.12 411.07 192.66"/><polygon class="cls-9" points="458.02 182.12 458.02 165.02 458.88 168.43 458.88 185.53 458.02 182.12"/><polygon class="cls-9" points="408.21 181.42 408.21 164.32 408.84 166.79 408.84 183.9 408.21 181.42"/><g class="cls-2"><g class="cls-34"><g class="cls-2"><path class="cls-18" d="M146,192.68V175.57a4.49,4.49,0,0,0,1,2.82v17.1a4.48,4.48,0,0,1-1-2.81" transform="translate(0 -12.15)"/><path class="cls-16" d="M146.92,195.49v-17.1c.07.1.16.2.24.3a5.23,5.23,0,0,0,1.11.95v17.1a5.23,5.23,0,0,1-1.11-1c-.08-.1-.17-.2-.24-.3" transform="translate(0 -12.15)"/><path class="cls-15" d="M148.27,196.74v-17.1a5.32,5.32,0,0,0,2.47.81l.55,0a5.22,5.22,0,0,0,2.87-.82v17.1a5.22,5.22,0,0,1-2.87.82,5.15,5.15,0,0,1-.55,0,5.32,5.32,0,0,1-2.47-.81" transform="translate(0 -12.15)"/><path class="cls-16" d="M154.16,196.75v-17.1l.45-.32a5.12,5.12,0,0,0,.93-.93v17.1a5.12,5.12,0,0,1-.93.93c-.15.12-.3.22-.45.32" transform="translate(0 -12.15)"/><path class="cls-18" d="M155.54,195.5V178.4a4.71,4.71,0,0,0,.94-2.43v17.1a4.71,4.71,0,0,1-.94,2.43" transform="translate(0 -12.15)"/></g></g></g><g class="cls-2"><g class="cls-35"><g class="cls-2"><path class="cls-18" d="M156.48,193.07V176c0-.18,0-.35,0-.52v17.1c0,.17,0,.34,0,.52" transform="translate(0 -12.15)"/></g></g></g><g class="cls-2"><g class="cls-36"><g class="cls-2"><path class="cls-18" d="M133.4,191.59v-17.1a4.49,4.49,0,0,0,1,2.82v17.1a4.49,4.49,0,0,1-1-2.82" transform="translate(0 -12.15)"/><path class="cls-16" d="M134.37,194.41v-17.1l.25.3a5.13,5.13,0,0,0,1.1.94v17.11a5.48,5.48,0,0,1-1.1-.95l-.25-.3" transform="translate(0 -12.15)"/><path class="cls-15" d="M135.72,195.66V178.55a5.53,5.53,0,0,0,2.48.82l.55,0a5.25,5.25,0,0,0,2.87-.83v17.1a5.25,5.25,0,0,1-2.87.83l-.55,0a5.52,5.52,0,0,1-2.48-.81" transform="translate(0 -12.15)"/><path class="cls-16" d="M141.62,195.66v-17.1c.15-.09.29-.2.44-.31a5.45,5.45,0,0,0,.93-.93v17.1a5.12,5.12,0,0,1-.93.93c-.15.11-.29.22-.44.31" transform="translate(0 -12.15)"/><path class="cls-18" d="M143,194.42v-17.1a4.63,4.63,0,0,0,.94-2.44,4.36,4.36,0,0,0,0-.51v17.1a4.36,4.36,0,0,1,0,.51,4.63,4.63,0,0,1-.94,2.44" transform="translate(0 -12.15)"/></g></g></g><g class="cls-2"><g class="cls-37"><g class="cls-2"><path class="cls-18" d="M143,194.42v-17.1a4.63,4.63,0,0,0,.94-2.44,4.36,4.36,0,0,0,0-.51v17.1a4.36,4.36,0,0,1,0,.51,4.63,4.63,0,0,1-.94,2.44" transform="translate(0 -12.15)"/></g></g></g><polygon class="cls-6" points="410.43 190.12 410.43 173.02 459.01 162.11 459.01 179.21 410.43 190.12"/><g class="cls-2"><g class="cls-38"><g class="cls-2"><path class="cls-23" d="M205.06,195.89V178.78a2.72,2.72,0,0,1,0-.28,4.53,4.53,0,0,1,.94-2.61V193a4.53,4.53,0,0,0-.94,2.61,2.81,2.81,0,0,0,0,.29" transform="translate(0 -12.15)"/><path class="cls-22" d="M206,193v-17.1a5.08,5.08,0,0,1,.79-.82,6.5,6.5,0,0,1,.61-.46v17.1a6.5,6.5,0,0,0-.61.46,5.08,5.08,0,0,0-.79.82" transform="translate(0 -12.15)"/><path class="cls-21" d="M207.41,191.71v-17.1a5.21,5.21,0,0,1,2.86-.81h.33a5.38,5.38,0,0,1,2.68.81v17.1a5.38,5.38,0,0,0-2.68-.81h-.33a5.21,5.21,0,0,0-2.86.81" transform="translate(0 -12.15)"/><path class="cls-22" d="M213.28,191.72v-17.1a5.72,5.72,0,0,1,1,.8c.14.15.27.31.39.46V193c-.12-.15-.25-.31-.39-.46a5.72,5.72,0,0,0-1-.8" transform="translate(0 -12.15)"/><path class="cls-23" d="M214.65,193v-17.1a4.5,4.5,0,0,1,1,2.82v17.1a4.5,4.5,0,0,0-1-2.82" transform="translate(0 -12.15)"/></g></g></g><g class="cls-2"><g class="cls-39"><g class="cls-2"><path class="cls-23" d="M192.48,195.28v-17.1a2.72,2.72,0,0,1,0-.28,4.53,4.53,0,0,1,.94-2.61v17.1a4.53,4.53,0,0,0-.94,2.61,2.72,2.72,0,0,0,0,.28" transform="translate(0 -12.15)"/><path class="cls-22" d="M193.43,192.39v-17.1a5,5,0,0,1,.78-.82,6.62,6.62,0,0,1,.62-.46v17.1a6.62,6.62,0,0,0-.62.46,5,5,0,0,0-.78.82" transform="translate(0 -12.15)"/><path class="cls-21" d="M194.83,191.11V174a5.3,5.3,0,0,1,2.89-.82h.3a5.45,5.45,0,0,1,2.68.82v17.1a5.45,5.45,0,0,0-2.68-.82h-.3a5.3,5.3,0,0,0-2.89.82" transform="translate(0 -12.15)"/><path class="cls-22" d="M200.7,191.12V174a5.63,5.63,0,0,1,1,.8c.14.15.27.31.39.46v17.1c-.12-.15-.25-.31-.39-.46a5.63,5.63,0,0,0-1-.8" transform="translate(0 -12.15)"/><path class="cls-23" d="M202.07,192.38v-17.1a4.49,4.49,0,0,1,1,2.81v17.1a4.49,4.49,0,0,0-1-2.81" transform="translate(0 -12.15)"/></g></g></g><g class="cls-2"><g class="cls-40"><g class="cls-2"><path class="cls-22" d="M155.29,189.44v-17.1l.25.3v17.1l-.25-.3" transform="translate(0 -12.15)"/><path class="cls-23" d="M155.54,189.74v-17.1a4.53,4.53,0,0,1,1,2.81v17.1a4.53,4.53,0,0,0-1-2.81" transform="translate(0 -12.15)"/></g></g></g><g class="cls-2"><g class="cls-41"><g class="cls-2"><path class="cls-23" d="M146,192.68V175.57c0-.16,0-.34,0-.51a4.8,4.8,0,0,1,.94-2.43v17.1a4.8,4.8,0,0,0-.94,2.43c0,.18,0,.35,0,.52" transform="translate(0 -12.15)"/><path class="cls-22" d="M146.91,189.73v-17.1a5.22,5.22,0,0,1,.94-.94c.14-.11.29-.21.44-.31v17.1a4.48,4.48,0,0,0-.44.32,4.88,4.88,0,0,0-.94.93" transform="translate(0 -12.15)"/><path class="cls-21" d="M148.29,188.48v-17.1a5.23,5.23,0,0,1,2.87-.83l.55,0a5.32,5.32,0,0,1,2.47.81v17.1a5.32,5.32,0,0,0-2.47-.81l-.55,0a5.23,5.23,0,0,0-2.87.83" transform="translate(0 -12.15)"/><path class="cls-22" d="M154.18,188.49v-17.1a4.75,4.75,0,0,1,1.11,1v17.1a4.75,4.75,0,0,0-1.11-.95" transform="translate(0 -12.15)"/></g></g></g><polygon class="cls-10" points="542.11 175.22 542.11 158.12 578 272.19 578 289.29 542.11 175.22"/><g class="cls-2"><g class="cls-42"><g class="cls-2"><path class="cls-23" d="M133.4,191.59v-17.1a4.36,4.36,0,0,1,0-.51,4.63,4.63,0,0,1,.93-2.43v17.1a4.63,4.63,0,0,0-.93,2.43,4.36,4.36,0,0,0,0,.51" transform="translate(0 -12.15)"/><path class="cls-22" d="M134.36,188.65v-17.1a5.22,5.22,0,0,1,.94-.94,4.37,4.37,0,0,1,.44-.31v17.1c-.15.1-.3.2-.44.31a5.22,5.22,0,0,0-.94.94" transform="translate(0 -12.15)"/><path class="cls-21" d="M135.74,187.4V170.3a5.25,5.25,0,0,1,2.87-.83,5.07,5.07,0,0,1,.55,0,5.51,5.51,0,0,1,2.48.8v17.1a5.51,5.51,0,0,0-2.48-.8,5.07,5.07,0,0,0-.55,0,5.25,5.25,0,0,0-2.87.83" transform="translate(0 -12.15)"/><path class="cls-22" d="M141.64,187.4V170.3a5.23,5.23,0,0,1,1.1,1,3.47,3.47,0,0,1,.25.29v17.11a2.48,2.48,0,0,0-.25-.3,5.23,5.23,0,0,0-1.1-1" transform="translate(0 -12.15)"/><path class="cls-23" d="M143,188.66V171.55a4.57,4.57,0,0,1,1,2.82v17.1a4.52,4.52,0,0,0-1-2.81" transform="translate(0 -12.15)"/></g></g></g><polygon class="cls-9" points="457.43 172.99 457.43 155.88 459.01 162.11 459.01 179.21 457.43 172.99"/><polygon class="cls-13" points="408.84 183.9 408.84 166.79 457.43 155.88 457.43 172.99 408.84 183.9"/><polygon class="cls-9" points="406.04 172.92 406.04 155.82 406.82 158.83 406.82 175.93 406.04 172.92"/><polygon class="cls-6" points="408.21 181.42 408.21 164.31 449.31 155.08 449.31 172.18 408.21 181.42"/><polygon class="cls-13" points="406.82 175.93 406.82 158.83 438.44 151.72 438.44 168.82 406.82 175.93"/><polygon class="cls-43" points="437.68 165.81 438.44 168.82 406.82 175.93 406.04 172.92 437.68 165.81"/><polygon class="cls-7" points="437.68 165.81 437.68 148.71 438.44 151.72 438.44 168.82 437.68 165.81"/><polygon class="cls-6" points="406.04 172.92 406.04 155.81 437.68 148.71 437.68 165.81 406.04 172.92"/><polygon class="cls-9" points="403.96 164.68 403.96 147.58 404.74 150.67 404.74 167.77 403.96 164.68"/><polygon class="cls-13" points="404.74 167.77 404.74 150.67 436.37 143.55 436.37 160.65 404.74 167.77"/><polygon class="cls-7" points="392.82 160.6 392.82 143.5 403.04 183.66 403.04 200.77 392.82 160.6"/><polygon class="cls-6" points="403.96 164.68 403.96 147.58 435.58 140.47 435.58 157.57 403.96 164.68"/><polygon class="cls-7" points="435.58 157.57 435.58 140.47 436.37 143.55 436.37 160.65 435.58 157.57"/><polygon class="cls-13" points="392.82 160.6 392.82 143.5 410.14 139.61 410.14 156.71 392.82 160.6"/><polygon class="cls-13" points="420.04 154.49 420.04 137.39 443.48 132.13 443.48 149.23 420.04 154.49"/><g class="cls-2"><g class="cls-44"><g class="cls-2"><path class="cls-18" d="M420,166.64v-17.1c0-1.22.07-2.29.07-3.21v17.1c0,.93,0,2-.07,3.21" transform="translate(0 -12.15)"/></g></g></g><g class="cls-2"><g class="cls-45"><g class="cls-2"><path class="cls-23" d="M410.14,168.86v-17.1c.06-2.14.08-4.1.08-5.89V163c0,1.79,0,3.75-.08,5.89" transform="translate(0 -12.15)"/></g></g></g><g class="cls-2"><g class="cls-46"><g class="cls-2"><path class="cls-23" d="M420.06,161.39v-17.1c0,.58.05,1.26.05,2v17.1c0-.77,0-1.45-.05-2" transform="translate(0 -12.15)"/></g></g></g><polygon class="cls-13" points="410.22 150.82 410.22 133.72 420.06 132.14 420.06 149.25 410.22 150.82"/><polygon class="cls-9" points="443.48 149.23 443.48 132.13 449.32 155.08 449.32 172.18 443.48 149.23"/><path class="cls-43" d="M578,101.24l-35.88,86.13L578,301.44l-34.27-14c-14.49-5.91-41.8-8.07-70.85-8.07-39.67,0-82.59,4-100.52,8.07-31.07,7-120.6,25.78-125.32,26.77-2.62.35-52.48,7-86.76,8.15-.88,0-1.78,0-2.7,0-35,0-96.35-19.94-99.58-21V104c.83-.34,1.65-.7,2.45-1.09,32.59,21.62,98.9,22.73,125,22.73,26.77,0,91.38-12.17,94.79-12.81C284.93,111.77,374,90.76,427,84.94a148.8,148.8,0,0,1,21.14-1.31C499.85,83.64,574.09,100.36,578,101.24ZM459.92,216.55c1-1.2,1.37-3.25,1.26-6.15a66.63,66.63,0,0,0-2.29-12.72l-.87-3.41-46.94,10.54-.65-2.54L459,191.36l-1.58-6.23L408.85,196l-.63-2.47,41.1-9.24-5.84-23L420,166.64c.08-2.24.09-4,0-5.25L410.22,163c0,1.79,0,3.75-.08,5.89l-17.31,3.89L403,212.92,415.87,210l1.72,6.77-8.41,1.88-1.28-5-9.12,2.06,3.72,14.58,9.12-2-.8-3.15,29.35-6.6,1.2,3.28q8.16-1.41,13.57-2.63c2.37-.54,4-1.4,5-2.61M215.66,218l.5-9.21-8.63-.41,1-6.23-9.87-.47-1,6.23-16.23-.77.34-6.26-9.88-.48-.34,6.26-9.07-.44-.5,9.21,9.07.44-.58,10.65,9.88.47.57-10.64,14.85.71-5.6,26.32,10,.48,5.53-26.34,10,.48m55-5.5,3.64-9.08H263.8l-1.9,4.69a45.82,45.82,0,0,1-2.26,5.06,12.73,12.73,0,0,1-3.69,4.23,9.29,9.29,0,0,1-5.23,2l-26.08,0v9.23l20.95,0,0,16h9.89l0-16.31a14.27,14.27,0,0,0,7.31-3.72q4.41-4,7.91-12.13m41.2,4.86,15.41-1-.71-9.2-14.09,1,.22-6.71-9.87.67-.21,6.7-21.49,1.47.71,9.2,20.17-1.37L300,243.32l10.52-.72,1.43-25.22m-159.39,7.83.9-9.18-45.07-3.9-.9,9.18L126.62,223l-6.3,15.49,10.29.89,6-15.52,15.91,1.38M340.64,224l44.09-8.3-1.93-9L338.7,215l1.94,9M153.73,209.84l.9-9.19-44.78-3.87L109,206l44.78,3.88m40.48-18.27a4.78,4.78,0,0,0-.37,7,5.16,5.16,0,0,0,3.64,1.62h.3a5.29,5.29,0,0,0,3.52-1.27A4.72,4.72,0,0,0,203,195.5a4.61,4.61,0,0,0-1.34-3.58A5.33,5.33,0,0,0,198,190.3h-.3a5.27,5.27,0,0,0-3.51,1.28m12.59.6a4.77,4.77,0,0,0-.38,7,5.19,5.19,0,0,0,3.64,1.63h.3a5.29,5.29,0,0,0,3.52-1.27,4.68,4.68,0,0,0,1.72-3.43,4.62,4.62,0,0,0-1.34-3.59,5.26,5.26,0,0,0-3.66-1.61h-.33a5.19,5.19,0,0,0-3.47,1.27m-50.32.9a4.6,4.6,0,0,0-1.19-3.63,5.2,5.2,0,0,0-3.58-1.76l-.55,0a5.23,5.23,0,0,0-3.31,1.15,4.7,4.7,0,0,0-1.88,3.36,4.64,4.64,0,0,0,1.19,3.63,5.23,5.23,0,0,0,3.58,1.76,5.15,5.15,0,0,0,.55,0,5.26,5.26,0,0,0,3.32-1.14,4.72,4.72,0,0,0,1.87-3.36m-23-2a4.57,4.57,0,0,0,1.19,3.63,5.23,5.23,0,0,0,3.58,1.76l.55,0a5.24,5.24,0,0,0,3.31-1.14,4.68,4.68,0,0,0,1.87-3.37,4.53,4.53,0,0,0-1.19-3.62,5.14,5.14,0,0,0-3.58-1.76,5.07,5.07,0,0,0-.55,0,5.24,5.24,0,0,0-3.31,1.14,4.66,4.66,0,0,0-1.87,3.37" transform="translate(0 -12.15)"/><polygon class="cls-19" points="382.8 194.53 384.72 203.57 340.63 211.87 338.7 202.83 382.8 194.53"/><polygon class="cls-43" points="435.58 157.57 436.37 160.65 404.74 167.77 403.96 164.68 435.58 157.57"/><path class="cls-19" d="M461.18,210.4c.11,2.9-.3,4.95-1.26,6.15s-2.61,2.07-5,2.61q-5.42,1.22-13.57,2.63l-1.2-3.28-29.35,6.6.8,3.15-9.12,2-3.72-14.58,9.12-2.06,1.28,5,8.41-1.88L415.87,210,403,212.92l-10.21-40.17,17.31-3.89c.06-2.14.08-4.1.08-5.89l9.84-1.58c.07,1.26.06,3,0,5.25l23.44-5.26,5.84,23-41.1,9.24.63,2.47,48.58-10.91,1.58,6.23-48.58,10.91.65,2.54L458,194.27l.87,3.41A66.63,66.63,0,0,1,461.18,210.4ZM404,176.83l.78,3.09,31.63-7.12-.78-3.08L404,176.83m47.3,34.84a4.77,4.77,0,0,0,.27-2.78,52.26,52.26,0,0,0-1.26-6.59L425.06,208l1.71,6.76,8.27-1.86-1.27-5,8.61-1.94,2,7.77c3-.58,4.69-.92,5.16-1a2.57,2.57,0,0,0,1.74-1m-45.21-26.6.77,3L438.45,181l-.77-3-31.63,7.11" transform="translate(0 -12.15)"/><path class="cls-43" d="M450.27,202.3a52.26,52.26,0,0,1,1.26,6.59,4.77,4.77,0,0,1-.27,2.78,2.57,2.57,0,0,1-1.74,1c-.47.11-2.2.45-5.16,1l-2-7.77-8.61,1.94,1.27,5-8.27,1.86L425.06,208Z" transform="translate(0 -12.15)"/><polygon class="cls-19" points="312.73 189.24 312.52 195.95 326.61 194.98 327.32 204.18 311.9 205.23 310.47 230.45 299.96 231.17 302.05 205.91 281.88 207.28 281.17 198.09 302.65 196.61 302.87 189.91 312.73 189.24"/><polygon class="cls-19" points="207.52 196.25 216.15 196.66 215.66 205.88 205.64 205.39 200.1 231.73 190.15 231.25 195.76 204.93 180.91 204.22 180.33 214.87 170.46 214.39 171.04 203.74 161.96 203.3 162.47 194.09 171.54 194.53 171.87 188.28 181.75 188.75 181.41 195.01 197.65 195.78 198.65 189.55 208.52 190.03 207.52 196.25"/><polygon class="cls-19" points="108.94 193.81 109.84 184.63 154.63 188.5 153.73 197.69 108.94 193.81"/><path class="cls-19" d="M210.06,200.81a5.19,5.19,0,0,1-3.64-1.63,4.77,4.77,0,0,1,.38-7,5.19,5.19,0,0,1,3.47-1.27h.33a5.26,5.26,0,0,1,3.66,1.61,4.62,4.62,0,0,1,1.34,3.59,4.68,4.68,0,0,1-1.72,3.43,5.29,5.29,0,0,1-3.52,1.27Z" transform="translate(0 -12.15)"/><path class="cls-19" d="M197.48,200.2a5.16,5.16,0,0,1-3.64-1.62,4.78,4.78,0,0,1,.37-7,5.27,5.27,0,0,1,3.51-1.28h.3a5.33,5.33,0,0,1,3.66,1.62A4.61,4.61,0,0,1,203,195.5a4.72,4.72,0,0,1-1.72,3.44,5.29,5.29,0,0,1-3.52,1.27Z" transform="translate(0 -12.15)"/><path class="cls-19" d="M155.29,189.44a4.6,4.6,0,0,1,1.19,3.63,4.72,4.72,0,0,1-1.87,3.36,5.26,5.26,0,0,1-3.32,1.14,5.15,5.15,0,0,1-.55,0,5.23,5.23,0,0,1-3.58-1.76,4.64,4.64,0,0,1-1.19-3.63,4.7,4.7,0,0,1,1.88-3.36,5.23,5.23,0,0,1,3.31-1.15l.55,0A5.2,5.2,0,0,1,155.29,189.44Z" transform="translate(0 -12.15)"/><path class="cls-19" d="M138.2,196.47a5.23,5.23,0,0,1-3.58-1.76,4.57,4.57,0,0,1-1.19-3.63,4.66,4.66,0,0,1,1.87-3.37,5.24,5.24,0,0,1,3.31-1.14,5.07,5.07,0,0,1,.55,0,5.14,5.14,0,0,1,3.58,1.76,4.53,4.53,0,0,1,1.19,3.62,4.68,4.68,0,0,1-1.87,3.37,5.24,5.24,0,0,1-3.31,1.14Z" transform="translate(0 -12.15)"/><g class="cls-2"><g class="cls-47"><g class="cls-2"><path class="cls-15" d="M185.46,125.68v-17.1c26.77,0,91.38-12.17,94.79-12.81v17.1c-3.41.64-68,12.81-94.79,12.81" transform="translate(0 -12.15)"/></g></g></g><polygon class="cls-48" points="41.5 95.09 41.5 77.99 41.99 644.63 41.99 661.73 41.5 95.09"/><path class="cls-49" d="M25.33,104.17a43.65,43.65,0,0,0,16.17,3.07L42,673.88l-9.43.35a7.41,7.41,0,0,1-5.6-2.49,6.54,6.54,0,0,1-1.64-4.31Z" transform="translate(0 -12.15)"/><g class="cls-2"><g class="cls-50"><g class="cls-2"><path class="cls-51" d="M25.33,104.17V87.07A43.65,43.65,0,0,0,41.5,90.14v17.1a43.65,43.65,0,0,1-16.17-3.07" transform="translate(0 -12.15)"/></g></g></g><path class="cls-52" d="M42,107.24A43.59,43.59,0,0,0,58,104v563a7,7,0,0,1-7.24,6.8H42Z" transform="translate(0 -12.15)"/><g class="cls-2"><g class="cls-53"><g class="cls-2"><path class="cls-54" d="M42,107.24V90.14a43.59,43.59,0,0,0,16-3.2V104a43.59,43.59,0,0,1-16,3.2" transform="translate(0 -12.15)"/></g></g></g><polygon class="cls-55" points="24.99 91.89 24.99 74.78 25.33 638.18 25.33 655.28 24.99 91.89"/><path class="cls-52" d="M25,104l.33,563.39A6.54,6.54,0,0,0,27,671.74a6.56,6.56,0,0,1-2-4.66Z" transform="translate(0 -12.15)"/><g class="cls-2"><g class="cls-56"><g class="cls-2"><path class="cls-16" d="M60.45,103V85.85l1,.67v17.1c-.35-.22-.7-.44-1-.67" transform="translate(0 -12.15)"/><path class="cls-15" d="M61.49,103.62V86.52c32.94,21,98.14,22.06,124,22.06v17.1c-25.83,0-91-1.09-124-22.06" transform="translate(0 -12.15)"/></g></g></g><g class="cls-2"><g class="cls-57"><g class="cls-2"><path class="cls-15" d="M58,104V86.94c.83-.34,1.65-.71,2.45-1.09V103c-.8.39-1.62.75-2.45,1.09" transform="translate(0 -12.15)"/></g></g></g><g class="cls-2"><g class="cls-58"><g class="cls-2"><path class="cls-15" d="M280.25,112.87V95.77C284.93,94.67,374,73.66,427,67.84v17.1c-53,5.82-142,26.83-146.73,27.93" transform="translate(0 -12.15)"/></g></g></g><g class="cls-2"><g class="cls-59"><g class="cls-2"><path class="cls-15" d="M448.12,83.63V66.53c51.73,0,126,16.73,129.88,17.61v17.1c-3.91-.88-78.15-17.6-129.88-17.61" transform="translate(0 -12.15)"/></g></g></g><g class="cls-2"><g class="cls-60"><g class="cls-2"><path class="cls-15" d="M427,84.94V67.84a148.8,148.8,0,0,1,21.14-1.31v17.1A148.8,148.8,0,0,0,427,84.94" transform="translate(0 -12.15)"/></g></g></g><path class="cls-61" d="M41.5,29.25c22.92,0,41.5,17.46,41.5,39,0,15.12-9.16,28.23-22.55,34.7-.8.39-1.62.75-2.45,1.09a43.59,43.59,0,0,1-16,3.2h-.5a43.65,43.65,0,0,1-16.17-3.07L25,104C10.29,98,0,84.27,0,68.25,0,46.71,18.58,29.25,41.5,29.25Z" transform="translate(0 -12.15)"/><g class="cls-2"><g class="cls-62"><g class="cls-2"><path class="cls-63" d="M41.5,29.25V12.15a43.18,43.18,0,0,1,23.29,6.71V36A43.27,43.27,0,0,0,41.5,29.25" transform="translate(0 -12.15)"/><path class="cls-64" d="M64.79,36V18.86a40.75,40.75,0,0,1,10.4,9.51v17.1A40.75,40.75,0,0,0,64.79,36" transform="translate(0 -12.15)"/><path class="cls-65" d="M75.19,45.47V28.37A37.23,37.23,0,0,1,83,51.15v17.1a37.25,37.25,0,0,0-7.81-22.78" transform="translate(0 -12.15)"/></g></g></g><g class="cls-2"><g class="cls-66"><g class="cls-2"><path class="cls-65" d="M0,68.25V51.15A37.29,37.29,0,0,1,7.81,28.37v17.1A37.29,37.29,0,0,0,0,68.25" transform="translate(0 -12.15)"/><path class="cls-64" d="M7.81,45.47V28.37a40.73,40.73,0,0,1,10.4-9.51V36a40.91,40.91,0,0,0-10.4,9.51" transform="translate(0 -12.15)"/><path class="cls-63" d="M18.21,36V18.86A43.18,43.18,0,0,1,41.5,12.15v17.1A43.27,43.27,0,0,0,18.21,36" transform="translate(0 -12.15)"/></g></g></g></g></g></g></svg>