<svg xmlns="http://www.w3.org/2000/svg" xmlns:xlink="http://www.w3.org/1999/xlink" width="187.434" height="191.113" viewBox="0 0 187.434 191.113"><defs><clipPath id="a"><path d="M759.5,617.521c.11-.028.217-.063.323-.1l4.631,2.52a2.773,2.773,0,0,1-.323.1Z" transform="translate(-759.5 -617.42)" fill="none"/></clipPath><clipPath id="b"><path d="M757.9,617.92c.041,0,.083.045.12.065l.252.136.264.144.406.222,1.044.567,2.544,1.385a3.866,3.866,0,0,1-.406.081L757.49,618A3.876,3.876,0,0,0,757.9,617.92Z" transform="translate(-757.49 -617.92)" fill="none"/></clipPath><clipPath id="c"><path d="M763.985,584.592a3.388,3.388,0,0,0-1.676-3.062l4.63,2.52a3.373,3.373,0,0,1,1.678,3.062,4.581,4.581,0,0,1-2.9,4.23l-4.63-2.52A4.582,4.582,0,0,0,763.985,584.592Z" transform="translate(-761.09 -581.53)" fill="none"/></clipPath><clipPath id="d"><path d="M759.5,580.088l4.631,2.52a3.1,3.1,0,0,0-1.932-.333l-4.633-2.517A3.087,3.087,0,0,1,759.5,580.088Z" transform="translate(-757.57 -579.72)" fill="none"/></clipPath><clipPath id="e"><path d="M670.919,677.794a3.917,3.917,0,0,0-.713-5.364l4.639,2.519a3.916,3.916,0,0,1,.713,5.364,4.5,4.5,0,0,1-1.467,1.451l-4.641-2.513A4.5,4.5,0,0,0,670.919,677.794Z" transform="translate(-669.45 -672.43)" fill="none"/></clipPath><clipPath id="f"><path d="M656.31,706l4.633,2.519a3.839,3.839,0,0,1-1.422.518,3.109,3.109,0,0,1-1.93-.333l-4.63-2.519a3.106,3.106,0,0,0,1.93.333A3.826,3.826,0,0,0,656.31,706Z" transform="translate(-652.96 -706)" fill="none"/></clipPath><clipPath id="g"><path d="M656.618,708.842l-4.633-2.52c-.079-.045-.159-.091-.236-.142l4.63,2.519C656.458,708.75,656.537,708.8,656.618,708.842Z" transform="translate(-651.75 -706.18)" fill="none"/></clipPath><clipPath id="h"><path d="M674.591,540.44l4.631,2.52a4.7,4.7,0,0,1-1.191,1.829l-4.63-2.519A4.7,4.7,0,0,0,674.591,540.44Z" transform="translate(-673.4 -540.44)" fill="none"/></clipPath><clipPath id="i"><path d="M677,522.07h0l4.631,2.519h0a3.964,3.964,0,0,1,.457,3.732l-4.63-2.519A3.957,3.957,0,0,0,677,522.07Z" transform="translate(-677 -522.07)" fill="none"/></clipPath><clipPath id="j"><path d="M673.263,518.873a3.026,3.026,0,0,0-.953-.813l4.631,2.517a3.349,3.349,0,0,1,.358.23l-4.614-2.515L677.3,520.8h0l-4.622-2.513L677.3,520.8a3.134,3.134,0,0,1,.593.589l-2.314-1.26-1.2-.652-.288-.158-.285-.154A3.226,3.226,0,0,1,673.263,518.873Z" transform="translate(-672.31 -518.06)" fill="none"/></clipPath><clipPath id="k"><path d="M656.2,516.556l4.633,2.519a3.128,3.128,0,0,0-1.938-.333,3.981,3.981,0,0,0-2.168,1.085l-4.633-2.519a3.993,3.993,0,0,1,2.168-1.085A3.127,3.127,0,0,1,656.2,516.556Z" transform="translate(-652.09 -516.188)" fill="none"/></clipPath><clipPath id="l"><path d="M577.446,608.354c-.077-.053-.154-.1-.236-.144l4.63,2.52c.081.045.161.091.238.144C580.688,610.118,578.793,609.183,577.446,608.354Z" transform="translate(-577.21 -608.21)" fill="none"/></clipPath><clipPath id="m"><path d="M555.967,633.893l-4.624-2.52a3.308,3.308,0,0,1-1.12-1.343,3.862,3.862,0,0,1-.323-1.54l4.63,2.519a3.823,3.823,0,0,0,.325,1.54A3.285,3.285,0,0,0,555.967,633.893Z" transform="translate(-549.9 -628.49)" fill="none"/></clipPath><clipPath id="n"><path d="M561.527,645.116,556.9,642.6l-.024-.018,4.62,2.524a.115.115,0,0,0,.026.012Z" transform="translate(-556.88 -642.58)" fill="none"/></clipPath><clipPath id="o"><path d="M569.648,606.773l4.63,2.519a3.1,3.1,0,0,0-1.928-.331l-4.63-2.519a3.1,3.1,0,0,1,1.928.331Z" transform="translate(-567.72 -606.406)" fill="none"/></clipPath><clipPath id="p"><path d="M549.87,628.49l4.631,2.52a3.8,3.8,0,0,0,.325,1.54l-4.633-2.519A3.8,3.8,0,0,1,549.87,628.49Z" transform="translate(-549.87 -628.49)" fill="none"/></clipPath><clipPath id="q"><path d="M561,610.339l-4.63-2.519a4.215,4.215,0,0,1,2.306-1.219l4.63,2.52A4.086,4.086,0,0,0,561,610.339Z" transform="translate(-556.37 -606.6)" fill="none"/></clipPath><clipPath id="r"><path d="M552.641,612.55l4.631,2.53a4.714,4.714,0,0,0-.951,1.422l-4.631-2.519A4.72,4.72,0,0,1,552.641,612.55Z" transform="translate(-551.69 -612.55)" fill="none"/></clipPath><clipPath id="s"><path d="M554.5,618.308l-4.631-2.519a4.521,4.521,0,0,1,.3-1.64,4.616,4.616,0,0,1,.425-.843,4.681,4.681,0,0,1,.593-.756l4.63,2.53a4.693,4.693,0,0,0-.593.756,4.892,4.892,0,0,0-.425.843,4.609,4.609,0,0,0-.3,1.63Z" transform="translate(-549.87 -612.55)" fill="none"/></clipPath><clipPath id="t"><path d="M556.041,622.736l-4.63-2.519V620.2l4.63,2.52Z" transform="translate(-551.41 -620.2)" fill="none"/></clipPath><clipPath id="u"><path d="M556.07,622.488l-4.63-2.519v-.012c0-.014.014-.03.02-.047l4.63,2.52-.018.047Z" transform="translate(-551.44 -619.91)" fill="none"/></clipPath><clipPath id="v"><path d="M556.191,622.294l-4.631-2.519c0-.012.01-.024.014-.035l4.631,2.52C556.2,622.27,556.2,622.282,556.191,622.294Z" transform="translate(-551.56 -619.74)" fill="none"/></clipPath><clipPath id="w"><path d="M551.63,619.74h0l4.63,2.52h0Z" transform="translate(-551.63 -619.74)" fill="none"/></clipPath><clipPath id="x"><path d="M551.65,619.59l4.63,2.522-.01.024-4.63-2.519Z" transform="translate(-551.64 -619.59)" fill="none"/></clipPath><clipPath id="y"><path d="M552.141,480.688l-4.63-2.519a47.505,47.505,0,0,0,12.62-.11,51.618,51.618,0,0,0,5.892-1.189l4.633,2.519a52.2,52.2,0,0,1-5.9,1.189A47.586,47.586,0,0,1,552.141,480.688Z" transform="translate(-547.51 -476.87)" fill="none"/></clipPath></defs><g transform="translate(2.993 52.813)" style="isolation:isolate"><path d="M606.894,719.918,516.4,772.5,425.32,719.918l90.491-52.588Z" transform="translate(-425.226 -667.33)" fill="#dab171"/><path d="M963.725,926.15l-.094,33.125-90.491,52.588.094-33.127Z" transform="translate(-782.057 -873.562)" fill="#c2965a"/><path d="M516.036,978.736l-.094,33.127L424.86,959.275l.094-33.125Z" transform="translate(-424.86 -873.562)" fill="#e8c17e"/></g><g transform="translate(0 41.437)" style="isolation:isolate"><path d="M597.659,665.618,504.26,719.9l-94.01-54.278,93.4-54.278Z" transform="translate(-410.226 -611.34)" fill="#80bc39"/><path d="M966.243,878.48l-.022,8.282-93.4,54.276.024-8.28Z" transform="translate(-778.81 -824.202)" fill="#64a42a"/><path d="M504.165,932.758l-.024,8.28-94.01-54.276.024-8.282Z" transform="translate(-410.13 -824.202)" fill="#64a42a"/></g><path d="M588.92,1130.185l-.01,4.249-5.24-3.023.012-4.251Z" transform="translate(-548.41 -980.917)" fill="#b0824c"/><path d="M482.348,1025.019l-.014,4.691-4.084-2.357.014-4.694Z" transform="translate(-464.409 -897.65)" fill="#c5985f"/><path d="M743.768,1178.449l-.014,4.692-4.084-2.357.014-4.693Z" transform="translate(-672.713 -1019.906)" fill="#c5985f"/><path d="M758.738,1198.229l-.012,4.693-4.086-2.359.014-4.693Z" transform="translate(-684.642 -1035.667)" fill="#b0824c"/><path d="M957.25,1228.19l.014,4.253-5.242,3.025-.012-4.251Z" transform="translate(-841.91 -1061.42)" fill="#b0824c"/><path d="M1051.694,1140.27l.012,4.693-4.084,2.357-.012-4.691Z" transform="translate(-918.085 -991.364)" fill="#8f622e"/><path d="M1277.834,1000.74l.014,4.693-4.084,2.357-.014-4.693Z" transform="translate(-1098.278 -880.184)" fill="#8f622e"/><path d="M1268.744,1024.26l.014,4.693-4.084,2.357-.014-4.691Z" transform="translate(-1091.035 -898.925)" fill="#b0824c"/><g transform="translate(89.276)" style="isolation:isolate"><path d="M854.108,422.187l-.264,93.082-4.324-2.5.264-93.082Z" transform="translate(-849.52 -417.193)" fill="#7d7d7d"/><path d="M871.064,422.187l4.3-2.5-.264,93.082-4.3,2.5Z" transform="translate(-866.476 -417.193)" fill="#6b6b6b"/><path d="M850.82,409.9l4.3-2.5,4.326,2.5-4.3,2.5Z" transform="translate(-850.556 -407.4)" fill="#747474"/></g><g transform="translate(12.906 2.741)" style="isolation:isolate"><g transform="translate(58.08 39.931)" style="isolation:isolate"><g clip-path="url(#a)"><g transform="translate(-0.374 -0.128)" style="isolation:isolate"><path d="M762.293,619.614l-4.633-2.519a3.616,3.616,0,0,0,1.016-.3l4.633,2.519a3.659,3.659,0,0,1-1.016.3" transform="translate(-757.66 -616.79)" fill="#2b8dc2"/></g></g></g><g transform="translate(57.671 40.033)" style="isolation:isolate"><g clip-path="url(#b)"><g transform="translate(0.002 -0.23)" style="isolation:isolate"><path d="M762.133,620.839l-4.633-2.52h.033l4.632,2.52h-.032" transform="translate(-757.5 -618.009)" fill="#2b8bc1"/><path d="M762.293,619.614l-4.633-2.519a3.616,3.616,0,0,0,1.016-.3l4.633,2.519a3.659,3.659,0,0,1-1.016.3" transform="translate(-757.628 -616.79)" fill="#2b8dc2"/></g></g></g><g transform="translate(58.403 32.639)" style="isolation:isolate"><g clip-path="url(#c)"><g transform="translate(-0.697 0)" style="isolation:isolate"><path d="M762.293,619.614l-4.633-2.519a3.616,3.616,0,0,0,1.016-.3l4.633,2.519a3.659,3.659,0,0,1-1.016.3" transform="translate(-757.66 -609.626)" fill="#2b8dc2"/><path d="M767.253,614.935l-4.633-2.519a4.36,4.36,0,0,0,1.457-1.115l4.63,2.519a4.35,4.35,0,0,1-1.455,1.115" transform="translate(-761.612 -605.251)" fill="#2b8ec4"/><path d="M774.421,610.1l-4.631-2.519a4.817,4.817,0,0,0,.632-.949l4.632,2.513a4.788,4.788,0,0,1-.634.951" transform="translate(-767.325 -601.53)" fill="#2b8dc2"/><path d="M777.533,606.163l-4.633-2.518a4.777,4.777,0,0,0,.3-.756l4.63,2.519a4.685,4.685,0,0,1-.3.754" transform="translate(-769.803 -598.55)" fill="#2b8bc1"/><path d="M779.031,602.521,774.4,600a4.588,4.588,0,0,0,.156-.742l4.633,2.519a4.578,4.578,0,0,1-.159.742" transform="translate(-770.999 -595.658)" fill="#2b8abf"/><path d="M779.833,598.489l-4.632-2.519a3.98,3.98,0,0,0,.034-.54v-.3l4.63,2.519v.3a4.277,4.277,0,0,1-.035.54" transform="translate(-771.636 -592.367)" fill="#2b88be"/><path d="M773.389,586.813l-4.631-2.519a3.333,3.333,0,0,0-1.668-2.763l4.631,2.52a3.333,3.333,0,0,1,1.668,2.763" transform="translate(-765.174 -581.53)" fill="#2b87bc"/></g></g></g><g transform="translate(57.688 32.272)" style="isolation:isolate"><g clip-path="url(#d)"><g transform="translate(0 0.002)" style="isolation:isolate"><path d="M762.2,582.283l-4.633-2.518a3.259,3.259,0,0,1,.7-.026l4.63,2.519a3.37,3.37,0,0,0-.7.024" transform="translate(-757.57 -579.731)" fill="#a7bcd2"/><path d="M765.633,582.289,761,579.77a3.024,3.024,0,0,1,.654.118l4.633,2.519a3.018,3.018,0,0,0-.656-.118" transform="translate(-760.303 -579.762)" fill="#a3b9cf"/><path d="M768.832,582.87l-4.632-2.52a2.922,2.922,0,0,1,.581.24l4.631,2.52a2.89,2.89,0,0,0-.579-.24" transform="translate(-762.853 -580.224)" fill="#9fb5cd"/></g></g></g><g transform="translate(39.783 51.108)" style="isolation:isolate"><g clip-path="url(#e)"><g transform="translate(-0.394)" style="isolation:isolate"><path d="M672.141,705.137l-4.631-2.52a4.31,4.31,0,0,0,1.461-1.118l4.633,2.52a4.322,4.322,0,0,1-1.463,1.118" transform="translate(-667.51 -695.593)" fill="#2b8ec4"/><path d="M679.333,700.3l-4.633-2.52a4.909,4.909,0,0,0,.406-.542,4.6,4.6,0,0,0,.232-.406l4.633,2.519a4.482,4.482,0,0,1-.234.406,5.185,5.185,0,0,1-.406.542" transform="translate(-673.239 -691.872)" fill="#2b8dc2"/><path d="M682.453,696.365l-4.633-2.519a4.516,4.516,0,0,0,.3-.756l4.632,2.52a4.758,4.758,0,0,1-.3.756" transform="translate(-675.725 -688.892)" fill="#2b8bc1"/><path d="M683.942,692.7l-4.633-2.52a4.357,4.357,0,0,0,.159-.742l4.633,2.519a4.812,4.812,0,0,1-.159.742" transform="translate(-676.912 -685.984)" fill="#2b8abf"/><path d="M684.723,688.693l-4.632-2.519a4.1,4.1,0,0,0,.024-.833l4.633,2.519a4.408,4.408,0,0,1-.024.833" transform="translate(-677.534 -682.717)" fill="#2b88be"/><path d="M679.255,677.573l-4.632-2.519a3.371,3.371,0,0,0-1.422-2.623l4.632,2.519a3.371,3.371,0,0,1,1.422,2.623" transform="translate(-672.044 -672.43)" fill="#2b87bc"/></g></g></g><g transform="translate(36.433 57.929)" style="isolation:isolate"><g clip-path="url(#f)"><g transform="translate(-0.01 -0.914)" style="isolation:isolate"><path d="M657.541,709.4l-4.63-2.52a3,3,0,0,0,.581.24l4.633,2.519a3.018,3.018,0,0,1-.583-.24" transform="translate(-652.91 -705.787)" fill="#2b88be"/><path d="M660.4,710.579l-4.633-2.519a2.99,2.99,0,0,0,.656.118l4.631,2.511a3.126,3.126,0,0,1-.654-.118" transform="translate(-655.189 -706.727)" fill="#2b8abf"/><path d="M663.63,711.056,659,708.544a3.3,3.3,0,0,0,.693-.024h.031l4.633,2.52h-.033a3.3,3.3,0,0,1-.693.024" transform="translate(-657.763 -707.094)" fill="#2b8bc1"/><path d="M667.193,709.824,662.56,707.3a3.8,3.8,0,0,0,1.016-.3l4.63,2.52a3.787,3.787,0,0,1-1,.3" transform="translate(-660.599 -705.883)" fill="#2b8dc2"/><path d="M672.141,705.137l-4.631-2.52a4.31,4.31,0,0,0,1.461-1.118l4.633,2.52a4.322,4.322,0,0,1-1.463,1.118" transform="translate(-664.544 -701.5)" fill="#2b8ec4"/></g></g></g><g transform="translate(36.187 57.966)" style="isolation:isolate"><g clip-path="url(#g)"><g style="isolation:isolate"><path d="M656.618,708.842l-4.633-2.52c-.079-.045-.159-.091-.236-.142l4.63,2.519c.077.051.157.1.238.142" transform="translate(-651.75 -706.18)" fill="#9bb2cb"/></g></g></g><g transform="translate(40.586 24.29)" style="isolation:isolate"><g clip-path="url(#h)"><g transform="translate(0 -0.207)" style="isolation:isolate"><path d="M678.031,550.643l-4.63-2.52a4.276,4.276,0,0,0,.325-.343l4.632,2.519a4.333,4.333,0,0,1-.327.343" transform="translate(-673.4 -546.081)" fill="#2b8ec4"/><path d="M679.633,546.594,675,544.075a4.639,4.639,0,0,0,.63-.945l4.632,2.519a4.718,4.718,0,0,1-.63.945" transform="translate(-674.675 -542.376)" fill="#2b8dc2"/><path d="M682.732,542.693l-4.632-2.519a4.539,4.539,0,0,0,.3-.754l4.63,2.52a4.751,4.751,0,0,1-.3.754" transform="translate(-677.145 -539.42)" fill="#2b8bc1"/></g></g></g><path d="M551.557,619.74a.051.051,0,0,1-.014.035C551.529,619.787,551.553,619.75,551.557,619.74Z" transform="translate(-535.713 -579.337)" fill="#97afc9"/><path d="M625.663,624.737l-4.633-2.52,27.728-3.9,4.63,2.519Z" transform="translate(-591.085 -578.206)" fill="#2b8fc5"/><path d="M636.255,647.117l-4.631-2.519-10.594-7.1,4.633,2.52Z" transform="translate(-591.085 -593.489)" fill="#2c85bb"/><g transform="translate(41.317 20.558)" style="isolation:isolate"><g clip-path="url(#i)"><g transform="translate(-0.955 -0.827)" style="isolation:isolate"><path d="M682.732,542.693l-4.632-2.519a4.539,4.539,0,0,0,.3-.754l4.63,2.52a4.751,4.751,0,0,1-.3.754" transform="translate(-676.922 -535.068)" fill="#2b8bc1"/><path d="M684.22,539.007l-4.63-2.52a4.639,4.639,0,0,0,.16-.748l4.631,2.517a4.612,4.612,0,0,1-.161.75" transform="translate(-678.109 -532.135)" fill="#2b8abf"/><path d="M685.01,534.975l-4.631-2.517a4.431,4.431,0,0,0,.024-.837l4.631,2.515a4.108,4.108,0,0,1-.024.835" transform="translate(-678.738 -528.853)" fill="#2b88be"/><path d="M678.6,523.283l-4.631-2.519a3.561,3.561,0,0,0-.711-1.94A3.011,3.011,0,0,0,672.3,518l4.633,2.519a3.049,3.049,0,0,1,.955.823,3.577,3.577,0,0,1,.709,1.94" transform="translate(-672.3 -518)" fill="#2b87bc"/></g></g></g><g transform="translate(40.364 19.743)" style="isolation:isolate"><g clip-path="url(#j)"><g transform="translate(-0.002 -0.012)" style="isolation:isolate"><path d="M678.6,523.283l-4.631-2.519a3.561,3.561,0,0,0-.711-1.94A3.011,3.011,0,0,0,672.3,518l4.633,2.519a3.049,3.049,0,0,1,.955.823,3.577,3.577,0,0,1,.709,1.94" transform="translate(-672.3 -518)" fill="#2b87bc"/></g></g></g><path d="M625.733,586.317,621.1,583.8l27.728-3.9,4.633,2.517Z" transform="translate(-591.141 -547.592)" fill="#b1c3d7"/><path d="M625.733,562.069,621.1,559.55l10.626-10.08,4.631,2.52Z" transform="translate(-591.141 -523.345)" fill="#2b93c9"/><g transform="translate(36.256 19.363)" style="isolation:isolate"><g clip-path="url(#k)"><g transform="translate(0 0.013)" style="isolation:isolate"><path d="M656.723,521.18l-4.633-2.52a4.3,4.3,0,0,1,1.142-.78l4.63,2.52a4.253,4.253,0,0,0-1.14.78" transform="translate(-652.09 -517.549)" fill="#b0c2d6"/><path d="M662.341,519.228l-4.63-2.52a3.725,3.725,0,0,1,1-.3l4.63,2.519a3.72,3.72,0,0,0-1,.3" transform="translate(-656.568 -516.378)" fill="#abbfd4"/><path d="M667.241,518.8l-4.63-2.52h.03a3.379,3.379,0,0,1,.7-.024l4.632,2.52a3.327,3.327,0,0,0-.7.024h-.032" transform="translate(-660.473 -516.25)" fill="#a7bcd2"/><path d="M670.833,518.779,666.2,516.26a3.118,3.118,0,0,1,.662.118l4.63,2.519a3.118,3.118,0,0,0-.66-.118" transform="translate(-663.333 -516.258)" fill="#a3b9cf"/><path d="M674.08,519.359l-4.63-2.519a3.127,3.127,0,0,1,.579.236l4.633,2.519a3.158,3.158,0,0,0-.581-.24" transform="translate(-665.923 -516.72)" fill="#9fb5cd"/></g></g></g><path d="M606.786,627.366l-4.632-2.52-4.813-3.226,4.631,2.52Z" transform="translate(-572.208 -580.835)" fill="#97afc9"/><path d="M601.971,606.179l-4.631-2.52,4.828-4.58L606.8,601.6Z" transform="translate(-572.208 -562.875)" fill="#bcccdd"/><path d="M586.855,614.02l-4.63-2.519-3.854-2.581,4.633,2.52Z" transform="translate(-557.093 -570.716)" fill="#97afc9"/><g transform="translate(21.042 38.06)" style="isolation:isolate"><g clip-path="url(#l)"><g style="isolation:isolate"><path d="M582.078,610.874l-4.633-2.519c-.077-.053-.154-.1-.236-.144l4.63,2.52c.081.045.161.091.238.144" transform="translate(-577.21 -608.21)" fill="#9bb2cb"/></g></g></g><path d="M580.858,658.1l-4.63-2.52-19.258-12.9,4.63,2.52Z" transform="translate(-540.041 -597.616)" fill="#97afc9"/><g transform="translate(15.493 42.181)" style="isolation:isolate"><g clip-path="url(#m)"><g transform="translate(0.002 0)" style="isolation:isolate"><path d="M556,634.889l-4.625-2.52a3.308,3.308,0,0,1-1.12-1.343,3.832,3.832,0,0,1-.315-1.286l4.633,2.519a3.735,3.735,0,0,0,.315,1.286,3.285,3.285,0,0,0,1.117,1.343" transform="translate(-549.934 -629.486)" fill="#9bb2cb"/><path d="M554.543,631.264l-4.633-2.52v-.254l4.63,2.52a2.106,2.106,0,0,0,.01.254" transform="translate(-549.91 -628.49)" fill="#9fb5cd"/></g></g></g><path d="M561.584,645.183l-4.63-2.519,0,0,4.633,2.521Z" transform="translate(-540.025 -597.6)" fill="#97afc9"/><g transform="translate(16.911 45.043)" style="isolation:isolate"><g clip-path="url(#n)"><g style="isolation:isolate"><path d="M561.527,645.116,556.9,642.6l-.024-.018,4.62,2.524a.123.123,0,0,0,.026.016" transform="translate(-556.88 -642.58)" fill="#9bb2cb"/></g></g></g><g transform="translate(19.113 37.694)" style="isolation:isolate"><g clip-path="url(#o)"><g transform="translate(0 0.006)" style="isolation:isolate"><path d="M572.35,608.987l-4.63-2.52a3.322,3.322,0,0,1,.693-.026l4.63,2.52a3.3,3.3,0,0,0-.693.026" transform="translate(-567.72 -606.433)" fill="#a7bcd2"/><path d="M575.76,608.969l-4.63-2.519a3.108,3.108,0,0,1,.654.118l4.631,2.519a3.122,3.122,0,0,0-.654-.118" transform="translate(-570.437 -606.447)" fill="#a3b9cf"/><path d="M578.98,609.526,574.35,607a3,3,0,0,1,.581.24l4.63,2.526a2.937,2.937,0,0,0-.581-.24" transform="translate(-573.003 -606.885)" fill="#9fb5cd"/></g></g></g><g transform="translate(15.487 42.181)" style="isolation:isolate"><g clip-path="url(#p)"><g transform="translate(0.008 0)" style="isolation:isolate"><path d="M554.858,633.569l-4.633-2.52a3.808,3.808,0,0,1-.315-1.28l4.632,2.517a3.713,3.713,0,0,0,.315,1.282" transform="translate(-549.91 -629.51)" fill="#9bb2cb"/><path d="M554.543,631.267l-4.633-2.517v-.26l4.63,2.52a2.156,2.156,0,0,0,.01.258" transform="translate(-549.91 -628.49)" fill="#9fb5cd"/></g></g></g><g transform="translate(16.807 37.733)" style="isolation:isolate"><g clip-path="url(#q)"><g transform="translate(0 -0.006)" style="isolation:isolate"><path d="M561,611.518,556.37,609a4.839,4.839,0,0,1,1.313-.918l4.631,2.52a4.895,4.895,0,0,0-1.313.918" transform="translate(-556.37 -607.773)" fill="#b0c2d6"/><path d="M567.461,609.386l-4.63-2.526a3.518,3.518,0,0,1,.961-.291l4.633,2.519a3.455,3.455,0,0,0-.963.291" transform="translate(-561.517 -606.57)" fill="#abbfd4"/><path d="M572.193,609.12l-4.632-2.52h.032l4.631,2.52h-.031" transform="translate(-565.286 -606.594)" fill="#a7bcd2"/></g></g></g><path d="M561.661,542.57l-4.631-2.519,19.315-18.321,4.63,2.518Z" transform="translate(-540.089 -501.241)" fill="#bcccdd"/><g transform="translate(15.856 38.942)" style="isolation:isolate"><g clip-path="url(#r)"><g transform="translate(-0.012 -0.008)" style="isolation:isolate"><path d="M556.26,621.072l-4.63-2.52c.043-.1.089-.2.14-.3l4.63,2.519c-.051.1-.1.2-.14.3" transform="translate(-551.63 -617.084)" fill="#a7bcd2"/><path d="M556.951,617.1l-4.63-2.52a4.623,4.623,0,0,1,.622-.937l4.633,2.52a4.631,4.631,0,0,0-.624.937" transform="translate(-552.18 -613.41)" fill="#abbfd4"/><path d="M560.013,615.251l-4.633-2.52c.065-.075.132-.15.2-.222l4.628,2.538c-.069.071-.136.146-.2.222" transform="translate(-554.618 -612.51)" fill="#b0c2d6"/></g></g></g><g transform="translate(15.487 38.942)" style="isolation:isolate"><g clip-path="url(#s)"><g transform="translate(0 -0.002)" style="isolation:isolate"><path d="M554.5,628.691l-4.631-2.52a5.024,5.024,0,0,1,.039-.591l4.63,2.523a5.042,5.042,0,0,0-.039.591" transform="translate(-549.87 -622.931)" fill="#9fb5cd"/><path d="M554.691,625.235l-4.631-2.519a4.373,4.373,0,0,1,.157-.736l4.63,2.52a4.383,4.383,0,0,0-.156.735" transform="translate(-550.021 -620.062)" fill="#a3b9cf"/><path d="M555.461,621.555l-4.631-2.511c.031-.106.067-.2.108-.313a4.553,4.553,0,0,1,.2-.441l4.631,2.52a4.557,4.557,0,0,0-.2.441c-.041.1-.075.2-.108.313" transform="translate(-550.635 -617.122)" fill="#a7bcd2"/><path d="M556.951,617.057l-4.63-2.52a4.346,4.346,0,0,1,.229-.406,4.693,4.693,0,0,1,.4-.54l4.633,2.521a4.7,4.7,0,0,0-.406.54,4.417,4.417,0,0,0-.23.406" transform="translate(-551.822 -613.377)" fill="#abbfd4"/><path d="M560.033,615.275l-4.633-2.519c.065-.073.13-.146.2-.215l4.624,2.532c-.067.069-.132.142-.2.215" transform="translate(-554.276 -612.54)" fill="#b0c2d6"/></g></g></g><g transform="translate(15.799 40.496)" style="isolation:isolate"><g clip-path="url(#t)"><g style="isolation:isolate"><path d="M556.041,622.736l-4.63-2.519V620.2l4.63,2.52v.016" transform="translate(-551.41 -620.2)" fill="#a7bcd2"/></g></g></g><path d="M574.182,632.369v-.012l.018-.047-.031.075Z" transform="translate(-553.746 -589.353)" fill="#97afc9"/><g transform="translate(15.806 40.437)" style="isolation:isolate"><g clip-path="url(#u)"><g style="isolation:isolate"><path d="M556.07,622.488l-4.63-2.519v-.012c0-.014.014-.03.02-.047l4.63,2.52-.018.047v.012" transform="translate(-551.44 -619.91)" fill="#a7bcd2"/></g></g></g><g transform="translate(15.83 40.403)" style="isolation:isolate"><g clip-path="url(#v)"><g style="isolation:isolate"><path d="M556.191,622.294l-4.631-2.519c0-.012.01-.024.014-.035l4.631,2.52a.039.039,0,0,1-.014.034" transform="translate(-551.56 -619.74)" fill="#a7bcd2"/></g></g></g><g transform="translate(15.844 40.403)" style="isolation:isolate"><g clip-path="url(#w)"><g transform="translate(0 -0.303)" style="isolation:isolate"><path d="M556.26,621.072l-4.63-2.52c.043-.1.089-.2.14-.3l4.63,2.519c-.051.1-.1.2-.14.3" transform="translate(-551.63 -618.25)" fill="#a7bcd2"/></g></g></g><g transform="translate(15.846 40.372)" style="isolation:isolate"><g clip-path="url(#x)"><g transform="translate(-0.002 -0.272)" style="isolation:isolate"><path d="M556.26,621.072l-4.63-2.52c.043-.1.089-.2.14-.3l4.63,2.519c-.051.1-.1.2-.14.3" transform="translate(-551.63 -618.25)" fill="#a7bcd2"/></g></g></g><path d="M574.42,626.411a4.732,4.732,0,0,1,.963-1.461,4.682,4.682,0,0,0-.593.756A4.762,4.762,0,0,0,574.42,626.411Z" transform="translate(-553.945 -583.489)" fill="#f3f6f9"/><path d="M529.963,444.648l43.262-11.378-.116,62.458-51.165,11.648q-1.713.39-3.432.632a38.593,38.593,0,0,1-10.521.055l-11.561-1.558.116-62.458,14.891,1.9a47.584,47.584,0,0,0,12.62-.11A52.2,52.2,0,0,0,529.963,444.648Zm24.144,28.74a4.493,4.493,0,0,0,3.625-4.413,3.188,3.188,0,0,0-3.611-3.393l-27.728,3.9,10.624-10.08a4.3,4.3,0,0,0,.733-5.567,3.048,3.048,0,0,0-2.893-1.156,3.992,3.992,0,0,0-2.17,1.085l-19.314,18.323a4.935,4.935,0,0,0-1.13,1.674,4.6,4.6,0,0,0-.325,1.625,3.909,3.909,0,0,0,.325,1.625,3.138,3.138,0,0,0,.987,1.25l19.388,13a3.08,3.08,0,0,0,2.166.475,4.208,4.208,0,0,0,2.9-1.969,3.915,3.915,0,0,0-.713-5.364l-10.594-7.119,27.73-3.9" transform="translate(-491.801 -430.755)" fill="#29a7dd"/><path d="M652.688,592.159a3.191,3.191,0,0,1,3.611,3.4,4.491,4.491,0,0,1-3.625,4.413l-27.73,3.9-4.813-3.231,4.83-4.582Z" transform="translate(-590.368 -557.334)" fill="#f3f6f9"/><path d="M643.3,434.782l-4.632-2.517,43.264-11.374,4.63,2.519Z" transform="translate(-605.141 -420.89)" fill="#2b90c6"/><path d="M572.985,642.43a3.8,3.8,0,0,1-.325-1.54A3.823,3.823,0,0,0,572.985,642.43Z" transform="translate(-552.543 -596.19)" fill="#f3f6f9"/><path d="M576.319,618.859a3.072,3.072,0,0,1,2.166.475l3.86,2.58,4.815,3.227,10.592,7.093a3.916,3.916,0,0,1,.713,5.364,4.2,4.2,0,0,1-2.9,1.969,3.083,3.083,0,0,1-2.166-.475l-19.258-12.9a3.285,3.285,0,0,1-1.117-1.343,3.823,3.823,0,0,1-.325-1.54,4.609,4.609,0,0,1,.3-1.64,4.882,4.882,0,0,1,.425-.843,4.684,4.684,0,0,1,.593-.756A4.083,4.083,0,0,1,576.319,618.859Z" transform="translate(-552.575 -578.607)" fill="#f3f6f9"/><path d="M604.2,529.8a4.3,4.3,0,0,1-.734,5.567L592.84,545.449l-4.83,4.578-3.86-2.58a3.072,3.072,0,0,0-2.158-.467,4,4,0,0,0-2.172,1.081l19.317-18.323a3.981,3.981,0,0,1,2.168-1.085A3.048,3.048,0,0,1,604.2,529.8Z" transform="translate(-558.248 -506.727)" fill="#f3f6f9"/><g transform="translate(15.007 11.374)" style="isolation:isolate"><g clip-path="url(#y)"><g style="isolation:isolate"><path d="M552.141,485.78l-4.63-2.52q1.28.163,2.572.254l4.639,2.517q-1.292-.087-2.574-.252" transform="translate(-547.51 -481.962)" fill="#2b8abf"/><path d="M564.833,485.346l-4.633-2.517a48.088,48.088,0,0,0,10.047-.364l.449-.065,4.63,2.52-.449.065a47.931,47.931,0,0,1-10.045.362" transform="translate(-557.622 -481.276)" fill="#2b8bc1"/><path d="M616.46,480.513l-4.63-2.519a51.735,51.735,0,0,0,5.453-1.124l4.633,2.519a51.68,51.68,0,0,1-5.456,1.124" transform="translate(-598.761 -476.87)" fill="#2b8dc2"/></g></g></g><path d="M478.281,538.908l-4.631-2.519.116-62.458,4.63,2.519Z" transform="translate(-473.65 -463.153)" fill="#2b8bc1"/><path d="M478.85,476.449l-4.63-2.519,14.891,1.9,4.63,2.517Z" transform="translate(-474.104 -463.153)" fill="#2b8bc1"/></g></svg>