<svg xmlns="http://www.w3.org/2000/svg" xmlns:xlink="http://www.w3.org/1999/xlink" width="187.434" height="191.113" viewBox="0 0 187.434 191.113"><defs><clipPath id="a"><path d="M764.454,617.521c-.11-.028-.217-.063-.323-.1l-4.631,2.52a2.773,2.773,0,0,0,.323.1Z" transform="translate(-759.5 -617.42)" fill="none"/></clipPath><clipPath id="b"><path d="M762.121,617.92c-.041,0-.083.045-.12.065l-.252.136-.264.144-.406.222-1.044.567-2.544,1.385a3.866,3.866,0,0,0,.406.081l4.632-2.52A3.876,3.876,0,0,1,762.121,617.92Z" transform="translate(-757.49 -617.92)" fill="none"/></clipPath><clipPath id="c"><path d="M765.723,584.592a3.388,3.388,0,0,1,1.676-3.062l-4.63,2.52a3.373,3.373,0,0,0-1.678,3.062,4.581,4.581,0,0,0,2.9,4.23l4.63-2.52A4.582,4.582,0,0,1,765.723,584.592Z" transform="translate(-761.09 -581.53)" fill="none"/></clipPath><clipPath id="d"><path d="M762.2,580.088l-4.631,2.52a3.1,3.1,0,0,1,1.932-.333l4.633-2.517A3.087,3.087,0,0,0,762.2,580.088Z" transform="translate(-757.57 -579.72)" fill="none"/></clipPath><clipPath id="e"><path d="M674.817,677.794a3.917,3.917,0,0,1,.713-5.364l-4.639,2.519a3.916,3.916,0,0,0-.713,5.364,4.5,4.5,0,0,0,1.467,1.451l4.641-2.513A4.5,4.5,0,0,1,674.817,677.794Z" transform="translate(-669.45 -672.43)" fill="none"/></clipPath><clipPath id="f"><path d="M657.593,706l-4.633,2.519a3.839,3.839,0,0,0,1.422.518,3.109,3.109,0,0,0,1.93-.333l4.63-2.519a3.106,3.106,0,0,1-1.93.333A3.826,3.826,0,0,1,657.593,706Z" transform="translate(-652.96 -706)" fill="none"/></clipPath><clipPath id="g"><path d="M651.75,708.842l4.633-2.52c.079-.045.159-.091.236-.142l-4.63,2.519C651.911,708.75,651.831,708.8,651.75,708.842Z" transform="translate(-651.75 -706.18)" fill="none"/></clipPath><clipPath id="h"><path d="M678.031,540.44l-4.631,2.52a4.7,4.7,0,0,0,1.191,1.829l4.63-2.519A4.7,4.7,0,0,1,678.031,540.44Z" transform="translate(-673.4 -540.44)" fill="none"/></clipPath><clipPath id="i"><path d="M682.35,522.07h0l-4.631,2.519h0a3.964,3.964,0,0,0-.457,3.732l4.63-2.519A3.957,3.957,0,0,1,682.35,522.07Z" transform="translate(-677 -522.07)" fill="none"/></clipPath><clipPath id="j"><path d="M676.938,518.873a3.026,3.026,0,0,1,.953-.813l-4.631,2.517a3.349,3.349,0,0,0-.358.23l4.614-2.515L672.9,520.8h0l4.622-2.513L672.9,520.8a3.134,3.134,0,0,0-.593.589l2.314-1.26,1.2-.652.288-.158.285-.154A3.226,3.226,0,0,0,676.938,518.873Z" transform="translate(-672.31 -518.06)" fill="none"/></clipPath><clipPath id="k"><path d="M656.723,516.556l-4.633,2.519a3.128,3.128,0,0,1,1.938-.333,3.981,3.981,0,0,1,2.168,1.085l4.633-2.519a3.993,3.993,0,0,0-2.168-1.085A3.127,3.127,0,0,0,656.723,516.556Z" transform="translate(-652.09 -516.188)" fill="none"/></clipPath><clipPath id="l"><path d="M581.843,608.354c.077-.053.154-.1.236-.144l-4.63,2.52c-.081.045-.161.091-.238.144C578.6,610.118,580.5,609.183,581.843,608.354Z" transform="translate(-577.21 -608.21)" fill="none"/></clipPath><clipPath id="m"><path d="M549.9,633.893l4.624-2.52a3.308,3.308,0,0,0,1.12-1.343,3.862,3.862,0,0,0,.323-1.54l-4.63,2.519a3.823,3.823,0,0,1-.325,1.54A3.285,3.285,0,0,1,549.9,633.893Z" transform="translate(-549.9 -628.49)" fill="none"/></clipPath><clipPath id="n"><path d="M556.88,645.116,561.5,642.6l.024-.018-4.62,2.524a.115.115,0,0,1-.026.012Z" transform="translate(-556.88 -642.58)" fill="none"/></clipPath><clipPath id="o"><path d="M572.35,606.773l-4.63,2.519a3.1,3.1,0,0,1,1.928-.331l4.63-2.519a3.1,3.1,0,0,0-1.928.331Z" transform="translate(-567.72 -606.406)" fill="none"/></clipPath><clipPath id="p"><path d="M554.826,628.49l-4.631,2.52a3.8,3.8,0,0,1-.325,1.54l4.633-2.519A3.8,3.8,0,0,0,554.826,628.49Z" transform="translate(-549.87 -628.49)" fill="none"/></clipPath><clipPath id="q"><path d="M558.676,610.339l4.63-2.519A4.215,4.215,0,0,0,561,606.6l-4.63,2.52A4.086,4.086,0,0,1,558.676,610.339Z" transform="translate(-556.37 -606.6)" fill="none"/></clipPath><clipPath id="r"><path d="M556.321,612.55l-4.631,2.53a4.714,4.714,0,0,1,.951,1.422l4.631-2.519A4.72,4.72,0,0,0,556.321,612.55Z" transform="translate(-551.69 -612.55)" fill="none"/></clipPath><clipPath id="s"><path d="M551.191,618.308l4.631-2.519a4.521,4.521,0,0,0-.3-1.64,4.616,4.616,0,0,0-.425-.843,4.681,4.681,0,0,0-.593-.756l-4.63,2.53a4.693,4.693,0,0,1,.593.756,4.892,4.892,0,0,1,.425.843,4.609,4.609,0,0,1,.3,1.63Z" transform="translate(-549.87 -612.55)" fill="none"/></clipPath><clipPath id="t"><path d="M551.41,622.736l4.63-2.519V620.2l-4.63,2.52Z" transform="translate(-551.41 -620.2)" fill="none"/></clipPath><clipPath id="u"><path d="M551.46,622.488l4.63-2.519v-.012c0-.014-.014-.03-.02-.047l-4.63,2.52.018.047Z" transform="translate(-551.44 -619.91)" fill="none"/></clipPath><clipPath id="v"><path d="M551.574,622.294l4.631-2.519c0-.012-.01-.024-.014-.035l-4.631,2.52C551.564,622.27,551.568,622.282,551.574,622.294Z" transform="translate(-551.56 -619.74)" fill="none"/></clipPath><clipPath id="w"><path d="M556.26,619.74h0l-4.63,2.52h0Z" transform="translate(-551.63 -619.74)" fill="none"/></clipPath><clipPath id="x"><path d="M556.271,619.59l-4.63,2.522.01.024,4.63-2.519Z" transform="translate(-551.64 -619.59)" fill="none"/></clipPath><clipPath id="y"><path d="M566.024,480.688l4.63-2.519a47.505,47.505,0,0,1-12.62-.11,51.618,51.618,0,0,1-5.892-1.189l-4.633,2.519a52.2,52.2,0,0,0,5.9,1.189A47.586,47.586,0,0,0,566.024,480.688Z" transform="translate(-547.51 -476.87)" fill="none"/></clipPath></defs><g transform="translate(2.773 52.813)" style="isolation:isolate"><path d="M425.32,719.918,515.811,772.5l91.083-52.586L516.4,667.33Z" transform="translate(-425.32 -667.33)" fill="#dab171"/><path d="M873.14,926.15l.094,33.125,90.491,52.588-.094-33.127Z" transform="translate(-873.14 -873.562)" fill="#c2965a"/><path d="M424.86,978.736l.094,33.127,91.082-52.588-.094-33.125Z" transform="translate(-334.369 -873.562)" fill="#e8c17e"/></g><g transform="translate(0 41.437)" style="isolation:isolate"><path d="M410.25,665.618l93.4,54.278,94.01-54.278-93.4-54.278Z" transform="translate(-410.25 -611.34)" fill="#80bc39"/><path d="M872.82,878.48l.022,8.282,93.4,54.276-.024-8.28Z" transform="translate(-872.82 -824.202)" fill="#64a42a"/><path d="M410.13,932.758l.024,8.28,94.01-54.276-.024-8.282Z" transform="translate(-316.731 -824.202)" fill="#64a42a"/></g><path d="M583.67,1130.185l.01,4.249,5.24-3.023-.012-4.251Z" transform="translate(-436.747 -980.917)" fill="#b0824c"/><path d="M478.25,1025.019l.014,4.691,4.084-2.357-.014-4.693Z" transform="translate(-308.755 -897.65)" fill="#c5985f"/><path d="M739.67,1178.449l.014,4.692,4.084-2.357-.014-4.693Z" transform="translate(-623.291 -1019.906)" fill="#c5985f"/><path d="M754.64,1198.229l.012,4.693,4.086-2.359-.014-4.693Z" transform="translate(-641.303 -1035.667)" fill="#b0824c"/><path d="M952.024,1228.19l-.014,4.253,5.242,3.025.012-4.251Z" transform="translate(-879.931 -1061.42)" fill="#b0824c"/><path d="M1047.622,1140.27l-.012,4.693,4.084,2.357.012-4.691Z" transform="translate(-993.797 -991.364)" fill="#8f622e"/><path d="M1273.765,1000.74l-.014,4.693,4.084,2.357.014-4.693Z" transform="translate(-1265.887 -880.184)" fill="#8f622e"/><path d="M1264.675,1024.26l-.014,4.693,4.084,2.357.014-4.691Z" transform="translate(-1254.95 -898.925)" fill="#b0824c"/><g transform="translate(89.272)" style="isolation:isolate"><path d="M849.52,422.187l.264,93.082,4.324-2.5-.264-93.082Z" transform="translate(-845.223 -417.193)" fill="#7d7d7d"/><path d="M875.1,422.187l-4.3-2.5.264,93.082,4.3,2.5Z" transform="translate(-870.8 -417.193)" fill="#6b6b6b"/><path d="M859.441,409.9l-4.3-2.5-4.326,2.5,4.3,2.5Z" transform="translate(-850.82 -407.4)" fill="#747474"/></g><g transform="translate(93.104 2.741)" style="isolation:isolate"><g transform="translate(18.39 39.931)" style="isolation:isolate"><g transform="translate(0)" clip-path="url(#a)"><g transform="translate(-0.321 -0.128)" style="isolation:isolate"><path d="M758.676,619.614l4.633-2.519a3.616,3.616,0,0,1-1.016-.3l-4.633,2.519a3.659,3.659,0,0,0,1.016.3" transform="translate(-757.66 -616.79)" fill="#2b8dc2"/></g></g></g><g transform="translate(18.713 40.033)" style="isolation:isolate"><g transform="translate(0)" clip-path="url(#b)"><g transform="translate(-0.644 -0.23)" style="isolation:isolate"><path d="M757.532,620.839l4.633-2.52h-.033l-4.632,2.52h.032" transform="translate(-756.484 -618.009)" fill="#2b8bc1"/><path d="M758.676,619.614l4.633-2.519a3.616,3.616,0,0,1-1.016-.3l-4.633,2.519a3.659,3.659,0,0,0,1.016.3" transform="translate(-757.66 -616.79)" fill="#2b8dc2"/></g></g></g><g transform="translate(15.493 32.639)" style="isolation:isolate"><g clip-path="url(#c)"><g transform="translate(-0.004 0)" style="isolation:isolate"><path d="M758.676,619.614l4.633-2.519a3.616,3.616,0,0,1-1.016-.3l-4.633,2.519a3.659,3.659,0,0,0,1.016.3" transform="translate(-755.08 -609.626)" fill="#2b8dc2"/><path d="M764.075,614.935l4.633-2.519a4.36,4.36,0,0,1-1.457-1.115l-4.63,2.519a4.35,4.35,0,0,0,1.455,1.115" transform="translate(-761.486 -605.251)" fill="#2b8ec4"/><path d="M770.424,610.1l4.631-2.519a4.817,4.817,0,0,1-.632-.949l-4.632,2.513a4.788,4.788,0,0,0,.634.951" transform="translate(-769.29 -601.53)" fill="#2b8dc2"/><path d="M773.2,606.163l4.633-2.518a4.777,4.777,0,0,1-.3-.756l-4.63,2.519a4.685,4.685,0,0,0,.3.754" transform="translate(-772.703 -598.55)" fill="#2b8bc1"/><path d="M774.559,602.521l4.63-2.52a4.588,4.588,0,0,1-.156-.742l-4.633,2.519a4.578,4.578,0,0,0,.159.742" transform="translate(-774.362 -595.658)" fill="#2b8abf"/><path d="M775.233,598.489l4.632-2.519a3.98,3.98,0,0,1-.034-.54v-.3l-4.63,2.519v.3a4.277,4.277,0,0,0,.035.54" transform="translate(-775.2 -592.367)" fill="#2b88be"/><path d="M767.09,586.813l4.631-2.519a3.333,3.333,0,0,1,1.668-2.763l-4.631,2.52a3.333,3.333,0,0,0-1.668,2.763" transform="translate(-767.076 -581.53)" fill="#2b87bc"/></g></g></g><g transform="translate(17.171 32.272)" style="isolation:isolate"><g transform="translate(0)" clip-path="url(#d)"><g transform="translate(0.006 0.002)" style="isolation:isolate"><path d="M758.267,582.283l4.633-2.518a3.259,3.259,0,0,0-.7-.026l-4.63,2.519a3.37,3.37,0,0,1,.7.024" transform="translate(-756.341 -579.731)" fill="#a7bcd2"/><path d="M761.654,582.289l4.633-2.519a3.024,3.024,0,0,0-.654.118L761,582.407a3.018,3.018,0,0,1,.656-.118" transform="translate(-760.425 -579.762)" fill="#a3b9cf"/><path d="M764.779,582.87l4.632-2.52a2.922,2.922,0,0,0-.581.24l-4.631,2.52a2.89,2.89,0,0,1,.579-.24" transform="translate(-764.2 -580.224)" fill="#9fb5cd"/></g></g></g><g transform="translate(34.804 51.108)" style="isolation:isolate"><g transform="translate(0)" clip-path="url(#e)"><g transform="translate(0.008)" style="isolation:isolate"><path d="M668.973,705.137l4.631-2.52a4.31,4.31,0,0,1-1.461-1.118l-4.633,2.52a4.322,4.322,0,0,0,1.463,1.118" transform="translate(-666.381 -695.593)" fill="#2b8ec4"/><path d="M675.338,700.3l4.633-2.52a4.909,4.909,0,0,1-.406-.542,4.6,4.6,0,0,1-.232-.406l-4.633,2.519a4.482,4.482,0,0,0,.234.406,5.185,5.185,0,0,0,.406.542" transform="translate(-674.209 -691.872)" fill="#2b8dc2"/><path d="M678.123,696.365l4.633-2.519a4.516,4.516,0,0,1-.3-.756l-4.632,2.52a4.758,4.758,0,0,0,.3.756" transform="translate(-677.628 -688.892)" fill="#2b8bc1"/><path d="M679.468,692.7l4.633-2.52a4.357,4.357,0,0,1-.159-.742l-4.633,2.519a4.812,4.812,0,0,0,.159.742" transform="translate(-679.276 -685.984)" fill="#2b8abf"/><path d="M680.124,688.693l4.632-2.519a4.1,4.1,0,0,1-.024-.833l-4.633,2.519a4.408,4.408,0,0,0,.024.833" transform="translate(-680.09 -682.717)" fill="#2b88be"/><path d="M673.2,677.573l4.632-2.519a3.371,3.371,0,0,1,1.422-2.623l-4.632,2.519a3.371,3.371,0,0,0-1.422,2.623" transform="translate(-673.188 -672.43)" fill="#2b87bc"/></g></g></g><g transform="translate(37.008 57.929)" style="isolation:isolate"><g transform="translate(0)" clip-path="url(#f)"><g transform="translate(-1.067 -0.914)" style="isolation:isolate"><path d="M653.493,709.4l4.63-2.52a3,3,0,0,1-.581.24l-4.633,2.519a3.018,3.018,0,0,0,.583-.24" transform="translate(-649.064 -705.787)" fill="#2b88be"/><path d="M656.424,710.579l4.633-2.519a2.99,2.99,0,0,1-.656.118l-4.631,2.511a3.126,3.126,0,0,0,.654-.118" transform="translate(-652.578 -706.727)" fill="#2b8abf"/><path d="M659.725,711.056l4.63-2.511a3.3,3.3,0,0,1-.693-.024h-.031L659,711.04h.033a3.3,3.3,0,0,0,.693.024" transform="translate(-656.533 -707.094)" fill="#2b8bc1"/><path d="M663.574,709.824l4.633-2.519a3.8,3.8,0,0,1-1.016-.3l-4.63,2.52a3.787,3.787,0,0,0,1,.3" transform="translate(-661.107 -705.883)" fill="#2b8dc2"/><path d="M668.973,705.137l4.631-2.52a4.31,4.31,0,0,1-1.461-1.118l-4.633,2.52a4.322,4.322,0,0,0,1.463,1.118" transform="translate(-667.51 -701.5)" fill="#2b8ec4"/></g></g></g><g transform="translate(40.368 57.966)" style="isolation:isolate"><g transform="translate(0)" clip-path="url(#g)"><g style="isolation:isolate"><path d="M651.75,708.842l4.633-2.52c.079-.045.159-.091.236-.142l-4.63,2.519c-.077.051-.157.1-.238.142" transform="translate(-651.75 -706.18)" fill="#9bb2cb"/></g></g></g><g transform="translate(35.016 24.29)" style="isolation:isolate"><g transform="translate(0)" clip-path="url(#h)"><g transform="translate(-0.067 -0.207)" style="isolation:isolate"><path d="M673.727,550.643l4.63-2.52a4.276,4.276,0,0,1-.325-.343L673.4,550.3a4.333,4.333,0,0,0,.327.343" transform="translate(-672.469 -546.081)" fill="#2b8ec4"/><path d="M675.63,546.594l4.633-2.52a4.639,4.639,0,0,1-.63-.945L675,545.649a4.718,4.718,0,0,0,.63.945" transform="translate(-674.699 -542.376)" fill="#2b8dc2"/><path d="M678.4,542.693l4.632-2.519a4.539,4.539,0,0,1-.3-.754l-4.63,2.52a4.751,4.751,0,0,0,.3.754" transform="translate(-678.1 -539.42)" fill="#2b8bc1"/></g></g></g><path d="M551.538,619.74a.051.051,0,0,0,.014.035C551.567,619.787,551.542,619.75,551.538,619.74Z" transform="translate(-485.959 -579.337)" fill="#97afc9"/><path d="M648.756,624.737l4.633-2.52-27.728-3.9-4.63,2.519Z" transform="translate(-601.911 -578.206)" fill="#2b8fc5"/><path d="M621.03,647.117l4.631-2.519,10.594-7.1-4.633,2.52Z" transform="translate(-584.776 -593.489)" fill="#2c85bb"/><g transform="translate(34.756 20.558)" style="isolation:isolate"><g transform="translate(0)" clip-path="url(#i)"><g transform="translate(-0.003 -0.827)" style="isolation:isolate"><path d="M678.4,542.693l4.632-2.519a4.539,4.539,0,0,1-.3-.754l-4.63,2.52a4.751,4.751,0,0,0,.3.754" transform="translate(-677.904 -535.068)" fill="#2b8bc1"/><path d="M679.751,539.007l4.63-2.52a4.639,4.639,0,0,1-.16-.748l-4.631,2.517a4.612,4.612,0,0,0,.161.75" transform="translate(-679.555 -532.135)" fill="#2b8abf"/><path d="M680.415,534.974l4.631-2.517a4.431,4.431,0,0,1-.024-.837l-4.631,2.515a4.108,4.108,0,0,0,.024.835" transform="translate(-680.38 -528.853)" fill="#2b88be"/><path d="M672.3,523.283l4.631-2.519a3.561,3.561,0,0,1,.711-1.94A3.011,3.011,0,0,1,678.6,518l-4.633,2.519a3.049,3.049,0,0,0-.955.823,3.577,3.577,0,0,0-.709,1.94" transform="translate(-672.289 -518)" fill="#2b87bc"/></g></g></g><g transform="translate(35.478 19.743)" style="isolation:isolate"><g transform="translate(0)" clip-path="url(#j)"><g transform="translate(-0.713 -0.012)" style="isolation:isolate"><path d="M672.3,523.283l4.631-2.519a3.561,3.561,0,0,1,.711-1.94A3.011,3.011,0,0,1,678.6,518l-4.633,2.519a3.049,3.049,0,0,0-.955.823,3.577,3.577,0,0,0-.709,1.94" transform="translate(-672.3 -518)" fill="#2b87bc"/></g></g></g><path d="M648.828,586.317l4.633-2.52-27.728-3.9-4.633,2.517Z" transform="translate(-601.997 -547.592)" fill="#b1c3d7"/><path d="M631.724,562.069l4.633-2.519-10.626-10.08-4.631,2.52Z" transform="translate(-584.893 -523.345)" fill="#2b93c9"/><g transform="translate(36.429 19.363)" style="isolation:isolate"><g transform="translate(0)" clip-path="url(#k)"><g transform="translate(0 0.013)" style="isolation:isolate"><path d="M653.23,521.18l4.633-2.52a4.3,4.3,0,0,0-1.142-.78l-4.63,2.52a4.253,4.253,0,0,1,1.14.78" transform="translate(-649.123 -517.549)" fill="#b0c2d6"/><path d="M658.706,519.228l4.63-2.52a3.725,3.725,0,0,0-1-.3l-4.63,2.519a3.72,3.72,0,0,1,1,.3" transform="translate(-655.739 -516.378)" fill="#abbfd4"/><path d="M663.339,518.8l4.63-2.52h-.03a3.379,3.379,0,0,0-.7-.024l-4.632,2.52a3.327,3.327,0,0,1,.7.024h.032" transform="translate(-661.368 -516.25)" fill="#a7bcd2"/><path d="M666.86,518.779l4.633-2.519a3.118,3.118,0,0,0-.662.118L666.2,518.9a3.118,3.118,0,0,1,.66-.118" transform="translate(-665.621 -516.258)" fill="#a3b9cf"/><path d="M670.031,519.359l4.63-2.519a3.127,3.127,0,0,0-.579.236L669.45,519.6a3.158,3.158,0,0,1,.581-.24" transform="translate(-669.45 -516.72)" fill="#9fb5cd"/></g></g></g><path d="M597.34,627.366l4.632-2.52,4.813-3.226-4.631,2.52Z" transform="translate(-550.494 -580.835)" fill="#97afc9"/><path d="M602.17,606.179l4.631-2.52-4.828-4.58L597.34,601.6Z" transform="translate(-550.509 -562.875)" fill="#bcccdd"/><path d="M578.37,614.02,583,611.5l3.854-2.581-4.633,2.52Z" transform="translate(-526.709 -570.716)" fill="#97afc9"/><g transform="translate(55.514 38.06)" style="isolation:isolate"><g transform="translate(0)" clip-path="url(#l)"><g style="isolation:isolate"><path d="M577.21,610.874l4.633-2.519c.077-.053.154-.1.236-.144l-4.63,2.52c-.081.045-.161.091-.238.144" transform="translate(-577.21 -608.21)" fill="#9bb2cb"/></g></g></g><path d="M556.97,658.1l4.63-2.52,19.258-12.9-4.63,2.52Z" transform="translate(-516.364 -597.616)" fill="#97afc9"/><g transform="translate(59.864 42.181)" style="isolation:isolate"><g transform="translate(0)" clip-path="url(#m)"><g transform="translate(-0.006 0)" style="isolation:isolate"><path d="M549.946,634.889l4.625-2.52a3.308,3.308,0,0,0,1.12-1.343,3.832,3.832,0,0,0,.315-1.286l-4.633,2.519a3.735,3.735,0,0,1-.315,1.286,3.285,3.285,0,0,1-1.117,1.343" transform="translate(-549.94 -629.486)" fill="#9bb2cb"/><path d="M549.918,631.264l4.633-2.52v-.254l-4.63,2.52a2.106,2.106,0,0,1-.01.254" transform="translate(-548.48 -628.49)" fill="#9fb5cd"/></g></g></g><path d="M556.95,645.183l4.63-2.519,0,0-4.633,2.521Z" transform="translate(-497.086 -597.6)" fill="#97afc9"/><g transform="translate(59.866 45.043)" style="isolation:isolate"><g clip-path="url(#n)"><g style="isolation:isolate"><path d="M556.88,645.116,561.5,642.6l.024-.018-4.62,2.524a.123.123,0,0,1-.026.016" transform="translate(-556.88 -642.58)" fill="#9bb2cb"/></g></g></g><g transform="translate(55.751 37.694)" style="isolation:isolate"><g transform="translate(0)" clip-path="url(#o)"><g transform="translate(0 0.006)" style="isolation:isolate"><path d="M568.413,608.987l4.63-2.52a3.322,3.322,0,0,0-.693-.026l-4.63,2.52a3.3,3.3,0,0,1,.693.026" transform="translate(-566.485 -606.433)" fill="#a7bcd2"/><path d="M571.784,608.969l4.63-2.519a3.108,3.108,0,0,0-.654.118l-4.631,2.519a3.122,3.122,0,0,1,.654-.118" transform="translate(-570.549 -606.447)" fill="#a3b9cf"/><path d="M574.931,609.526l4.63-2.526a3,3,0,0,0-.581.24l-4.63,2.526a2.937,2.937,0,0,1,.581-.24" transform="translate(-574.35 -606.885)" fill="#9fb5cd"/></g></g></g><g transform="translate(60.981 42.181)" style="isolation:isolate"><g transform="translate(0)" clip-path="url(#p)"><g transform="translate(0 0)" style="isolation:isolate"><path d="M549.91,633.569l4.633-2.52a3.808,3.808,0,0,0,.315-1.28l-4.632,2.517a3.713,3.713,0,0,1-.315,1.282" transform="translate(-549.91 -629.51)" fill="#9bb2cb"/><path d="M549.918,631.267l4.633-2.517v-.26l-4.63,2.52a2.156,2.156,0,0,1-.01.258" transform="translate(-549.603 -628.49)" fill="#9fb5cd"/></g></g></g><g transform="translate(57.679 37.733)" style="isolation:isolate"><g transform="translate(0)" clip-path="url(#q)"><g transform="translate(0 -0.006)" style="isolation:isolate"><path d="M557.683,611.518l4.63-2.52A4.839,4.839,0,0,0,561,608.08l-4.631,2.52a4.895,4.895,0,0,1,1.313.918" transform="translate(-555.377 -607.773)" fill="#b0c2d6"/><path d="M563.793,609.386l4.63-2.526a3.518,3.518,0,0,0-.961-.291l-4.633,2.519a3.455,3.455,0,0,1,.963.291" transform="translate(-562.8 -606.57)" fill="#abbfd4"/><path d="M567.591,609.12l4.632-2.52h-.032l-4.631,2.52h.031" transform="translate(-567.56 -606.594)" fill="#a7bcd2"/></g></g></g><path d="M576.344,542.57l4.631-2.519L561.66,521.73l-4.63,2.518Z" transform="translate(-516.493 -501.241)" fill="#bcccdd"/><g transform="translate(59.985 38.942)" style="isolation:isolate"><g transform="translate(0)" clip-path="url(#r)"><g transform="translate(0 -0.008)" style="isolation:isolate"><path d="M551.77,621.072l4.63-2.52c-.043-.1-.089-.2-.14-.3l-4.63,2.519c.051.1.1.2.14.3" transform="translate(-550.807 -617.084)" fill="#a7bcd2"/><path d="M552.944,617.1l4.63-2.52a4.623,4.623,0,0,0-.622-.937l-4.633,2.52a4.631,4.631,0,0,1,.624.937" transform="translate(-552.121 -613.41)" fill="#abbfd4"/><path d="M555.579,615.251l4.633-2.52c-.065-.075-.132-.15-.2-.222l-4.628,2.538c.069.071.136.146.2.222" transform="translate(-555.38 -612.51)" fill="#b0c2d6"/></g></g></g><g transform="translate(59.986 38.942)" style="isolation:isolate"><g clip-path="url(#s)"><g transform="translate(0 -0.002)" style="isolation:isolate"><path d="M549.909,628.691l4.631-2.52a5.024,5.024,0,0,0-.039-.591l-4.63,2.523a5.042,5.042,0,0,1,.039.591" transform="translate(-548.588 -622.931)" fill="#9fb5cd"/><path d="M550.216,625.235l4.631-2.519a4.373,4.373,0,0,0-.157-.736l-4.63,2.52a4.383,4.383,0,0,1,.156.735" transform="translate(-548.934 -620.062)" fill="#a3b9cf"/><path d="M551.141,621.555l4.631-2.511c-.031-.106-.067-.2-.108-.313a4.553,4.553,0,0,0-.2-.441l-4.631,2.52a4.557,4.557,0,0,1,.2.441c.041.1.075.2.108.313" transform="translate(-550.015 -617.122)" fill="#a7bcd2"/><path d="M552.948,617.057l4.63-2.52a4.346,4.346,0,0,0-.229-.406,4.693,4.693,0,0,0-.4-.54l-4.633,2.521a4.7,4.7,0,0,1,.406.54,4.417,4.417,0,0,1,.23.406" transform="translate(-552.125 -613.377)" fill="#abbfd4"/><path d="M555.6,615.275l4.633-2.519c-.065-.073-.13-.146-.2-.215l-4.624,2.532c.067.069.132.142.2.215" transform="translate(-555.4 -612.54)" fill="#b0c2d6"/></g></g></g><g transform="translate(60.993 40.496)" style="isolation:isolate"><g transform="translate(0)" clip-path="url(#t)"><g style="isolation:isolate"><path d="M551.41,622.736l4.63-2.519V620.2l-4.63,2.52v.016" transform="translate(-551.41 -620.2)" fill="#a7bcd2"/></g></g></g><path d="M574.188,632.369v-.012l-.018-.047.031.075Z" transform="translate(-513.201 -589.353)" fill="#97afc9"/><g transform="translate(60.967 40.437)" style="isolation:isolate"><g transform="translate(0)" clip-path="url(#u)"><g style="isolation:isolate"><path d="M551.46,622.488l4.63-2.519v-.012c0-.014-.014-.03-.02-.047l-4.63,2.52.018.047v.012" transform="translate(-551.44 -619.91)" fill="#a7bcd2"/></g></g></g><g transform="translate(60.949 40.403)" style="isolation:isolate"><g transform="translate(0)" clip-path="url(#v)"><g style="isolation:isolate"><path d="M551.574,622.294l4.631-2.519c0-.012-.01-.024-.014-.035l-4.631,2.52a.039.039,0,0,0,.014.034" transform="translate(-551.56 -619.74)" fill="#a7bcd2"/></g></g></g><g transform="translate(60.949 40.403)" style="isolation:isolate"><g transform="translate(0)" clip-path="url(#w)"><g transform="translate(-0.14 -0.303)" style="isolation:isolate"><path d="M551.77,621.072l4.63-2.52c-.043-.1-.089-.2-.14-.3l-4.63,2.519c.051.1.1.2.14.3" transform="translate(-551.63 -618.25)" fill="#a7bcd2"/></g></g></g><g transform="translate(60.936 40.372)" style="isolation:isolate"><g transform="translate(0)" clip-path="url(#x)"><g transform="translate(-0.128 -0.272)" style="isolation:isolate"><path d="M551.77,621.072l4.63-2.52c-.043-.1-.089-.2-.14-.3l-4.63,2.519c.051.1.1.2.14.3" transform="translate(-551.63 -618.25)" fill="#a7bcd2"/></g></g></g><path d="M575.383,626.411a4.732,4.732,0,0,0-.963-1.461,4.682,4.682,0,0,1,.593.756A4.762,4.762,0,0,1,575.383,626.411Z" transform="translate(-514.435 -583.489)" fill="#f3f6f9"/><path d="M539.692,444.648,496.43,433.27l.116,62.458,51.165,11.648q1.713.39,3.432.632a38.593,38.593,0,0,0,10.521.055l11.561-1.558-.116-62.458-14.891,1.9a47.584,47.584,0,0,1-12.62-.11A52.2,52.2,0,0,1,539.692,444.648Zm-24.144,28.74a4.493,4.493,0,0,1-3.625-4.413,3.188,3.188,0,0,1,3.611-3.393l27.728,3.9L532.637,459.4a4.3,4.3,0,0,1-.733-5.567,3.048,3.048,0,0,1,2.893-1.156,3.992,3.992,0,0,1,2.17,1.085l19.314,18.323a4.935,4.935,0,0,1,1.13,1.674,4.6,4.6,0,0,1,.325,1.625,3.909,3.909,0,0,1-.325,1.625,3.138,3.138,0,0,1-.987,1.25l-19.388,13a3.08,3.08,0,0,1-2.166.475,4.208,4.208,0,0,1-2.9-1.969,3.915,3.915,0,0,1,.713-5.364l10.594-7.119-27.73-3.9" transform="translate(-496.43 -430.755)" fill="#29a7dd"/><path d="M623.741,592.159a3.191,3.191,0,0,0-3.611,3.4,4.491,4.491,0,0,0,3.625,4.413l27.73,3.9,4.813-3.231-4.83-4.582Z" transform="translate(-604.637 -557.334)" fill="#f3f6f9"/><path d="M681.932,434.782l4.632-2.517L643.3,420.89l-4.63,2.519Z" transform="translate(-638.67 -420.89)" fill="#2b90c6"/><path d="M572.66,642.43a3.8,3.8,0,0,0,.325-1.54A3.823,3.823,0,0,1,572.66,642.43Z" transform="translate(-511.679 -596.19)" fill="#f3f6f9"/><path d="M595.576,618.859a3.072,3.072,0,0,0-2.166.475l-3.86,2.58-4.815,3.227-10.592,7.093a3.916,3.916,0,0,0-.713,5.364,4.2,4.2,0,0,0,2.9,1.969,3.083,3.083,0,0,0,2.166-.475l19.258-12.9a3.285,3.285,0,0,0,1.117-1.343,3.823,3.823,0,0,0,.325-1.54,4.609,4.609,0,0,0-.3-1.64,4.882,4.882,0,0,0-.425-.843,4.684,4.684,0,0,0-.593-.756A4.083,4.083,0,0,0,595.576,618.859Z" transform="translate(-537.896 -578.607)" fill="#f3f6f9"/><path d="M580.54,529.8a4.3,4.3,0,0,0,.734,5.567L591.9,545.449l4.83,4.578,3.86-2.58a3.072,3.072,0,0,1,2.158-.467,4,4,0,0,1,2.172,1.081L585.6,529.737a3.981,3.981,0,0,0-2.168-1.085A3.048,3.048,0,0,0,580.54,529.8Z" transform="translate(-545.066 -506.727)" fill="#f3f6f9"/><g transform="translate(43.272 11.374)" style="isolation:isolate"><g clip-path="url(#y)"><g transform="translate(-0.01)" style="isolation:isolate"><path d="M550.09,485.78l4.63-2.52q-1.28.163-2.572.254l-4.639,2.517q1.292-.087,2.574-.252" transform="translate(-531.566 -481.962)" fill="#2b8abf"/><path d="M570.694,485.346l4.633-2.517a48.088,48.088,0,0,1-10.047-.364l-.449-.065-4.63,2.52.449.065a47.931,47.931,0,0,0,10.045.362" transform="translate(-554.75 -481.276)" fill="#2b8bc1"/><path d="M617.286,480.513l4.63-2.519a51.735,51.735,0,0,1-5.453-1.124l-4.633,2.519a51.68,51.68,0,0,0,5.456,1.124" transform="translate(-611.83 -476.87)" fill="#2b8dc2"/></g></g></g><path d="M473.766,538.908l4.631-2.519-.116-62.458-4.63,2.519Z" transform="translate(-396.973 -463.153)" fill="#2b8bc1"/><path d="M489.111,476.449l4.63-2.519-14.891,1.9-4.63,2.517Z" transform="translate(-412.434 -463.153)" fill="#2b8bc1"/></g></svg>