<svg xmlns="http://www.w3.org/2000/svg" viewBox="0 0 1009.21 464"><defs><style>.cls-1,.cls-2,.cls-3{fill:none;stroke-miterlimit:10;}.cls-1{stroke:#754c24;}.cls-1,.cls-3{stroke-linecap:round;}.cls-1,.cls-2{stroke-width:12px;}.cls-2{stroke:#b3b3b3;}.cls-3{stroke:#603813;stroke-width:2px;}</style></defs><g id="レイヤー_2" data-name="レイヤー 2"><g id="レイヤー_1-2" data-name="レイヤー 1"><line class="cls-1" x1="18.59" y1="414.77" x2="18.59" y2="6"/><line class="cls-1" x1="990.03" y1="418.05" x2="990.03" y2="9.28"/><path class="cls-2" d="M12.84,458s-19.22-47,6.78-47,0,47,0,47Z"/><path class="cls-2" d="M984.88,458s-19.22-47,6.78-47,0,47,0,47Z"/><line class="cls-1" x1="22.78" y1="426" x2="17.78" y2="408"/><line class="cls-1" x1="8.78" y1="412" x2="16.25" y2="426"/><line class="cls-1" x1="28.78" y1="410" x2="22.78" y2="426"/><line class="cls-3" x1="12.51" y1="408" x2="18.78" y2="429"/><line class="cls-3" x1="24.02" y1="408.04" x2="18.84" y2="429.33"/><line class="cls-1" x1="994.3" y1="425.85" x2="989.3" y2="407.85"/><line class="cls-1" x1="980.3" y1="411.85" x2="987.76" y2="425.85"/><line class="cls-1" x1="1000.3" y1="409.85" x2="994.3" y2="425.85"/><line class="cls-3" x1="984.03" y1="407.85" x2="990.3" y2="428.85"/><line class="cls-3" x1="995.54" y1="407.89" x2="990.36" y2="429.18"/></g></g></svg>