<svg xmlns="http://www.w3.org/2000/svg" viewBox="0 0 1190 611"><defs><style>.cls-1{fill:#8c6239;}.cls-2{fill:#f7a93f;}.cls-3{fill:#d6802c;}</style></defs><g id="レイヤー_2" data-name="レイヤー 2"><g id="レイヤー_1-2" data-name="レイヤー 1"><path class="cls-1" d="M46.72,21,36.47,1.17,8,16.65A15.31,15.31,0,0,0,0,30.1V604.53A6.46,6.46,0,0,0,6.47,611H1175a15,15,0,0,0,14.84-13h.15V21Z"/><path class="cls-2" d="M1112,440.15c31,3.4,78-5.15,78-5.15V25.69A25.69,25.69,0,0,0,1164.31,0H39.84A5.83,5.83,0,0,0,34,5.84V141H67.24s45.37,8.61,52.76,12.92c-20,3-26.38,14.93-52.76,14.57S34,172,34,172V566.16A5.83,5.83,0,0,0,39.84,572H1164.31A25.69,25.69,0,0,0,1190,546.31V463.43s-16.91,3.08-55-6.3c-6.29-1.55-12.69-2.79-18.93-3.78a332.07,332.07,0,0,0-50.07-3.86S1081,436.76,1112,440.15Z"/><path class="cls-3" d="M34,42.91S403.41,25,403.2,0H39.84S36.59.3,35,2.51C34,4,34,5.13,34,9.57Z"/><path class="cls-3" d="M34,69.15s86.63,36.15,191.31,0S487,59.68,487,59.68,288.74,67.36,227,90c-60,22-193,23.32-193,23.32"/><path class="cls-3" d="M1190,66.25S1010,107,870,100c166,16,309,9.39,320,28.69Z"/><path class="cls-3" d="M34,476.29S277,510.05,487,495C393,516,291,528,291,528s42.37,13,104.18,44H39.84S34,573,34,562.5Z"/><path class="cls-3" d="M33.65,339.13s86.62-54.12,191.31,0S486.65,353.3,486.65,353.3s-198.26-11.49-260-45.38c-60-32.94-193-34.92-193-34.92"/><path class="cls-3" d="M1190,404s-94,28.95-160,26.47S856,460,856,460l210-10.51L1190,435Z"/></g></g></svg>