<svg xmlns="http://www.w3.org/2000/svg" viewBox="0 0 303 202"><defs><style>.cls-1{fill:#f2ebcb;}</style></defs><g id="レイヤー_2" data-name="レイヤー 2"><g id="レイヤー_1-2" data-name="レイヤー 1"><path id="前面オブジェクトで型抜き_3-2" data-name="前面オブジェクトで型抜き 3-2" class="cls-1" d="M277.26,202H202l-3-19-3,19H142.05L140,189,138,202h-6.79L128,182l-3.16,20H8a8,8,0,0,1-8-8V175.26l17.5-2.76L0,169.74V154.16l10.5-1.66L0,150.84V32.16L10.5,30.5,0,28.84V8A8,8,0,0,1,8,0H19.53L23,22,26.47,0h6.16L35,15,37.37,0h71.9L111,11l1.74-11h62.89L178,15l2.37-15H270.9L275,26l4.11-26H295a8,8,0,0,1,8,8V38.68L291.5,40.5,303,42.32V84.21L288.5,86.5,303,88.79v90.79l-18.5,2.92,18.5,2.92V194a8,8,0,0,1-8,8H280.74L279,191Z"/></g></g></svg>